<svg version="1.1" xmlns="http://www.w3.org/2000/svg" xmlns:xlink="http://www.w3.org/1999/xlink" width="40.32984" height="34.68121" viewBox="0,0,40.32984,34.68121"><g transform="translate(-219.83508,-162.6594)"><g data-paper-data="{&quot;isPaintingLayer&quot;:true}" fill-rule="nonzero" stroke="none" stroke-width="0" stroke-linecap="butt" stroke-linejoin="miter" stroke-miterlimit="10" stroke-dasharray="" stroke-dashoffset="0" style="mix-blend-mode: normal"><path d="M257.82708,169.85592c1.55606,1.21273 1.87668,2.05636 2.24824,3.40907c0.61488,2.23854 -2.13617,4.30068 -2.13542,6.47374c0.00039,1.1315 2.09876,3.04042 2.05035,3.91018c-0.05107,0.91753 -2.26563,0.78956 -2.93588,1.75752c-0.48892,0.70609 -2.94855,0.09967 -3.57598,0.73544c-1.42096,1.43984 -1.88141,4.54919 -3.3456,5.99303c-1.39088,1.37155 -3.77586,1.11433 -5.47679,1.15774c-0.61288,0.01564 -1.81811,-1.47095 -2.53739,-1.31683c-1.00674,0.21571 -1.54991,2.02469 -2.48416,1.39556c-1.06578,-0.71769 -2.7035,-0.24073 -3.56306,-1.59163c-0.71011,-1.11601 -0.67169,-4.08193 -1.26538,-4.66784c-1.96447,-1.9387 -2.77365,-0.34077 -3.0946,-2.97158c-0.23882,-1.95759 -1.49537,-4.36378 -0.91867,-7.31581c0.60371,-3.09031 3.0831,-6.7206 4.73669,-8.39617c2.40432,-2.43628 7.10415,-4.37568 10.13951,-4.76959c3.72639,-0.48358 5.80138,1.10387 8.53288,3.79954c0.50065,0.49408 2.73557,1.70423 3.62526,2.39761z" data-paper-data="{&quot;index&quot;:null}" fill="#b76796"/><path d="M251.12331,185.97813c0.22984,1.95939 -0.14541,2.78018 -0.84722,3.99481c-1.1614,2.01005 -4.56154,1.50046 -6.10772,3.0274c-0.80509,0.79507 -0.68983,3.62948 -1.34289,4.20596c-0.68894,0.60814 -2.15341,-1.05798 -3.31317,-0.85511c-0.846,0.14798 -2.14207,-2.02865 -3.03531,-2.02865c-2.02294,0 -4.55948,1.85634 -6.61563,1.82838c-1.9532,-0.02656 -3.44539,-1.90477 -4.67106,-3.08493c-0.44164,-0.42524 -0.23012,-2.32728 -0.84506,-2.73098c-0.86069,-0.56503 -2.52978,0.31903 -2.73824,-0.78785c-0.2378,-1.2627 -1.72766,-2.09335 -1.36992,-3.65405c0.29554,-1.28934 2.43355,-3.34533 2.43355,-4.17945c0,-2.76002 -1.70573,-2.21353 -0.05866,-4.28992c1.22558,-1.54504 2.05558,-4.12957 4.5618,-5.79267c2.62362,-1.741 6.9491,-2.52628 9.30322,-2.52628c3.42289,0 8.10456,1.98286 10.51703,3.86662c2.9617,2.31262 3.28933,4.90457 3.28933,8.74224c0,0.7034 0.70853,3.14416 0.83994,4.26445z" data-paper-data="{&quot;index&quot;:null}" fill="#b76796"/><path d="M254.15002,180.47373c0,4.37486 -0.37349,7.32962 -3.74976,9.96595c-2.75017,2.14745 -8.08715,4.40786 -11.98917,4.40786c-2.68364,0 -7.61459,-0.8952 -10.60545,-2.8799c-2.85704,-1.8959 -3.80321,-4.84219 -5.20035,-6.60351c-1.87761,-2.36703 0.06687,-1.74405 0.06687,-4.8904c0,-0.95087 -2.43728,-3.29466 -2.77419,-4.76447c-0.40781,-1.77917 1.29059,-2.72608 1.56168,-4.16553c0.23764,-1.26182 2.14036,-0.25401 3.12153,-0.89813c0.70101,-0.46021 0.45989,-2.62849 0.96334,-3.11325c1.39724,-1.34536 3.0983,-3.48647 5.3249,-3.51675c2.34395,-0.03188 5.23556,2.08432 7.54166,2.08432c1.01827,0 2.49576,-2.48131 3.46018,-2.31261c1.32209,0.23126 2.99156,-1.66808 3.77693,-0.97481c0.74448,0.65717 0.61309,3.88834 1.53087,4.7947c1.76261,1.74067 5.63869,1.15976 6.96266,3.45117c0.80005,1.38465 1.22782,2.32034 0.96581,4.554c-0.14981,1.2771 -0.95752,4.05952 -0.95752,4.86138z" fill="#cc7eac"/></g></g></svg>