<svg version="1.1" xmlns="http://www.w3.org/2000/svg" xmlns:xlink="http://www.w3.org/1999/xlink" width="57.91564" height="49.92168" viewBox="0,0,57.91564,49.92168"><g transform="translate(-211.04217,-155.03916)"><g data-paper-data="{&quot;isPaintingLayer&quot;:true}" fill-rule="nonzero" stroke="none" stroke-width="0" stroke-linecap="butt" stroke-linejoin="miter" stroke-miterlimit="10" stroke-dasharray="" stroke-dashoffset="0" style="mix-blend-mode: normal"><path d="M218.72129,158.7909c0.34549,2.36005 -1.08191,4.52321 -3.1882,4.83156c-2.10629,0.30835 -4.09387,-1.35489 -4.43936,-3.71494c-0.34549,-2.36005 1.08191,-4.52321 3.18821,-4.83156c2.10629,-0.30835 4.09386,1.35488 4.43936,3.71493z" fill="#583eed"/><path d="M218.15953,160.49726c0.39371,2.68936 -0.71004,5.07782 -2.46528,5.33478c-1.75525,0.25696 -3.49731,-1.7149 -3.89101,-4.40426c-0.39371,-2.68936 0.71004,-5.07782 2.46528,-5.33478c1.75525,-0.25696 3.49731,1.7149 3.89101,4.40426z" fill="#3f2ca6"/><path d="M222.87087,176.04877c1.96852,13.4468 1.21653,24.69128 -1.67962,25.11526c-2.89615,0.42398 -6.83975,-10.1331 -8.80828,-23.5799c-1.12171,-7.66233 -1.36008,-14.60957 -0.82172,-19.24715c0.18418,-1.58659 2.21651,0.68397 3.44692,0.3038c1.48463,-0.45872 2.2446,-3.26802 2.98008,-1.61615c1.90018,4.26773 3.72998,11.15056 4.88262,19.02414z" fill="#583eed"/><path d="M228.06401,169.14651c0.05544,1.85311 -1.25296,3.30918 -2.92242,3.25222c-1.66945,-0.05696 -3.06774,-1.60538 -3.12318,-3.45849c-0.05544,-1.85311 1.25296,-3.30919 2.92241,-3.25222c1.66945,0.05696 3.06775,1.60538 3.12319,3.45849z" fill="#7c66f3"/><path d="M227.47161,170.37353c0.06318,2.11168 -1.0134,3.78507 -2.40461,3.7376c-1.39121,-0.04747 -2.57021,-1.79781 -2.63339,-3.90949c-0.06318,-2.11168 1.01339,-3.78507 2.4046,-3.7376c1.39121,0.04747 2.57022,1.79782 2.6334,3.9095z" fill="#3f2ca6"/><path d="M229.73439,182.92304c0.3159,10.55843 -1.28888,19.05423 -3.58436,18.97591c-2.29549,-0.07832 -4.41243,-8.70111 -4.72832,-19.25954c-0.18,-6.01647 0.26363,-11.36321 1.10334,-14.83542c0.28727,-1.18791 1.66544,0.83125 2.65878,0.71152c1.19858,-0.14446 2.04537,-2.18751 2.4689,-0.82184c1.09423,3.52832 1.89669,9.04702 2.08166,15.22936z" fill="#7c66f3"/><path d="M235.85429,166.60387c0,1.907 -1.72568,3.45293 -3.85443,3.45293c-2.12875,0 -3.85443,-1.54593 -3.85443,-3.45293c0,-1.907 1.72568,-3.45293 3.85443,-3.45293c2.12875,0 3.85443,1.54593 3.85443,3.45293z" fill="#583eed"/><path d="M235.05129,167.88868c0,2.17309 -1.43807,3.93473 -3.21203,3.93473c-1.77396,0 -3.21202,-1.76164 -3.21202,-3.93473c0,-2.17309 1.43807,-3.93473 3.21202,-3.93473c1.77396,0 3.21203,1.76164 3.21203,3.93473z" fill="#3f2ca6"/><path d="M237.46031,180.73679c0,10.86546 -2.37283,19.67365 -5.29985,19.67365c-2.92702,0 -5.29984,-8.80819 -5.29984,-19.67365c0,-6.19142 0.77045,-11.71485 1.97489,-15.3212c0.41206,-1.23379 2.09406,0.79777 3.36656,0.63952c1.53542,-0.19094 2.6943,-2.32532 3.18275,-0.93339c1.26196,3.59617 2.07549,9.25296 2.07549,15.61507z" fill="#583eed"/><path d="M243.59847,175.87795c-0.21356,1.47238 -1.71909,2.47272 -3.36267,2.23432c-1.64359,-0.2384 -2.80284,-1.62526 -2.58928,-3.09763c0.21356,-1.47238 1.71908,-2.47272 3.36267,-2.23432c1.64359,0.2384 2.80285,1.62526 2.58928,3.09763z" fill="#583eed"/><path d="M242.83459,176.78002c-0.24337,1.67783 -1.55097,2.87693 -2.92064,2.67827c-1.36966,-0.19867 -2.2827,-1.71986 -2.03933,-3.39769c0.24337,-1.67783 1.55097,-2.87693 2.92063,-2.67827c1.36966,0.19867 2.2827,1.71986 2.03933,3.39769z" fill="#3f2ca6"/><path d="M243.25571,186.96973c-1.21682,8.38915 -4.03529,14.92416 -6.29522,14.59636c-2.25993,-0.3278 -3.10554,-7.39427 -1.88872,-15.78342c0.69338,-4.78035 1.90681,-8.95867 3.24061,-11.60822c0.45631,-0.90646 1.52746,0.85046 2.52767,0.87078c1.20686,0.02453 2.34067,-1.49362 2.56191,-0.36422c0.57162,2.9179 0.56623,7.37657 -0.14626,12.28871z" fill="#583eed"/><path d="M263.24927,170.51419c-0.41335,1.86166 -2.4331,2.99678 -4.51123,2.53537c-2.07814,-0.46141 -3.42771,-2.34464 -3.01435,-4.2063c0.41335,-1.86166 2.4331,-2.99678 4.51123,-2.53537c2.07814,0.46141 3.42771,2.34464 3.01435,4.2063z" fill="#583eed"/><path d="M262.18686,171.5944c-0.47103,2.12142 -2.25675,3.52947 -3.98853,3.14496c-1.73178,-0.38451 -2.75382,-2.41598 -2.28279,-4.5374c0.47103,-2.12142 2.25675,-3.52948 3.98853,-3.14497c1.73178,0.38451 2.75382,2.41599 2.28279,4.53741z" fill="#3f2ca6"/><path d="M261.75372,184.65922c-2.35514,10.60715 -6.58078,18.69161 -9.43821,18.05717c-2.85744,-0.63444 -3.26462,-9.74756 -0.90948,-20.3547c1.34202,-6.04423 3.29139,-11.26935 5.24889,-14.52889c0.66969,-1.11515 1.87136,1.2327 3.14791,1.35403c1.5403,0.1464 3.13427,-1.68603 3.3094,-0.22132c0.45247,3.78421 0.02052,9.48285 -1.3585,15.69371z" fill="#583eed"/><path d="M268.79913,181.24638c-0.52764,1.39109 -2.21419,2.04132 -3.76703,1.45233c-1.55284,-0.58899 -2.38393,-2.19414 -1.8563,-3.58523c0.52764,-1.39109 2.21419,-2.04132 3.76703,-1.45233c1.55284,0.58899 2.38394,2.19415 1.8563,3.58523z" fill="#7c66f3"/><path d="M267.85788,181.96142c-0.60126,1.58518 -2.13769,2.47236 -3.43172,1.98153c-1.29404,-0.49083 -1.85564,-2.17377 -1.25438,-3.75895c0.60126,-1.58518 2.13768,-2.47236 3.43172,-1.98153c1.29404,0.49083 1.85564,2.17377 1.25439,3.75895z" fill="#3f2ca6"/><path d="M266.06032,192.00017c-3.00628,7.92595 -7.17424,13.69468 -9.30939,12.88483c-2.13515,-0.80985 -1.42897,-7.89162 1.57731,-15.81757c1.71305,-4.51641 3.80332,-8.33238 5.67972,-10.62983c0.64194,-0.786 1.30681,1.16133 2.27883,1.39797c1.17285,0.28554 2.60877,-0.95077 2.57995,0.19974c-0.07444,2.97243 -1.04614,7.32393 -2.80642,11.96486z" fill="#7c66f3"/><path d="M248.84471,173.33561c1.65619,0.12353 2.90909,1.42642 2.79843,2.91009c-0.11066,1.48367 -1.54296,2.58628 -3.19915,2.46275c-1.65619,-0.12353 -2.90909,-1.42641 -2.79843,-2.91008c0.11066,-1.48367 1.54296,-2.58628 3.19915,-2.46276z" data-paper-data="{&quot;index&quot;:null}" fill="#583eed"/><path d="M248.92306,173.96968c1.38016,0.10294 2.39677,1.55697 2.27067,3.24765c-0.1261,1.69069 -1.34715,2.97781 -2.72731,2.87488c-1.38016,-0.10294 -2.39678,-1.55696 -2.27068,-3.24765c0.1261,-1.69069 1.34716,-2.97782 2.72732,-2.87488z" data-paper-data="{&quot;index&quot;:null}" fill="#3f2ca6"/><path d="M246.09682,174.67247c0.46079,-1.0546 1.23856,0.67323 2.42206,0.91088c0.98084,0.19696 2.40734,-1.28602 2.65633,-0.3022c0.72779,2.87567 1.00671,7.21768 0.64743,12.03467c-0.6305,8.45345 -2.9877,15.16864 -5.26496,14.99879c-2.27725,-0.16985 -3.61222,-7.16042 -2.98172,-15.61387c0.36918,-4.9498 1.33037,-9.30363 2.52086,-12.02827z" data-paper-data="{&quot;index&quot;:null}" fill="#583eed"/><path d="M248.17437,162.61526c-0.0678,2.26684 -1.4677,4.01091 -3.12677,3.89547c-1.65906,-0.11544 -2.94903,-2.04666 -2.88122,-4.31351c0.0678,-2.26684 1.4677,-4.01091 3.12677,-3.89546c1.65906,0.11544 2.94903,2.04666 2.88123,4.3135z" fill="#7c66f3"/><path d="M247.50286,164.09897c-0.07727,2.58315 -1.26068,4.59922 -2.64324,4.50302c-1.38255,-0.0962 -2.4407,-2.26825 -2.36343,-4.85139c0.07727,-2.58315 1.26067,-4.59922 2.64323,-4.50302c1.38255,0.0962 2.4407,2.26825 2.36344,4.85139z" fill="#3f2ca6"/><path d="M248.92353,179.50211c-0.38632,12.91574 -2.54879,23.25735 -4.82999,23.09862c-2.2812,-0.15873 -3.81732,-10.75769 -3.43099,-23.67343c0.22013,-7.35972 1.01699,-13.88363 2.0839,-18.10517c0.365,-1.44427 1.60367,1.06186 2.60103,0.94276c1.20343,-0.14371 2.18251,-2.61799 2.5137,-0.93691c0.85566,4.3432 1.28856,11.11151 1.06235,18.67414z" fill="#7c66f3"/></g></g></svg>