<svg version="1.1" xmlns="http://www.w3.org/2000/svg" xmlns:xlink="http://www.w3.org/1999/xlink" width="77.73854" height="35.7601" viewBox="0,0,77.73854,35.7601"><g transform="translate(-201.13073,-162.11995)"><g data-paper-data="{&quot;isPaintingLayer&quot;:true}" fill-rule="nonzero" stroke="none" stroke-width="0" stroke-linecap="butt" stroke-linejoin="miter" stroke-miterlimit="10" stroke-dasharray="" stroke-dashoffset="0" style="mix-blend-mode: normal"><path d="M221.55145,180.46911c0,-3.38138 2.74115,-6.12253 6.12253,-6.12253c3.38138,0 6.12253,2.74115 6.12253,6.12253c0,3.38138 -2.74115,6.12253 -6.12253,6.12253c-3.38138,0 -6.12253,-2.74115 -6.12253,-6.12253z" fill="#d04f4f"/><path d="M226.90866,186.30464c0,-4.39262 2.8294,-6.68315 6.43436,-8.64432c1.64161,-0.89307 3.14075,-2.93108 5.14104,-2.93108c1.01093,0 1.22628,1.66023 2.16097,1.90371c4.97608,1.29624 9.41443,4.28971 9.41443,9.6717c0,3.72021 -4.05094,5.88254 -6.77817,8.00021c-1.95933,1.52139 -2.12452,3.57519 -4.79723,3.57519c-2.88878,0 -3.42578,-4.11946 -5.45375,-5.86937c-2.45998,-2.12268 -6.12165,-2.20189 -6.12165,-5.70603z" fill="#e06262"/><path d="M229.20461,174.44225c0,-3.16015 2.52657,-4.56964 5.12102,-5.97901c1.17928,-0.64061 1.76538,-2.3438 3.20179,-2.3438c0.72145,0 2.76077,-0.67352 3.4283,-0.50097c3.58548,0.9268 4.89451,4.94867 4.89451,8.82378c0,4.59656 -3.72625,8.32281 -8.32281,8.32281c-4.59656,0 -8.32281,-3.72625 -8.32281,-8.32281z" fill="#e06262"/><path d="M240.11036,181.80841c0,-6.02308 4.88267,-10.90575 10.90575,-10.90575c6.02308,0 10.90575,4.88267 10.90575,10.90575c0,3.82213 -3.38257,5.81107 -6.41501,8.15259c-1.74621,1.34835 -2.48112,4.09246 -4.68207,4.09246c-3.0268,0 -3.51957,-5.18296 -6.4971,-4.66433c-3.24767,0.56568 -4.21732,-4.58444 -4.21732,-7.58072z" fill="#d04f4f"/><path d="M243.17163,170.807c0,-2.51005 0.60966,-5.56623 2.9613,-6.09163c0.37084,-0.08285 1.90443,0.83008 2.30025,0.83008c0.75717,0 0.52034,0.73392 1.17086,1.02186c1.84605,0.8171 4.09069,2.09099 4.09069,4.23969c0,2.90587 -2.35567,5.26155 -5.26155,5.26155c-2.90587,0 -5.26155,-2.35567 -5.26155,-5.26155z" fill="#d04f4f"/><path d="M251.78143,182.66939c0,-6.38054 4.04751,-13.63964 9.99967,-15.04255c0.99729,-0.23506 2.41996,1.55386 3.48902,1.55386c2.48745,0 6.73093,-0.28333 8.73155,0.89097c3.99098,2.3426 4.75714,7.63557 4.75714,12.59772c0,2.85772 0.64708,5.96114 -1.19106,7.71304c-1.36713,1.303 -4.96394,1.43092 -6.67817,2.42708c-1.98922,1.15597 -3.15305,3.34857 -5.61947,3.34857c-2.5387,0 -2.29028,-3.68014 -4.64554,-3.45146c-5.26212,0.51092 -8.84315,-5.12633 -8.84315,-10.03723z" fill="#e06262"/><path d="M251.39877,170.61567c0,-1.37288 -0.55778,-3.75589 0.38273,-4.6132c0.83302,-0.75933 3.08884,-0.07436 4.30483,-0.07436c0.34669,0 0.76184,-1.57025 1.1925,-1.60425c0.92484,-0.07303 1.92122,1.41044 2.46472,1.83705c1.0933,0.85816 1.03034,2.9571 1.03034,4.45476c0,2.58887 -2.09869,4.68756 -4.68756,4.68756c-2.58887,0 -4.68756,-2.09869 -4.68756,-4.68756z" fill="#d04f4f"/><path d="M201.84457,179.32114c0,-2.82903 3.89089,-4.36392 3.8079,-6.99031c-0.07036,-2.22669 1.28572,-5.35465 2.76726,-6.22631c1.78387,-1.04953 3.92173,0.39758 6.24388,0.39758c7.07976,0 12.81904,5.73928 12.81904,12.81904c0,5.57589 -4.32531,9.74632 -9.29637,11.51032c-1.34074,0.47577 -2.0188,1.30872 -3.52267,1.30872c-1.23823,0 -3.67335,0.47783 -4.70201,0.01199c-1.66114,-0.75226 -1.80783,-2.73492 -3.43563,-3.95772c-1.88857,-1.4187 -4.52662,-2.47233 -5.26863,-4.53675c-0.48682,-1.35442 0.58723,-2.81451 0.58723,-4.33656z" fill="#d04f4f"/><path d="M217.72487,185.73066c0,-1.24924 3.0649,-1.53203 2.8159,-2.67113c-0.71388,-3.26581 1.55996,-4.31238 4.16761,-4.31238c0.45477,0 2.43002,-2.44381 2.86055,-2.3608c1.6724,0.32245 4.44161,2.10349 5.06201,4.03376c0.57441,1.78717 -0.93905,3.67496 -0.93905,5.31054c0,1.10617 -1.78782,1.57828 -2.24565,2.50778c-1.1385,2.31139 -1.98714,4.47573 -4.73785,4.47573c-0.65472,0 -1.92832,1.68109 -3.1599,1.56113c-1.1965,-0.11654 -2.35335,-2.02969 -2.86454,-2.33056c-2.06231,-1.21381 -0.95907,-3.64798 -0.95907,-6.21407z" fill="#e06262"/><path d="M210.26304,167.45874c0,-2.11336 1.71322,-3.82658 3.82658,-3.82658c2.11336,0 3.82658,1.71322 3.82658,3.82658c0,2.11336 -1.71322,3.82658 -3.82658,3.82658c-2.11336,0 -3.82658,-1.71322 -3.82658,-3.82658z" fill="#d04f4f"/><path d="M217.9162,170.13735c0,-2.6537 0.16972,-5.76495 2.1865,-7.18451c1.27579,-0.898 3.9793,-0.65997 5.65799,-0.65997c1.29522,0 4.62174,-0.45141 5.69841,0.10447c2.52467,1.3035 2.14608,4.70284 2.14608,7.74001c0,4.33239 -3.5121,7.84449 -7.84449,7.84449c-4.33239,0 -7.84449,-3.5121 -7.84449,-7.84449z" fill="#d04f4f"/></g></g></svg>