<svg version="1.1" xmlns="http://www.w3.org/2000/svg" xmlns:xlink="http://www.w3.org/1999/xlink" width="59.61392" height="54.10181" viewBox="0,0,59.61392,54.10181"><g transform="translate(-221.6064,-155.28849)"><g data-paper-data="{&quot;isPaintingLayer&quot;:true}" fill-rule="nonzero" stroke="none" stroke-width="0" stroke-linecap="butt" stroke-linejoin="miter" stroke-miterlimit="10" stroke-dasharray="" stroke-dashoffset="0" style="mix-blend-mode: normal"><path d="M242.65649,180.3212c0,12.77246 -1.35883,22.80538 -4.81804,22.80538c-3.45921,0 -3.85443,-10.19352 -3.85443,-22.96598c0,-6.86969 -2.42489,-12.37216 -2.94043,-16.43616c-0.44298,-3.49198 0.85996,-6.04802 2.45862,-6.04802c1.21481,0 3.34777,1.05694 4.77057,3.19004c2.62868,3.94098 4.3837,11.16773 4.3837,19.45474z" fill="#ffc551"/><path d="M244.05526,166.53978c0.85645,-1.83161 2.14037,-2.73916 2.87161,-2.73916c0.9623,0 1.74659,2.19477 1.47995,5.19318c-0.31033,3.48958 -1.76997,8.21431 -1.76997,14.11302c0,10.96717 -0.2379,19.71991 -2.32015,19.71991c-2.08225,0 -2.90018,-8.61484 -2.90018,-19.582c0,-7.1157 1.05642,-13.321 2.63874,-16.70495z" data-paper-data="{&quot;index&quot;:null}" fill="#ecb23e"/><path d="M255.90417,180.80841c-2.80385,13.64034 -6.83759,24.33608 -9.00962,23.88961c-2.17203,-0.44647 -1.65984,-11.86609 1.14401,-25.50643c2.80385,-13.64034 6.83759,-24.33608 9.00962,-23.88961c2.17203,0.44647 1.65984,11.86609 -1.14401,25.50643z" fill="#ecb23e"/><path d="M234.27568,184.9317c3.89632,10.2517 6.19234,18.59513 4.24593,19.33489c-1.94641,0.73976 -5.27838,-7.35747 -9.1747,-17.60917c-2.09564,-5.5139 -5.13862,-9.41183 -6.66845,-12.56352c-1.3145,-2.70808 -1.36112,-5.0383 -0.46159,-5.38018c0.68354,-0.25979 2.20613,0.13241 3.65742,1.54026c2.68131,2.60104 5.87338,8.02622 8.40138,14.67771z" data-paper-data="{&quot;index&quot;:null}" fill="#ecb23e"/><path d="M260.17025,185c0,-8.28701 1.75502,-15.51376 4.3837,-19.45474c1.4228,-2.1331 3.55576,-3.19004 4.77057,-3.19004c1.59866,0 2.9016,2.55604 2.45862,6.04802c-0.51554,4.064 -2.94043,9.56647 -2.94043,16.43616c0,12.77246 -0.39522,22.96598 -3.85443,22.96598c-3.45921,0 -4.81804,-10.03292 -4.81804,-22.80538z" data-paper-data="{&quot;index&quot;:null}" fill="#ffc551"/><path d="M261.41021,187.92353c0,10.96716 -0.81793,19.582 -2.90018,19.582c-2.08225,0 -2.32015,-8.75274 -2.32015,-19.71991c0,-5.89871 -1.45964,-10.62344 -1.76997,-14.11302c-0.26664,-2.99841 0.51765,-5.19318 1.47995,-5.19318c0.73124,0 2.01516,0.90755 2.87161,2.73916c1.58232,3.38395 2.63874,9.58925 2.63874,16.70495z" data-paper-data="{&quot;index&quot;:null}" fill="#ecb23e"/><path d="M245.77855,159.98078c2.17203,-0.44647 6.20577,10.24927 9.00962,23.88961c2.80385,13.64034 3.31604,25.05996 1.14401,25.50643c-2.17203,0.44647 -6.20577,-10.24927 -9.00962,-23.88961c-2.80385,-13.64034 -3.31604,-25.05996 -1.14401,-25.50643z" data-paper-data="{&quot;index&quot;:null}" fill="#ffc551"/><path d="M268.55106,189.61049c2.528,-6.65149 5.72007,-12.07667 8.40138,-14.67771c1.45129,-1.40785 2.97388,-1.80005 3.65742,-1.54026c0.89953,0.34188 0.85291,2.6721 -0.46159,5.38018c-1.52983,3.15169 -4.57281,7.04962 -6.66845,12.56352c-3.89632,10.2517 -7.22829,18.34893 -9.1747,17.60917c-1.94641,-0.73976 0.34961,-9.08319 4.24593,-19.33489z" data-paper-data="{&quot;index&quot;:null}" fill="#ecb23e"/></g></g></svg>