<svg version="1.1" xmlns="http://www.w3.org/2000/svg" xmlns:xlink="http://www.w3.org/1999/xlink" width="97.14286" height="67.07142" viewBox="0,0,97.14286,67.07142"><g transform="translate(-199.92857,-142.28571)"><g data-paper-data="{&quot;isPaintingLayer&quot;:true}" fill-rule="nonzero" stroke-linejoin="miter" stroke-miterlimit="10" stroke-dasharray="" stroke-dashoffset="0" style="mix-blend-mode: normal"><path d="M211.64286,184.85714c0,2.99812 -2.62233,5.42857 -5.85714,5.42857c-3.23481,0 -5.85714,-2.43045 -5.85714,-5.42857c0,-2.99812 2.62233,-5.42857 5.85714,-5.42857c3.23481,0 5.85714,2.43045 5.85714,5.42857z" fill="#e6e6e6" stroke="none" stroke-width="0" stroke-linecap="butt"/><path d="M219.87316,186.28685c1.16526,2.63349 -1.57494,6.3988 -6.12041,8.41007c-4.54547,2.01127 -9.17493,1.50686 -10.34019,-1.12662c-1.16526,-2.63349 1.57494,-6.3988 6.12041,-8.41007c4.54547,-2.01127 9.17493,-1.50686 10.34019,1.12662z" fill="#e6e6e6" stroke="none" stroke-width="0" stroke-linecap="butt"/><path d="M272.35714,179.8387l24.71429,-29.19584c0,0 -4.41971,20.19946 -4.41971,29.35714c0,10.28302 4.41971,29.35714 4.41971,29.35714z" fill="#e6e6e6" stroke="none" stroke-width="0" stroke-linecap="butt"/><path d="M278.92857,180c0,15.81901 -17.42892,28.64286 -38.92857,28.64286c-21.49966,0 -38.92857,-12.82384 -38.92857,-28.64286c0,-15.81901 17.42892,-28.64286 38.92857,-28.64286c21.49966,0 38.92857,12.82384 38.92857,28.64286z" fill="#ffffff" stroke="none" stroke-width="0" stroke-linecap="butt"/><path d="M224.07143,178.27785c0,0 -1.79149,2.15479 -3.74711,3.207c-0.8573,0.46126 -4.89285,0.2347 -6.02831,-0.54628c-1.42715,-0.9816 -2.5103,-2.66072 -2.5103,-2.66072" data-paper-data="{&quot;index&quot;:null}" fill="none" stroke="#000000" stroke-width="5" stroke-linecap="round"/><path d="M229.07143,163l20.71429,-20.71429l2.14286,20.71429z" fill="#ffffff" stroke="none" stroke-width="0" stroke-linecap="butt"/></g></g></svg>