<svg version="1.1" xmlns="http://www.w3.org/2000/svg" xmlns:xlink="http://www.w3.org/1999/xlink" width="137.2472" height="26.35515" viewBox="0,0,137.2472,26.35515"><g transform="translate(-171.3764,-166.82243)"><g data-paper-data="{&quot;isPaintingLayer&quot;:true}" fill-rule="nonzero" stroke="none" stroke-linecap="butt" stroke-linejoin="miter" stroke-miterlimit="10" stroke-dasharray="" stroke-dashoffset="0" style="mix-blend-mode: normal"><path d="M305.72691,192.53234l-132.24771,0.11943c0,0 -2.10717,-4.99061 -2.10279,-7.50083c0.00469,-2.70995 2.1299,-8.20568 2.1299,-8.20568l130.96156,-9.14639z" fill="#4889c1" stroke-width="NaN"/><path d="M225.72114,189.01745c-3.16332,0.16105 -5.85827,-2.27291 -6.01924,-5.43621c-0.16105,-3.16332 2.27284,-5.85831 5.43618,-6.01926c3.16332,-0.16105 5.85831,2.27284 6.01926,5.43618c0.16105,3.16332 -2.27284,5.85831 -5.4362,6.01934z" fill="#122e46" stroke-width="0"/><path d="M208.67608,189.18909c-3.16332,0.16105 -5.85829,-2.27291 -6.01934,-5.43623c-0.16105,-3.16332 2.27284,-5.85831 5.4362,-6.01934c3.16332,-0.16105 5.85831,2.27284 6.01926,5.43618c0.16105,3.16332 -2.27278,5.85837 -5.43614,6.01944z" fill="#122e46" stroke-width="0"/><path d="M193.38443,189.61947c-3.16332,0.16105 -5.85829,-2.27291 -6.01934,-5.43623c-0.16105,-3.16332 2.27284,-5.85831 5.43618,-6.01926c3.16332,-0.16105 5.85833,2.27284 6.01928,5.43618c0.16105,3.16332 -2.27286,5.85831 -5.43621,6.01934z" fill="#122e46" stroke-width="0"/><path d="M273.33186,187.63796c-3.16332,0.16105 -5.85831,-2.27284 -6.01926,-5.43618c-0.16105,-3.16332 2.27284,-5.85833 5.43618,-6.01928c3.16332,-0.16105 5.85831,2.27286 6.01926,5.4362c0.16105,3.16332 -2.27284,5.85831 -5.4362,6.01934z" fill="#122e46" stroke-width="0"/><path d="M256.2868,187.80954c-3.16332,0.16105 -5.85827,-2.27291 -6.01932,-5.43623c-0.16105,-3.16332 2.27284,-5.85831 5.43618,-6.01926c3.16332,-0.16105 5.85831,2.27284 6.01926,5.43618c0.16105,3.16332 -2.27284,5.85831 -5.4362,6.01934z" fill="#122e46" stroke-width="0"/><path d="M240.99511,188.23996c-3.16332,0.16105 -5.85829,-2.27291 -6.01934,-5.43623c-0.16105,-3.16332 2.27284,-5.85831 5.43618,-6.01926c3.16332,-0.16105 5.85831,2.27284 6.01934,5.4362c0.16105,3.16332 -2.27284,5.85831 -5.4362,6.01934z" fill="#122e46" stroke-width="0"/><path d="M303.87769,166.8251c2.03734,-0.14513 4.10916,5.63581 4.62747,12.91209c0.51838,7.27631 -0.71307,13.29253 -2.75041,13.4377c-2.03734,0.14513 -4.10916,-5.63581 -4.62747,-12.91209c-0.51838,-7.27631 0.71307,-13.29253 2.75041,-13.4377z" fill="#122e46" stroke-width="0"/></g></g></svg>