<svg version="1.1" xmlns="http://www.w3.org/2000/svg" xmlns:xlink="http://www.w3.org/1999/xlink" width="161.82635" height="198.65109" viewBox="0,0,161.82635,198.65109"><g transform="translate(-148.70725,-83.11045)"><g data-paper-data="{&quot;isPaintingLayer&quot;:true}" fill-rule="nonzero" stroke-linejoin="miter" stroke-miterlimit="10" stroke-dasharray="" stroke-dashoffset="0" style="mix-blend-mode: normal"><path d="M259.78813,260.50577c-3.92633,2.28265 -21.38959,-1.29374 -29.40574,2.64679c-5.43435,2.67139 -14.74662,4.19353 -24.23822,4.19353c-3.44673,0 -8.55957,-0.15394 -11.98889,-0.97027c-2.76873,-0.65909 -3.8713,-2.00817 -6.53183,-2.05065c-9.34322,-0.14918 -17.75246,2.33329 -23.35401,0.82854c-2.7883,-0.74903 -5.65811,-3.40647 -7.7557,-4.50163c-1.57561,-0.82263 -2.71551,-0.02026 -3.05788,-0.98061c-0.29506,-0.82764 -4.74861,-1.20718 -4.74861,-1.87155c0,-0.88362 1.04348,-3.50738 2.01172,-4.32777c5.42839,-4.5995 31.94386,-7.26584 55.4252,-7.26584c24.92409,0 49.13699,2.10902 52.99422,7.13764c0.42489,0.55393 2.22465,4.21799 2.22465,4.79723c0,1.26633 0.36068,1.23933 -1.57489,2.36462z" data-paper-data="{&quot;index&quot;:null}" fill="#e6d8d7" stroke="none" stroke-width="0" stroke-linecap="butt"/><path d="M149.86696,253.84152l28.18844,-95.18881l44.97979,-1.53557l38.29772,98.39646c0,0 -38.13952,-10.75191 -57.2446,-11.03849c-17.98218,-0.26974 -54.22135,9.36643 -54.22135,9.36643z" fill="#7a1916" stroke="none" stroke-width="0" stroke-linecap="butt"/><path d="M227.63692,158.41382c0,0.69378 1.80481,3.44751 1.57376,4.11097c-2.09759,6.02297 -15.26475,8.54903 -28.81864,8.54903c-12.76934,0 -27.18864,-3.19361 -30.14064,-8.7026c-0.52654,-0.98262 2.89574,-2.89905 2.89574,-3.9574c0,-0.79574 -1.56786,-2.47649 -1.4074,-3.46778c0.43405,-2.68155 3.22524,-4.99526 5.8805,-6.5663c3.04616,-1.80231 7.61918,1.17105 12.70009,0.99237c1.44681,-0.05088 2.04639,-1.66675 3.55205,-2.45616c1.86489,-0.97774 4.64528,-1.16213 6.51965,-1.16213c5.16159,0 10.22568,1.82312 13.18093,5.02276c4.35924,4.71974 13.85589,0.43616 15.99107,3.17017c1.05258,1.3478 -1.92709,2.95032 -1.92709,4.46707z" fill="#e6d8d7" stroke="none" stroke-width="0" stroke-linecap="butt"/><path d="M236.80876,236.28175l-1.8292,-12.24034l12.1688,-3.13488l4.96515,2.82568l-3.89963,2.40296l3.32796,4.62974z" data-paper-data="{&quot;index&quot;:null}" fill="#e26982" stroke="none" stroke-width="0" stroke-linecap="butt"/><path d="M175.83309,134.21525c-0.28541,-3.59286 2.43294,-5.89874 5.10524,-8.11868c4.50087,-3.73897 7.05949,-7.20719 13.459,-7.21704c7.47428,0 18.98712,1.51972 22.93842,9.08481c1.7611,3.37178 1.99956,7.65034 2.35002,11.35485c0.0036,4.08205 0.15668,8.32525 3.50161,11.17412c1.17563,1.00127 5.50378,2.29547 5.96015,3.49044c0.68682,1.79844 -1.53897,6.27618 -3.04703,7.3668c-0.9114,0.65912 -3.29545,1.12256 -4.531,0.51342c0.75559,1.24534 -0.69122,2.91556 -1.86027,3.83103c-2.19812,1.72131 -5.67415,2.73206 -8.41179,2.65144c-2.65691,-0.07824 -5.36823,-1.25964 -7.02676,-3.3971c-0.73516,-0.94745 -1.57262,-2.61899 -2.51582,-3.29991c-0.43851,-0.31658 -0.95382,0.51122 -1.4165,0.79129c-1.27566,0.77221 -2.67966,1.37563 -4.0695,1.89932c-5.86366,1.93665 -14.09855,1.15558 -19.24827,-2.44876c-1.50583,-1.05394 -4.02794,-3.74172 -3.89162,-5.78343c0.06746,-1.01034 1.15251,-2.59093 2.30812,-3.25617c-3.18096,-1.87607 -7.18518,-6.88182 -3.78756,-10.20073c0.44025,-0.43005 2.16519,-0.61524 2.82637,-0.95408c2.44214,-1.25154 1.95183,-4.38125 1.27702,-6.47616c0,0 -0.16995,-0.53816 0.08015,-1.00547z" fill="#564545" stroke="none" stroke-width="0.5" stroke-linecap="butt"/><path d="M166.14297,235.42291l2.06776,-5.31359l-4.37582,-1.35414l4.10323,-3.975h12.56612l1.28225,12.30966z" fill="#e26982" stroke="none" stroke-width="0" stroke-linecap="butt"/><path d="M231.30649,228.76402l-28.62266,-63.79143c0,0 6.33628,-1.58283 8.89532,-2.22209c1.94256,-0.48526 6.11092,0.50584 7.21467,2.50704c4.21697,7.64574 30.49252,55.28577 30.49252,55.28577z" data-paper-data="{&quot;index&quot;:null}" fill="#902420" stroke="none" stroke-width="0" stroke-linecap="butt"/><path d="M165.23146,224.96175c0,0 9.9487,-55.26859 11.40088,-63.33599c0.34299,-1.90543 5.45551,-3.24097 7.93088,-3.09088c2.56604,0.15558 7.8391,0.47532 7.8391,0.47532l-7.70865,69.42691z" fill="#902420" stroke="none" stroke-width="0" stroke-linecap="butt"/><path d="M196.09524,160.18939c0,-2.0214 0,-9.84773 0,-9.84773h8.30902c0,0 0,7.3402 0,9.4374c0,1.04859 -2.94537,2.87225 -4.41095,2.87225c-1.06766,0 -3.89806,-1.56265 -3.89806,-2.46193z" fill="#c64b64" stroke="none" stroke-width="0" stroke-linecap="butt"/><path d="M206.75636,273.23541l-3.87883,-55.23476h18.77361l7.48917,48.97497l7.25045,8.74224z" fill="#e26982" stroke="none" stroke-width="0" stroke-linecap="butt"/><path d="M167.03698,275.09725l8.35545,-7.39191l8.86663,-50.17015h18.77362l-4.49947,55.85537z" fill="#e26982" stroke="none" stroke-width="0" stroke-linecap="butt"/><path d="M173.00537,268.34617l10.01247,-49.25944l19.8597,-0.3103l-0.56035,49.20029z" fill="#4d0b08" stroke="none" stroke-width="0" stroke-linecap="butt"/><path d="M204.33415,267.73783l-2.2324,-48.96142l19.8597,0.3103l10.84849,47.34852z" data-paper-data="{&quot;index&quot;:null}" fill="#4d0b08" stroke="none" stroke-width="0" stroke-linecap="butt"/><path d="M179.75738,228.35456c0,0 4.25932,-34.12004 5.85875,-46.93265c1.10918,-8.88528 2.81757,-22.57059 2.81757,-22.57059c0,0 4.31475,-0.17654 7.554,-0.13639c0.91106,0.01129 2.8331,1.57887 4.18113,1.59556c1.05133,0.01303 3.26429,-1.52552 4.41706,-1.51124c4.85371,0.06014 8.89335,0.36237 8.89335,0.36237l11.13315,67.75972l-23.02978,-8.34494z" fill="#9e3d39" stroke="none" stroke-width="0" stroke-linecap="butt"/><path d="M197.65758,160.20536c0,2.11077 -3.04793,3.82189 -6.80773,3.82189c-3.7598,0 -6.80773,-1.71111 -6.80773,-3.82189c0,-2.11077 3.04793,-3.82189 6.80773,-3.82189c3.7598,0 6.80773,1.71111 6.80773,3.82189z" fill="#872420" stroke="none" stroke-width="0" stroke-linecap="butt"/><path d="M215.81152,159.84702c0,2.11077 -3.04792,3.82189 -6.80773,3.82189c-3.7598,0 -6.80773,-1.71111 -6.80773,-3.82189c0,-2.11077 3.04792,-3.82189 6.80773,-3.82189c3.7598,0 6.80773,1.71111 6.80773,3.82189z" fill="#872420" stroke="none" stroke-width="0" stroke-linecap="butt"/><path d="M207.39145,159.36932c1.19434,0.89575 0.29858,2.09009 0.29858,2.09009l-0.24201,0.29687c-0.75536,1.36354 -1.96983,3.44136 -3.1605,4.43922c-4.25812,3.56865 -9.03107,-0.27288 -11.73703,-3.62433c0,0 -0.93262,-1.16578 0.23316,-2.09839c1.16578,-0.93262 2.09839,0.23316 2.09839,0.23316c3.60143,4.5527 7.06849,4.99984 9.94471,-0.37944l0.47459,-0.6586c0,0 0.89575,-1.19434 2.09009,-0.29858z" fill="#3d0806" stroke="none" stroke-width="0.5" stroke-linecap="butt"/><path d="M170.83394,185.11913l5.80107,-24.56926l10.40781,-2.38868l14.16145,15.18517z" fill="#7a1916" stroke="none" stroke-width="0" stroke-linecap="butt"/><path d="M199.66869,174.19946l14.16145,-15.18516l10.40781,2.38868l5.80108,24.56926z" data-paper-data="{&quot;index&quot;:null}" fill="#7a1916" stroke="none" stroke-width="0" stroke-linecap="butt"/><path d="M224.01558,144.89743c3.94521,2.50484 5.40713,7.27016 3.2653,10.6436c-2.14183,3.37343 -7.07637,4.07757 -11.02158,1.5727c-3.94521,-2.50484 -5.40712,-7.27018 -3.26529,-10.64362c2.14183,-3.37343 7.07634,-4.07754 11.02156,-1.57268z" data-paper-data="{&quot;index&quot;:null}" fill="#c64b64" stroke="none" stroke-width="0" stroke-linecap="butt"/><path d="M224.53607,130.61144c5.42937,-1.24902 10.69655,1.50195 11.76453,6.14447c1.06799,4.64251 -2.4676,9.41854 -7.89698,10.66757c-5.42937,1.24902 -10.69655,-1.50195 -11.76453,-6.14447c-1.06799,-4.64251 2.4676,-9.41853 7.89698,-10.66755z" data-paper-data="{&quot;index&quot;:null}" fill="#c64b64" stroke="none" stroke-width="0" stroke-linecap="butt"/><path d="M190.86595,145.49548c2.14183,3.37343 0.67993,8.13876 -3.26529,10.64362c-3.94521,2.50484 -8.87977,1.80073 -11.02159,-1.5727c-2.14183,-3.37343 -0.67991,-8.13875 3.2653,-10.6436c3.94521,-2.50484 8.87974,-1.80074 11.02158,1.57268z" fill="#c64b64" stroke="none" stroke-width="0" stroke-linecap="butt"/><path d="M187.22086,140.30438c-1.06799,4.64251 -6.33515,7.39349 -11.76453,6.14449c-5.42937,-1.24902 -8.96498,-6.02504 -7.897,-10.66755c1.06799,-4.64251 6.33515,-7.39347 11.76453,-6.14447c5.42937,1.24902 8.96498,6.02504 7.897,10.66755z" fill="#c64b64" stroke="none" stroke-width="0" stroke-linecap="butt"/><path d="M175.65907,125.76692c0,-13.86071 11.23631,-25.09702 25.09702,-25.09702c13.86071,0 25.09702,11.23631 25.09702,25.09702c0,13.86071 -11.23631,28.60573 -25.09702,28.60573c-13.86071,0 -25.09702,-14.74502 -25.09702,-28.60573z" fill="#e26982" stroke="none" stroke-width="0" stroke-linecap="butt"/><path d="M180.65514,127.76034c0,-5.05984 4.1018,-9.16163 9.16163,-9.16163c5.05984,0 9.16163,4.1018 9.16163,9.16163c0,5.05984 -4.1018,9.16163 -9.16163,9.16163c-5.05984,0 -9.16163,-4.1018 -9.16163,-9.16163z" fill="#ffffff" stroke="none" stroke-width="0" stroke-linecap="butt"/><path d="M202.7795,127.95527c0,-5.05984 4.1018,-9.16163 9.16163,-9.16163c5.05984,0 9.16163,4.1018 9.16163,9.16163c0,5.05984 -4.1018,9.16163 -9.16163,9.16163c-5.05984,0 -9.16163,-4.1018 -9.16163,-9.16163z" fill="#ffffff" stroke="none" stroke-width="0" stroke-linecap="butt"/><path d="M185.56403,128.12066c0,-2.98745 2.42181,-5.40927 5.40927,-5.40927c2.98745,0 5.40927,2.42181 5.40927,5.40927c0,2.98745 -2.42181,5.40927 -5.40927,5.40927c-2.98745,0 -5.40927,-2.42181 -5.40927,-5.40927z" fill="#000000" stroke="none" stroke-width="0" stroke-linecap="butt"/><path d="M204.90632,127.89873c0,-2.98745 2.42181,-5.40927 5.40927,-5.40927c2.98745,0 5.40927,2.42181 5.40927,5.40927c0,2.98745 -2.42181,5.40927 -5.40927,5.40927c-2.98745,0 -5.40927,-2.42181 -5.40927,-5.40927z" fill="#000000" stroke="none" stroke-width="0" stroke-linecap="butt"/><path d="M201.26601,136.87872c0,0 -2.99294,-0.08806 -2.96874,-0.92251c0.01696,-0.58496 0.85872,0.7833 1.17224,-0.57314c0.65608,-2.83847 1.04106,-6.51204 1.04106,-6.51204" data-paper-data="{&quot;index&quot;:null}" fill="none" stroke="#000000" stroke-width="0.5" stroke-linecap="round"/><path d="M181.72377,123.23675c1.58932,-2.91078 4.70885,-4.85449 8.25311,-4.77448c3.2414,0.07317 6.05152,1.82121 7.62214,4.39853c0.43271,0.71006 -16.22058,1.0084 -15.87524,0.37595z" fill="#ac364e" stroke="none" stroke-width="0" stroke-linecap="butt"/><path d="M214.32428,146.82061c0,0 -5.85524,2.67331 -10.37325,2.71351c-4.58615,0.04083 -15.48328,-2.3893 -15.48328,-2.3893" fill="none" stroke="#000000" stroke-width="0.5" stroke-linecap="round"/><path d="M204.09793,123.18504c1.57061,-2.57734 4.38073,-4.32537 7.62214,-4.39853c3.54426,-0.08 6.66379,1.8637 8.25312,4.77448c0.34534,0.63246 -16.30796,0.33412 -15.87524,-0.37595z" data-paper-data="{&quot;index&quot;:null}" fill="#ac364e" stroke="none" stroke-width="0" stroke-linecap="butt"/><path d="M229.04474,118.46036l0.06438,0.07923l0.08755,0.05252l0.64844,0.64844l0.03375,0.05623l0.05295,0.03868l0.40527,0.48633l0.04821,0.09987l0.07841,0.07841l0.24317,0.40527l0.0305,0.10021l0.06253,0.08402l0.40528,0.97267l0.0079,0.05235l0.02842,0.04466l0.22677,0.68033l0.38259,0.91821l0.24034,0.56081l0.01452,0.09005l0.04558,0.07901l0.16211,0.56738l0.00195,0.05855l0.02508,0.05295l0.06075,0.30381l0.37048,1.03733l0.01408,0.14321l0.0543,0.13327l0.08104,0.56738l-0.00316,0.03056l0.01037,0.0289l0.07415,0.74154l0.14851,0.74254l-0.00672,0.14112l0.03426,0.13706v3.1828l0.0535,0.26754l-0.00672,0.14112l0.03427,0.13707v0.34587l0.01625,0.08128l0.03577,0.07154l0.01383,0.00791l0.00988,0.03953l0.01768,0.03535l0.07069,0.31817l0.07905,0.31619v0.03953l0.00884,0.03977l-0.00884,0.01326v0.17227l0.05351,0.26754l-0.00672,0.14113l0.03427,0.13706v0.38553l0.0668,0.46759l-0.01051,0.10155l0.02476,0.09904v0.18376l0.02797,0.13984l0.11374,0.28437l0.02593,0.1902l0.06684,0.17997l0.07426,0.66831l0.03173,0.15864l0.07715,0.15431l0.03388,0.1525l0.07351,0.13784l0.04329,0.17316l0.09248,0.18494l0.03388,0.15249l0.07351,0.13784l0.01883,0.07529l0.04275,0.07124l0.07419,0.04947l-0.00377,0.06791l0.11419,0.19032l-0.15667,0.5745l-0.03303,0.59458l-0.16853,0.14445l-0.0179,0.06561l-0.08603,0.02347l-0.28262,0.24224l-0.48633,0.24317l-0.1525,0.03388l-0.13784,0.07351l-0.41008,0.10251l-0.2819,0.18794l-0.05375,0.0192l-0.02385,0.04173l-0.30998,0.07749l-0.3009,0.10747l-0.04299,-0.0215l-0.05537,0.01384h-0.54763l-0.46759,0.06679l-0.10155,-0.01049l-0.09904,0.02476h-2.99904l-0.00782,-0.00195l-0.02259,0.01268l-0.33703,-0.10258l-0.3418,-0.08545l-0.01285,-0.02248l-0.00772,-0.00235l-0.27175,-0.16306l-0.09545,-0.03181l-0.01581,-0.01007l-0.29757,0.29757l-0.24632,0.36947l-0.02982,0.02711l-0.01564,0.03715l-0.24317,0.32421l-0.07923,0.06438l-0.05252,0.08755l-0.2818,0.2818l-0.15332,0.25555l-0.12348,0.12348l-0.08984,0.14973l-0.17188,0.17188l-0.18267,0.24358l-0.07923,0.06438l-0.05252,0.08755l-0.32423,0.32421l-0.08755,0.05252l-0.06438,0.07924l-0.56779,0.42586l-0.17188,0.17188l-0.06849,0.04109l-0.04841,0.06353l-0.40527,0.32423l-0.05705,0.02614l-0.04222,0.04645l-0.24317,0.16211l-0.03258,0.01163l-0.02446,0.02446l-0.40528,0.24317l-0.05321,0.01619l-0.04224,0.03619l-0.20982,0.10491l-0.2219,0.16642l-0.21015,0.08848l-0.19238,0.12242l-0.24316,0.08104l-0.08938,0.00688l-0.08101,0.03838l-0.16435,0.03286l-0.19459,0.11676l-0.14945,0.04548l-0.13179,0.08386l-0.48633,0.16211l-0.05546,0.00426l-0.04908,0.02617l-0.17317,0.04329l-0.26428,0.13215l-0.00791,0.01383l-0.03953,0.00988l-0.03536,0.01768l-0.31816,0.07069l-0.14231,0.03558l-0.15408,0.08218l-0.32421,0.08106h-0.19297l-0.23036,0.05119l-0.07679,-0.05119h-0.23095l-0.20909,-0.21818l-0.00845,0.00065l-0.16068,-0.14377l-0.19332,0.01074l-0.22132,-0.33198l-0.08881,-0.05921l0.0037,-0.0667l-0.40489,-0.36226l0.03798,-0.18987l-0.11961,-0.1794l0.15859,-0.71364l0.16211,-0.32423l0.14838,-0.17313l0.00866,-0.01441l0.01542,-0.06169l0.00201,-0.00903v-0.32322l0.03427,-0.13706l-0.00672,-0.14113l0.05351,-0.26754v-0.42693l0.06516,-0.26062l0.03629,-0.26618l0.1621,-0.40527l0.01527,-0.02116l0.04337,-0.17352l0.07071,-0.31817l0.01768,-0.03535l0.00988,-0.03953l0.01161,-0.00662l0.01672,-0.05016l-0.00419,-0.01537l0.02096,-0.03494l0.01249,-0.0375l0.17498,-0.27496l0.05568,-0.09281l0.09356,-0.28066l0.12241,-0.19236l0.08849,-0.21015l0.0713,-0.09506l0.01159,-0.04633l0.00379,-0.00711l-0.00681,-0.02499l0.18126,-0.30208l0.16579,-0.31086l0.02493,-0.00701l0.00415,-0.00691l1.45898,-1.45899l0.19552,-0.11731l0.17313,-0.1484l0.08312,-0.04156l0.05282,-0.03521l0.06279,-0.06279l0.12115,-0.07269l0.09504,-0.10454l0.1263,-0.0842l0.10534,-0.10534l0.02339,-0.06549l0.11313,-0.16968l0.36578,-0.73156l0.05833,-0.06805l0.03015,-0.08442l0.135,-0.20252l0.29999,-0.52497l0.06201,-0.06471l0.03478,-0.08261l0.1306,-0.17413l0.09244,-0.23109l0.10959,-0.15175l0.07264,-0.17252l0.10505,-0.14008l0.00827,-0.02479l0.08387,-0.13179l0.04548,-0.14944l0.13457,-0.22429l0.07816,-0.31265l-0.00337,-0.00851l0.01208,-0.02638l0.02404,-0.09611l0.14239,-0.267l0.12608,-0.27508l0.06189,-0.07737l0.01367,-0.02561l0.00882,-0.00247l0.2014,-0.25176l0.10924,-0.16386l0.19777,-0.32962l0.13773,-0.27549l0.02624,-0.03059l0.0109,-0.0388l0.32421,-0.56738l0.01073,-0.0112l0.00452,-0.01485l0.12208,-0.20347v-2.94487l-0.20081,-0.80324v-0.17463l-0.04235,-0.1694v-0.47381l-0.03871,-0.15482v-0.03459l-0.0148,-0.03126l-0.08106,-0.40527l0.00192,-0.04025l-0.01521,-0.03733l-0.05701,-0.39905l-0.09896,-0.2474l-0.01773,-0.13004l-0.05619,-0.11859l-0.08106,-0.40527l0.00112,-0.02345l-0.00936,-0.02154l-0.04599,-0.27594l-0.06673,-0.13345l-0.00925,-0.04164l-0.0258,-0.03396l-0.24317,-0.56738l-0.02981,-0.18481l-0.07061,-0.17336l-0.07071,-0.49494l-0.02554,-0.10217l-0.09248,-0.18495l-0.03388,-0.15249l-0.07351,-0.13784l-0.11093,-0.44367l-0.13457,-0.22428l-0.07069,-0.23223l-0.10391,-0.21939l-0.06374,-0.31868l-0.08494,-0.25484l-0.16306,-0.27175l-0.07067,-0.23223l-0.10391,-0.21939l-0.03553,-0.17764l-0.0109,-0.00308l-0.16579,-0.31086l-0.18126,-0.3021l0.00682,-0.02499l-0.0038,-0.00711l-0.00597,-0.02389l-0.13083,-0.16353l-0.02616,-0.05707l-0.04645,-0.04222l-0.24632,-0.36947l-0.30595,-0.30595l-0.05252,-0.08755l-0.07924,-0.06438l-0.24316,-0.32421l-0.01565,-0.03715l-0.02982,-0.02711l-0.16686,-0.25028l-0.00711,-0.00475l-0.16156,-0.1777l-0.18639,-0.15145l-0.09739,-0.12984l-0.02541,-0.01694l-0.02171,-0.0012l-0.21964,-0.25626l-0.20355,-0.12211l-0.12348,-0.12348l-0.14975,-0.08985l-0.41505,-0.41504l-0.21207,-0.15905l-0.21041,-0.14028l-0.09504,-0.10454l-0.12115,-0.07269l-0.63018,-0.63018l-0.1263,-0.0842l-0.09504,-0.10454l-0.12115,-0.07269l-0.24251,-0.24251l-0.44256,-0.22128l-0.04222,-0.0362l-0.05321,-0.01619l-0.35857,-0.21514l-0.27549,-0.13775l-0.11458,-0.09822l-0.13718,-0.06287l-0.24114,-0.19291l-0.2101,-0.08404l-0.04879,-0.03525l-0.05876,-0.01306l-0.50917,-0.25459l-0.17316,-0.04329l-0.18509,-0.09871l-0.20067,-0.06108l-0.30782,-0.1847l-0.28543,-0.11417l-0.55835,-0.20938l-0.57006,-0.14251l-0.08609,-0.04591l-0.09668,-0.01318l-0.36657,-0.14664l-0.15194,-0.05065l-0.10197,-0.02548h-0.14959l-0.11236,-0.02808l-0.06495,0.02808l-0.25914,-0.10911l-0.27279,-0.0682l-0.03511,-0.06144l-0.10674,-0.04494l-0.05403,-0.04052h-0.31071l-0.13707,-0.03427l-0.14112,0.00672l-0.40528,-0.08106l-0.03126,-0.01481h-0.03458l-0.32421,-0.08106l-0.08609,-0.04591l-0.09668,-0.01318l-0.28437,-0.11374l-0.66043,-0.13207l-0.46377,-0.07729l-0.10319,-0.04487l-0.11217,-0.00864l-0.26795,-0.08932h-0.25615l-0.11502,-0.02875l-0.11818,0.00945l-0.37054,-0.06176h-0.28788l-0.11501,-0.02875l-0.11818,0.00945l-0.37052,-0.06176h-0.12576l-0.13706,-0.03426l-0.14112,0.00672l-0.40528,-0.08106l-0.07071,-0.0335l0.07346,0.22039l0.01749,0.22735l0.05531,0.22121v0.06855l0.0387,0.15482v0.17462l0.04236,0.1694v0.24217l0.00201,0.00902l0.07905,0.31619v0.03953l0.00884,0.03977l-0.00884,0.01326v0.46334l0.00884,0.01326l-0.00884,0.03977v0.03953l-0.07905,0.31619l-0.00201,0.00903v0.16111l-0.05529,0.22121l-0.01749,0.22734l-0.08932,0.26796v0.25614l-0.03426,0.13706l0.00672,0.14112l-0.08106,0.40528l-0.01481,0.03126v0.03458l-0.08106,0.32423l-0.02618,0.04908l-0.00426,0.05545l-0.07634,0.22902l-0.01098,0.04389l-0.07071,0.31817l-0.01767,0.03535l-0.00988,0.03953l-0.01383,0.0079l-0.01777,0.03556l-0.04851,0.33952l-0.02809,0.06896v0.07448l-0.08106,0.32421l-0.07352,0.13784l-0.00893,0.04021l0.0044,0.01617l-0.01271,0.0212l-0.01664,0.07493l-0.08106,0.16211l-0.13989,0.1632l-0.01568,0.02941l-0.00185,0.00052l-0.00878,0.02633l-0.17498,0.27496l-0.16768,0.27948l-0.02795,0.02795l-0.02187,0.03437l-0.01562,0.00312l-0.09666,0.09666l-0.05743,0.03446l-0.08214,0.16428l-0.1484,0.17312l-0.11731,0.19552l-0.14385,0.14385l-0.06548,0.09822l-0.22579,0.37633l-0.19307,0.19307l-0.17217,0.21191l-0.24358,0.18267l-0.25293,0.25294l-0.19552,0.11731l-0.01991,0.01708l-0.18983,0.18983l-0.19552,0.11731l-0.17312,0.1484l-0.32423,0.1621l-0.09967,0.02215l-0.08614,0.05481l-0.24316,0.08106l-0.22734,0.01749l-0.22121,0.05529h-0.24317l-0.60543,-0.15135l-0.02893,0.00161l-0.00707,-0.01061l-0.06781,-0.01696l-0.33903,-0.59331l-0.03966,-0.05949l-0.07218,-0.04124l-0.02682,-0.10723l-0.2404,-0.3606l0.01517,-0.06822l-0.00633,-0.01106l0.01436,-0.02515l0.06669,-0.30008v-0.08005l0.06787,-0.27148l-0.02854,-0.10464l0.09377,-0.15629l0.02901,-0.11602v-1.67796l-0.08599,-0.12898l-0.08165,-0.2286l-0.11423,-0.21419l-0.03184,-0.12739l-0.13209,-0.17611l-0.01565,-0.03715l-0.02982,-0.02711l-0.0842,-0.1263l-0.06279,-0.06279l-0.08984,-0.14973l-0.12348,-0.12348l-0.15332,-0.25554l-0.36286,-0.36286l-0.07269,-0.12115l-0.10454,-0.09504l-0.14027,-0.2104l-0.15906,-0.21207l-0.07256,-0.07256l-0.1263,-0.0842l-0.09504,-0.10454l-0.12115,-0.07269l-0.1621,-0.1621l-0.11733,-0.19552l-0.04793,-0.05592l-0.27148,0.13574l-0.2219,0.16642l-0.17252,0.07264l-0.15175,0.10961l-0.26815,0.10726l-0.36344,0.24229l-0.1467,0.0524l-0.17138,0.19995l-0.06079,0.00338l-0.01067,0.01067l-0.17607,0.19368l-0.2388,0.27861l-0.02171,0.0012l-0.17637,0.11757l-0.35721,0.28577l-0.05707,0.02614l-0.04222,0.04645l-0.24316,0.16211l-0.03256,0.01163l-0.02446,0.02446l-0.34253,0.20551l-0.26567,0.19925l-0.17253,0.07264l-0.15175,0.10959l-0.63637,0.25455l-0.15915,0.11936l-0.00837,0.02007l-0.34221,0.13246l-0.33818,0.14239l-0.01996,-0.00862l-0.52129,0.06517l-0.4622,0.13205l-0.19773,0.00659l-0.19195,0.04798h-1.52855l-0.01326,0.00884l-0.03976,-0.00884h-0.03953l-0.31586,-0.07897l-0.01012,0.00675l-0.03977,-0.00883h-0.03953l-0.31619,-0.07905l-0.31817,-0.07069l-0.03535,-0.01768l-0.03953,-0.00988l-0.00791,-0.01383l-0.23364,-0.11683l-0.21901,-0.04381l-0.17121,-0.0811l-0.07266,-0.01614l-0.01617,0.0044l-0.0212,-0.01272l-0.07493,-0.01664l-0.1621,-0.08106l-0.11016,-0.09443l-0.03224,-0.01527l-0.00576,-0.0173l-0.02495,-0.02139l-0.00367,-0.0022l-0.05419,0.37936l-0.06421,0.15758l-0.02299,0.16861l-0.1621,0.40527l-0.01607,0.02226l-0.00473,0.02704l-0.28036,0.63081l-0.21475,0.78743l-0.01972,0.03514l-0.00308,0.04018l-0.56738,1.70215l-0.03231,0.05078l-0.00958,0.05941l-0.21992,0.51316l-0.14346,0.43036l-0.07586,0.1192l-0.03824,0.136l-0.18988,0.3323l-0.04276,0.29933l-0.04057,0.09959l-0.005,0.10742l-0.24048,0.80162l-0.12288,0.43008l-0.06897,0.75868l-0.04428,0.12691l-0.00447,0.13435l-0.10753,0.37637v8.47672l0.07237,0.6514l-0.01069,0.07916l0.01937,0.07749v0.38553l0.05178,0.36239l0.21264,0.70875l0.00557,0.11981l0.0433,0.11184l0.05092,0.40735l0.21556,0.43112l0.05924,0.26653l0.08633,0.25903l0.06361,0.82691l0.31779,0.76268l0.00156,0.0103l0.00609,0.00845l0.32423,0.81054l0.01318,0.09668l0.04592,0.08609l0.06682,0.26727l0.28957,0.28957l0.11731,0.19553l0.1484,0.17312l0.13197,0.26395l0.36955,0.59129l0.00409,0.01262l0.00937,0.00937l0.23653,0.39422l0.39844,0.63751l0.02117,0.06531l0.04467,0.05212l0.51761,1.03523l0.34059,0.47682l0.07766,0.19714l0.11376,0.17876l0.1621,0.48633l0.00146,0.01911l0.03199,0.05332l-0.02175,0.07977l0.04436,0.57671l-0.29006,0.32419l-0.10868,0.39847l-0.32786,0.08942l-0.22661,0.25325l-0.405,-0.081l-0.41968,0.11445l-0.37895,-0.22736l-0.07529,-0.01883l-0.21419,-0.11423l-0.2286,-0.08165l-0.48633,-0.32421l-0.09504,-0.10454l-0.12115,-0.07269l-0.48633,-0.48633l-0.07269,-0.12114l-0.10454,-0.09504l-0.0842,-0.1263l-0.46807,-0.46807l-0.05252,-0.08755l-0.07923,-0.06438l-0.14376,-0.19167l-0.35905,-0.2992l-0.0387,-0.05295l-0.05623,-0.03374l-1.54005,-1.54005l-0.02862,-0.04768l-0.02535,-0.018l-0.02388,0.02984l-0.06353,0.04841l-0.04109,0.06849l-0.32423,0.32423l-0.12114,0.07269l-0.09504,0.10454l-0.1263,0.0842l-0.14385,0.14384l-0.00691,0.00415l-0.00701,0.02493l-0.31086,0.16579l-0.3021,0.18126l-0.02499,-0.00681l-0.00711,0.00379l-0.27137,0.06784l-0.09584,0.03195l-0.31339,0.15669l-0.00791,0.01383l-0.03953,0.00988l-0.03535,0.01768l-0.31817,0.07071l-0.31619,0.07905h-0.03953l-0.03976,0.00884l-0.01326,-0.00884h-0.30547l-0.56081,0.07009l-0.08898,-0.01078l-0.08696,0.02174h-1.45898l-0.22121,-0.05529l-0.22735,-0.01749l-0.24317,-0.08106l-0.10184,-0.06481l-0.15883,-0.0397l-0.0551,-0.09643l-0.30099,-0.19154l-0.10314,-0.51568l-0.25,-0.4375l0.12038,-0.21064l-0.04758,-0.2379l0.37553,-0.33599l0.26091,-0.45661l0.34612,-0.08653l0.08277,-0.07406l0.16323,0.01257l0.11711,-0.02927h0.05686l0.25528,-0.1702l0.22425,-0.22425l0.05916,-0.11835l0.03619,-0.04222l0.01619,-0.05321l0.24316,-0.40528l0.00937,-0.00937l0.00409,-0.01261l0.40528,-0.64844l0.04423,-0.04266l0.02385,-0.05664l0.0713,-0.09507l0.05029,-0.20114v-1.1908l-0.03871,-0.15482v-0.17462l-0.04236,-0.1694v-0.14959l-0.01535,-0.06141l-0.12636,-0.31589l-0.00576,-0.04226l-0.0229,-0.03599l-0.11288,-0.3386l-0.16306,-0.27177l-0.03344,-0.10987l-0.06725,-0.09312l-0.1199,-0.29974l-0.18469,-0.30782l-0.07717,-0.25354l-0.10568,-0.24305l-0.03375,-0.20252l-0.04038,-0.11308l-0.08688,-0.12029l-0.32421,-0.81055l-0.00576,-0.04226l-0.0229,-0.03599l-0.03182,-0.09545l-0.16306,-0.27175l-0.06108,-0.20068l-0.09871,-0.18509l-0.08106,-0.32421v-0.05782l-0.02305,-0.05301l-0.07175,-0.43045l-0.14836,-0.59348v-0.03459l-0.01481,-0.03126l-0.06372,-0.31868l-0.0614,-0.18417l-0.10505,-0.14008l-0.04495,-0.10673l-0.06144,-0.03512l-0.0682,-0.27278l-0.10911,-0.25915l0.02808,-0.06495l-0.02808,-0.11236v-0.26481l-0.04689,-0.23444l-0.07286,-0.29148v-0.03459l-0.01481,-0.03126l-0.08104,-0.40527l0.00672,-0.14112l-0.03427,-0.13706v-3.89064l0.06152,-0.24606l0.02879,-0.252l0.15285,-0.4076v-1.12071l0.04235,-0.16941v-0.17462l0.06731,-0.26926l0.06218,-0.37304l0.07623,-0.91466l0.03144,-0.09237l-0.00256,-0.09754l0.16211,-0.72948l0.0333,-0.06661l0.00572,-0.07425l0.11209,-0.33629l0.06531,-0.65317l0.05358,-0.14928l0.01216,-0.15813l0.31448,-0.94343l0.15364,-0.53775l0.03689,-0.06396l0.00999,-0.07317l0.27585,-0.68964l0.04083,-0.20416l-0.00662,-0.01676l0.01771,-0.03865l0.0036,-0.01801l0.14356,-0.30307l0.13973,-0.30485l0.01147,-0.01434l0.0182,-0.03843l0.0171,-0.0057l0.18358,-0.22947l0.58123,-1.16247l0.0839,-0.0979l0.05004,-0.11882l0.48633,-0.64844l0.07924,-0.06438l0.05252,-0.08755l0.97265,-0.97265l0.06849,-0.04109l0.0484,-0.06353l0.11609,-0.09286v-0.4206l0.04798,-0.19195l0.00659,-0.19773l0.10753,-0.37637v-0.36873l0.02875,-0.11501l-0.00945,-0.11818l0.1621,-0.97265l0.00936,-0.02154l-0.00112,-0.02345l0.08106,-0.40528l0.0811,-0.17122l0.04109,-0.18494l0.09248,-0.18495l0.12435,-0.49738l0.00379,-0.00711l-0.00681,-0.02499l0.18126,-0.3021l0.1304,-0.24449l0.00079,-0.0039l0.03837,-0.08101l0.00688,-0.08938l0.08106,-0.24316l0.12242,-0.19238l0.08849,-0.21015l0.21954,-0.29272l0.14028,-0.2104l0.10454,-0.09504l0.07269,-0.12115l0.09084,-0.09083l0.18267,-0.24358l0.01766,-0.01434l0.00949,-0.02069l0.32421,-0.40528l0.06353,-0.0484l0.04109,-0.06849l0.8916,-0.89161l0.14973,-0.08984l0.12348,-0.12348l0.78161,-0.46896l0.45825,-0.30551l0.17842,-0.06372l0.15985,-0.10171l0.39069,-0.13024l1.20671,-0.60336l0.17047,-0.03788l0.15619,-0.0781l0.55903,-0.12424l1.1407,-0.57034l0.13791,-0.03065l0.12323,-0.06912l0.81335,-0.22183l1.1405,-0.4562l0.16116,-0.02198l0.14996,-0.06298l0.87595,-0.13476l0.96946,-0.41548l0.07277,-0.01173l0.06291,-0.03839l1.29687,-0.40527l0.13741,-0.00796l0.12903,-0.04792l0.72948,-0.08106l0.01987,0.00268l0.01899,-0.00646l0.95321,-0.07944l0.71009,-0.0789l0.07915,0.01069l0.07749,-0.01937h13.37408l0.26062,0.06515l0.26618,0.0363l0.21911,0.08763l0.54066,0.05407h0.41557l0.1694,0.04235h0.17463l0.64844,0.16211l0.08609,0.04591l0.09667,0.01318l0.26291,0.10516l0.82141,0.1369l0.05301,0.02305h0.05782l0.32421,0.08106l0.04908,0.02618l0.05546,0.00426l0.48633,0.1621l0.08614,0.05481l0.09965,0.02214l0.15431,0.07715l0.219,0.04381l0.05295,0.02508l0.05855,0.00195l0.56738,0.16211l0.06396,0.0369l0.07316,0.00997l0.40528,0.16211l0.04879,0.03524l0.05875,0.01305l0.43357,0.21678l0.3505,0.1402l0.10352,0.07476l0.12147,0.03939l0.64844,0.40528l0.01487,0.01542l0.02018,0.0072l0.36343,0.24229l0.26815,0.10726l0.09312,0.06725l0.10987,0.03344l0.35857,0.21514l0.27549,0.13775l0.04224,0.0362l0.05321,0.01619l0.30781,0.18469l0.29975,0.1199l0.10352,0.07476l0.12147,0.03939l0.64844,0.40528l0.01487,0.01542l0.02018,0.0072l0.89918,0.59946l0.40734,0.20367l0.11458,0.09822l0.13718,0.06287l0.40528,0.32423l0.0484,0.06353l0.06849,0.04109l0.16145,0.16145l0.11834,0.05918l0.0979,0.0839l0.11882,0.05004l0.32423,0.24317l0.06438,0.07923l0.08754,0.05252l0.8916,0.89161l0.03375,0.05623l0.05295,0.03868l0.39898,0.47876l0.47992,0.55991l0.01546,0.03094l0.02721,0.02135l0.56738,0.72948l0.01628,0.03686l0.0303,0.02659l0.7295,1.05371l0.06205,0.16457l0.09985,0.14478l0.24317,0.64844l0.00083,0.00725l0.00409,0.00605l0.28282,0.77777l0.26412,0.46221l0.00238,0.00846l0.00601,0.00642l0.40528,0.7295l0.00818,0.03053l0.02056,0.02399l0.22556,0.45112l0.30469,0.5332l0.00238,0.00846l0.00601,0.00642l0.34738,0.62532l0.24978,0.31222l0.08705,0.18993l0.12233,0.16938l0.14019,0.3505l0.541,1.08201l0.02215,0.09965l0.05482,0.08614l0.22999,0.68995l0.14664,0.36657l0.00997,0.07316l0.0369,0.06396l0.27285,0.95499l0.09244,0.15406z" fill="#5c4c4c" stroke="none" stroke-width="0.5" stroke-linecap="butt"/><path d="M187.73248,104.8654l-4.54629,-14.90872l7.44052,2.24649l5.53812,-9.09272l7.08441,8.02984l9.04542,-2.63066l-1.43803,15.73172c0,0 -2.04051,0.79322 -4.53444,1.22529c-2.28033,0.39507 -4.98487,0.43013 -5.92884,0.47258c-4.04123,0.18177 -7.99809,-0.25605 -9.56744,-0.21371c-1.43914,0.03884 -3.09343,-0.86011 -3.09343,-0.86011z" fill="#d7a651" stroke="none" stroke-width="0" stroke-linecap="butt"/><path d="M245.01515,259.74026l18.81818,-73.54545l23.72727,0.54545l22.09091,73.45455z" fill="#722a80" stroke="none" stroke-width="0" stroke-linecap="butt"/><path d="M248.19823,150.16851c2.08691,-8.05509 10.78302,-14.77502 21.02745,-16.31145c3.95876,-0.59373 8.97375,-0.01651 12.99267,-0.01459c8.11219,0.64236 18.88211,3.84448 22.03079,10.54451c1.95685,4.16395 0.42134,10.4344 -1.99657,14.28048c-2.12847,6.80302 -1.72473,15.779 0.24061,22.5778c1.02099,3.53197 3.39416,6.54419 3.89967,10.14798c-1.08837,0.17055 -2.15725,0.46315 -3.26513,0.51165c-1.43822,0.06295 -3.14711,-0.8437 -4.63743,-0.37675c-1.15708,0.36254 -1.69968,1.48576 -2.78909,1.96145c-2.94754,1.28707 -7.91515,1.11007 -11.17172,0.84628c-5.92245,-0.47974 -8.29048,-3.31949 -14.01105,-0.48052c-1.44336,0.68725 -3.35388,1.06808 -4.97607,0.70714c-1.97461,-0.43935 -4.16585,-1.91888 -5.21338,-3.27872c-0.07381,-0.09581 -0.59582,-1.75924 -1.0984,-1.99248c-0.90377,-0.41943 -3.24023,-0.09177 -4.22038,-0.09322c-3.49142,-0.00519 -7.73275,-0.22174 -9.2416,-3.20492c-1.81442,-3.58733 3.4698,-5.65799 4.43911,-8.88004c2.14913,-9.17787 -9.16798,-17.60067 -2.52298,-26.52245c0,0 0.18061,-0.23777 0.51349,-0.42214z" fill="#482362" stroke="none" stroke-width="0.5" stroke-linecap="butt"/><path d="M295.50303,249.26279l1.07361,-10.30667h10.5214l3.43556,3.3282l-3.66378,1.1338l1.73128,4.44898z" data-paper-data="{&quot;index&quot;:null}" fill="#e880e6" stroke="none" stroke-width="0" stroke-linecap="butt"/><path d="M237.28861,237.30865l2.87226,-3.81326l-3.2194,-2.08432l4.20898,-2.27254l10.12763,2.85148l-1.75986,10.2119z" fill="#e880e6" stroke="none" stroke-width="0" stroke-linecap="butt"/><path d="M292.61202,242.01803l-10.07122,-57.88971l4.54156,1.53037l21.82503,53.44948z" data-paper-data="{&quot;index&quot;:null}" fill="#521060" stroke="none" stroke-width="0" stroke-linecap="butt"/><path d="M238.92782,228.67067l31.87389,-48.44226l5.20434,1.29208l-22.18134,54.36749z" fill="#521060" stroke="none" stroke-width="0" stroke-linecap="butt"/><path d="M272.69848,183.69818c0,-1.69249 0,-8.24534 0,-8.24534h6.957c0,0 0,6.14583 0,7.90178c0,0.87797 -2.46611,2.40489 -3.69322,2.40489c-0.89393,0 -3.26378,-1.30838 -3.26378,-2.06133z" fill="#e880e6" stroke="none" stroke-width="0" stroke-linecap="butt"/><path d="M275.76636,129.07862l0.23652,-0.09635l0.21898,-0.13139l0.06201,0.01692l0.09742,-0.03968l0.48622,-0.06947l0.14747,-0.04915l0.05037,-0.00388l0.04458,-0.02377l0.29556,-0.07388l0.04705,-0.01568l0.11411,-0.07608l0.20765,-0.07416l0.19454,-0.10375l0.34356,-0.08589h0.1586l0.15386,-0.03846h0.16473l0.0634,-0.0141l0.28718,-0.0718h0.0359l0.03612,-0.00802l0.01204,0.00802h0.15288l0.41015,-0.06835l0.10734,0.00859l0.10446,-0.02613h6.87112l0.20093,0.05023l0.20648,0.01589l0.317,0.10566h0.22037l0.12449,0.03113l0.12818,-0.00612l0.38329,0.07666l0.64039,0.08005l0.10159,0.03934l0.1088,0.00507l0.80081,0.24025l0.36999,0.07398l0.1077,0.05104l0.1181,0.01611l0.42944,0.17178l0.10925,0.0789l0.12691,0.04533l0.07199,0.04799l0.12706,0.03178l0.12519,0.06675l0.1385,0.03078l0.29563,0.14781l0.3797,0.15187l0.04432,0.032l0.05337,0.01185l0.85889,0.42944l0.06181,0.05298l0.07666,0.02738l0.19093,0.12727l0.4436,0.2218l0.08891,0.0762l0.10793,0.04544l0.27938,0.20955l0.53158,0.30375l0.12425,0.11906l0.14756,0.08853l1.546,1.546l0.06601,0.11002l0.09494,0.08632l0.2728,0.40919l0.16747,0.16747l0.00378,0.00627l0.02264,0.00637l0.15058,0.28233l0.16463,0.27438l-0.00618,0.02269l0.00345,0.00646l0.02235,0.08943l0.00299,0.00496l0.13478,0.15725l0.25767,0.51533l0.02012,0.09051l0.04978,0.07824l0.01977,0.05933l0.13223,0.1763l0.04081,0.09693l0.05579,0.03188l0.06194,0.24776l0.0991,0.23537l-0.02551,0.05901l0.00228,0.00912l0.40254,0.80511l0.03078,0.1385l0.06677,0.12519l0.06469,0.25873l0.13931,0.34825l0.01611,0.1181l0.05102,0.10772l0.0627,0.31346l0.12785,0.31961l0.00905,0.06646l0.03351,0.0581l0.15367,0.53787l0.14732,0.36826l0.02238,0.16417l0.05981,0.15451l0.08263,0.66104l0.07311,0.43865l0.15931,0.63721v0.0314l0.01343,0.02839l0.16577,0.82883l0.07845,0.3138v0.1586l0.01524,0.06093l0.14488,0.28977l0.03078,0.1385l0.06677,0.12519l0.15398,0.61593l0.19555,0.52147l0.29219,0.51133l0.03216,0.11434l0.06526,0.09925l0.55106,1.57443l0.69089,1.07471l0.03772,0.11147l0.06984,0.09468l0.60122,1.46011l0.00878,0.05986l0.03128,0.05179l0.34356,1.11656l0.02042,0.38121l0.04349,0.08701l-0.03377,0.09456l0.00538,0.10027l-0.06653,0.07094l-0.1284,0.35953l-0.17178,0.25767l-0.39956,0.36322l-0.02826,0.04942l-0.03604,0.00902l-0.02748,0.02498l-0.05679,-0.00392l-0.52385,0.13096h-0.94478v2.319l-0.03111,0.12449l0.0061,0.12818l-0.07665,0.38327l-0.0701,0.56082v1.20813l-0.03113,0.12449l0.0061,0.12818l-0.06088,0.30436v0.1301l-0.05918,0.23671l-0.03296,0.24176l-0.12785,0.31961l-0.03767,0.18837v0.81904l0.00804,0.01204l-0.00804,0.03611v0.0359l-0.07179,0.28718l-0.0141,0.06342v0.25062l-0.03846,0.15386v0.1586l-0.08589,0.34356l-0.04171,0.07819l-0.01197,0.08781l-0.12006,0.30015l-0.06301,0.37796l-0.02094,0.04817v0.0525l-0.07845,0.31382l-0.07988,0.39938l-0.07366,0.15551l-0.03734,0.16798l-0.1478,0.29563l-0.13782,0.34453l-0.07392,0.22175l-0.04978,0.07824l-0.02012,0.09051l-0.10853,0.21706l-0.05158,0.20636l-0.04171,0.07819l-0.01197,0.08781l-0.11604,0.2901l0.00067,0.00249l-0.00505,0.00842l-0.05138,0.12844l-0.13966,0.19337l-0.00608,0.0791l-0.08589,0.25767l-0.0924,0.14519l-0.05787,0.16206l-0.15477,0.23216l-0.16913,0.28189l-0.01458,0.04375l0.0038,0.01397l-0.01903,0.03173l-0.01135,0.03405l-0.15893,0.24975l-0.1523,0.25384l-0.02539,0.02539l-0.01986,0.03121l-0.01419,0.00283l-0.08843,0.08843l-0.08912,0.10398l-0.10655,0.17758l-0.14788,0.14788l-0.08912,0.10398l-0.10655,0.17758l-0.06198,0.06199l-0.03056,0.03564l-0.04544,0.10793l-0.25767,0.34356l-0.07196,0.05847l-0.0477,0.07952l-0.14848,0.14848l-0.02797,0.11188l-0.06677,0.12519l-0.03078,0.1385l-0.08589,0.17178l-0.05298,0.06181l-0.02738,0.07666l-0.12729,0.19093l-0.13591,0.27182l-0.03288,0.03836l-0.01472,0.04832l-0.13181,0.21969l-0.04568,0.27405l-0.02958,0.06801l-0.00246,0.07412l-0.12222,0.42773v0.07723l-0.05918,0.23673l-0.03296,0.24176l-0.12785,0.31961l-0.05567,0.2784l-0.06789,0.47517v4.28878l-0.02841,0.11361l0.00763,0.11686l-0.17178,0.94478l-0.02513,0.05554l0.00746,0.02645l-0.03678,0.03836l-0.21922,0.4846l-0.37051,0.13076l-0.27184,0.28366h-0.53188l-0.05012,0.01769l-0.02103,-0.01769h-0.06096l-0.34356,-0.08589l-0.04458,-0.02377l-0.05037,-0.00388l-0.25767,-0.08589l-0.03267,-0.0208l-0.03839,-0.00524l-0.42944,-0.17178l-0.01271,-0.00919l-0.22546,-0.05636l-0.28898,-0.06423l-0.03211,-0.01604l-0.0359,-0.00897l-0.00718,-0.01257l-0.0147,-0.00735l-0.09106,-0.03035l-0.01397,0.00381l-0.03173,-0.01905l-0.03405,-0.01134l-0.24975,-0.15893l-0.14565,-0.08738l-0.03405,-0.01135l-0.24975,-0.15893l-0.25384,-0.1523l-0.02539,-0.02539l-0.03121,-0.01986l-0.00283,-0.01419l-0.28412,-0.28412l-0.10655,-0.17758l-0.13478,-0.15725l-0.25767,-0.51533l-0.01187,-0.05337l-0.032,-0.04432l-0.12196,-0.30489l-0.26914,-0.40373l-0.07416,-0.20763l-0.10375,-0.19454l-0.12868,-0.5147l-0.25537,-0.44691l-0.02455,-0.08725l-0.05306,-0.07347l-0.17178,-0.42944l-0.03296,-0.24176l-0.05545,-0.22183l-0.0235,-0.03693l-0.14283,-0.42847l-0.04494,-0.08989l-0.03733,-0.16798l-0.07368,-0.15551l-0.08434,-0.42171l-0.35721,0.14288l-0.29563,0.14781l-0.09051,0.02012l-0.07823,0.04978l-0.38118,0.12706l-0.30817,0.1849l-0.0998,0.03037l-0.08457,0.06108l-0.41486,0.16594l-0.58679,0.25148l-0.13304,0.02146l-0.12179,0.05768l-0.39938,0.07988l-0.57254,0.14314l-0.34826,0.13931l-0.03839,0.00524l-0.03269,0.0208l-0.51533,0.17178l-0.08117,0.00624l-0.07357,0.03485l-0.35079,0.07017l-0.43925,0.14641l-0.08117,0.00625l-0.07357,0.03485l-0.31346,0.0627l-0.31963,0.12785l-0.05798,0.0079l-0.0503,0.02991l-0.85889,0.25767l-0.11758,0.00548l-0.11033,0.04099l-0.70379,0.07819l-0.70501,0.15668l-0.14184,-0.00373l-0.13765,0.03441h-6.61345l-0.10446,-0.02611l-0.10734,0.00859l-0.92549,-0.15426h-0.66638l-0.05305,-0.01326l-0.05396,0.00881l-1.03067,-0.08589l-0.0839,-0.02857l-0.08859,0.00232l-0.773,-0.17178l-0.04286,-0.02142l-0.04786,-0.00222l-0.74703,-0.22412l-0.65695,-0.07299l-0.12847,-0.04772l-0.13665,-0.01051l-0.773,-0.25767l-0.0925,-0.05887l-0.10636,-0.02659l-1.16757,-0.62271l-0.40199,-0.11485l-0.00107,0.00024l-0.07824,0.0498l-0.31698,0.10566l-0.17631,0.13223l-0.10793,0.04544l-0.08891,0.0762l-0.34356,0.17178l-0.1385,0.03078l-0.12519,0.06677l-0.25873,0.06469l-0.34826,0.13931l-0.03839,0.00522l-0.03269,0.0208l-0.773,0.25767l-0.20648,0.01587l-0.20091,0.05023h-0.03681l-0.00613,0.01074l-0.03588,0.00897l-0.03212,0.01604l-0.28898,0.06423l-0.28718,0.0718h-0.03588l-0.03612,0.00802l-0.01204,-0.00802h-3.69506l-0.24657,-0.06165l-0.09504,0.02592l-0.14196,-0.08517l-0.1606,-0.04014l-0.04887,-0.08555l-0.21795,-0.13076l-0.17178,-0.17178l-0.34161,-0.56937l0.01338,-0.04908l-0.03393,-0.03793l0.05093,-0.66203l0.01977,-0.05933v-1.21375l-0.10566,-0.317l-0.01589,-0.20648l-0.05023,-0.20091v-0.03942l-0.20754,-0.41508l-0.02012,-0.09051l-0.04978,-0.07824l-0.05693,-0.1708l-0.13084,-0.26165l-0.03077,-0.1385l-0.06677,-0.12519l-0.06469,-0.25871l-0.04109,-0.10274l-0.07069,-0.07069l-0.10655,-0.17758l-0.13478,-0.15725l-0.05002,-0.10003l-0.40007,-0.60012l-0.23168,-0.23168l-0.9221,-0.83828l-0.10468,-0.15702l-0.13344,-0.13344l-0.17607,-0.29345l-0.2314,-0.2314l-0.0554,-0.09233l-0.08197,-0.06983l-0.42074,-0.58904l-0.11628,-0.15503l-0.07405,-0.04935l-0.08632,-0.09494l-0.11002,-0.06603l-0.54179,-0.54177l-0.01419,-0.00283l-0.01987,-0.03121l-0.02539,-0.02539l-0.1523,-0.25384l-0.15893,-0.24975l-0.01135,-0.03405l-0.01905,-0.03173l0.00381,-0.01397l-0.05931,-0.17793l-0.00387,-0.05037l-0.02377,-0.04458l-0.05158,-0.20636l-0.02264,-0.04528l-0.02012,-0.09051l-0.04978,-0.07824l-0.08589,-0.25767l-0.01589,-0.20648l-0.05023,-0.20091v-3.77911l0.03113,-0.12449l-0.00612,-0.12818l0.08589,-0.42944l0.02278,-0.04808l0.00179,-0.05318l0.1222,-0.42773v-1.1079l0.03846,-0.15386v-0.1586l0.08589,-0.34356l0.02377,-0.04458l0.00388,-0.05037l0.10566,-0.317v-0.22037l0.01257,-0.0503l-0.01951,-0.03905l0.0976,-0.27328l0.07039,-0.28154l0.03789,-0.02166l0.01744,-0.04882l0.07608,-0.11411l0.03721,-0.11162l-0.12409,-0.12409l-0.0477,-0.07952l-0.07197,-0.05847l-0.20273,-0.27031l-0.10703,-0.10703l-0.10655,-0.17758l-0.13478,-0.15725l-0.05,-0.10003l-0.02365,-0.03547l-0.2628,-0.21902l-0.00441,-0.00024l-0.01031,-0.01202l-0.09427,-0.07855l-0.15577,-0.21314l-0.1718,-0.20043l-0.05488,-0.10977l-0.00934,-0.01278l0.00077,-0.00435l-0.06313,-0.12626l-0.37068,-0.51896l-0.03028,-0.07687l-0.04865,-0.02781l-0.06548,-0.26193l-0.09894,-0.25119l0.02343,-0.05091l-0.02003,-0.08013v-0.09906l-0.08682,-0.34727l-0.15903,-0.26505l-0.05547,-0.18226l-0.08967,-0.16812l-0.17178,-0.68711v-0.0314l-0.01345,-0.02839l-0.0359,-0.17953l-0.0304,-0.04561l-0.01744,-0.0488l-0.03789,-0.02166l-0.07039,-0.28153l-0.0976,-0.2733l0.01951,-0.03905l-0.01257,-0.05028v-0.23693l-0.06835,-0.41015l0.00859,-0.10734l-0.02613,-0.10446v-0.16611l-0.15376,-1.07641l-0.07888,-0.39437l0.00612,-0.12818l-0.03113,-0.12449v-2.92022l0.02249,-0.08996l-0.00955,-0.09224l0.08589,-0.60122l0.19127,-0.4695l0.00381,-0.06851l0.03704,-0.03174l0.01841,-0.04518l0.06378,-0.02527l0.38492,-0.32993l0.26837,-0.13418l0.00718,-0.01257l0.0359,-0.00897l0.03211,-0.01604l0.23077,-0.05129l0.06019,-0.04013l0.07666,-0.02738l0.06181,-0.05298l0.17178,-0.08589l0.09053,-0.02012l0.07823,-0.04978l0.42847,-0.14283l0.26167,-0.13084l0.05337,-0.01185l0.04432,-0.032l0.3797,-0.15187l0.73921,-0.36961l0.19093,-0.12727l0.16206,-0.05787l0.14517,-0.09238l0.0139,-0.00464l0.04995,-0.06148l0.27031,-0.20273l0.13098,-0.13098l0.07828,-0.15656l0.13478,-0.15725l0.10655,-0.17758l0.25336,-0.25336l0.10102,-0.15153l0.0666,-0.06055l0.01316,-0.05262l0.10375,-0.19454l0.07416,-0.20763l0.24784,-0.37178l0.11722,-0.35165l0.11117,-0.17473l0.08036,-0.19088l0.11494,-0.15323l0.10642,-0.37248l0.08469,-0.14678l0.04935,-0.16212l0.15903,-0.26505l0.03939,-0.15757l0.05311,-0.0996l0.01945,-0.11119l0.3183,-0.71616l0.15211,-0.45633l0.07617,-0.11971l0.04131,-0.13572l0.25767,-0.42944l0.06211,-0.06211l0.03661,-0.07986l0.25829,-0.32286l0.19662,-0.39327l0.0762,-0.08891l0.04544,-0.10793l0.15544,-0.20723l0.10849,-0.27124l0.06107,-0.08457l0.03037,-0.0998l0.25767,-0.42944l0.04782,-0.04782l0.02625,-0.06234l0.24868,-0.33157l0.85018,-1.19025l0.08197,-0.06983l0.0554,-0.09233l0.51533,-0.51533l0.07952,-0.0477l0.05847,-0.07197l0.27031,-0.20273l0.27881,-0.27881l0.04332,-0.02599l0.02924,-0.04119l0.60122,-0.51533l0.11025,-0.05512l0.089,-0.08527l0.58932,-0.33675l0.4177,-0.25061l0.0998,-0.03037l0.08458,-0.06107l0.42944,-0.17178l0.0878,-0.01199l0.07821,-0.04169l0.6391,-0.15979l0.46839,-0.15613l0.20649,-0.01589l0.20091,-0.05023h3.865l0.07898,0.01974l0.0808,-0.00981l0.60753,0.07594h0.34924l0.20091,0.05023l0.20649,0.01589l0.46839,0.15613l0.29556,0.07388l0.01244,0.00663l0.01409,0.00029l0.94478,0.25767l0.05301,0.02972l0.06038,0.00691l0.66478,0.2493l0.49271,0.16424l0.14517,0.09238l0.16206,0.05787l0.37178,0.24784l0.01424,0.00476l0.01397,-0.00381l0.03173,0.01905l0.03405,0.01135l0.24975,0.15893l0.25384,0.1523l0.02539,0.02539l0.03121,0.01986l0.00283,0.01419l0.1569,0.1569l0.47045,0.39203l0.10966,0.15007l0.13753,0.12502l0.30537,0.45806l0.34139,0.40966l0.0052,-0.0156l0.26227,-0.12425l0.24885,-0.14931l0.04212,0.01149l0.04684,-0.02219l0.19394,-0.03879l0.13868,-0.08321l0.04887,-0.08555l0.1606,-0.04014l0.14196,-0.08517l0.09504,0.02592l0.23169,-0.05792l0.03692,-0.0235l0.01826,-0.0061z" fill="#4b2567" stroke="none" stroke-width="0.5" stroke-linecap="butt"/><path d="M296.90937,169.7695c3.47666,2.20736 4.76496,6.40673 2.8775,9.37952c-1.88746,2.97279 -6.23595,3.5933 -9.71261,1.38592c-3.47666,-2.20736 -4.76495,-6.40675 -2.87749,-9.37954c1.88746,-2.97279 6.23593,-3.59328 9.7126,-1.3859z" data-paper-data="{&quot;index&quot;:null}" fill="#bd56bb" stroke="none" stroke-width="0" stroke-linecap="butt"/><path d="M297.36805,157.18021c4.78456,-1.10068 9.42619,1.32358 10.36733,5.41473c0.94115,4.09115 -2.17454,8.29996 -6.9591,9.40065c-4.78456,1.10068 -9.42619,-1.32358 -10.36733,-5.41473c-0.94115,-4.09115 2.17454,-8.29995 6.9591,-9.40063z" data-paper-data="{&quot;index&quot;:null}" fill="#bd56bb" stroke="none" stroke-width="0" stroke-linecap="butt"/><path d="M267.69672,170.29654c1.88746,2.97279 0.59918,7.17217 -2.87749,9.37954c-3.47666,2.20736 -7.82517,1.58687 -9.71263,-1.38592c-1.88746,-2.97279 -0.59916,-7.17216 2.8775,-9.37952c3.47666,-2.20736 7.82515,-1.58688 9.71261,1.3859z" fill="#bd56bb" stroke="none" stroke-width="0" stroke-linecap="butt"/><path d="M264.48453,165.72195c-0.94115,4.09115 -5.58276,6.51541 -10.36733,5.41475c-4.78456,-1.10068 -7.90027,-5.30948 -6.95912,-9.40063c0.94115,-4.09115 5.58276,-6.5154 10.36733,-5.41473c4.78456,1.10068 7.90027,5.30948 6.95912,9.40063z" fill="#bd56bb" stroke="none" stroke-width="0" stroke-linecap="butt"/><path d="M254.29586,152.91102c0,-12.21456 9.90184,-22.1164 22.1164,-22.1164c12.21456,0 22.1164,9.90184 22.1164,22.1164c0,12.21456 -9.90184,25.2084 -22.1164,25.2084c-12.21456,0 -22.1164,-12.99385 -22.1164,-25.2084z" fill="#f190ef" stroke="none" stroke-width="0" stroke-linecap="butt"/><path d="M258.69858,154.6677c0,-4.45891 3.61465,-8.07356 8.07356,-8.07356c4.45891,0 8.07356,3.61465 8.07356,8.07356c0,4.45891 -3.61465,8.07356 -8.07356,8.07356c-4.45891,0 -8.07356,-3.61465 -8.07356,-8.07356z" fill="#ffffff" stroke="none" stroke-width="0" stroke-linecap="butt"/><path d="M268.91936,164.63084c0,1.47049 -0.80753,2.66256 -1.80367,2.66256c-0.99614,0 -1.80367,-1.19207 -1.80367,-2.66256c0,-1.47049 1.80367,-2.66256 1.80367,-2.66256c0,0 1.80367,1.19207 1.80367,2.66256z" fill="#ffffff" stroke="none" stroke-width="0" stroke-linecap="butt"/><path d="M278.19537,154.8395c0,-4.45891 3.61465,-8.07356 8.07356,-8.07356c4.45891,0 8.07356,3.61465 8.07356,8.07356c0,4.45891 -3.61465,8.07356 -8.07356,8.07356c-4.45891,0 -8.07356,-3.61465 -8.07356,-8.07356z" fill="#ffffff" stroke="none" stroke-width="0" stroke-linecap="butt"/><path d="M288.41616,164.80261c0,1.47049 -0.80753,2.66256 -1.80367,2.66256c-0.99614,0 -1.80367,-1.19207 -1.80367,-2.66256c0,-1.47049 1.80367,-2.66256 1.80367,-2.66256c0,0 1.80367,1.19207 1.80367,2.66256z" fill="#ffffff" stroke="none" stroke-width="0" stroke-linecap="butt"/><path d="M262.64946,152.7352c0,-2.63265 2.13419,-4.76684 4.76684,-4.76684c2.63265,0 4.76684,2.13419 4.76684,4.76684c0,2.63265 -2.13419,4.76684 -4.76684,4.76684c-2.63265,0 -4.76684,-2.13419 -4.76684,-4.76684z" fill="#000000" stroke="none" stroke-width="0" stroke-linecap="butt"/><path d="M279.56959,153.16465c0,-2.63265 2.13419,-4.76684 4.76684,-4.76684c2.63265,0 4.76684,2.13419 4.76684,4.76684c0,2.63265 -2.13419,4.76684 -4.76684,4.76684c-2.63265,0 -4.76684,-2.13419 -4.76684,-4.76684z" fill="#000000" stroke="none" stroke-width="0" stroke-linecap="butt"/><path d="M278.28126,130.27526l0.23673,0.05918l0.24176,0.03296l0.19907,0.07964h0.09544l0.20091,0.05023l0.20648,0.01589l0.05933,0.01977h0.13448l0.12449,0.03113l0.12818,-0.0061l0.42944,0.08589l0.15551,0.07368l0.16798,0.03733l0.17178,0.08589l0.06182,0.05298l0.07666,0.02738l0.01256,0.00837l0.07532,0.01883l0.28898,0.06423l0.03212,0.01604l0.03588,0.00897l0.0022,0.00385l0.02757,0.00689h0.18495l0.20091,0.05023l0.20648,0.01589l0.25767,0.08589l0.03269,0.02079l0.03839,0.00524l0.34826,0.13931l0.25873,0.06469l0.08891,0.04741h0.11396l0.20091,0.05023l0.20648,0.01589l0.25767,0.08589l0.07824,0.04978l0.09051,0.02012l0.18923,0.09462l0.26026,0.05205l0.11756,0.05569l0.02333,0.00517h0.03588l0.28718,0.0718l0.28898,0.06423l0.03212,0.01604l0.03588,0.00897l0.00718,0.01257l0.04866,0.02434l0.29852,0.1194l0.25873,0.06469l0.04458,0.02377l0.05037,0.00387l0.17793,0.05931l0.01397,-0.00381l0.03173,0.01903l0.03406,0.01135l0.24975,0.15893l0.08122,0.04873l0.43298,0.10825l0.12519,0.06677l0.1385,0.03078l0.08989,0.04494l0.09106,0.03035l0.01397,-0.00381l0.03173,0.01905l0.03406,0.01135l0.24975,0.15893l0.08122,0.04873l0.08943,0.02235l0.04458,0.02377l0.05037,0.00387l0.25767,0.08589l0.07824,0.04978l0.09051,0.02012l0.46741,0.2337l0.34453,0.13782l0.22175,0.07392l0.14519,0.09238l0.16206,0.05787l0.19093,0.12727l0.10003,0.05002l0.06182,0.05298l0.07666,0.02738l0.19093,0.12727l0.18993,0.09496l0.09104,0.03035l0.01397,-0.00381l0.03173,0.01905l0.03405,0.01135l0.24975,0.15893l0.25384,0.1523l0.02539,0.02539l0.03121,0.01986l0.00283,0.01419l0.0504,0.05038l0.50011,0.25006l0.10406,0.08919l0.12459,0.05712l0.3858,0.30862l0.72648,0.48433l0.02463,0.02707l0.03374,0.01421l0.31495,0.23621l0.22791,0.15195l0.02462,0.02707l0.03374,0.01421l0.34356,0.25767l0.05847,0.07196l0.07952,0.04772l1.03067,1.03067l0.00378,0.00627l0.02264,0.00637l0.15058,0.28233l0.16463,0.27438l-0.0062,0.02269l0.00119,0.00222l0.00694,0.00694l0.1523,0.25384l0.15893,0.24975l0.01134,0.03405l0.01905,0.03173l-0.00381,0.01397l0.03035,0.09106l0.33655,0.67308l0.18796,0.25062l0.04544,0.10793l0.0762,0.08891l0.29161,0.5832l0.18796,0.25062l0.04544,0.10793l0.0762,0.08891l0.13591,0.27182l0.26804,0.40208l0.30863,0.38578l0.04231,0.0923l0.07026,0.07331l0.33095,0.57915l0.41598,0.66555l0.07155,0.22058l0.09927,0.20959l0.08589,0.42944l-0.00101,0.0213l0.0085,0.01957l0.08589,0.51533l-0.00287,0.03583l0.01251,0.0337l0.08589,0.773l-0.00972,0.07189l0.01759,0.07038v0.35673l0.13332,0.53325v0.05251l0.02094,0.04815l0.08589,0.51533l-0.00857,0.10733l0.02611,0.10448v0.30188l0.14675,0.7338l-0.0061,0.12816l0.03111,0.12449v0.35501l0.0464,0.12988l0.10786,0.24808l0.01687,0.10113l0.00763,0.02135l-0.00306,0.0061l0.06445,0.38676l-0.00857,0.10734l0.02611,0.10446v0.15104l0.06835,0.41015l-0.00859,0.10734l0.02611,0.10446v0.47804l0.01979,0.05933l0.01589,0.20648l0.05023,0.20091v0.13416l0.06088,0.12851l0.08589,0.42944l-0.0061,0.12816l0.03111,0.12449v0.16312l0.12222,0.42773l0.00177,0.05318l0.02278,0.0481l0.07567,0.37831l0.15745,0.55108l0.00945,0.28374l0.04011,0.07019l-0.03568,0.06246l0.00825,0.24722l-0.3606,0.36941l-0.25612,0.4482l-0.23997,0.06l-0.05026,0.05148l-0.0785,-0.01929l-0.0875,0.02188l-0.00816,0.0085h-0.02589l-0.15386,0.03846h-0.17178l-0.15386,-0.03846h-0.1586l-0.34356,-0.08589l-0.12519,-0.06675l-0.1385,-0.03078l-0.06871,-0.03436l-0.00634,-0.00141h-0.0359l-0.2872,-0.07179l-0.28896,-0.06423l-0.03211,-0.01604l-0.0359,-0.00898l-0.00718,-0.01256l-0.04866,-0.02434l-0.3797,-0.15187l-0.04432,-0.03202l-0.05337,-0.01185l-0.68711,-0.34356l-0.15725,-0.13478l-0.17758,-0.10655l-0.05962,-0.05964l-0.20043,-0.12026l-0.0108,0.00074l-0.0234,-0.02127l-0.0588,-0.03528l-0.19992,-0.19992l-0.20921,-0.19018l-0.03803,-0.05706l-0.02235,-0.02235l0.00024,-0.01084l-0.11162,-0.16741l-0.02738,-0.07666l-0.05298,-0.06181l-0.08589,-0.17178l-0.0062,-0.02785l-0.05078,-0.01015l-0.13119,-0.20615l-0.16437,-0.1808l0.00483,-0.0699l-0.02973,-0.04674l-0.0089,-0.0089l-0.01419,-0.00283l-0.01986,-0.03121l-0.02539,-0.02539l-0.1523,-0.25384l-0.15893,-0.24975l-0.01135,-0.03405l-0.01905,-0.03173l0.00381,-0.01397l-0.04734,-0.14199l-0.05952,-0.14878l-0.07069,-0.07069l-0.00376,-0.00627l-0.02266,-0.00636l-0.15058,-0.28235l-0.16463,-0.27438l0.00618,-0.02269l-0.00344,-0.00646l-0.07143,-0.28574l-0.08555,-0.14258l-0.15893,-0.24975l-0.01135,-0.03405l-0.01905,-0.03173l0.00381,-0.01397l-0.03035,-0.09106l-0.04494,-0.08987l-0.02012,-0.09051l-0.04978,-0.07824l-0.08589,-0.25767l-0.00387,-0.05037l-0.02377,-0.04458l-0.02279,-0.09115l-0.00737,-0.00983l-0.00093,-0.00026l-0.00182,-0.00342l-0.09145,-0.12193l-0.09906,-0.23528l-0.12014,-0.22525l-0.03697,-0.14787l-0.00151,-0.00356l0.0004,-0.00089l-0.01352,-0.05402l-0.19442,-0.38885l-0.03077,-0.1385l-0.06677,-0.12519l-0.07388,-0.29556l-0.09003,-0.27005l-0.03801,-0.05071l-0.00093,-0.00026l-0.00182,-0.00342l-0.09145,-0.12193l-0.09906,-0.23528l-0.12014,-0.22525l-0.03697,-0.14785l-0.00151,-0.00356l0.0004,-0.00089l-0.03336,-0.13342l-0.0398,-0.06632l-0.13478,-0.15725l-0.07828,-0.15656l-0.10983,-0.10983l-0.00376,-0.00627l-0.02266,-0.00636l-0.15058,-0.28235l-0.16463,-0.27438l0.00618,-0.02269l-0.00344,-0.00646l-0.02279,-0.09116l-0.10157,-0.13541l-0.04544,-0.10793l-0.0762,-0.08891l-0.13591,-0.2718l-0.05651,-0.08477l-0.16747,-0.16747l-0.06601,-0.11004l-0.09494,-0.08632l-0.30539,-0.45808l-0.34797,-0.41757l-0.38811,-0.38811l-0.10655,-0.17758l-0.13478,-0.15725l-0.07828,-0.15656l-0.68479,-0.68479l-0.29345,-0.17607l-0.11214,-0.11215l-0.13601,-0.08159l-0.45339,-0.45339l-0.32834,-0.16417l-0.11372,-0.09748l-0.13488,-0.06512l-0.51533,-0.42944l-0.03515,-0.0481l-0.00545,-0.00326l-0.21433,-0.08573l-0.10925,-0.07891l-0.12691,-0.04532l-0.23216,-0.15477l-0.36072,-0.21644l-0.04564,-0.02281l-0.1708,-0.05693l-0.02204,-0.01402v0.3378l-0.03846,0.15388v0.15859l-0.08589,0.34356l-0.04171,0.07819l-0.01197,0.08781l-0.12006,0.30013l-0.06301,0.37796l-0.0085,0.01957l0.00101,0.02132l-0.08589,0.42944l-0.07366,0.15551l-0.03733,0.16798l-0.42944,0.85889l-0.13478,0.15725l-0.10655,0.17758l-0.16747,0.16747l-0.2728,0.40917l-0.09494,0.08632l-0.06603,0.11002l-0.13603,0.13603l-0.01378,0.04526l-0.25767,0.42944l-0.11214,0.11215l-0.08161,0.136l-0.02395,0.02395l-0.07828,0.15656l-0.13478,0.15725l-0.10655,0.17758l-0.27881,0.27881l-0.20273,0.27031l-0.05317,0.0432l-0.00991,0.04954l-0.23556,0.14991l-0.2167,0.17606l-0.0067,-0.00082l-0.07919,0.09747l-0.02872,0.02154l-0.02408,0.0281l-0.01445,0.00079l-0.2763,0.20723l-0.03374,0.01421l-0.02462,0.02709l-0.15153,0.10101l-0.08158,0.08158l-0.11002,0.06601l-0.08632,0.09494l-1.18219,0.78813l-0.16747,0.16745l-0.17758,0.10655l-0.15725,0.13478l-0.10003,0.05002l-0.34244,0.22829l-0.16747,0.16747l-0.17758,0.10655l-0.15725,0.13478l-0.32834,0.16417l-0.02395,0.02395l-0.00629,0.00378l-0.00636,0.02264l-0.28235,0.15058l-0.27438,0.16463l-0.02269,-0.0062l-0.00646,0.00344l-0.12706,0.03178l-0.32966,0.21977l-0.07666,0.02738l-0.06182,0.05298l-0.09659,0.0483l-0.00718,0.01256l-0.03588,0.00898l-0.03212,0.01604l-0.28898,0.06423l-0.28718,0.07179h-0.03588l-0.03612,0.00804l-0.01204,-0.00804h-0.04124l-0.41508,0.20754l-0.16798,0.03733l-0.15551,0.07368l-0.42944,0.08589l-0.12818,-0.0061l-0.12449,0.03111h-3.092l-0.15386,-0.03846h-0.1586l-0.18969,-0.04741h-0.27084l-0.15386,-0.03848h-0.1586l-0.18969,-0.04741h-0.09906l-0.10446,-0.02611l-0.10734,0.00859l-0.41015,-0.06835h-0.41055l-0.01204,0.00802l-0.03612,-0.00802h-0.0359l-0.28718,-0.0718l-0.28898,-0.06423l-0.03211,-0.01604l-0.0359,-0.00897l-0.00718,-0.01257l-0.18646,-0.09324l-0.1708,-0.05693l-0.14519,-0.0924l-0.16206,-0.05787l-0.19093,-0.12729l-0.42836,-0.21419l-0.0197,0.00136l-0.2466,-0.22419l-0.25305,-0.21689l-0.0011,-0.01972l-0.16233,-0.24351l-0.13978,-0.39136l-0.06141,-0.06864l0.00654,-0.08501l-0.02867,-0.08029l0.04119,-0.08238l0.02338,-0.30393l-0.62788,0.62788l-0.20273,0.27031l-0.12681,0.10305l-0.09905,0.12997l-0.42944,0.34356l-0.05183,0.02376l-0.03834,0.04219l-0.15151,0.10102l-0.85458,0.85456l-0.136,0.08161l-0.11214,0.11215l-0.38533,0.2312l-0.55936,0.39954l-0.04885,0.01924l-0.03712,0.03712l-0.40316,0.2419l-0.48982,0.32655l-0.02958,0.01056l-0.02221,0.02221l-0.42944,0.25767l-0.16212,0.04935l-0.14678,0.08469l-0.37248,0.10642l-0.06984,0.05239l-0.00366,0.01094l-0.02968,0.01405l-0.05006,0.03753l-0.26272,0.11061l-0.25762,0.12203l-0.06134,0.01228l-0.03028,0.01275l-0.01058,-0.00459l-0.32724,0.06545l-0.12818,-0.0061l-0.12449,0.03111h-3.95089l-0.12449,-0.03111l-0.12816,0.0061l-0.30436,-0.06088h-0.04604l-0.01204,0.00802l-0.03612,-0.00802h-0.0359l-0.2872,-0.0718l-0.28896,-0.06423l-0.03211,-0.01604l-0.0359,-0.00897l-0.00718,-0.01257l-0.09659,-0.04829l-0.06181,-0.05298l-0.07666,-0.02738l-0.19093,-0.12729l-0.2718,-0.13591l-0.15723,-0.13478l-0.1776,-0.10655l-0.17178,-0.17178l-0.17394,-0.28991l-0.06739,-0.04492l0.00342,-0.06169l-0.10372,-0.17286l0.13679,-0.50151l-0.00768,-0.01534l0.01532,-0.04286l0.02788,-0.50211l0.15305,-0.1312l0.01625,-0.05959l0.07814,-0.02132l0.01017,-0.00873l-0.0005,-0.00182l0.01905,-0.03173l0.01135,-0.03405l0.15893,-0.24975l0.1305,-0.21752l0.01302,-0.06509l0.07368,-0.15553l0.03733,-0.16798l0.3026,-0.60521l0.14283,-0.42848l0.04978,-0.07824l0.02012,-0.09051l0.20412,-0.40823l0.13888,-0.4861l0.06028,-0.10448l0.02616,-0.11775l0.34356,-0.68711l0.0762,-0.08891l0.04544,-0.10793l0.08233,-0.10978l0.02858,-0.14288l0.07366,-0.15551l0.03733,-0.16798l0.04494,-0.08987l0.12718,-0.38154l0.07388,-0.29556l0.02377,-0.04458l0.00387,-0.05037l0.08589,-0.25767l0.0235,-0.03692l0.06808,-0.2723l0.06423,-0.28898l0.01604,-0.03211l0.00897,-0.0359l0.01257,-0.00718l0.0483,-0.09659l0.05298,-0.06182l0.02738,-0.07666l0.0304,-0.04561l0.01089,-0.05444v-0.21598l0.05023,-0.20091l0.01589,-0.20648l0.4138,-1.2414l0.05777,-0.23108l0.07649,-0.53543l0.02551,-0.06263v-0.06763l0.08589,-0.34356l0.06677,-0.12519l0.03077,-0.1385l0.13084,-0.26167l0.11624,-0.34873l-0.00381,-0.01397l0.01905,-0.03173l0.01135,-0.03405l0.15893,-0.24975l0.02743,-0.04574l0.0302,-0.15099l0.07366,-0.15553l0.03733,-0.16798l0.40548,-0.81095l0.09614,-0.24035l-0.00069,-0.00249l0.00505,-0.0084l0.05138,-0.12846l0.13966,-0.19337l0.0061,-0.0791l0.08589,-0.25767l0.04978,-0.07824l0.00598,-0.02683l-0.00026,-0.00091l0.00072,-0.0012l0.01369,-0.06157l0.08589,-0.17178l0.13478,-0.15725l0.10655,-0.17758l0.10983,-0.10983l0.07828,-0.15656l0.13478,-0.15725l0.10655,-0.17758l0.60122,-0.60122l0.1776,-0.10655l0.15725,-0.13478l0.15656,-0.07828l0.79695,-0.79695l0.11004,-0.06601l0.08632,-0.09494l0.40919,-0.2728l0.16747,-0.16745l0.1776,-0.10655l0.15723,-0.13478l0.23965,-0.11983l0.25061,-0.18796l0.10793,-0.04544l0.08891,-0.0762l0.23965,-0.11983l0.25061,-0.18796l0.10793,-0.04544l0.08891,-0.0762l0.29931,-0.14965l0.38702,-0.23221l0.04834,-0.0147l0.03834,-0.03288l0.85889,-0.42944l0.11775,-0.02618l0.10448,-0.06026l0.28024,-0.08007l0.02159,-0.02161l0.21793,-0.13077l0.04889,-0.08553l0.1606,-0.04014l0.14196,-0.08518l0.09504,0.02592l0.24657,-0.06165h0.04861l0.31698,-0.10566l0.11676,-0.00898l0.10844,-0.04418l0.34368,-0.04909l0.20636,-0.1238l0.23029,-0.07009l0.22075,-0.09597l0.49484,-0.08247l0.35793,-0.07158l0.52416,-0.14977l0.23111,-0.07704l0.05037,-0.00387l0.04458,-0.02377l0.34356,-0.08589h0.0314l0.02839,-0.01345l0.17953,-0.0359l0.04561,-0.0304l0.04882,-0.01744l0.02164,-0.03789l0.28154,-0.07039l0.2733,-0.0976l0.03905,0.01951l0.05028,-0.01257h3.52145c0.2196,0 0.42635,0.05493 0.60729,0.15182l0.03688,0.00922l0.00615,0.01074z" fill="#4b2567" stroke="none" stroke-width="0.5" stroke-linecap="butt"/><path d="M284.03338,171.99151c0,0 -4.42303,0.68711 -6.69934,0.68711c-1.8376,0 -5.92634,-0.68711 -5.92634,-0.68711" data-paper-data="{&quot;index&quot;:null}" fill="none" stroke="#000000" stroke-width="0.5" stroke-linecap="round"/><path d="M276.36164,165.06028c0,0 -1.70139,-0.05006 -1.68763,-0.52442c0.00964,-0.33253 0.48816,0.44528 0.66638,-0.32581c0.37296,-1.61358 0.59181,-3.70188 0.59181,-3.70188" data-paper-data="{&quot;index&quot;:null}" fill="none" stroke="#000000" stroke-width="0.5" stroke-linecap="round"/><path d="M267.58809,144.11412c-2.6785,-2.6785 6.33335,-2.39118 8.64718,-3.70396c1.44886,-0.82203 3.94344,-6.63162 5.21554,-6.50257c0.15999,-0.07127 0.3372,-0.11088 0.52368,-0.11088c0.5943,0 1.0946,0.40239 1.24333,0.94959l0.18569,-0.05222l0.16886,0.16181l0.23331,0.0161l0.19921,0.3984l0.33601,0.32203v0.35003l0.04542,0.09084l-0.04542,0.12717v0.09597l-0.07845,0.31382l-0.1769,0.88445l0.34861,-0.09803l0.01768,0.01694l0.02379,-0.00584l0.43348,0.44405l0.46246,0.44319v0.03056l0.01103,0.01129l-0.01082,0.32464l0.04901,0.028l0.12742,0.50968l0.04166,0.06248l-0.01226,0.05512l0.00423,0.0169v0.773l-0.03846,0.15388v0.15859l-0.04741,0.18969v0.27084l-0.03848,0.15386v0.15859l-0.08589,0.34356l-0.02377,0.04458l-0.00387,0.05037l-0.07026,0.21072l-0.07388,0.29556l-0.06677,0.12519l-0.03078,0.1385l-0.00873,0.01747l-0.03162,0.15805l0.00459,0.01058l-0.01276,0.03028l-0.01226,0.06134l-0.12203,0.25762l-0.11061,0.26272l-0.03753,0.05004l-0.01405,0.0297l-0.00259,0.00086l-0.01192,0.15503l-0.01189,0.0357l0.00015,0.00022l-0.00804,0.03612v0.03588l-0.07179,0.2872l-0.06423,0.28898l-0.01604,0.03211l-0.00898,0.03588l-0.01256,0.00718l-0.02434,0.04866l-0.1378,0.34453l-0.14416,0.43249l-0.0739,0.29556l-0.10375,0.19456l-0.07414,0.20763l-0.12729,0.19093l-0.2218,0.44358l-0.13478,0.15725l-0.10655,0.17758l-0.02395,0.02395l-0.07828,0.15656l-0.13478,0.15725l-0.10655,0.17758l-0.08556,0.08555l-0.00606,0.01823l0.00381,0.01397l-0.01905,0.03173l-0.01134,0.03405l-0.15893,0.24975l-0.1523,0.25384l-0.02539,0.02539l-0.01986,0.03121l-0.01419,0.00283l-1.65834,1.65834l-0.17758,0.10655l-0.15725,0.13478l-0.29931,0.14965l-0.25102,0.1506l-0.2314,0.2314l-0.00629,0.00378l-0.00636,0.02264l-0.28235,0.15058l-0.27438,0.16463l-0.02269,-0.0062l-0.00648,0.00345l-0.12705,0.03176l-0.04224,0.02815l-0.31495,0.23621l-0.10793,0.04544l-0.08891,0.0762l-0.34356,0.17178l-0.09051,0.02012l-0.07824,0.0498l-0.094,0.03133l-0.11411,0.07608l-0.12691,0.04533l-0.10925,0.0789l-0.3797,0.15187l-0.05212,0.02606l-0.19093,0.12729l-0.20763,0.07416l-0.19454,0.10375l-0.63912,0.15977l-0.17482,0.05827l-0.39428,0.15771l-0.24176,0.03296l-0.23673,0.05918h-0.09906l-0.18969,0.04743h-0.1586l-0.15386,0.03846h-4.20856l-0.20091,-0.05023l-0.20648,-0.01589l-0.05933,-0.01979h-0.30808l-0.01204,0.00804l-0.03612,-0.00804h-0.0359l-0.2872,-0.07179l-0.0595,-0.01323l-0.01074,0.00716l-0.03612,-0.00802h-0.0359l-0.2872,-0.0718l-0.28896,-0.06423l-0.03211,-0.01604l-0.0359,-0.00897l-0.00718,-0.01257l-0.18648,-0.09322l-0.42847,-0.14283l-0.14519,-0.0924l-0.16206,-0.05787l-0.25767,-0.17178l-0.02463,-0.02709l-0.03374,-0.01421l-0.34356,-0.25767l-0.05847,-0.07197l-0.07952,-0.0477l-0.51533,-0.51533l-0.10655,-0.17758l-0.10671,-0.12449l-0.12449,-0.10671l-0.17758,-0.10655l-0.06198,-0.06199l-0.10399,-0.08912l-0.17758,-0.10655l-0.10703,-0.10703l-0.27031,-0.20273l-0.05847,-0.07197l-0.07952,-0.0477l-0.09486,-0.09486l-0.01867,-0.00883l-0.00491,-0.01474l-0.05334,-0.05334l-0.34161,-0.56937l0.08433,-0.3092l-0.09503,-0.28508l0.25155,-0.28881l0.10076,-0.36951l0.28993,-0.07907l0.21048,-0.24167l0.66323,-0.03157l0.07397,0.01479l0.015,-0.00409l0.01771,0.01063l0.32275,0.06455l0.15553,0.07366l0.16798,0.03733l0.08871,0.04435c0.10942,0.01264 0.21467,0.03899 0.31398,0.0773h2.50533l0.57467,-0.19155l0.10188,-0.00785l0.0937,-0.04075l0.49484,-0.08247l0.15917,-0.03183l0.04561,-0.0304l0.07666,-0.02738l0.06182,-0.05298l0.17178,-0.08589l0.1385,-0.03078l0.12519,-0.06677l0.20636,-0.05158l0.73239,-0.3662l0.09051,-0.02012l0.07824,-0.04978l0.1708,-0.05693l0.26167,-0.13084l0.09051,-0.02012l0.07823,-0.04978l0.1708,-0.05694l0.08989,-0.04494l0.09051,-0.02012l0.07823,-0.04978l0.05933,-0.01979l0.05071,-0.03801l0.00027,-0.00093l0.0034,-0.00182l0.12193,-0.09145l0.23528,-0.09906l0.22525,-0.12014l0.14787,-0.03697l0.00356,-0.00151l0.00089,0.0004l0.10642,-0.02661l0.25241,-0.10097l0.34093,-0.20455l0.18226,-0.05547l0.16386,-0.0874l0.00694,-0.00694l0.25384,-0.1523l0.24975,-0.15893l0.03405,-0.01135l0.03173,-0.01905l0.01397,0.00381l0.09106,-0.03035l0.07465,-0.03734l0.19572,-0.19572l0.11002,-0.06601l0.08632,-0.09494l0.15153,-0.10101l0.16745,-0.16747l0.17758,-0.10655l0.15725,-0.13478l0.15656,-0.07828l0.02395,-0.02395l0.07952,-0.0477l0.05847,-0.07197l0.27031,-0.20273l0.45059,-0.45059l0.17758,-0.10655l0.15725,-0.13478l0.06354,-0.03178l0.05093,-0.04631l0.06603,-0.11002l0.57731,-0.57733l0.05183,-0.06047l0.06512,-0.1349l0.40832,-0.48998l0.23786,-0.31715l0.07196,-0.05847l0.04772,-0.07952l0.02395,-0.02395l0.20912,-0.41821l0.05693,-0.1708l0.01524,-0.02395c-3.57595,3.64116 -10.12517,6.58832 -12.74997,3.96353zM277.29962,148.53454l0.00933,-0.00622l0.07666,-0.02738l0.06182,-0.05298l0.05104,-0.02553l-0.00131,-0.00034l-0.07656,0.01914l-0.16063,0.09638z" fill="#8157a0" stroke="none" stroke-width="0.5" stroke-linecap="butt"/><path d="M281.62484,279.68303l-3.24768,-46.24714h15.71883l6.27056,41.00592l6.07068,7.31973z" fill="#e880e6" stroke="none" stroke-width="0" stroke-linecap="butt"/><path d="M248.36848,281.24193l6.99588,-6.18912l7.42388,-42.00663h15.71884l-3.76733,46.76677z" fill="#e880e6" stroke="none" stroke-width="0" stroke-linecap="butt"/><path d="M253.90206,276.14392l7.84691,-41.79866l16.62819,-0.25981l-2.16917,43.14913z" fill="#57399e" stroke="none" stroke-width="0" stroke-linecap="butt"/><path d="M279.80587,277.78001l-2.07824,-43.69458l16.62819,0.25981l8.48326,41.0714z" data-paper-data="{&quot;index&quot;:null}" fill="#57399e" stroke="none" stroke-width="0" stroke-linecap="butt"/><path d="M259.43724,244.60506l9.84636,-60.7939l13.77021,0.25981l13.36705,58.98863c0,0 -12.44657,-6.81818 -18.04208,-6.81818c-5.48785,0 -18.94154,8.36364 -18.94154,8.36364z" fill="#611772" stroke="none" stroke-width="0" stroke-linecap="butt"/><path d="M273.10606,185.51299c0,1.78237 -2.23858,3.22727 -5,3.22727c-2.76142,0 -5,-1.4449 -5,-3.22727c0,-1.78237 2.23858,-3.22727 5,-3.22727c2.76142,0 5,1.4449 5,3.22727z" fill="#2b0733" stroke="none" stroke-width="0" stroke-linecap="butt"/><path d="M289.01515,185.24026c0,1.78238 -2.23857,3.22728 -5,3.22728c-2.76143,0 -5,-1.4449 -5,-3.22728c0,-1.78238 2.23857,-3.22727 5,-3.22727c2.76143,0 5,1.44489 5,3.22727z" fill="#2b0733" stroke="none" stroke-width="0" stroke-linecap="butt"/><path d="M278.30252,185.7179c0.16166,-0.30086 0.47376,-0.59128 1.07627,-0.59128c1.25,0 1.25,1.25 1.25,1.25l-0.45845,1.05836c-2.71627,2.17468 -6.73299,2.41085 -8.92252,-0.5468c0,0 -0.69338,-1.04006 0.34669,-1.73344c1.04006,-0.69338 1.73344,0.34669 1.73344,0.34669c0.92068,1.74294 3.53324,1.22174 4.97458,0.21647z" fill="#210228" stroke="none" stroke-width="0.5" stroke-linecap="butt"/><path d="M285.40998,131.81704l2.07076,-9.47782l3.35542,3.48481l5.77479,-3.25026l1.40139,6.51609l5.71152,1.32568l-5.57012,8.10273c0,0 -1.34926,-0.1906 -2.83472,-0.71529c-1.35824,-0.47976 -2.83717,-1.2841 -3.36256,-1.54844c-2.24927,-1.13165 -4.2641,-2.57398 -5.12896,-3.02878c-0.79311,-0.41706 -1.41753,-1.40872 -1.41753,-1.40872z" fill="#60706c" stroke="none" stroke-width="0" stroke-linecap="butt"/></g></g></svg>