<svg version="1.1" xmlns="http://www.w3.org/2000/svg" xmlns:xlink="http://www.w3.org/1999/xlink" width="196.9088" height="247.25826" viewBox="0,0,196.9088,247.25826"><g transform="translate(-118.19353,-79.03548)"><g data-paper-data="{&quot;isPaintingLayer&quot;:true}" fill-rule="nonzero" stroke-linejoin="miter" stroke-miterlimit="10" stroke-dasharray="" stroke-dashoffset="0" style="mix-blend-mode: normal"><path d="M217.90257,107.35651l0.65203,-0.32601l0.17566,-0.03903l0.15181,-0.0966l0.32047,-0.10683l0.1671,-0.08355l0.17566,-0.03903l0.15181,-0.0966l0.10414,-0.03472l0.32747,-0.2456l0.37038,-0.15595l0.33905,-0.21576l0.32047,-0.10683l0.40724,-0.20362l0.73271,-0.43962l0.09378,-0.02855l0.07442,-0.06379l0.18012,-0.09006l0.01393,-0.02438l0.06966,-0.01741l0.06231,-0.03115l0.56076,-0.12461l0.55728,-0.13932h0.06966l0.0701,-0.01558l0.02336,0.01558h0.18115l0.26031,-0.06508l0.29928,-0.09976l1.04547,-0.44806l0.29747,-0.04798l0.27633,-0.12014l0.60724,-0.10121l0.64181,-0.32091l0.26877,-0.05973l0.24293,-0.12956l0.65203,-0.16301h0.06096l0.05509,-0.02609l0.81503,-0.163l0.24872,0.01184l0.24157,-0.06039h0.44512l0.58047,-0.09674l1.28098,-0.42699l0.31356,-0.02412l0.29889,-0.09782l2.2821,-0.163l0.08974,0.01574l0.08838,-0.0221h12.55155l0.0951,0.02378l0.09664,-0.01641l2.11909,0.163l0.00778,0.00259l0.00809,-0.00133l1.95609,0.16301l0.11664,0.03971l0.12296,-0.00802l1.79307,0.32601l0.07586,0.03431h0.08326l3.26014,0.81504l0.0865,0.04613l0.09774,0.00752l1.34472,0.44824l1.34117,0.29803l0.11739,0.0587l0.13085,0.01007l2.93413,0.97804l0.1037,0.06599l0.12108,0.02119l1.17643,0.52285l0.41484,0.06914l0.01184,-0.00592l0.04143,0.0148l0.19622,0.0327l0.4814,0.20931l0.49435,0.17655l0.16552,0.11035l0.04035,0.01754l0.00459,0.01242l0.63808,0.42539l0.83883,0.41942l0.20193,0.17309l0.24178,0.11081l0.81503,0.65203l0.08532,0.11198l0.12071,0.07243l1.14105,1.14105l0.12811,0.21352l0.18425,0.1675l0.65202,0.97804l0.0296,0.08287l0.06088,0.06353l0.54285,0.94999l0.67416,0.80899l0.17072,0.35364l0.22992,0.31834l0.65203,1.63007l0.03665,0.26874l0.10815,0.24873l0.15638,0.93828l0.27309,1.36547l0.24077,0.60192l0.03665,0.26874l0.10814,0.24873l0.163,0.97804l-0.00238,0.02978l0.01127,0.02766l0.163,1.14105l-0.00412,0.03988l0.01396,0.03759l0.13981,1.2583l0.26831,0.93909l0.01162,0.34851l0.08458,0.33829v1.58617l0.11799,0.70794l0.28352,1.27585l0.28523,0.85569l0.01006,0.13085l0.0587,0.11739l0.32601,1.46707l-0.0018,0.06849l0.02732,0.06283l0.11858,0.71148l0.22565,0.56412l0.02323,0.1704l0.08093,0.15174l0.163,0.65203v0.06096l0.02609,0.05509l0.05179,0.25898l0.14878,0.19837l0.15596,0.37038l0.21576,0.33904l0.10683,0.32047l0.03115,0.06231l0.18113,0.12075l0.1675,0.18424l0.21351,0.12812l0.40884,0.40883l0.84171,0.70143l0.47626,0.35719l1.00592,0.57481l0.01974,0.01891l0.02615,0.00796l0.81504,0.48902l0.07969,0.07969l0.1045,0.0422l3.58616,2.60811l0.03779,0.04513l0.05352,0.02453l1.54535,1.23629l2.35483,1.56989l0.09774,0.10751l0.13037,0.06415l2.1191,1.79308l0.10056,0.13981l0.14282,0.09624l1.46706,1.63007l0.60393,1.13817l-0.19603,0.59383l0.16454,0.60332l-0.66291,1.10486l-0.32601,0.32601l-0.34461,0.20676l-0.30513,0.26154l-0.89217,0.44609l-0.56697,0.34018l-0.82956,0.6913l-0.12233,0.05906l-0.09138,0.10051l-0.48902,0.32602l-0.0574,0.0205l-0.04311,0.0431l-0.81503,0.48902l-0.35369,0.10764l-0.32621,0.17398l-0.38579,0.09645l-0.40657,0.20328l-0.10355,0.02302l-0.086,0.06211l-1.63007,0.65203l-0.29717,0.04053l-0.27775,0.11316l-1.14105,0.163l-0.17899,-0.01852l-0.17457,0.04364h-0.00756l-0.36802,0.14721l-0.46913,0.06397l-0.14062,0.03516l-0.34319,0.1144l-0.40069,0.03082l-0.38988,0.09747h-1.01636l-0.59644,0.05964l0.08963,0.19557l0.17309,0.20193l1.27302,2.54605l0.61761,1.0808l0.01923,0.06838l0.04623,0.05393l0.48902,0.97804l0.02302,0.10356l0.06211,0.086l0.18842,0.47106l0.4206,0.52575l0.01671,0.03645l0.03112,0.02528l0.48902,0.65203l0.02757,0.06547l0.05256,0.04778l0.4509,0.67636l1.67755,1.39795l0.13515,0.18494l0.18495,0.13515l0.6092,0.73104l0.76421,0.54586l1.3433,0.74627l0.35327,0.33048l0.38479,0.29318l0.56553,0.70691l0.48039,0.4804l0.69966,0.3998l0.65388,0.26155l0.0254,0.01834l0.03092,0.00499l1.14105,0.48902l0.13692,0.10406l0.16452,0.05007l1.39475,0.83684l0.71769,0.23924l0.1037,0.06599l0.12108,0.02119l1.46706,0.65202l0.04587,0.03584l0.05682,0.01263l0.90103,0.45051l1.84474,0.76864l2.0654,0.79439l5.27479,1.91811l3.33841,0.95383l0.30417,0.17548l0.33403,0.10833l1.30406,0.81504l0.80999,0.83998l0.05251,0.03001l0.00825,0.03301l0.02362,0.02449l-0.00239,0.06044l0.28301,1.13206v0.48891l0.01558,0.02336l-0.01558,0.07009v0.06966l-0.13932,0.55728l-0.02369,0.10659v0.47717l-0.04364,0.17457l0.01851,0.17898l-0.13788,0.96517v0.63737l-0.07464,0.29857v0.30776l-0.29474,1.17894l-0.14477,1.01338l-0.01128,0.02767l0.00239,0.02978l-0.32601,1.95609l-0.07907,0.18186l-0.01521,0.19771l-0.52374,1.57121v0.73535l-0.11962,0.47848l0.0503,0.18444l-0.16527,0.27545l-0.07791,0.31163l-0.16598,0.09485l-0.16435,0.2739l-0.04322,0.25931l-0.18624,0.42837l-0.13601,0.44687l-0.43962,0.7327l-0.28307,0.56616l-0.0638,0.07442l-0.02854,0.09378l-0.97805,1.63007l-0.15044,0.15045l-0.09515,0.19029l-0.97805,1.14105l-0.07994,0.05673l-0.05043,0.08406l-0.65203,0.65203l-0.21352,0.12811l-0.16749,0.18425l-0.97805,0.65203l-0.14877,0.05313l-0.11994,0.1028l-0.61518,0.30759l-0.52817,0.52817l-0.26391,0.15834l-0.21762,0.21762l-1.63007,0.97804l-0.09378,0.02855l-0.07443,0.06379l-0.56615,0.28308l-0.73271,0.43962l-0.09378,0.02855l-0.07443,0.06379l-0.12439,0.06219l-0.47169,0.35377l-0.20943,0.08818l-0.17253,0.14789l-0.38175,0.19088l0.32997,0.13199l1.27862,0.47948l0.04865,0.03355l0.05834,0.00941l1.04547,0.44806l0.72465,0.24155l0.02709,-0.00739l0.06158,0.03695l0.06608,0.02202l0.48462,0.3084l0.49257,0.29555l0.04926,0.04926l0.06058,0.03855l0.00551,0.02754l0.53668,0.53669l0.66291,1.10485l-0.18079,0.66291l0.18079,0.66291l-0.66291,1.10485l-0.32601,0.32602l-0.34461,0.20676l-0.30513,0.26154l-0.28566,0.14283l-0.00041,0.00294l-0.01542,0.01114l-0.18982,0.18982l-0.43142,0.25886l-0.40787,0.29457l-0.24926,0.0997l-0.01631,0.00979l-0.00485,-0.00132l-0.33738,0.13495l-1.11478,0.69673l-0.11509,0.03733l-0.09187,0.07874l-1.63007,0.81504l-0.17566,0.03903l-0.1518,0.09661l-0.97805,0.32601l-0.03877,0.00298l-0.03343,0.01988l-1.5938,0.47814l-1.34448,0.44816l-1.87177,0.7799l-0.26768,0.0404l-0.24665,0.11158l-1.67191,0.30398l-1.02263,0.29218l-0.21194,0.00707l-0.19878,0.07384l-1.46706,0.16301l-0.1395,-0.01886l-0.13657,0.03415h-10.10644l-0.13657,-0.03415l-0.1395,0.01886l-2.79651,-0.31072h-1.65462l-0.15326,-0.03832l-0.15682,0.01901l-1.30406,-0.16301l-0.14295,-0.05534h-0.1533l-1.30406,-0.32601l-0.08649,-0.04613l-0.09774,-0.00752l-0.76418,-0.25473l-0.91789,-0.13113l-0.25292,-0.10304l-0.27134,-0.03101l-1.30406,-0.48902l-0.06261,-0.04318l-0.07493,-0.01311l-1.19349,-0.53044l-1.49852,-0.27246l-0.32385,-0.1465l-0.34697,-0.0771l-1.59514,-0.79757l-1.98212,-0.91483l-2.17681,-0.77743l-0.09483,-0.06321l-0.11198,-0.02124l-2.04503,-0.94386l-0.82385,-0.31687l-0.45173,0.3388l-0.30407,0.12803l-0.26745,0.19316l-0.62905,0.25162l-0.49908,0.29944l-0.68373,0.54699l-0.24177,0.11082l-0.20193,0.17308l-0.74116,0.37058l-2.23829,1.79064l-0.24177,0.11081l-0.20193,0.17309l-2.79492,1.39745l-1.33756,0.89171l-0.14877,0.05313l-0.11995,0.10281l-1.42844,0.71422l-0.92478,0.69359l-0.00417,0.01345l-0.04129,0.02065l-0.15348,0.1151l-0.48601,0.20464l-0.47166,0.23583l-0.18728,0.04162l-0.04255,0.01792l-0.01292,-0.00558l-0.92388,0.2053l-0.55688,0.27844l-0.01393,0.02438l-0.06966,0.01741l-0.06231,0.03115l-0.56076,0.12461l-0.55728,0.13932h-0.06966l-0.0701,0.01558l-0.02336,-0.01558h-12.38843l-0.05403,-0.01351l-0.05456,0.01115l-3.74917,-0.16301l-0.07532,-0.02235l-0.0778,0.01098l-3.09714,-0.32602l-0.12274,-0.04478l-0.13057,0.0049l-3.09714,-0.65203l-0.10434,-0.05072l-0.11584,-0.0062l-2.1191,-0.65203l-0.10049,-0.06072l-0.11617,-0.01703l-2.77112,-1.14105l-0.04746,-0.035l-0.05788,-0.01123l-2.40915,-1.12427l-2.24563,-0.96241l-0.03243,-0.02465l-0.03999,-0.00775l-2.39772,-1.11894l-1.9078,-0.79492l-0.07059,-0.05254l-0.0859,-0.01908l-1.30406,-0.65203l-0.06255,-0.05361l-0.07909,-0.02301l-1.95609,-1.14105l-0.23117,-0.22553l-0.27693,-0.16616l-0.81503,-0.81504l-0.14682,-0.24469l-0.20541,-0.19807l-1.63008,-2.60811l-0.03733,-0.1151l-0.07874,-0.09187l-1.01129,-2.02257l-0.62928,-0.75514l-0.13195,-0.27332l-0.135,-0.07714l-0.105,-0.42001l-0.18821,-0.38987l0.05432,-0.14569l-0.07361,-0.29444v-0.97804l0.11962,-0.47848l-0.0503,-0.18443l0.16527,-0.27545l0.07791,-0.31163l0.16598,-0.09485l0.25375,-0.42292l0.32602,-0.32602l0.34461,-0.20676l0.30513,-0.26154l0.12439,-0.0622l0.47169,-0.35377l0.37038,-0.15595l0.33904,-0.21576l0.10414,-0.03472l0.32748,-0.24561l0.06546,-0.02756l0.04779,-0.05256l0.48902,-0.32602l0.05741,-0.0205l0.0431,-0.04311l0.76403,-0.45841l0.74733,-0.49822l-0.0368,-0.02208l-0.47699,-0.47698l-0.23355,-0.1557l-0.76403,-0.45841l-0.21762,-0.21762l-0.2639,-0.15834l-0.45219,-0.45219l-0.06818,-0.02727l-0.00485,0.00132l-0.01631,-0.00978l-0.24925,-0.09971l-0.40787,-0.29457l-0.43142,-0.25886l-0.08928,-0.08927l-0.85037,-0.48593l-0.24109,-0.23104l-0.28633,-0.1718l-0.85241,-0.85241l-0.50989,-0.38242l-0.30345,-0.37349l-0.34028,-0.34028l-0.4025,-0.67084l-0.54699,-0.68373l-0.0821,-0.17912l-0.13634,-0.14227l-0.65203,-1.14105l-0.04762,-0.1693l-0.10297,-0.14257l-0.26717,-0.66792l-0.73809,-1.32855l-0.11052,-0.41196l-0.17006,-0.39115l-0.15638,-0.93828l-0.10405,-0.52025l-0.38649,-0.90179l-0.04164,-0.25817l-0.11194,-0.23633l-0.32601,-1.63008l0.01184,-0.24872l-0.06039,-0.24157v-6.03126l0.07465,-0.29857v-0.30776l0.25137,-1.00548v-1.64832l0.03832,-0.15326l-0.01901,-0.15683l0.163,-1.30405l0.07039,-0.18184l0.0065,-0.19487l0.32188,-1.12657l0.48506,-1.77855l0.00758,-0.01352l0.00051,-0.01549l0.29822,-1.04376l0.14316,-0.71581l0.20795,-0.439l0.16338,-0.45746l0.63371,-0.95057l0.00213,-0.03826l0.49103,-0.42089l0.47854,-0.43504l0.03824,0.00263l0.29648,-0.14824l0.26876,-0.05973l0.24293,-0.12956l1.21092,-0.30273l0.39794,-0.13265l0.05553,-0.00427l0.04823,-0.02783l1.14105,-0.32602l0.1032,-0.00344l0.09331,-0.0442l0.48674,-0.09735l0.6786,-0.3393l0.42951,-0.09544l0.41245,-0.1532l1.20383,-0.13376l0.68287,-0.22762l1.26073,-0.47278l0.14378,-0.01643l0.12769,-0.0681l0.48743,-0.12186l1.47253,-0.58901l0.26874,-0.03665l0.24874,-0.10814l0.60724,-0.10121l2.55645,-1.27823l-0.62969,-0.78711l-0.0167,-0.03645l-0.03113,-0.02529l-0.38242,-0.50989l-1.50444,-1.50444l-0.12811,-0.21352l-0.18425,-0.1675l-1.63008,-2.44511l-0.0205,-0.05741l-0.0431,-0.0431l-0.48902,-0.81503l-0.01245,-0.04091l-0.02921,-0.03123l-0.81504,-1.46706l-0.01443,-0.05379l-0.03624,-0.04228l-0.48902,-0.97805l-0.02301,-0.10356l-0.06212,-0.086l-0.32601,-0.81504l-0.01016,-0.07449l-0.04036,-0.06342l-0.32601,-0.97804l-0.0191,-0.24827l-0.08989,-0.23221l-0.163,-1.30406l0.01901,-0.15683l-0.03832,-0.15326v-6.68329l0.03414,-0.13657l-0.01885,-0.13951l0.163,-1.46706l0.38345,-1.03235l0.00495,-0.08911l0.0413,-0.03539l0.01894,-0.05098l0.08191,-0.03545l0.83614,-0.7167l0.32602,-0.163l0.17565,-0.03903l0.15181,-0.09661l0.32047,-0.10682l0.49311,-0.24656l0.26877,-0.05972l0.24293,-0.12956l0.23193,-0.05798l0.61773,-0.41182l0.24627,-0.08795l0.212,-0.15312l0.43076,-0.1723l0.82682,-0.7087l0.32516,-0.16258l0.28647,-0.2238l1.20864,-0.53717l1.01268,-0.75951l1.06954,-0.91674l1.23182,-1.07784l1.82349,-1.82349l0.48593,-0.85037l0.15356,-0.16024l0.09649,-0.19987l0.67416,-0.80899l0.42003,-0.73506l0.41074,-1.23221l0.15985,-0.2512l0.09186,-0.28323l0.75208,-1.20333l0.1764,-0.3528l0.39321,-1.3107l0.13993,-0.69965l0.14294,-0.30178l0.07244,-0.32597l0.5293,-1.0586l0.22284,-0.89136l0.14428,-1.15426l0.06496,-0.16781l0.00383,-0.1799l0.47474,-1.74069c0.10516,-0.42281 0.31795,-0.80308 0.6076,-1.11004l0.03707,-0.06608l0.03753,-0.0097c0.30009,-0.29223 0.67335,-0.50968 1.08969,-0.62228l0.02506,-0.4511l0.97828,-0.83853l0.12438,-0.06219l0.47169,-0.35377l0.20944,-0.08818z" fill="#369a97" stroke="none" stroke-width="0.5" stroke-linecap="butt"/><path d="M230.375,225.79374v-40.75h34v40.75z" fill="#dba38d" stroke="none" stroke-width="0" stroke-linecap="butt"/><path d="M283.375,246.25c0,18.39695 -9.9396,50.18694 -28.90978,61.38199c-10.44331,6.163 -25.91636,17.34039 -37.79021,17.76535c-2.21429,0.07925 -10.50198,2.13928 -17.01569,-0.26665c-6.33579,-2.34021 -16.93322,-4.55903 -23.38243,-8.80866c-11.25019,-7.41318 -28.34895,-32.08505 -28.34895,-32.08505c0,0 26.3799,6.04764 43.81994,1.33619c2.15924,-0.58332 7.83148,-6.43591 11.53429,-12.33767c1.957,-3.11918 3.00355,-7.15294 3.4779,-8.46155c2.41374,-6.65889 3.86493,-14.70912 3.86493,-18.52394c0,-43.07821 72.75,-43.07821 72.75,0z" fill="#4e87a8" stroke="none" stroke-width="0" stroke-linecap="butt"/><path d="M272.14054,244.19669l1.46113,-14.02684h14.31907l4.67561,4.5295l-4.98622,1.54304l2.35618,6.05482z" data-paper-data="{&quot;index&quot;:null}" fill="#c7917c" stroke="none" stroke-width="0" stroke-linecap="butt"/><path d="M206.9742,242.50975l2.35621,-6.05482l-4.98623,-1.54304l4.67561,-4.5295h14.31907l1.46113,14.02684z" fill="#c7917c" stroke="none" stroke-width="0" stroke-linecap="butt"/><path d="M268.20601,234.33697l-12.96407,-72.59872l-0.1375,-6.67546l35.2787,75.31401z" data-paper-data="{&quot;index&quot;:null}" fill="#121833" stroke="none" stroke-width="0" stroke-linecap="butt"/><path d="M205.93554,230.58929l30.71277,-75.67448l4.42842,7.03592l-12.96404,72.59874z" fill="#121833" stroke="none" stroke-width="0" stroke-linecap="butt"/><path d="M241.10478,154.96672c0,-2.30339 0,-11.22148 0,-11.22148h9.46811c0,0 0,8.36413 0,10.7539c0,1.19487 -3.35624,3.27293 -5.02628,3.27293c-1.2166,0 -4.44184,-1.78064 -4.44184,-2.80536z" fill="#c7917c" stroke="none" stroke-width="0" stroke-linecap="butt"/><path d="M269.64654,121.04794c6.51153,-1.49797 14.95046,7.12884 14.95046,7.12884c0,0 -3.80053,11.53611 -10.31206,13.0341c-6.51153,1.49797 -12.82855,-1.80133 -14.10938,-7.36915c-1.28086,-5.56784 2.95944,-11.29579 9.47097,-12.79376z" data-paper-data="{&quot;index&quot;:null}" fill="#c7917c" stroke="none" stroke-width="0" stroke-linecap="butt"/><path d="M233.87287,133.56082c-1.28086,5.56784 -7.59784,8.86713 -14.10938,7.36919c-6.51153,-1.49797 -9.471,-12.79376 -9.471,-12.79376c0,0 7.59784,-8.86712 14.10938,-7.36915c6.51153,1.49797 10.75184,7.22592 9.471,12.79376z" fill="#c7917c" stroke="none" stroke-width="0" stroke-linecap="butt"/><path d="M216.05979,113.06703c0,-16.62337 13.47588,-30.09925 30.09925,-30.09925c16.62337,0 30.09925,13.47588 30.09925,30.09925c0,16.62337 -13.47588,34.3073 -30.09925,34.3073c-16.62337,0 -30.09925,-17.68394 -30.09925,-34.3073z" fill="#dba38d" stroke="none" stroke-width="0" stroke-linecap="butt"/><path d="M232.03455,128.45796c-0.35355,0.35355 -0.70711,0 -0.70711,0l-0.20936,-0.26653c-0.31881,-0.8046 -0.75365,-1.55863 -1.23451,-2.27645c0,0 -0.27735,-0.41603 0.13868,-0.69338c0.41603,-0.27735 0.69338,0.13868 0.69338,0.13868c0.51865,0.7814 0.97993,1.58931 1.33093,2.45976l-0.01201,-0.06919c0,0 0.35355,0.35355 0,0.70711z" fill="#000000" stroke="none" stroke-width="0.5" stroke-linecap="butt"/><path d="M226.85914,126.8306l-0.01201,0.06919c0.351,-0.87045 0.81229,-1.67836 1.33094,-2.45976c0,0 0.27735,-0.41602 0.69338,-0.13867c0.41602,0.27735 0.13867,0.69338 0.13867,0.69338c-0.48085,0.71782 -0.91569,1.47184 -1.2345,2.27644l-0.20936,0.26653c0,0 -0.35356,0.35356 -0.70711,0c-0.35356,-0.35355 0,-0.7071 0,-0.7071z" data-paper-data="{&quot;index&quot;:null}" fill="#000000" stroke="none" stroke-width="0.5" stroke-linecap="butt"/><path d="M254.44198,122.97352c0,2.9427 -3.83619,5.32823 -8.56837,5.32823c-4.73218,0 -8.56837,-2.38553 -8.56837,-5.32823c0,-2.9427 3.83619,-5.32823 8.56837,-5.32823c4.73218,0 8.56837,2.38553 8.56837,5.32823z" fill="#c1726a" stroke="none" stroke-width="0" stroke-linecap="butt"/><path d="M262.84181,127.32396l-0.01201,0.06919c0.351,-0.87045 0.81229,-1.67836 1.33094,-2.45976c0,0 0.27735,-0.41602 0.69338,-0.13867c0.41602,0.27735 0.13867,0.69338 0.13867,0.69338c-0.48085,0.71782 -0.91569,1.47184 -1.2345,2.27644l-0.20936,0.26653c0,0 -0.35355,0.35355 -0.70711,0c-0.35355,-0.35356 0,-0.70711 0,-0.70711z" data-paper-data="{&quot;index&quot;:null}" fill="#000000" stroke="none" stroke-width="0.5" stroke-linecap="butt"/><path d="M267.52386,127.50549c-0.35356,0.35355 -0.70711,0 -0.70711,0l-0.20936,-0.26653c-0.31881,-0.80461 -0.75365,-1.55863 -1.23451,-2.27645c0,0 -0.27735,-0.41602 0.13867,-0.69338c0.41602,-0.27735 0.69338,0.13868 0.69338,0.13868c0.51864,0.7814 0.97993,1.5893 1.33094,2.45976l-0.01202,-0.06919c0,0 0.35355,0.35355 0,0.70711z" data-paper-data="{&quot;index&quot;:null}" fill="#000000" stroke="none" stroke-width="0.5" stroke-linecap="butt"/><path d="M222.05167,115.45779c0,-6.06834 4.91935,-10.98768 10.98768,-10.98768c6.06834,0 10.98768,4.91935 10.98768,10.98768c0,6.06834 -4.91935,10.98768 -10.98768,10.98768c-6.06834,0 -10.98768,-4.91935 -10.98768,-10.98768z" fill="#ffffff" stroke="none" stroke-width="0" stroke-linecap="butt"/><path d="M248.58577,115.69159c0,-6.06834 4.91935,-10.98768 10.98768,-10.98768c6.06834,0 10.98768,4.91935 10.98768,10.98768c0,6.06834 -4.91935,10.98768 -10.98768,10.98768c-6.06834,0 -10.98768,-4.91935 -10.98768,-10.98768z" fill="#ffffff" stroke="none" stroke-width="0" stroke-linecap="butt"/><path d="M227.4286,112.82776c0,-3.58291 2.90452,-6.48743 6.48743,-6.48743c3.58291,0 6.48743,2.90452 6.48743,6.48743c0,3.58291 -2.90452,6.48743 -6.48743,6.48743c-3.58291,0 -6.48743,-2.90452 -6.48743,-6.48743z" fill="#000000" stroke="none" stroke-width="0" stroke-linecap="butt"/><path d="M250.45601,113.41219c0,-3.58291 2.90452,-6.48743 6.48743,-6.48743c3.58291,0 6.48743,2.90452 6.48743,6.48743c0,3.58291 -2.90452,6.48743 -6.48743,6.48743c-3.58291,0 -6.48743,-2.90452 -6.48743,-6.48743z" fill="#000000" stroke="none" stroke-width="0" stroke-linecap="butt"/><path d="M226.02624,197.49829l10.43103,-42.3778l18.74052,0.21676l16.08858,42.16103c0,0 -15.06455,-4.5 -22.72387,-4.49999c-7.41978,0 -22.53626,4.50001 -22.53626,4.50001z" fill="#232841" stroke="none" stroke-width="0" stroke-linecap="butt"/><path d="M224.35071,108.50588c2.43884,-3.15137 6.50937,-4.86455 10.6992,-4.09599c3.83179,0.70287 6.83356,3.31091 8.20714,6.66722c0.37841,0.92469 -19.43625,-1.8865 -18.90634,-2.57124z" fill="#9c6954" stroke="none" stroke-width="0" stroke-linecap="butt"/><path d="M268.05825,107.9412c0.59362,0.63465 -19.1466,5.21462 -18.84491,4.25933c1.09516,-3.46744 3.89703,-6.33548 7.70067,-7.37983c4.15904,-1.14192 8.41227,0.19955 11.14423,3.1205z" data-paper-data="{&quot;index&quot;:null}" fill="#9c6954" stroke="none" stroke-width="0" stroke-linecap="butt"/><path d="M238.88398,137.9715c0,0 7.81842,-3.19266 11.97659,-4.13695c4.09637,-0.93025 12.7898,-1.48729 12.7898,-1.48729" fill="none" stroke="#000000" stroke-width="0.5" stroke-linecap="round"/><path d="M250.23113,107.97554l8.78171,-4.44019" fill="none" stroke="#000000" stroke-width="0.5" stroke-linecap="round"/><path d="M245.29758,123.66422l-2.46677,-2.3681l3.65082,0.49335" fill="none" stroke="#000000" stroke-width="0.5" stroke-linecap="round"/><path d="M243.83719,117.52065c-1.24802,-1.33548 -2.46004,-2.94573 -2.81713,-4.79762c-0.6818,-3.53579 1.95742,-5.21078 1.98004,-8.37427c0.01537,-2.15023 -1.72246,-3.94717 -2.78917,-5.65391c-0.01081,-0.01528 -0.41441,-0.50962 -0.7907,-1.08914c-0.73657,1.84958 -1.67814,3.04238 -3.32933,4.11354c-2.20861,1.43276 -5.00617,2.59996 -7.57273,3.16832c-1.2085,0.26762 -2.79386,-0.07845 -3.83222,0.76436c-1.64244,1.33312 -2.20037,4.19751 -2.35982,6.14887c-0.4895,3.91599 -0.6986,8.22426 0.14485,12.09802c0.50855,2.33564 1.50607,4.57861 2.34449,6.81576c0.35258,0.94079 1.13683,1.83989 1.0168,2.83738c-0.53778,4.46911 -3.48868,1.87729 -4.86936,0.25602c-2.12244,-2.49228 -3.63533,-4.82979 -3.62209,-8.17157c-0.15559,-0.68924 0.05321,-1.58204 -0.45817,-2.06964c-0.27593,-0.2631 -2.02937,-0.14808 -2.11869,-0.15946c-2.3211,-0.29556 -6.9707,-1.90939 -7.09003,-4.93963c-0.14832,-3.76633 3.15168,-1.6701 4.37434,-3.66846c1.88892,-3.08731 0.95175,-7.77446 0.95175,-11.29921c0,-7.5923 2.50569,-12.39226 7.90393,-17.0819c2.10894,-3.13149 4.88496,-5.6004 9.31718,-6.9478c2.7201,-0.82692 6.37638,-0.2203 9.19556,-0.2203c4.06924,0 8.35065,-0.35265 12.37546,0.35089c7.59114,1.32695 15.91462,5.99589 20.36209,12.25435c4.38377,8.72762 7.84167,15.84054 5.47901,25.76528c-0.40296,1.6927 -0.87559,5.8589 -1.95206,7.14385c-0.05888,0.07028 -0.12082,0.13701 -0.18546,0.20062l0.02835,0.0248l-1.16201,1.32801c-0.2292,0.26472 -0.56773,0.43219 -0.94538,0.43219c-0.69036,0 -1.25,-0.55964 -1.25,-1.25c0,-0.17413 0.03561,-0.33994 0.09993,-0.49056l0.65614,-1.64035l0.00492,0.00197l0.00083,-0.01608c1.32119,-3.0444 1.3673,-6.82743 1.57393,-10.09932c0.07898,-1.25053 0.9396,-3.71236 0.21434,-4.8855c-0.57782,-0.93464 -3.28151,-0.44758 -4.13342,-0.45349c-2.22855,-0.01547 -3.14547,-0.5011 -4.71763,-2.07327c-1.49759,-3.79749 -2.79799,-8.09142 -7.22554,-9.12437c-2.63942,-0.61578 -5.6636,-0.67119 -8.36321,-0.97687c-0.1983,-0.02245 -0.52361,-0.03429 -0.88925,-0.06485c0.16368,0.44131 0.24724,0.94223 0.4122,1.53549c0.3528,1.62091 0.65454,3.54187 0.34124,5.20519c-0.40214,2.13499 -2.09808,4.0101 -2.49453,6.13837c-0.49935,2.68066 1.85572,2.58328 2.63554,5.08961c1.07326,3.44942 -0.41417,6.41596 -2.8865,8.30384c-0.09637,0.15627 -0.20438,0.31622 -0.32475,0.48014l0.15925,0.18579l-1.16137,0.99546c-0.21933,0.1903 -0.50561,0.30547 -0.81878,0.30547c-0.69036,0 -1.25,-0.55964 -1.25,-1.25c0,-0.30738 0.11095,-0.58884 0.29498,-0.80653l0.82808,-0.9937c1.33924,-1.25643 -0.3496,-2.34391 -1.28586,-3.34579z" fill="#369a97" stroke="none" stroke-width="0.5" stroke-linecap="butt"/><path d="M232.35613,102.78536l8.78171,4.44019" data-paper-data="{&quot;index&quot;:null}" fill="none" stroke="#000000" stroke-width="0.5" stroke-linecap="round"/><path d="M140.02209,267.24283c9.34841,8.29115 15.07009,17.10594 12.77971,19.68837c-2.29037,2.58243 -11.72548,-2.0454 -21.07389,-10.33655c-9.34841,-8.29115 -15.07009,-17.10594 -12.77971,-19.68837c2.29037,-2.58243 11.72548,2.0454 21.07389,10.33655z" fill="#2d6585" stroke="none" stroke-width="0" stroke-linecap="butt"/><path d="M118.6982,315.18121c-2.29037,-2.58243 3.4313,-11.39722 12.77971,-19.68838c9.34841,-8.29116 18.78351,-12.91898 21.07389,-10.33655c2.29038,2.58243 -3.4313,11.39722 -12.77971,19.68837c-9.34841,8.29116 -18.78351,12.91899 -21.07389,10.33655z" data-paper-data="{&quot;index&quot;:null}" fill="#2d6585" stroke="none" stroke-width="0" stroke-linecap="butt"/><path d="M249.125,209.54374l-3,0.25" fill="none" stroke="#000000" stroke-width="0.5" stroke-linecap="round"/><path d="M276.8125,136.54374l3,1.75" fill="none" stroke="#000000" stroke-width="0.5" stroke-linecap="round"/><path d="M278.9375,134.29374l2.25,1.125" fill="none" stroke="#000000" stroke-width="0.5" stroke-linecap="round"/></g></g></svg>