<svg version="1.1" xmlns="http://www.w3.org/2000/svg" xmlns:xlink="http://www.w3.org/1999/xlink" width="357.67118" height="309.6419" viewBox="0,0,357.67118,309.6419"><g transform="translate(-40.38554,-34.88393)"><g data-paper-data="{&quot;isPaintingLayer&quot;:true}" fill-rule="nonzero" stroke-linejoin="miter" stroke-miterlimit="10" stroke-dasharray="" stroke-dashoffset="0" style="mix-blend-mode: normal"><path d="M225.73602,87.01718l0.64255,-0.79194l0.20129,-0.15117l0.13765,-0.21075l0.34665,-0.32119l0.16467,-0.20296l0.20129,-0.15117l0.13765,-0.21075l0.11264,-0.10438l0.27543,-0.50205l0.38188,-0.4126l0.30742,-0.47072l0.34665,-0.32119l0.40132,-0.49463l0.67974,-0.98329l0.10301,-0.09053l0.05799,-0.12426l0.1775,-0.21877l0.00367,-0.03911l0.07871,-0.06241l0.06141,-0.07567l0.64256,-0.48261l0.62963,-0.49934l0.08876,-0.04023l0.08032,-0.06033l0.03876,0.00636l0.23082,-0.10461l0.2941,-0.23325l0.32373,-0.29994l1.07339,-1.17466l0.35133,-0.23292l0.28272,-0.31266l0.7153,-0.47963l0.63247,-0.77954l0.30797,-0.23132l0.23472,-0.30537l0.73668,-0.58424l0.07768,-0.0352l0.05513,-0.06506l0.94438,-0.67836l0.32376,-0.12854l0.27293,-0.21645l0.56717,-0.25705l0.68377,-0.45848l1.38564,-1.28381l0.38561,-0.21181l0.32436,-0.29725l2.81371,-1.52556l0.12344,-0.03177l0.09985,-0.0792l15.99314,-7.24828l0.13491,-0.02462l0.11366,-0.07672l2.79427,-1.01604l0.01141,-0.00119l0.00954,-0.00637l2.58658,-0.9219l0.17155,-0.01676l0.15204,-0.08123l2.47299,-0.62006l0.11647,-0.00009l0.10609,-0.04808l4.62473,-0.84415l0.13686,0.00883l0.12888,-0.04686l1.97229,-0.2054l1.88102,-0.39475l0.18348,0.007l0.17254,-0.06273l4.30346,-0.44819l0.17024,0.0242l0.16652,-0.04292l1.80094,-0.01315l0.56851,-0.15146l0.01167,-0.01438l0.06134,-0.00507l0.26891,-0.07165l0.73427,-0.0113l0.73185,-0.06052l0.27463,0.04502l0.06154,-0.00095l0.01302,0.01317l1.05869,0.17355l1.31104,0.05002l0.35725,0.10394l0.37207,0.00157l1.41504,0.36015l0.17338,0.09341l0.19564,0.02258l2.11286,0.79499l0.28654,0.19809l0.3315,0.10703l1.3956,0.86969l0.08557,0.0885l0.11426,0.04579l1.2403,0.89699l1.32619,0.6415l0.42175,0.35202l0.4768,0.27285l1.77215,1.70049l0.20189,0.32126l0.28144,0.25448l0.7411,1.10525l1.1365,1.58217l0.65439,0.62792l0.20189,0.32126l0.28143,0.25448l0.77249,1.15209l0.01416,0.03932l0.03033,0.02874l0.86663,1.35979l0.01778,0.05319l0.0395,0.03984l0.90479,1.52258l0.88419,1.04164l0.21606,0.43736l0.30313,0.3822l0.91598,2.02109l0.55916,0.83392l1.09804,1.46196l0.85758,0.9256l0.08838,0.16092l0.14259,0.11568l1.26261,1.68107l0.03726,0.08831l0.07109,0.06428l0.56196,0.83809l0.61329,0.58849l0.128,0.20371l0.19075,0.14661l0.58423,0.73668l0.0352,0.07768l0.06506,0.05513l0.21555,0.30008l0.30413,0.16684l0.41261,0.38187l0.47071,0.30741l0.32119,0.34665l0.07567,0.06141l0.30053,0.04926l0.31982,0.13803l0.34604,0.03995l0.75703,0.28483l1.47757,0.40769l0.81312,0.1801l1.61368,0.15152l0.03607,0.0127l0.03792,-0.00496l1.32092,0.15244l0.14756,0.05552l0.15752,-0.00658l6.07561,1.25231l0.07421,0.03568l0.08236,0.00035l2.68301,0.68287l3.9071,0.64048l0.18662,0.08055l0.20316,0.00645l3.73562,1.061l0.20887,0.12007l0.23756,0.04015l2.81066,1.22983l1.4268,1.10149l0.09314,0.86986l0.55806,0.67373l-0.20664,1.79063l-0.22714,0.60367l-0.3197,0.46246l-0.23776,0.50946l-0.87919,1.08362l-0.52598,0.76087l-0.65781,1.35991l-0.12177,0.1459l-0.05839,0.18084l-0.43484,0.69781l-0.0613,0.05927l-0.03004,0.07981l-0.75611,1.09377l-0.38851,0.3414l-0.31519,0.41006l-0.43587,0.34568l-0.40066,0.49381l-0.11865,0.08913l-0.07371,0.1288l-1.70049,1.77215l-0.35525,0.22325l-0.28856,0.30458l-1.35979,0.86663l-0.23876,0.07977l-0.19724,0.15642l-0.00963,0.00437l-0.38392,0.4001l-0.56082,0.35242l-0.15887,0.12601l-0.37123,0.34395l-0.49276,0.27066l-0.4405,0.34934l-1.29504,0.58693l-0.72554,0.42043l0.22714,0.19743l0.33716,0.15734l3.09237,2.50902l1.4111,1.02049l0.06399,0.07602l0.09005,0.04202l1.18791,0.96382l0.08914,0.11866l0.1288,0.07371l0.51211,0.49141l0.83954,0.42702l0.04234,0.03679l0.05425,0.01424l0.99964,0.54841l0.07294,0.0675l0.09456,0.03053l0.96512,0.60143l2.94482,0.81251l0.27901,0.1576l0.31371,0.0654l1.1984,0.57969l1.28898,0.25422l2.14258,0.17516l0.64098,0.21709l0.6596,0.15136l1.12882,0.57416l0.88953,0.33471l1.12238,0.10538l0.98421,-0.04434l0.04296,0.0087l0.04228,-0.0115l1.73632,-0.03583l0.23456,0.05352l0.23855,-0.03121l2.26044,0.26086l1.05263,-0.10961l0.17024,0.0242l0.16652,-0.04292l2.24585,-0.0164l0.07914,0.01918l0.07969,-0.01672l1.40825,0.05371l2.79444,-0.0859l3.09047,-0.18052l7.82879,-0.60204l4.80461,-0.7125l0.48891,0.04794l0.48818,-0.05486l2.1323,0.28545l1.51716,0.60255l0.08424,0.00792l0.02957,0.0373l0.04424,0.01756l0.03186,0.07839l1.01435,1.27903l0.28234,0.62297l0.03334,0.02077l0.02062,0.09831l0.04023,0.08876l0.1443,0.79054l0.03137,0.1495l0.27556,0.60801l0.0452,0.24764l0.12694,0.21737l0.38168,1.30944l0.36807,0.81213l0.07731,0.42354l0.17773,0.39215l0.30526,1.67241l0.40074,1.37485l0.00161,0.04177l0.02024,0.03657l0.7142,2.68071l0.00427,0.27739l0.09479,0.2607l0.24,2.30448l0.42465,0.93698l0.12389,0.67876l0.1706,0.20597l-0.05152,0.44642l0.08069,0.44207l-0.15672,0.21671l-0.05124,0.44391l0.09468,0.35537l0.01007,0.65338l0.08476,0.64794l-0.13704,1.18748l-0.03374,0.88487l-0.03832,0.13167l0.01779,0.13598l-0.30489,2.64183l-0.10481,0.27858l-0.01135,0.29741l-0.58729,2.01873l-0.0691,0.11845l-0.01571,0.13623l-0.45428,1.20735l-0.19809,0.28654l-0.10701,0.33149l-0.86969,1.39562l-0.15888,0.15361l-0.09346,0.20025l-0.60623,0.74718l-0.36798,0.978l-0.24483,0.35416l-0.15162,0.40296l-1.51223,2.18755l-0.10301,0.09053l-0.058,0.12426l-0.55791,0.68764l-0.67974,0.98329l-0.10301,0.09053l-0.058,0.12426l-0.12258,0.15108l-0.39673,0.72316l-0.21593,0.2333l-0.13443,0.28807l-0.37619,0.46367l0.49667,-0.02237l1.9061,-0.12743l0.08136,0.01465l0.07977,-0.0217l1.59088,-0.03282l1.06284,-0.11069l0.03025,-0.02506l0.0998,0.01152l0.09692,-0.0101l0.7956,0.1131l0.79831,0.09214l0.09121,0.03432l0.09945,0.01414l0.02292,0.03191l0.99376,0.37393l1.48271,1.02498l0.15246,0.94908l0.61318,0.74027l-0.20665,1.79061l-0.22713,0.60368l-0.3197,0.46246l-0.23776,0.50946l-0.28151,0.34696l0.00118,0.00398l-0.01321,0.0231l-0.13225,0.35149l-0.40023,0.57898l-0.3496,0.61088l-0.26003,0.27098l-0.01513,0.02189l-0.00694,0.00112l-0.35196,0.36678l-1.0181,1.53154l-0.12509,0.11403l-0.07159,0.15338l-1.60636,1.97986l-0.20129,0.15117l-0.13763,0.21076l-1.05796,0.98021l-0.04768,0.02619l-0.03112,0.04464l-1.7547,1.52963l-1.45433,1.34746l-1.93463,2.07466l-0.31775,0.20606l-0.24985,0.28461l-1.9548,1.35283l-1.1343,0.96284l-0.26597,0.1314l-0.21064,0.20888l-1.77519,1.05491l-0.18864,0.05653l-0.1543,0.12238l-12.87759,5.83628l-0.19374,0.03535l-0.16686,0.10459l-3.74274,1.21901l-2.10831,0.95551l-0.21741,0.03968l-0.18884,0.11478l-1.75576,0.54536l-0.2141,0.01204l-0.19533,0.08853l-1.84989,0.33767l-0.13684,-0.00883l-0.12888,0.04686l-1.12082,0.11672l-1.2453,0.36298l-0.38177,0.01476l-0.36365,0.11718l-1.94403,0.12996l-0.10471,-0.01886l-0.10305,0.02657l-1.82706,0.01333l-2.06675,0.5182l-0.49725,0.00035l-0.48663,0.10213l-2.4931,-0.0951l-3.05391,-0.02104l-3.22263,0.26647l-0.15733,-0.02578l-0.15495,0.0376l-3.15083,-0.0217l-1.23273,0.072l-0.37994,0.69256l-0.31351,0.33873l-0.22924,0.40057l-0.65623,0.68388l-0.46301,0.66975l-0.55533,1.09181l-0.24407,0.28082l-0.15735,0.33715l-0.73038,0.9002l-1.81796,3.5742l-0.24407,0.28081l-0.15734,0.33716l-2.75428,3.39464l-1.18937,1.90863l-0.15888,0.15361l-0.09347,0.20027l-1.40766,1.73495l-0.77782,1.41781l0.00245,0.01955l-0.04069,0.05016l-0.1291,0.23529l-0.5011,0.54141l-0.4648,0.57287l-0.2146,0.16118l-0.04387,0.04741l-0.01968,0.00035l-1.05865,0.79512l-0.54878,0.67637l-0.00367,0.03911l-0.07871,0.06241l-0.06141,0.07567l-0.64256,0.48261l-0.62963,0.49934l-0.08876,0.04023l-0.08032,0.06033l-0.03876,-0.00636l-15.78529,7.15408l-0.07665,0.01399l-0.06308,0.04571l-4.87131,1.95737l-0.10888,0.01502l-0.09279,0.05892l-4.13464,1.37313l-0.18225,0.01382l-0.16354,0.08165l-4.3229,0.95772l-0.16224,-0.00437l-0.15118,0.059l-3.07668,0.39293l-0.16311,-0.01934l-0.15786,0.04539l-4.18989,0.14635l-0.08069,-0.01719l-0.08024,0.01912l-3.71897,-0.0413l-3.41715,0.07051l-0.05556,-0.01268l-0.05543,0.01322l-3.70133,-0.04111l-2.88996,0.08883l-0.12029,-0.02618l-0.12047,0.02529l-2.03816,-0.07774l-0.11066,-0.03219l-0.11406,0.01635l-3.15138,-0.32432l-0.4248,-0.15387l-0.44882,-0.0518l-1.50918,-0.56786l-0.32838,-0.227l-0.37611,-0.13376l-3.58318,-2.3819l-0.11403,-0.1251l-0.15338,-0.07159l-2.45658,-1.99315l-1.23791,-0.5988l-0.32597,-0.27206l-0.21656,-0.02033l-0.37634,-0.47454l-0.46496,-0.38808l-0.01492,-0.21701l-0.26383,-0.33267l-0.5648,-1.24622l-0.12389,-0.67876l-0.1706,-0.20595l0.05152,-0.44642l-0.08069,-0.44207l0.15672,-0.21671l0.0791,-0.68542l0.22714,-0.60368l0.3197,-0.46246l0.23776,-0.50946l0.12258,-0.15109l0.39673,-0.72316l0.38188,-0.4126l0.30741,-0.47071l0.11264,-0.10438l0.27544,-0.50207l0.06749,-0.07292l0.03054,-0.09457l0.43484,-0.69781l0.06131,-0.05927l0.03002,-0.07982l0.7088,-1.02532l0.66453,-1.0664l-0.05964,-0.00688l-0.88323,-0.33231l-0.3875,-0.06352l-1.23825,-0.14289l-0.40296,-0.15162l-0.4277,-0.04936l-0.83731,-0.31505l-0.10262,0.00463l-0.00542,0.00448l-0.02643,-0.00304l-0.37517,0.01689l-0.68982,-0.1398l-0.6992,-0.0807l-0.16531,-0.06219l-1.36415,-0.1281l-0.44062,-0.15517l-0.46405,-0.05356l-1.57839,-0.59389l-0.87054,-0.19283l-0.60234,-0.30066l-0.63009,-0.23708l-0.90026,-0.62235l-1.09181,-0.55533l-0.20805,-0.18082l-0.25588,-0.10255l-1.48975,-1.07739l-0.15844,-0.18822l-0.21354,-0.1222l-0.72614,-0.69678l-1.70768,-1.2666l-0.37872,-0.46109l-0.44257,-0.4002l-0.7411,-1.10525l-0.43301,-0.60281l-1.01323,-0.92587l-0.20215,-0.30491l-0.27911,-0.23649l-1.35674,-1.88878l-0.12854,-0.32376l-0.21645,-0.27293l-3.48294,-7.68501l-0.0773,-0.42355l-0.17773,-0.39215l-0.26035,-1.42634l-0.95187,-2.10028l-0.03968,-0.21741l-0.11479,-0.18885l-0.54537,-1.75575l-0.01532,-0.27235l-0.10425,-0.25206l-0.24043,-1.62135l-0.40902,-2.54634l0.00185,-0.0216l-0.0083,-0.02003l-0.22276,-1.50217l-0.23095,-0.99475l0.01146,-0.67946l-0.056,-0.67724l0.25854,-1.57717l-0.01938,-0.04998l0.38261,-0.81986l0.35853,-0.83067l0.05024,-0.01873l0.29217,-0.3601l0.30796,-0.23131l0.23472,-0.30537l1.36813,-1.08502l0.43045,-0.39882l0.06829,-0.03751l0.04538,-0.06331l1.26565,-1.07435l0.12951,-0.06398l0.09337,-0.1102l0.56398,-0.40513l0.66873,-0.82421l0.49217,-0.36964l0.43707,-0.43339l1.45667,-0.86563l0.73866,-0.68438l1.3334,-1.33046l0.17372,-0.10397l0.12338,-0.16051l0.55071,-0.43676l1.53615,-1.60087l0.32126,-0.20189l0.25449,-0.28143l0.7153,-0.47963l2.51927,-3.10502l-1.25689,-0.6393l-0.04233,-0.0368l-0.05427,-0.01425l-0.78173,-0.42886l-2.78574,-1.04817l-0.28654,-0.19809l-0.3315,-0.10703l-3.48905,-2.17421l-0.05927,-0.06131l-0.07981,-0.03003l-1.09377,-0.75611l-0.03949,-0.04494l-0.05525,-0.02292l-1.88572,-1.39865l-0.04945,-0.06021l-0.07059,-0.03295l-1.18791,-0.96383l-0.08912,-0.11867l-0.12882,-0.07371l-0.88607,-0.85026l-0.05596,-0.08905l-0.08805,-0.0575l-0.9802,-1.05795l-0.16771,-0.30531l-0.24863,-0.24397l-0.96076,-1.5675l-0.06634,-0.21081l-0.13733,-0.17315l-3.85947,-8.51582l-0.03537,-0.19373l-0.10458,-0.16688l-0.63951,-1.96345l-0.10757,-1.53685l-0.04515,-0.1164l0.03219,-0.06894l-0.00531,-0.0759l0.0839,-0.09247l0.65153,-1.39607l0.32128,-0.39596l0.20127,-0.15117l0.13765,-0.21077l0.34666,-0.32117l0.48594,-0.59893l0.30798,-0.2313l0.23472,-0.30537l0.26204,-0.20781l0.54929,-0.88147l0.26301,-0.25428l0.18171,-0.31753l0.44937,-0.4683l0.64427,-1.3805l0.32043,-0.39493l0.23578,-0.4506l1.22984,-1.38243l0.85175,-1.55257l0.8334,-1.78575l0.94715,-2.08473l1.27045,-3.37652l0.1281,-1.36415l0.10313,-0.29286l0.00753,-0.31039l0.39184,-1.42013l0.11072,-1.17917l-0.18821,-1.80727l0.05862,-0.41239l-0.04651,-0.41394l0.2634,-1.96759l0.02103,-0.5514l-0.25588,-1.89716l-0.22574,-0.9723l0.00786,-0.46707l-0.09594,-0.45718l0.06311,-1.65453l-0.2308,-1.26445l-0.48272,-1.55407l-0.01414,-0.25134l-0.09901,-0.23144l-0.4003,-2.49213c-0.11017,-0.59947 -0.05863,-1.20689 0.13317,-1.76529l0.00907,-0.10561l0.04222,-0.03403c0.21362,-0.54565 0.56365,-1.03828 1.02912,-1.42218l-0.22857,-0.58926l0.76229,-1.63339l0.12257,-0.15107l0.39673,-0.72316l0.21595,-0.23331z" fill="#369a97" stroke="none" stroke-width="0.5" stroke-linecap="butt"/><path d="M234.82483,240.19139v-57.00721h47.5643v57.00721z" fill="#dba38d" stroke="none" stroke-width="0" stroke-linecap="butt"/><path d="M286.09428,294.57644c-14.0398,21.56959 -49.95434,51.25641 -80.73961,49.90483c-16.94765,-0.74407 -43.61922,0.55252 -57.86509,-8.01087c-2.65663,-1.59694 -13.9457,-5.50647 -19.74663,-13.29831c-5.64247,-7.579 -16.37417,-18.26799 -20.69243,-28.17226c-7.5329,-17.2773 -8.75186,-59.25301 -8.75186,-59.25301c0,0 26.31392,27.22264 50.35716,35.0082c2.97678,0.96393 14.09368,-1.56915 22.93903,-5.66286c4.67492,-2.16359 8.98036,-6.09431 10.53519,-7.26659c7.91179,-5.96518 15.75685,-14.29622 18.66816,-18.76892c32.87552,-50.50724 118.17158,5.01257 85.29606,55.51981z" fill="#4e87a8" stroke="none" stroke-width="0" stroke-linecap="butt"/><path d="M328.36847,248.41407l-4.6805,-19.16578l18.86269,-6.74287l8.29219,3.76501l-5.84179,4.38069l5.95505,6.86656z" data-paper-data="{&quot;index&quot;:null}" fill="#c7917c" stroke="none" stroke-width="0" stroke-linecap="butt"/><path d="M131.55776,202.59625l8.17258,-3.97762l-3.65318,-6.32229l9.10454,-0.20761l14.70154,13.60633l-11.82848,15.78991z" fill="#c7917c" stroke="none" stroke-width="0" stroke-linecap="butt"/><path d="M318.54251,237.27851l-51.26459,-89.53041l-3.32462,-8.72892l81.93857,82.5993z" data-paper-data="{&quot;index&quot;:null}" fill="#121833" stroke="none" stroke-width="0" stroke-linecap="butt"/><path d="M141.81847,189.37043l103.44085,-48.51178l-2.13899,11.43185l-82.2954,62.21916z" fill="#121833" stroke="none" stroke-width="0" stroke-linecap="butt"/><path d="M249.83526,141.10793c0,-3.22233 0,-15.69829 0,-15.69829h13.24541c0,0 0,11.701 0,15.04417c0,1.67156 -4.69521,4.57867 -7.03151,4.57867c-1.70196,0 -6.21391,-2.49103 -6.21391,-3.92456z" fill="#c7917c" stroke="none" stroke-width="0" stroke-linecap="butt"/><path d="M289.76375,93.65726c9.1093,-2.09559 20.91495,9.97289 20.91495,9.97289c0,0 -5.31675,16.13844 -14.42606,18.23405c-9.1093,2.09559 -17.9465,-2.51997 -19.73832,-10.30907c-1.79186,-7.78913 4.14011,-15.80224 13.24941,-17.89783z" data-paper-data="{&quot;index&quot;:null}" fill="#c7917c" stroke="none" stroke-width="0" stroke-linecap="butt"/><path d="M239.71818,111.16215c-1.79186,7.78913 -10.629,12.40467 -19.73832,10.30913c-9.1093,-2.09559 -13.24945,-17.89783 -13.24945,-17.89783c0,0 10.629,-12.40466 19.73832,-10.30907c9.1093,2.09559 15.04129,10.1087 13.24945,17.89783z" fill="#c7917c" stroke="none" stroke-width="0" stroke-linecap="butt"/><path d="M214.79857,82.49236c0,-23.25526 18.85208,-42.10734 42.10734,-42.10734c23.25526,0 42.10734,18.85208 42.10734,42.10734c0,23.25526 -18.85208,47.9942 -42.10734,47.9942c-23.25526,0 -42.10734,-24.73895 -42.10734,-47.9942z" fill="#dba38d" stroke="none" stroke-width="0" stroke-linecap="butt"/><path d="M237.14646,104.0235c-0.4946,0.4946 -0.98921,0 -0.98921,0l-0.29288,-0.37286c-0.446,-1.1256 -1.05432,-2.18045 -1.72702,-3.18464c0,0 -0.388,-0.58201 0.19401,-0.97c0.58201,-0.388 0.97,0.19401 0.97,0.19401c0.72557,1.09314 1.37087,2.22337 1.8619,3.44108l-0.0168,-0.09679c0,0 0.4946,0.4946 0,0.98921z" fill="#000000" stroke="none" stroke-width="0.5" stroke-linecap="butt"/><path d="M229.90632,101.74691l-0.0168,0.09679c0.49103,-1.21772 1.13635,-2.34794 1.86192,-3.44108c0,0 0.388,-0.58199 0.97,-0.19399c0.58199,0.388 0.19399,0.97 0.19399,0.97c-0.67269,1.00419 -1.281,2.05903 -1.727,3.18463l-0.29288,0.37286c0,0 -0.49461,0.49461 -0.98921,0c-0.49461,-0.4946 0,-0.9892 0,-0.9892z" data-paper-data="{&quot;index&quot;:null}" fill="#000000" stroke="none" stroke-width="0.5" stroke-linecap="butt"/><path d="M268.49333,96.35105c0,4.11669 -5.36664,7.45393 -11.98672,7.45393c-6.62008,0 -11.98672,-3.33724 -11.98672,-7.45393c0,-4.11669 5.36664,-7.45393 11.98672,-7.45393c6.62008,0 11.98672,3.33724 11.98672,7.45393z" fill="#c1726a" stroke="none" stroke-width="0" stroke-linecap="butt"/><path d="M280.24427,102.43709l-0.0168,0.09679c0.49103,-1.21772 1.13635,-2.34794 1.86192,-3.44108c0,0 0.388,-0.58199 0.97,-0.19399c0.58199,0.388 0.19399,0.97 0.19399,0.97c-0.67269,1.00419 -1.281,2.05903 -1.727,3.18463l-0.29288,0.37286c0,0 -0.4946,0.4946 -0.98921,0c-0.4946,-0.49461 0,-0.98921 0,-0.98921z" data-paper-data="{&quot;index&quot;:null}" fill="#000000" stroke="none" stroke-width="0.5" stroke-linecap="butt"/><path d="M286.79423,102.69105c-0.49461,0.4946 -0.98921,0 -0.98921,0l-0.29288,-0.37286c-0.446,-1.12561 -1.05432,-2.18045 -1.72702,-3.18464c0,0 -0.388,-0.58199 0.19399,-0.97c0.58199,-0.388 0.97,0.19401 0.97,0.19401c0.72555,1.09314 1.37087,2.22335 1.86192,3.44108l-0.01682,-0.09679c0,0 0.4946,0.4946 0,0.98921z" data-paper-data="{&quot;index&quot;:null}" fill="#000000" stroke="none" stroke-width="0.5" stroke-linecap="butt"/><path d="M223.18091,85.83692c0,-8.4893 6.88192,-15.37121 15.37121,-15.37121c8.4893,0 15.37121,6.88192 15.37121,15.37121c0,8.4893 -6.88192,15.37121 -15.37121,15.37121c-8.4893,0 -15.37121,-6.88192 -15.37121,-15.37121z" fill="#ffffff" stroke="none" stroke-width="0" stroke-linecap="butt"/><path d="M260.30079,86.16399c0,-8.4893 6.88192,-15.37121 15.37121,-15.37121c8.4893,0 15.37121,6.88192 15.37121,15.37121c0,8.4893 -6.88192,15.37121 -15.37121,15.37121c-8.4893,0 -15.37121,-6.88192 -15.37121,-15.37121z" fill="#ffffff" stroke="none" stroke-width="0" stroke-linecap="butt"/><path d="M230.70296,82.15764c0,-5.01231 4.06328,-9.07559 9.07559,-9.07559c5.01231,0 9.07559,4.06328 9.07559,9.07559c0,5.01231 -4.06328,9.07559 -9.07559,9.07559c-5.01231,0 -9.07559,-4.06328 -9.07559,-9.07559z" fill="#000000" stroke="none" stroke-width="0" stroke-linecap="butt"/><path d="M262.91716,82.97523c0,-5.01231 4.06328,-9.07559 9.07559,-9.07559c5.01231,0 9.07559,4.06328 9.07559,9.07559c0,5.01231 -4.06328,9.07559 -9.07559,9.07559c-5.01231,0 -9.07559,-4.06328 -9.07559,-9.07559z" fill="#000000" stroke="none" stroke-width="0" stroke-linecap="butt"/><path d="M225.94323,199.90799l14.59249,-59.28442l26.21705,0.30324l22.50712,58.98117c0,0 -21.07455,-6.29527 -31.78956,-6.29526c-10.3799,0 -31.5271,6.29529 -31.5271,6.29529z" fill="#232841" stroke="none" stroke-width="0" stroke-linecap="butt"/><path d="M226.39715,76.11154c3.41182,-4.40861 9.10628,-6.80526 14.96765,-5.73008c5.36048,0.98328 9.55981,4.6318 11.48138,9.32711c0.52938,1.2936 -27.19034,-2.63912 -26.44902,-3.59704z" fill="#9c6954" stroke="none" stroke-width="0" stroke-linecap="butt"/><path d="M287.54181,75.32158c0.83044,0.88784 -26.78513,7.29499 -26.36309,5.95859c1.53207,-4.85077 5.45175,-8.86302 10.77285,-10.32401c5.81829,-1.59749 11.76834,0.27916 15.59022,4.36542z" data-paper-data="{&quot;index&quot;:null}" fill="#9c6954" stroke="none" stroke-width="0" stroke-linecap="butt"/><path d="M262.60256,75.36962l12.28517,-6.2116" fill="none" stroke="#000000" stroke-width="1.5" stroke-linecap="round"/><path d="M255.70077,97.3173l-3.45089,-3.31285l5.10731,0.69017" fill="none" stroke="#000000" stroke-width="1.5" stroke-linecap="round"/><path d="M253.65776,88.72276c-1.74592,-1.86827 -3.44147,-4.12093 -3.94102,-6.71163c-0.9538,-4.94639 2.73833,-7.28962 2.76998,-11.71518c0.0215,-3.00806 -2.40964,-5.52189 -3.90191,-7.90954c-0.01512,-0.02138 -0.57974,-0.71293 -1.10615,-1.52365c-1.03042,2.58747 -2.34763,4.25614 -4.65757,5.75464c-3.08973,2.00436 -7.00338,3.63721 -10.59387,4.43232c-1.69063,0.37439 -3.90847,-0.10975 -5.36108,1.0693c-2.29769,1.86497 -3.07821,5.87211 -3.30127,8.60196c-0.68479,5.47827 -0.97731,11.50533 0.20264,16.92452c0.71144,3.26744 2.10692,6.40525 3.27982,9.53491c0.49324,1.31612 1.59037,2.57391 1.42245,3.96935c-0.75233,6.25206 -4.88049,2.62623 -6.81199,0.35816c-2.96919,-3.48657 -5.08564,-6.75663 -5.06712,-11.43162c-0.21766,-0.96421 0.07444,-2.21319 -0.64096,-2.89532c-0.38601,-0.36806 -2.83899,-0.20716 -2.96394,-0.22308c-3.2471,-0.41347 -9.75166,-2.67114 -9.9186,-6.9103c-0.20749,-5.26891 4.40904,-2.33639 6.11948,-5.13199c2.6425,-4.31899 1.33145,-10.87608 1.33145,-15.80703c0,-10.62125 3.50533,-17.33615 11.0572,-23.89672c2.9503,-4.3808 6.83381,-7.83468 13.03427,-9.71962c3.80528,-1.15682 8.92024,-0.30819 12.86413,-0.30819c5.69266,0 11.68214,-0.49334 17.31265,0.49088c10.61962,1.85634 22.26376,8.38795 28.48554,17.14322c6.13267,12.2095 10.9701,22.16012 7.66486,36.04434c-0.56372,2.368 -1.22491,8.19631 -2.73083,9.99389c-0.08237,0.09832 -0.16902,0.19167 -0.25945,0.28066l0.03966,0.03469l-1.62559,1.85782c-0.32064,0.37033 -0.79423,0.60461 -1.32254,0.60461c-0.96578,0 -1.74869,-0.78291 -1.74869,-1.74869c0,-0.2436 0.04982,-0.47556 0.1398,-0.68627l0.91791,-2.29477l0.00688,0.00276l0.00116,-0.0225c1.84828,-4.25896 1.91278,-9.55123 2.20185,-14.12844c0.11049,-1.74943 1.31445,-5.19341 0.29985,-6.83457c-0.80834,-1.30751 -4.59067,-0.62614 -5.78245,-0.63441c-3.11763,-0.02164 -4.40036,-0.70101 -6.59973,-2.9004c-2.09505,-5.3125 -3.91425,-11.31949 -10.10817,-12.76454c-3.69242,-0.86145 -7.92309,-0.93896 -11.69971,-1.36659c-0.27741,-0.03141 -0.7325,-0.04797 -1.24402,-0.09072c0.22898,0.61737 0.34588,1.31813 0.57665,2.14807c0.49355,2.26757 0.91567,4.9549 0.47738,7.2818c-0.56257,2.98674 -2.93511,5.60993 -3.48972,8.58727c-0.69857,3.75011 2.59606,3.61388 3.68699,7.12011c1.50144,4.82557 -0.5794,8.97561 -4.03807,11.61666c-0.13482,0.21861 -0.28592,0.44238 -0.45431,0.67169l0.22278,0.25991l-1.6247,1.3926c-0.30683,0.26622 -0.70732,0.42734 -1.14543,0.42734c-0.96578,0 -1.74869,-0.78291 -1.74869,-1.74869c0,-0.43001 0.15521,-0.82376 0.41266,-1.1283l1.15844,-1.39014c1.87353,-1.75768 -0.48907,-3.27901 -1.79885,-4.68059z" fill="#369a97" stroke="none" stroke-width="0.5" stroke-linecap="butt"/><path d="M237.59633,68.10882l12.28517,6.2116" data-paper-data="{&quot;index&quot;:null}" fill="none" stroke="#000000" stroke-width="1.5" stroke-linecap="round"/><path d="M101.99866,209.78854c4.63312,16.85532 4.61444,31.55681 -0.04173,32.83667c-4.65616,1.27987 -12.18663,-11.34654 -16.81975,-28.20186c-4.63312,-16.85532 -4.61444,-31.55681 0.04173,-32.83667c4.65616,-1.27987 12.18663,11.34654 16.81975,28.20186z" fill="#2d6585" stroke="none" stroke-width="0" stroke-linecap="butt"/><path d="M40.41277,249.72059c-0.71455,-4.7757 12.72093,-10.74409 30.00899,-13.33078c17.28806,-2.58669 31.88204,-0.81211 32.59661,3.96359c0.71456,4.77571 -12.72093,10.74409 -30.00898,13.33077c-17.28806,2.58669 -31.88205,0.81213 -32.59661,-3.96359z" data-paper-data="{&quot;index&quot;:null}" fill="#2d6585" stroke="none" stroke-width="0" stroke-linecap="butt"/><path d="M256.85829,217.80819l4.19685,-0.34974" fill="none" stroke="#000000" stroke-width="0.5" stroke-linecap="round"/><path d="M299.78857,115.33511l4.19685,2.44816" fill="none" stroke="#000000" stroke-width="1.5" stroke-linecap="round"/><path d="M302.76134,112.18747l3.14764,1.57382" fill="none" stroke="#000000" stroke-width="1.5" stroke-linecap="round"/><path d="M278.8259,112.31808c0.52174,2.14494 -3.97593,1.58599 -9.55277,2.94251c-5.57684,1.35653 -10.12102,4.11485 -10.64276,1.96991c-0.52174,-2.14494 3.57622,-4.98344 9.15306,-6.33996c5.57684,-1.35653 10.52073,-0.7174 11.04246,1.42754z" fill="#ffffff" stroke="#000000" stroke-width="1.5" stroke-linecap="butt"/></g></g></svg>