<svg version="1.1" xmlns="http://www.w3.org/2000/svg" xmlns:xlink="http://www.w3.org/1999/xlink" width="33.3424" height="47.7996" viewBox="0,0,33.3424,47.7996"><g transform="translate(-223.2557,-166.54914)"><g data-paper-data="{&quot;isPaintingLayer&quot;:true}" fill-rule="nonzero" stroke="none" stroke-width="0" stroke-linecap="butt" stroke-linejoin="miter" stroke-miterlimit="10" stroke-dasharray="" stroke-dashoffset="0" style="mix-blend-mode: normal"><path d="M248.71271,183.16712c1.07994,-0.37025 2.52585,4.66328 4.61832,10.76657c2.09247,6.10329 4.03913,10.96514 2.95919,11.33539c-1.07994,0.37025 -2.8925,-4.76699 -4.98497,-10.87027c-2.09247,-6.10329 -3.67248,-10.86144 -2.59254,-11.23168z" data-paper-data="{&quot;index&quot;:null}" fill="#bf6592"/><path d="M228.54857,193.5957c-2.09247,6.10329 -3.90503,11.24052 -4.98497,10.87027c-1.07994,-0.37025 0.86672,-5.2321 2.95919,-11.33539c2.09247,-6.10329 3.53838,-11.13682 4.61832,-10.76657c1.07994,0.37025 -0.50007,5.1284 -2.59254,11.23168z" fill="#bf6592"/><path d="M245.59058,202.47485c-0.12643,6.45078 -0.2817,11.89619 -1.42312,11.87382c-1.14142,-0.02237 -0.77429,-5.24658 -0.64786,-11.69736c0.12643,-6.45078 -0.03569,-11.68535 1.10574,-11.66298c1.14142,0.02237 1.09168,5.03574 0.96525,11.48653z" fill="#bf6592"/><path d="M236.33104,202.3608c-0.12643,6.45078 -0.2817,11.89619 -1.42313,11.87382c-1.14142,-0.02237 -0.77429,-5.24658 -0.64786,-11.69736c0.12643,-6.45078 -0.03569,-11.68535 1.10573,-11.66298c1.14142,0.02237 1.09169,5.03574 0.96525,11.48653z" fill="#bf6592"/><path d="M247.3974,185.46997c1.12414,-0.19913 1.77584,4.99725 2.90123,11.35037c1.12539,6.35312 2.29833,11.45717 1.17418,11.6563c-1.12414,0.19913 -2.12208,-5.15631 -3.24748,-11.50942c-1.12539,-6.35312 -1.95208,-11.29811 -0.82793,-11.49724z" data-paper-data="{&quot;index&quot;:null}" fill="#bf6592"/><path d="M231.28349,196.03883c-1.12539,6.35312 -2.12333,11.70855 -3.24748,11.50942c-1.12414,-0.19913 0.04879,-5.30318 1.17418,-11.65629c1.12539,-6.35312 1.77708,-11.54949 2.90122,-11.35036c1.12414,0.19913 0.29746,5.14412 -0.82793,11.49724z" fill="#bf6592"/><path d="M254.26572,185.57153c0,10.50578 -28.53144,10.50578 -28.53144,0c0,-10.50577 6.38698,-19.02239 14.26572,-19.02239c7.87874,0 14.26572,8.51662 14.26572,19.02239z" fill="#ef88bc"/><path d="M237.30942,180.77526c0,0 -4.06733,2.873 -6.38443,2.873c-2.3171,0 2.55378,-3.05541 2.55378,-3.05541c0,0 -5.78294,-2.23455 -3.46584,-2.23455c2.3171,0 7.2965,2.41696 7.2965,2.41696z" fill="#ffffff"/><path d="M250.79102,178.06833c2.3171,0 -3.46584,2.23455 -3.46584,2.23455c0,0 4.87088,3.05541 2.55378,3.05541c-2.3171,0 -6.38443,-2.873 -6.38443,-2.873c0,0 4.97939,-2.41697 7.2965,-2.41697z" data-paper-data="{&quot;index&quot;:null}" fill="#ffffff"/><path d="M242.50818,184.3323c0,1.68746 -1.04128,3.05541 -2.32576,3.05541c-1.28448,0 -2.32576,-1.36796 -2.32576,-3.05541c0,-1.68745 1.04128,-3.05541 2.32576,-3.05541c1.28448,0 2.32576,1.36795 2.32576,3.05541z" fill="#ffffff"/></g></g></svg>