<svg version="1.1" xmlns="http://www.w3.org/2000/svg" xmlns:xlink="http://www.w3.org/1999/xlink" width="36.58023" height="140.3276" viewBox="0,0,36.58023,140.3276"><g transform="translate(-226.21739,-90.1012)"><g data-paper-data="{&quot;isPaintingLayer&quot;:true}" fill-rule="nonzero" stroke="none" stroke-width="0" stroke-linecap="butt" stroke-linejoin="miter" stroke-miterlimit="10" stroke-dasharray="" stroke-dashoffset="0" style="mix-blend-mode: normal"><path d="M240.10701,218.69335c-0.88167,2.03463 -4.66427,2.35461 -8.44868,0.7147c-3.7844,-1.63991 -6.13753,-4.61871 -5.25586,-6.65333c0.88167,-2.03463 4.66427,-2.35461 8.44868,-0.7147c3.7844,1.63991 6.13753,4.61871 5.25586,6.65333z" fill="#164705"/><path d="M254.16387,191.82561c3.7844,-1.63991 7.567,-1.31993 8.44868,0.7147c0.88167,2.03463 -1.47146,5.01342 -5.25586,6.65333c-3.7844,1.63991 -7.567,1.31993 -8.44867,-0.71469c-0.88167,-2.03463 1.47145,-5.01343 5.25586,-6.65333z" data-paper-data="{&quot;index&quot;:null}" fill="#164705"/><path d="M231.26323,176.98335c0.88167,-2.03463 4.66427,-2.3546 8.44868,-0.7147c3.78441,1.63991 6.13753,4.61871 5.25586,6.65333c-0.88167,2.03463 -4.66427,2.35461 -8.44868,0.7147c-3.7844,-1.63991 -6.13753,-4.61871 -5.25586,-6.65333z" data-paper-data="{&quot;index&quot;:null}" fill="#164705"/><path d="M237.92507,168.08909c1.85992,-1.20737 5.18819,0.6183 7.4339,4.07775c2.24571,3.45945 2.55846,7.24265 0.69854,8.45002c-1.85992,1.20737 -5.18819,-0.61829 -7.4339,-4.07774c-2.24571,-3.45945 -2.55846,-7.24265 -0.69854,-8.45003z" data-paper-data="{&quot;index&quot;:null}" fill="#164705"/><path d="M257.74663,142.1918c-2.24571,3.45945 -5.57399,5.28512 -7.4339,4.07774c-1.85992,-1.20738 -1.54717,-4.99057 0.69854,-8.45002c2.24571,-3.45945 5.57399,-5.28512 7.43391,-4.07775c1.85992,1.20738 1.54717,4.99058 -0.69855,8.45003z" data-paper-data="{&quot;index&quot;:null}" fill="#164705"/><path d="M229.64122,230.4288c0,0 5.28219,-9.06245 8.64463,-22.97977c2.65145,-10.97453 3.13738,-25.08936 5.5856,-39.32398c1.70516,-9.91428 -2.27787,-20.36369 -1.0191,-29.90234c3.32626,-25.20561 10.58627,-45.97333 11.02724,-48.12008c0.04174,-0.2032 -3.00962,21.30422 -2.75516,47.73563c0.07713,8.01114 4.54168,16.62047 4.32774,25.03045c-0.41007,16.11977 -5.13654,32.60387 -5.60325,44.82419c-0.52,13.6158 3.24009,22.0935 3.24009,22.0935z" fill="#24650c"/></g></g></svg>