<svg version="1.1" xmlns="http://www.w3.org/2000/svg" xmlns:xlink="http://www.w3.org/1999/xlink" width="103.46834" height="134.40945" viewBox="0,0,103.46834,134.40945"><g transform="translate(-186.11377,-102.21147)"><g data-paper-data="{&quot;isPaintingLayer&quot;:true}" fill-rule="nonzero" stroke-linejoin="miter" stroke-miterlimit="10" stroke-dasharray="" stroke-dashoffset="0" style="mix-blend-mode: normal"><path d="M254.6321,189.63573c0,0 1.89807,0.72558 1.665,0.26775c-1.30729,-2.56799 -13.42152,-25.8428 -13.42152,-25.8428l3.42968,-5.27382l26.57777,36.73488l-18.1863,4.89642z" data-paper-data="{&quot;index&quot;:null}" fill="#983d99" stroke="none" stroke-width="0" stroke-linecap="butt"/><path d="M223.52341,201.18739l-18.1863,-4.89642l26.57777,-36.73487l3.42968,5.27382c0,0 -12.11424,23.27481 -13.42152,25.8428c-0.23307,0.45783 1.665,-0.26775 1.665,-0.26775z" fill="#983d99" stroke="none" stroke-width="0" stroke-linecap="butt"/><path d="M235.59591,161.23665c0,-1.69249 0,-8.24534 0,-8.24534l6.72623,-1.53847c0,0 0.23077,7.68429 0.23077,9.44025c0,0.87797 -2.69688,0.86642 -3.92399,0.86642c-0.89393,0 -3.03301,0.23009 -3.03301,-0.52286z" fill="#6cb948" stroke="none" stroke-width="0" stroke-linecap="butt"/><path d="M259.57603,145.7695c3.47666,2.20736 9.99573,6.9452 8.10827,9.91799c-1.88746,2.97279 -11.46672,3.05483 -14.94338,0.84745c-3.47666,-2.20736 -4.76495,-6.40675 -2.87749,-9.37954c1.88746,-2.97279 6.23593,-3.59328 9.7126,-1.3859z" data-paper-data="{&quot;index&quot;:null}" fill="#569937" stroke="none" stroke-width="0" stroke-linecap="butt"/><path d="M260.03472,133.18021c4.78456,-1.10068 9.42619,1.32358 10.36733,5.41473c0.94115,4.09115 -2.17454,8.29996 -6.9591,9.40065c-4.78456,1.10068 -9.42619,-1.32358 -10.36733,-5.41473c-0.94115,-4.09115 2.17454,-8.29995 6.9591,-9.40063z" data-paper-data="{&quot;index&quot;:null}" fill="#569937" stroke="none" stroke-width="0" stroke-linecap="butt"/><path d="M230.36338,146.29654c1.88746,2.97279 0.59918,7.17217 -2.87749,9.37954c-3.47666,2.20736 -13.13286,2.04841 -15.02032,-0.92438c-1.88746,-2.97279 4.70853,-7.6337 8.18519,-9.84106c3.47666,-2.20736 7.82515,-1.58688 9.71261,1.3859z" fill="#569937" stroke="none" stroke-width="0" stroke-linecap="butt"/><path d="M227.15119,141.72195c-0.94115,4.09115 -5.58276,6.51541 -10.36733,5.41475c-4.78456,-1.10068 -7.90027,-5.30948 -6.95912,-9.40063c0.94115,-4.09115 5.58276,-6.5154 10.36733,-5.41473c4.78456,1.10068 7.90027,5.30948 6.95912,9.40063z" fill="#569937" stroke="none" stroke-width="0" stroke-linecap="butt"/><path d="M216.96252,128.91102c0,-12.21456 9.90184,-22.1164 22.1164,-22.1164c12.21456,0 22.1164,9.90184 22.1164,22.1164c0,8.97142 -3.11096,19.44016 -10.78738,23.79502c-2.775,1.57427 -20.6397,3.15174 -23.76705,1.04516c-6.90904,-4.65392 -9.67837,-16.4317 -9.67837,-24.84017z" fill="#6cb948" stroke="none" stroke-width="0" stroke-linecap="butt"/><path d="M232.57693,150l3.23077,-0.46154v4.46154z" fill="#fefefe" stroke="none" stroke-width="0" stroke-linecap="butt"/><path d="M221.36524,130.6677c0,-4.45891 3.61465,-8.07356 8.07356,-8.07356c4.45891,0 8.07356,3.61465 8.07356,8.07356c0,4.45891 -3.61465,8.07356 -8.07356,8.07356c-4.45891,0 -8.07356,-3.61465 -8.07356,-8.07356z" fill="#ffffff" stroke="none" stroke-width="0" stroke-linecap="butt"/><path d="M246.06586,153.28258l-0.90995,-4.36776l3.25699,-0.20709z" data-paper-data="{&quot;index&quot;:null}" fill="#fefefe" stroke="none" stroke-width="0" stroke-linecap="butt"/><path d="M231.31613,132.81213c0,-2.63265 0.63607,-4.76684 1.42068,-4.76684c0.78462,0 1.42069,2.13419 1.42069,4.76684c0,2.63265 -0.63607,4.76684 -1.42069,4.76684c-0.78462,0 -1.42068,-2.13419 -1.42068,-4.76684z" fill="#000000" stroke="none" stroke-width="0" stroke-linecap="butt"/><path d="M232.87436,150.07862c0,0 4.08874,-0.68711 5.92634,-0.68711c2.27631,0 10.16088,-0.77443 10.16088,-0.77443" fill="none" stroke="#000000" stroke-width="0.5" stroke-linecap="round"/><path d="M271.82532,236.62092l-37.17796,-27.69738l10.25082,-11.91647l35.17591,21.98774l9.50801,0.17127z" fill="#6cb948" stroke="none" stroke-width="0" stroke-linecap="butt"/><path d="M186.11377,215.32711l9.16454,1.80518l37.89404,-19.58859l9.53815,12.49422l-39.45888,25.38346z" fill="#6cb948" stroke="none" stroke-width="0" stroke-linecap="butt"/><path d="M194.67043,216.11737l36.83871,-18.61146l10.29645,13.05937l-28.79684,19.83529z" fill="#58264a" stroke="none" stroke-width="0" stroke-linecap="butt"/><path d="M262.29859,231.21263l-27.58241,-21.37307l11.04081,-12.43643l34.84678,21.11964z" data-paper-data="{&quot;index&quot;:null}" fill="#58264a" stroke="none" stroke-width="0" stroke-linecap="butt"/><path d="M224.28572,210.60506l7.66454,-50.7939l13.77021,0.25981l11.8216,50.53408z" fill="#b964bb" stroke="none" stroke-width="0" stroke-linecap="butt"/><path d="M224.24355,206.19614v-2.86295h32.49464v2.86295z" fill="#27062f" stroke="none" stroke-width="0" stroke-linecap="butt"/><path d="M237.95,142.2l-2.6,-0.9l3.2,-7.8" fill="none" stroke="#000000" stroke-width="0.5" stroke-linecap="round"/><path d="M240.36524,130.59078c0,-4.45891 3.61465,-8.07356 8.07356,-8.07356c4.45891,0 8.07356,3.61465 8.07356,8.07356c0,4.45891 -3.61465,8.07356 -8.07356,8.07356c-4.45891,0 -8.07356,-3.61465 -8.07356,-8.07356z" fill="#ffffff" stroke="none" stroke-width="0" stroke-linecap="butt"/><path d="M242.46997,131.81213c0,-2.63265 0.63607,-4.76684 1.42068,-4.76684c0.78462,0 1.42069,2.13419 1.42069,4.76684c0,2.63265 -0.63607,4.76684 -1.42069,4.76684c-0.78462,0 -1.42068,-2.13419 -1.42068,-4.76684z" fill="#000000" stroke="none" stroke-width="0" stroke-linecap="butt"/><path d="M239.93627,102.30547l0.46153,0.07692l0.04672,0.02031h0.05095l0.52163,0.13041l0.69344,0.06304h0.40484l0.05146,0.01287l0.05235,-0.00855l0.92308,0.07693l0.04953,0.01686l0.05216,-0.00417l0.92308,0.15385l0.03616,0.01572l0.03942,-0.00071l0.98209,0.22664l0.75121,0.15024l0.05417,0.02566l0.05988,0.00279l0.71288,0.21386l0.71154,0.14231l0.07138,0.03381l0.07876,0.00606l0.64677,0.21559l0.52038,0.13009l0.4123,0.06872l0.14569,0.06334l0.15649,0.02738l0.54699,0.2431l0.76622,0.12771l0.10635,0.04623l0.11534,0.01201l0.84615,0.30769l0.06054,0.04086l0.0713,0.01584l0.51148,0.25574l0.42676,0.12193l0.10137,0.05848l0.11424,0.02539l1.07692,0.53846l0.02697,0.02312l0.03419,0.00961l0.53846,0.30769l0.00987,0.00946l0.01308,0.00398l0.29873,0.17924l0.29162,0.11665l0.106,0.07655l0.12313,0.04398l0.43679,0.29119l0.74372,0.44624l0.0464,0.0464l0.06048,0.02546l0.61539,0.46154l0.05674,0.06982l0.07715,0.04629l0.92684,0.92685l0.45428,0.32449l0.06775,0.07953l0.08958,0.05375l1.3077,1.30769l0.03621,0.06036l0.05599,0.04266l0.30769,0.38461l0.00835,0.01823l0.01556,0.01265l0.14844,0.19792l0.43428,0.37224l0.1163,0.16387l0.14209,0.14208l0.18751,0.31252l0.25517,0.31896l0.00835,0.01823l0.01556,0.01265l0.46153,0.61539l0.0441,0.10471l0.07394,0.08626l0.04212,0.08424l0.26452,0.39679l0.02657,0.07438l0.0514,0.05997l0.38461,0.76923l0.01151,0.05177l0.03106,0.043l0.44223,1.10558l0.20752,0.41503l0.0115,0.05178l0.03105,0.043l0.15385,0.38461l0.01161,0.0852l0.04047,0.07587l0.07692,0.30769v0.15389l0.03732,0.14928v3.46154l-0.03732,0.14929v0.15388l-0.11652,0.46609v0.76919l-0.0154,0.06158l0.00919,0.0628l-0.07072,0.70719v2.78381l-0.03019,0.12078l0.00592,0.12436l-0.05264,0.26325v0.64546l-0.0302,0.12078l0.00592,0.12436l-0.05265,0.26324v0.18392l-0.04874,0.19494l-0.01541,0.20034l-0.0897,0.2691v0.10484l-0.0302,0.12079l0.00593,0.12436l-0.07693,0.38461l-0.01305,0.02755v0.03048l-0.07692,0.30769l-0.10066,0.18875l-0.07195,0.20146l-0.17052,0.25578l-0.02843,0.14214l-0.03382,0.07138l-0.00606,0.07876l-0.15384,0.46154l-0.02848,0.04475l-0.00845,0.05236l-0.1795,0.41884l-0.05139,0.25699l-0.09158,0.19333l-0.06228,0.20465l-0.16018,0.26695l-0.11046,0.33137l-0.01274,0.02003l-0.00269,0.02359l-0.20577,0.54872l-0.05965,0.23863l-0.04804,0.09007l-0.07252,0.23826l-0.07529,0.30119l-0.01982,0.01132l-0.00206,0.0068l-0.11938,0.19896l-0.03446,0.1723l-0.08602,0.1816l-0.0544,0.19343l-0.24629,0.43099l-0.09953,0.29857l-0.02795,0.11183v0.07689l-0.04874,0.19493l-0.01541,0.20035l-0.07693,0.23077l-0.08963,0.14086l-0.05615,0.15723l-0.11068,0.16602l-0.19597,0.39193l-0.05141,0.05997l-0.02656,0.07439l-0.06099,0.09149l-0.00881,0.02642l-0.1422,0.56882l-0.00334,0.00626l0.00601,0.02202l-0.15973,0.26622l-0.1461,0.27393l-0.02197,0.00618l-0.00365,0.00609l-0.01159,0.01159l-0.04423,0.17693l-0.06478,0.12147l-0.02986,0.13438l-0.46154,0.92308l-0.13077,0.15256l-0.02117,0.03528l-0.08793,0.26381l-0.04831,0.07591l-0.01952,0.08783l-0.20752,0.41503l-0.13453,0.33634l-0.09659,0.13372l-0.06401,0.15204l-0.15521,0.20695l-0.01776,0.05327l0.00369,0.01354l-0.01847,0.03079l-0.01102,0.03304l-0.15419,0.24231l-0.14778,0.24629l-0.02463,0.02463l-0.01927,0.03029l-0.0091,0.00182l-0.02159,0.06045l-0.11068,0.16601l-0.04212,0.08424l-0.011,0.01283l-0.01329,0.05316l-0.06326,0.03615l-0.33172,0.38701l-0.38276,0.02126l-0.31601,0.18058l-0.26001,-0.14857l-0.299,0.01661l-0.2019,-0.30284l-0.33284,-0.19019l-0.12363,-0.49451l-0.04041,-0.06062l0.01189,-0.05348l-0.0041,-0.01639v-0.30769l0.04873,-0.19494l0.01541,-0.20034l0.23077,-0.69231l0.08963,-0.14085l0.05615,-0.15724l0.27694,-0.4154l0.4067,-0.74562l0.2075,-0.48416l0.02274,-0.02992l0.00815,-0.03669l0.23077,-0.46154l0.0319,-0.03721l0.01427,-0.04689l0.43684,-0.72807l0.21136,-0.42272l0.04409,-0.22047l0.07148,-0.15089l0.03622,-0.16298l0.26796,-0.53593l0.12575,-0.37726l0.07391,-0.11614l0.04008,-0.1317l0.13507,-0.22512l0.03181,-0.12724l0.08699,-0.16311l0.05382,-0.17684l0.13507,-0.22512l0.03181,-0.12724l0.04046,-0.07587l0.01162,-0.0852l0.15384,-0.38461l0.03106,-0.043l0.0115,-0.05178l0.28444,-0.56888l0.12206,-0.30514v-8.0789l-0.05992,-0.35949l0.00833,-0.10415l-0.02534,-0.10135v-0.38458l-0.0396,-0.15841v-0.15388l-0.03733,-0.14929v-0.26084l-0.05264,-0.26324l0.00592,-0.12436l-0.03019,-0.12078v-0.18177l-0.0897,-0.2691l-0.00376,-0.04887l-0.02307,-0.04325l-0.08768,-0.35071l-0.06293,-0.07865l-0.00777,-0.00218l-0.01204,-0.02257l-0.05454,-0.06818l-0.11111,-0.24241l-0.12549,-0.23529l-0.02117,-0.0847l-0.01065,-0.02324l0.00297,-0.0075l-0.01479,-0.05912l-0.07101,-0.14203l-0.20607,-0.34345l-0.02947,-0.09683l-0.05926,-0.08205l-0.14509,-0.36272l-0.24447,-0.55006l-0.53769,-0.73932l-0.00205,-0.0051l-0.00419,-0.00357l-0.7091,-0.99274l-0.1252,-0.1252l-0.06095,0.03878l-0.09073,0.03024l-0.13143,0.07886l-0.15256,0.13077l-0.08089,0.04045l-0.00697,0.01219l-0.03483,0.00871l-0.03115,0.01557l-0.06312,0.01403l-0.01059,0.00635l-0.00808,-0.0022l-0.18056,0.04012l-0.14175,0.0945l-0.07439,0.02656l-0.05997,0.05141l-0.15385,0.07693l-0.13438,0.02987l-0.12147,0.06478l-0.17458,0.04364l-0.33881,0.1694l-0.16298,0.03622l-0.15089,0.07148l-0.3083,0.06166l-0.30344,0.10115l-0.38208,0.19104l-0.05178,0.0115l-0.043,0.03105l-0.33634,0.13454l-0.41503,0.20752l-0.11425,0.02539l-0.10137,0.05848l-0.53846,0.15385l-0.0516,0.00172l-0.04666,0.0221l-0.27208,0.05442l-0.27806,0.11122l-0.03724,0.00508l-0.03171,0.02018l-0.46154,0.15385l-0.07876,0.00606l-0.07139,0.03381l-0.29166,0.05833l-0.75707,0.2753l-0.01726,0.0018l-0.01464,0.00932l-0.92308,0.30769l-0.13935,0.01072l-0.13155,0.04722l-0.60719,0.06072l-0.4629,0.17359l-0.11231,0.01283l-0.10299,0.04659l-0.84615,0.15385l-0.05106,-0.00333l-0.04817,0.01729l-0.74296,0.0743l-0.48884,0.06983l-0.81203,0.14764l-0.75848,0.1517l-0.06218,-0.00296l-0.05858,0.02103l-0.76923,0.07693l-0.06281,-0.00919l-0.06157,0.01539h-0.53757l-0.49285,0.06161l-0.72445,0.14489l-0.12436,-0.00592l-0.12078,0.03019h-7.23077l-0.16915,-0.04228l-0.17425,-0.00581l-0.47925,-0.13693l-0.67468,-0.12266h-0.34883l-0.07663,-0.01916l-0.07842,0.0095l-0.53816,-0.06727h-0.46064l-0.12079,-0.0302l-0.12436,0.00592l-0.76923,-0.15385l-0.02755,-0.01305h-0.03048l-0.53382,-0.13345l-0.45517,-0.05058l-0.00035,0.00022l-0.00164,-0.00044l-0.15158,-0.01684l-0.23101,-0.08581l-0.238,-0.06386l-0.13332,-0.07406l-0.00159,-0.00059l-0.00017,-0.00039l-0.51641,-0.28689l-0.88149,-0.40684l-0.91989,-0.28305l-0.06963,-0.04207l-0.08002,-0.0147l-0.80184,-0.36447l-0.38425,-0.13973l-0.07952,0.12922l-0.26205,0.78616l-0.09542,0.14993l-0.0627,0.16629l-0.6756,0.97588l-0.27152,0.43444l-0.18235,0.66861l-0.08951,0.15957l-0.05644,0.17403l-0.26365,0.42184l-0.10908,0.54542l-0.04951,0.10451l-0.01562,0.11458l-0.29405,0.73512l-0.23193,0.6958v8.83246l0.07416,1.11231l-0.00755,0.04188l0.01032,0.04127v0.62996l0.0628,0.62803l0.21288,0.92247l-0.00185,0.10139l0.03109,0.09653l0.14501,2.17516l0.2712,0.94921l0.00581,0.17425l0.04228,0.16915v1.30769l-0.0041,0.01639l0.01189,0.05349l-0.04041,0.06062l-0.12363,0.4945l-0.33284,0.1902l-0.2019,0.30284l-0.299,-0.01661l-0.26001,0.14857l-0.31601,-0.18057l-0.38276,-0.02126l-0.33173,-0.38702l-0.06325,-0.03615l-0.01329,-0.05315l-0.01099,-0.01283l-0.07692,-0.15385l-0.01952,-0.08783l-0.0483,-0.07591l-0.07692,-0.23077l-0.01381,-0.17957l-0.02081,-0.05827l-0.0514,-0.05997l-0.04045,-0.08089l-0.01219,-0.00697l-0.00871,-0.03483l-0.01557,-0.03115l-0.06231,-0.28038l-0.06966,-0.27864v-0.03483l-0.00779,-0.03504l0.00779,-0.01168v-0.02543l-0.05265,-0.26325l0.00519,-0.10894l-0.03672,-0.16526l-0.06966,-0.27864v-0.03483l-0.00779,-0.03505l0.00694,-0.01041l-0.00546,-0.02184l-0.01557,-0.03115l-0.06231,-0.28038l-0.03232,-0.12929l-0.00002,-0.00003l-0.06528,-0.26112l-0.06175,-0.18523l-0.01538,-0.2l-0.0086,-0.02581l-0.06099,-0.09149l-0.01692,-0.04737l-0.03677,-0.02101l-0.06829,-0.27317l-0.08623,-0.24146l-0.0145,-0.02279l-0.12575,-0.37726l-0.19104,-0.38208l-0.01952,-0.08783l-0.0483,-0.07591l-0.02399,-0.07196l-0.06099,-0.09149l-0.05616,-0.15723l-0.08963,-0.14086l-0.20267,-0.60803l-0.26797,-0.53593l-0.01952,-0.08782l-0.0483,-0.07591l-0.10091,-0.30273l-0.06099,-0.09149l-0.07195,-0.20145l-0.10067,-0.18875l-0.06528,-0.26112l-0.11057,-0.33172l-0.07931,-0.15863l-0.11068,-0.16601l-0.02657,-0.07439l-0.05141,-0.05998l-0.05545,-0.11091l-0.20607,-0.34345l-0.01427,-0.04689l-0.03189,-0.03722l-0.02652,-0.05303l-0.10984,-0.14646l-0.16796,-0.16795l-0.06405,-0.10676l-0.09213,-0.08375l-0.15384,-0.23077l-0.02657,-0.07439l-0.05141,-0.05997l-0.19597,-0.39193l-0.11068,-0.16602l-0.05615,-0.15723l-0.08963,-0.14086l-0.06054,-0.1816l-0.02211,-0.02211l-0.10336,-0.17228l-0.11023,-0.05512l-0.03722,-0.03189l-0.04689,-0.01427l-0.38461,-0.23077l-0.02155,-0.02155l-0.02871,-0.01025l-0.16601,-0.11067l-0.08424,-0.04212l-0.03722,-0.0319l-0.04689,-0.01427l-0.34345,-0.20607l-0.26475,-0.13238l-0.15256,-0.13076l-0.1723,-0.10339l-0.69231,-0.6923l-0.06405,-0.10676l-0.09212,-0.08375l-0.01518,-0.02275l-0.02275,-0.01517l-0.08375,-0.09212l-0.10676,-0.06406l-1,-1l-0.03621,-0.06036l-0.05599,-0.04265l-0.26444,-0.33055l-0.25874,-0.25874l-0.0859,-0.14317l-0.11552,-0.12054l-0.22464,-0.39312l-0.34317,-0.34317l-0.07341,-0.12234l-0.10271,-0.09904l-0.35647,-0.57036l-0.19891,-0.26522l-0.0058,-0.01376l-0.01137,-0.00969l-0.35754,-0.50056l-0.35479,-0.42576l-0.07888,-0.16339l-0.10978,-0.14445l-0.23077,-0.53846l-0.00249,-0.01546l-0.00917,-0.0127l-0.14819,-0.37046l-0.22476,-0.52446l-0.00845,-0.05236l-0.02848,-0.04475l-0.0897,-0.2691l-0.04838,-0.06451l-0.01062,-0.00354l-0.01364,-0.02881l-0.03642,-0.04855l-0.10733,-0.2549l-0.11839,-0.24995l-0.0119,-0.05951l-0.01237,-0.02939l0.00444,-0.01027l-0.04183,-0.20914l-0.12923,-0.38771l-0.01541,-0.20035l-0.04873,-0.19493v-0.26085l-0.05265,-0.26324l0.00592,-0.12436l-0.0302,-0.12078v-0.6923l0.05981,-0.23924l-0.02515,-0.09221l0.08263,-0.13773l0.03896,-0.15582l0.08299,-0.04743l0.12688,-0.21146l0.09617,-0.09618l0.00275,-0.01376l0.03029,-0.01928l0.02463,-0.02463l0.24629,-0.14777l0.24231,-0.1542l0.03304,-0.01102l0.03079,-0.01847l0.01354,0.00369l0.38417,-0.12806l0.07875,-0.00606l0.07139,-0.03382l0.22047,-0.04409l0.46566,-0.23283l0.19616,-0.04359l0.18608,-0.07582l0.47463,-0.0678l0.81395,-0.20349l0.38115,-0.12705l0.73512,-0.29405l0.01264,-0.00173l0.10618,-0.10618l0.1723,-0.10338l0.15257,-0.13077l0.12626,-0.06313l0.07673,-0.07673l0.08519,-0.12779l0.09212,-0.08375l0.06406,-0.10676l0.24487,-0.24487l0.02708,-0.0361l-0.03446,-0.02871l-0.07489,-0.10249l-0.10097,-0.07693l-0.26444,-0.33055l-0.41259,-0.41259l-0.04629,-0.07715l-0.06983,-0.05673l-0.17747,-0.23663l-0.3218,-0.3218l-0.02522,-0.04203l-0.03997,-0.02836l-0.45421,-0.52992l-0.6079,-0.68389l-0.00537,-0.01026l-0.00944,-0.0067l-0.46154,-0.53846l-0.0252,-0.0504l-0.0429,-0.03655l-0.29118,-0.40764l-0.33804,-0.2817l-0.0341,-0.04666l-0.04955,-0.02974l-0.2676,-0.2676l-0.41798,-0.34831l-0.03409,-0.04666l-0.04955,-0.02973l-0.54888,-0.54887l-0.12626,-0.06313l-0.03722,-0.0319l-0.04689,-0.01427l-0.26695,-0.16017l-0.02322,-0.00774l-0.01354,0.00369l-0.03079,-0.01847l-0.03304,-0.01101l-0.24231,-0.1542l-0.24629,-0.14777l-0.02463,-0.02463l-0.03029,-0.01928l-0.00276,-0.01377l-0.09617,-0.09618l-0.33146,-0.55242l0.01299,-0.04762l-0.03292,-0.03679l0.04941,-0.64234l0.05114,-0.1534l-0.0037,-0.01355l0.01847,-0.03078l0.01102,-0.03304l0.1542,-0.24232l0.14777,-0.24629l0.02463,-0.02463l0.01927,-0.03029l0.01377,-0.00275l0.09618,-0.09617l0.1723,-0.10339l0.15256,-0.13076l0.12626,-0.06313l0.08734,-0.08734l0.1723,-0.10338l0.15257,-0.13077l0.40842,-0.20421l0.53233,-0.33272l0.5071,-0.36221l0.07147,-0.02816l0.05651,-0.05204l0.84615,-0.46153l0.12678,-0.03297l0.1126,-0.06695l0.68819,-0.20645l0.72773,-0.33079l0.80624,-0.43976l0.05824,-0.01515l0.04792,-0.03641l1.06443,-0.45619l0.83379,-0.37899l0.06565,-0.01206l0.05632,-0.03584l1.61539,-0.53846l0.04887,-0.00376l0.04325,-0.02307l1.22129,-0.30532l1.12578,-0.30021l1.51999,-0.456l0.14135,-0.00657l0.13469,-0.04337l1.15384,-0.07693l0.04187,0.00756l0.04128,-0.01032h10.38461l0.05009,0.01252l0.05093,-0.00843l2.06051,0.16707l0.37694,-0.09423h5.61539l0.10135,0.02534z" fill="#155927" stroke="none" stroke-width="0.5" stroke-linecap="butt"/><path d="M222.03846,124.84615v-2.53846h14v2.53846z" fill="#155927" stroke="none" stroke-width="0" stroke-linecap="butt"/><path d="M242.10627,124.9648l-0.41176,-2.50485l13.81459,-2.2709l0.41176,2.50485z" fill="#155927" stroke="none" stroke-width="0" stroke-linecap="butt"/><path d="M248.71272,186.24405c1.07994,-0.37025 2.52585,4.66328 4.61832,10.76657c2.09247,6.10329 4.03913,10.96514 2.95919,11.33539c-1.07994,0.37025 -2.8925,-4.76699 -4.98497,-10.87027c-2.09247,-6.10329 -3.67248,-10.86144 -2.59254,-11.23168z" data-paper-data="{&quot;index&quot;:null}" fill="#bf6592" stroke="none" stroke-width="0" stroke-linecap="butt"/><path d="M228.54858,196.67263c-2.09247,6.10329 -3.90503,11.24052 -4.98497,10.87027c-1.07994,-0.37025 0.86672,-5.2321 2.95919,-11.33539c2.09247,-6.10329 3.53838,-11.13682 4.61832,-10.76657c1.07994,0.37025 -0.50007,5.1284 -2.59254,11.23168z" fill="#bf6592" stroke="none" stroke-width="0" stroke-linecap="butt"/><path d="M245.59059,205.55178c-0.12643,6.45078 -0.2817,11.89619 -1.42312,11.87382c-1.14142,-0.02237 -0.77429,-5.24658 -0.64786,-11.69736c0.12643,-6.45078 -0.03569,-11.68535 1.10574,-11.66298c1.14142,0.02237 1.09168,5.03574 0.96525,11.48653z" fill="#bf6592" stroke="none" stroke-width="0" stroke-linecap="butt"/><path d="M236.33105,205.43773c-0.12643,6.45078 -0.2817,11.89619 -1.42313,11.87382c-1.14142,-0.02237 -0.77429,-5.24658 -0.64786,-11.69736c0.12643,-6.45078 -0.03569,-11.68535 1.10573,-11.66298c1.14142,0.02237 1.09169,5.03574 0.96525,11.48653z" fill="#bf6592" stroke="none" stroke-width="0" stroke-linecap="butt"/><path d="M247.39741,188.5469c1.12414,-0.19913 1.77584,4.99725 2.90123,11.35037c1.12539,6.35312 2.29833,11.45717 1.17418,11.6563c-1.12414,0.19913 -2.12208,-5.15631 -3.24748,-11.50942c-1.12539,-6.35312 -1.95208,-11.29811 -0.82793,-11.49724z" data-paper-data="{&quot;index&quot;:null}" fill="#bf6592" stroke="none" stroke-width="0" stroke-linecap="butt"/><path d="M231.2835,199.11576c-1.12539,6.35312 -2.12333,11.70855 -3.24748,11.50942c-1.12414,-0.19913 0.04879,-5.30318 1.17418,-11.65629c1.12539,-6.35312 1.77708,-11.54949 2.90122,-11.35036c1.12414,0.19913 0.29746,5.14412 -0.82793,11.49724z" fill="#bf6592" stroke="none" stroke-width="0" stroke-linecap="butt"/><path d="M254.26573,188.64846c0,10.50578 -28.53144,10.50578 -28.53144,0c0,-10.50577 6.38698,-19.02239 14.26572,-19.02239c7.87874,0 14.26572,8.51662 14.26572,19.02239z" fill="#ef88bc" stroke="none" stroke-width="0" stroke-linecap="butt"/><path d="M242.50819,187.40923c0,1.68746 -1.04128,3.05541 -2.32576,3.05541c-1.28448,0 -2.32576,-1.36796 -2.32576,-3.05541c0,-1.68745 4.65152,-1.68746 4.65152,0z" fill="#ffffff" stroke="none" stroke-width="0" stroke-linecap="butt"/><path d="M233.7527,200.6378l-10.35757,0.31743l-1.41014,-10.42647l2.83772,-3.85063l1.61461,3.47879l4.17681,-2.31196z" data-paper-data="{&quot;index&quot;:null}" fill="#6cb948" stroke="none" stroke-width="0" stroke-linecap="butt"/><path d="M246.86084,189.3701l4.61568,1.2191l0.71388,-3.76818l3.69402,3.03879l1.18518,10.45443l-10.12014,2.22777z" data-paper-data="{&quot;index&quot;:null}" fill="#6cb948" stroke="none" stroke-width="0" stroke-linecap="butt"/><path d="M233.17308,186.46154c0,-0.69036 0.55964,-1.25 1.25,-1.25c0.69036,0 1.25,0.55964 1.25,1.25c0,0.69036 -0.55964,1.25 -1.25,1.25c-0.69036,0 -1.25,-0.55964 -1.25,-1.25z" fill="#ffffff" stroke="none" stroke-width="0.5" stroke-linecap="butt"/><path d="M245.40385,186.15385c0,-0.69036 0.55964,-1.25 1.25,-1.25c0.69036,0 1.25,0.55964 1.25,1.25c0,0.69036 -0.55964,1.25 -1.25,1.25c-0.69036,0 -1.25,-0.55964 -1.25,-1.25z" fill="#ffffff" stroke="none" stroke-width="0.5" stroke-linecap="butt"/></g></g></svg>