<svg version="1.1" xmlns="http://www.w3.org/2000/svg" xmlns:xlink="http://www.w3.org/1999/xlink" width="82.72437" height="80.61327" viewBox="0,0,82.72437,80.61327"><g transform="translate(-198.63781,-139.69337)"><g data-paper-data="{&quot;isPaintingLayer&quot;:true}" fill-rule="nonzero" stroke="none" stroke-linecap="butt" stroke-linejoin="miter" stroke-miterlimit="10" stroke-dasharray="" stroke-dashoffset="0" style="mix-blend-mode: normal"><g fill="#1c1512" stroke-width="0"><g><g><path d="M237.99064,154.55529c0,0 1.95672,-2.43594 2.6754,-4.01595c0.94133,-2.06951 2.48708,-7.33377 2.48708,-7.33377c0,0 0.39898,5.4716 1.10189,7.71044c0.52363,1.6678 2.73841,4.52122 2.73841,4.52122z"/><path d="M241.9969,205.43224c0,0 -2.72643,2.36937 -3.56377,3.90384c-1.12403,2.05986 -2.57728,7.35001 -2.57728,7.35001c0,0 -0.49475,-5.46415 -1.01656,-7.677c-0.39839,-1.68944 -1.84517,-4.4588 -1.84517,-4.4588z" data-paper-data="{&quot;index&quot;:null}"/></g><g><path d="M214.55529,181.9969c0,0 -2.43594,-1.95672 -4.01595,-2.6754c-2.06951,-0.94133 -7.33376,-2.48708 -7.33376,-2.48708c0,0 5.4716,-0.39898 7.71044,-1.10189c1.6678,-0.52363 4.52123,-2.73841 4.52123,-2.73841z"/><path d="M265.43223,177.99064c0,0 2.36937,2.72643 3.90384,3.56376c2.05986,1.12403 7.35001,2.57728 7.35001,2.57728c0,0 -5.46415,0.49475 -7.677,1.01656c-1.68944,0.39839 -4.45881,1.84517 -4.45881,1.84517z" data-paper-data="{&quot;index&quot;:null}"/></g></g><g><g><path d="M220.58892,163.07311c0,0 -0.33885,-3.10608 -0.94791,-4.7315c-0.79775,-2.12898 -3.42712,-6.94439 -3.42712,-6.94439c0,0 4.15112,3.58689 6.23126,4.67295c1.54957,0.80905 5.13333,1.26064 5.13333,1.26064z"/><path d="M259.3972,196.21569c0,0 -0.25248,3.60327 0.24047,5.28039c0.66173,2.25136 3.37483,7.01965 3.37483,7.01965c0,0 -4.21359,-3.5139 -6.14728,-4.70964c-1.47632,-0.91292 -4.45758,-1.84811 -4.45758,-1.84811z" data-paper-data="{&quot;index&quot;:null}"/></g><g><path d="M223.42177,199.04854c0,0 -3.10608,0.33886 -4.7315,0.94792c-2.12898,0.79775 -6.94438,3.42712 -6.94438,3.42712c0,0 3.58689,-4.15112 4.67295,-6.23126c0.80905,-1.54957 1.26064,-5.13334 1.26064,-5.13334z"/><path d="M256.56434,160.24027c0,0 3.60328,0.25248 5.28039,-0.24047c2.25136,-0.66173 7.01966,-3.37483 7.01966,-3.37483c0,0 -3.5139,4.21358 -4.70964,6.14728c-0.91292,1.47632 -1.84812,4.45759 -1.84812,4.45759z" data-paper-data="{&quot;index&quot;:null}"/></g></g></g><g fill="#1c1512" stroke-width="0"><g><g><path d="M248.06861,151.95457c0,0 3.18145,-1.83046 4.63596,-3.24162c1.90513,-1.84835 5.81228,-6.89521 5.81228,-6.89521c0,0 -1.84212,6.06131 -1.99881,8.76092c-0.11672,2.01104 1.14275,5.98811 1.14275,5.98811z"/><path d="M231.26787,208.43537c0,0 -4.00523,1.44565 -5.57202,2.75945c-2.10324,1.76364 -5.91886,6.87605 -5.91886,6.87605c0,0 1.73304,-6.09223 2.07925,-8.69016c0.26432,-1.98344 -0.18057,-5.55754 -0.18057,-5.55754z" data-paper-data="{&quot;index&quot;:null}"/></g><g><path d="M210.68827,172.00897c0,0 -1.87839,-3.10026 -3.3265,-4.51765c-1.89676,-1.85652 -7.07578,-5.66395 -7.07578,-5.66395c0,0 6.22004,1.79511 8.99035,1.9478c2.0637,0.11374 6.14494,-1.1136 6.14494,-1.1136z"/><path d="M268.64819,188.38096c0,0 1.48351,3.90303 2.83173,5.42983c1.80984,2.04958 7.05611,5.76781 7.05611,5.76781c0,0 -6.25177,-1.68882 -8.91774,-2.0262c-2.03539,-0.25758 -5.70309,0.17596 -5.70309,0.17596z" data-paper-data="{&quot;index&quot;:null}"/></g></g><g><g><path d="M225.26129,154.06068c0,0 0.9214,-3.48654 0.92592,-5.48664c0.00592,-2.61973 -0.89343,-8.88067 -0.89343,-8.88067c0,0 3.09566,5.55533 4.94377,7.5722c1.37672,1.50245 5.15317,3.44681 5.15317,3.44681z"/><path d="M254.36523,205.57538c0,0 -1.78313,3.78208 -1.93768,5.7907c-0.20747,2.69636 0.80417,8.94056 0.80417,8.94056c0,0 -3.19523,-5.50204 -4.83554,-7.57761c-1.25233,-1.58464 -4.16037,-3.80535 -4.16037,-3.80535z" data-paper-data="{&quot;index&quot;:null}"/></g><g><path d="M213.38137,193.99863c0,0 -3.57785,-0.89789 -5.63032,-0.90229c-2.68834,-0.00577 -9.11324,0.87063 -9.11324,0.87063c0,0 5.70081,-3.01665 7.77051,-4.8176c1.5418,-1.34159 3.53707,-5.02167 3.53707,-5.02167z"/><path d="M266.24514,165.63743c0,0 3.88113,1.73762 5.94235,1.88823c2.76697,0.20218 9.17469,-0.78364 9.17469,-0.78364c0,0 -5.64612,3.11368 -7.77605,4.71213c-1.62614,1.22037 -3.90502,4.0542 -3.90502,4.0542z" data-paper-data="{&quot;index&quot;:null}"/></g></g></g><path d="M209.25,180c0,-16.98275 13.76725,-30.75 30.75,-30.75c16.98275,0 30.75,13.76725 30.75,30.75c0,16.98275 -13.76725,30.75 -30.75,30.75c-16.98275,0 -30.75,-13.76725 -30.75,-30.75z" fill="#29201b" stroke-width="0"/><path d="M245.16666,178.11111c0,-7.48653 6.06903,-13.55556 13.55556,-13.55556c7.48653,0 13.55556,6.06903 13.55556,13.55556c0,7.48653 -6.06903,13.55556 -13.55556,13.55556c-7.48653,0 -13.55556,-6.06903 -13.55556,-13.55556z" fill="#ffffff" stroke-width="0"/><path d="M207.16666,177.33334c0,-7.48652 6.06903,-13.55556 13.55556,-13.55556c7.48652,0 13.55556,6.06904 13.55556,13.55556c0,7.48653 -6.06904,13.55555 -13.55556,13.55555c-7.48652,0 -13.55556,-6.06903 -13.55556,-13.55555z" fill="#ffffff" stroke-width="0"/><path d="M243.05556,185.22222c0,4.35691 -2.23858,7.88889 -5,7.88889c-1.58203,0 -4.92463,-2.08292 -5.49816,-4.01702c-0.25479,-0.85924 -0.15052,-1.78863 0.42433,-2.61363c0.38978,-0.55941 1.29605,-0.95077 1.29605,-1.70268c0,-1.07674 -2.27126,-2.18706 -2.13611,-3.08131c0.14196,-0.93934 0.30865,-2.86076 0.98815,-3.51934c1.29113,-1.25137 3.56362,-0.8438 4.92574,-0.8438c2.76142,0 5,3.53198 5,7.88889z" fill="#29201b" stroke-width="0"/><path d="M241.47895,190.26215c0.50783,0.67711 -0.16928,1.18495 -0.16928,1.18495l-0.28914,0.21669c-1.58165,1.22499 -3.09949,1.84073 -5.12949,1.60231c-3.00666,-0.35312 -5.46581,-3.78337 -4.30975,-6.77599c0.17274,-0.44717 0.75471,-1.21423 1.38446,-1.70813c-0.59613,-0.31992 -1.09877,-0.74928 -1.43828,-1.49132c-1.29728,-2.83536 0.97673,-7.4619 4.39174,-7.20618c1.44985,0.10857 2.86715,1.30257 3.73206,2.33769c0,0 0.53597,0.65507 -0.1191,1.19104c-0.65507,0.53597 -1.19104,-0.1191 -1.19104,-0.1191c-0.57704,-0.72512 -1.58963,-1.62517 -2.58765,-1.72498c-2.1831,-0.21833 -3.33793,3.2199 -2.68031,4.83137c0.31277,0.76644 1.24877,0.94683 1.92917,1.20672l0.80378,0.29228c0.33469,0.1129 0.57569,0.4294 0.57569,0.80218c0,0.42483 -0.313,0.77656 -0.72097,0.83716l-0.88909,0.14818l-0.02258,-0.1355c-0.7093,0.35816 -1.39326,0.79743 -1.57934,1.32346c-1.0086,2.85126 2.06151,5.01232 4.61858,4.51799c0.81937,-0.1584 1.55805,-0.76927 2.19286,-1.26539l0.31274,-0.23472c0,0 0.67711,-0.50783 1.18495,0.16928z" fill="#160d09" stroke-width="0.5"/><path d="M210.38889,175.50001c0,-1.19662 0.97005,-2.16667 2.16667,-2.16667c1.19662,0 2.16667,0.97005 2.16667,2.16667c0,1.19662 -0.97005,2.16667 -2.16667,2.16667c-1.19662,0 -2.16667,-0.97005 -2.16667,-2.16667z" fill="#000000" stroke-width="0"/><path d="M265.94445,177.94445c0,-1.19662 0.97006,-2.16666 2.16667,-2.16666c1.19661,0 2.16666,0.97005 2.16666,2.16666c0,1.19662 -0.97005,2.16667 -2.16666,2.16667c-1.19662,0 -2.16667,-0.97006 -2.16667,-2.16667z" fill="#000000" stroke-width="0"/></g></g></svg>