<svg version="1.1" xmlns="http://www.w3.org/2000/svg" xmlns:xlink="http://www.w3.org/1999/xlink" width="87.38511" height="84.875" viewBox="0,0,87.38511,84.875"><defs><radialGradient cx="261.75505" cy="180" r="42.4375" gradientUnits="userSpaceOnUse" id="color-1"><stop offset="0" stop-color="#927e4c" stop-opacity="0"/><stop offset="1" stop-color="#927e4c" stop-opacity="0.41358"/></radialGradient><radialGradient cx="218.25506" cy="180" r="42.4375" gradientUnits="userSpaceOnUse" id="color-2"><stop offset="0" stop-color="#927e4c" stop-opacity="0"/><stop offset="1" stop-color="#927e4c" stop-opacity="0.41358"/></radialGradient></defs><g transform="translate(-196.30744,-137.5625)"><g data-paper-data="{&quot;isPaintingLayer&quot;:true}" fill-rule="nonzero" stroke="none" stroke-linecap="butt" stroke-linejoin="miter" stroke-miterlimit="10" stroke-dasharray="" stroke-dashoffset="0" style="mix-blend-mode: normal"><path d="M239.81755,137.5625h43.875v84.875h-43.875z" fill="#d9bb71" stroke-width="0"/><path d="M263.89587,183.59375c0,-7.35627 3.60692,-13.31971 8.05627,-13.31971c4.44935,0 8.05627,5.96344 8.05627,13.31971c0,7.35627 -3.60692,13.31971 -8.05627,13.31971c-4.44935,0 -8.05627,-5.96344 -8.05627,-13.31971z" data-paper-data="{&quot;index&quot;:null}" fill="#d9bb71" stroke-width="NaN"/><path d="M255.30253,200.24338c0,-8.72074 4.66495,-15.7903 10.41945,-15.7903c5.7545,0 10.41944,7.06956 10.41944,15.7903c0,8.72075 -4.66494,15.7903 -10.41944,15.7903c-5.7545,0 -10.41945,-7.06955 -10.41945,-15.7903z" data-paper-data="{&quot;index&quot;:null}" fill="#d9bb71" stroke-width="0"/><path d="M253.58385,185.74209c0,-8.78007 4.28021,-15.89772 9.56011,-15.89772c5.2799,0 9.56011,7.11766 9.56011,15.89772c0,8.78007 -4.28021,15.89772 -9.56011,15.89772c-5.2799,0 -9.56011,-7.11766 -9.56011,-15.89772z" data-paper-data="{&quot;index&quot;:null}" fill="#d9bb71" stroke-width="0"/><path d="M258.3102,172.5298c0,-9.55128 4.18402,-17.29414 9.34528,-17.29414c5.16126,0 9.34528,7.74286 9.34528,17.29414c0,9.5513 -4.18402,17.29413 -9.34528,17.29413c-5.16125,0 -9.34528,-7.74285 -9.34528,-17.29413z" data-paper-data="{&quot;index&quot;:null}" fill="#d9bb71" stroke-width="0"/><path d="M260.02887,198.52471c0,-10.14453 4.18402,-18.3683 9.34528,-18.3683c5.16126,0 9.34528,8.22377 9.34528,18.3683c0,10.14454 -4.18402,18.3683 -9.34528,18.3683c-5.16125,0 -9.34528,-8.22377 -9.34528,-18.3683z" data-paper-data="{&quot;index&quot;:null}" fill="#d9bb71" stroke-width="0"/><path d="M267.54806,188.10526c0,-8.30547 3.0779,-15.03838 6.87468,-15.03838c3.79678,0 6.87469,6.73291 6.87469,15.03838c0,8.30547 -3.07791,15.03838 -6.87469,15.03838c-3.79678,0 -6.87469,-6.73291 -6.87469,-15.03838z" data-paper-data="{&quot;index&quot;:null}" fill="#d9bb71" stroke-width="0"/><path d="M263.68105,198.30987c0,-5.39855 2.69317,-9.77495 6.01535,-9.77495c3.32218,0 6.01535,4.37639 6.01535,9.77495c0,5.39855 -2.69317,9.77495 -6.01535,9.77495c-3.32219,0 -6.01536,-4.37639 -6.01536,-9.77495z" data-paper-data="{&quot;index&quot;:null}" fill="#d9bb71" stroke-width="0"/><path d="M259.81403,171.99271c0,-5.33922 2.35652,-9.66753 5.26343,-9.66753c2.90691,0 5.26343,4.32831 5.26343,9.66753c0,5.33922 -2.35652,9.66753 -5.26343,9.66753c-2.90691,0 -5.26343,-4.3283 -5.26343,-9.66753z" data-paper-data="{&quot;index&quot;:null}" fill="#d9bb71" stroke-width="0"/><path d="M261.10304,178.54515c0,-8.36479 3.22217,-15.14579 7.19693,-15.14579c3.97476,0 7.19694,6.781 7.19694,15.14579c0,8.36479 -3.22218,15.1458 -7.19694,15.1458c-3.97476,0 -7.19693,-6.781 -7.19693,-15.1458z" data-paper-data="{&quot;index&quot;:null}" fill="#d9bb71" stroke-width="0"/><path d="M255.94703,193.69094c0,-8.66142 3.17408,-15.68288 7.08952,-15.68288c3.91544,0 7.08952,7.02147 7.08952,15.68288c0,8.66141 -3.17408,15.68288 -7.08952,15.68288c-3.91544,0 -7.08952,-7.02146 -7.08952,-15.68288z" data-paper-data="{&quot;index&quot;:null}" fill="#d9bb71" stroke-width="0"/><path d="M269.69639,188.10526c0,-8.06816 2.93363,-14.60871 6.55244,-14.60871c3.61881,0 6.55244,6.54053 6.55244,14.60871c0,8.06818 -2.93363,14.60871 -6.55244,14.60871c-3.61881,0 -6.55244,-6.54053 -6.55244,-14.60871z" data-paper-data="{&quot;index&quot;:null}" fill="#d9bb71" stroke-width="0"/><path d="M254.89988,195.50537c-5.81991,0 -10.53789,-7.80039 -10.53789,-17.42265c0,-9.62226 4.71798,-17.42265 10.53789,-17.42265c5.81991,0 10.53789,7.80039 10.53789,17.42265c0,9.62226 -4.71798,17.42265 -10.53789,17.42265z" fill="#d9bb71" stroke-width="NaN"/><path d="M260.79918,214.1403c-7.52709,0 -13.62901,-9.24723 -13.62901,-20.65427c0,-11.40703 6.10192,-20.65427 13.62901,-20.65427c7.52709,0 13.62901,9.24723 13.62901,20.65427c0,11.40704 -6.10192,20.65427 -13.62901,20.65427z" fill="#d9bb71" stroke-width="0"/><path d="M266.42131,201.6876c-6.9063,0 -12.50497,-9.31013 -12.50497,-20.79477c0,-11.48463 5.59867,-20.79477 12.50497,-20.79477c6.9063,0 12.50497,9.31013 12.50497,20.79477c0,11.48463 -5.59867,20.79477 -12.50497,20.79477z" fill="#d9bb71" stroke-width="0"/><path d="M260.52009,186.23202c-6.75111,0 -12.22395,-10.12791 -12.22395,-22.62134c0,-12.49342 5.47285,-22.62134 12.22395,-22.62134c6.75111,0 12.22395,10.12793 12.22395,22.62134c0,12.49342 -5.47286,22.62134 -12.22395,22.62134z" fill="#d9bb71" stroke-width="0"/><path d="M258.272,221.63934c-6.75111,0 -12.22395,-10.75698 -12.22395,-24.02639c0,-13.26941 5.47285,-24.02639 12.22395,-24.02639c6.75111,0 12.22395,10.75698 12.22395,24.02639c0,13.26941 -5.47286,24.02639 -12.22395,24.02639z" fill="#d9bb71" stroke-width="0"/><path d="M251.66826,203.65467c-4.96633,0 -8.99233,-8.80688 -8.99233,-19.67073c0,-10.86385 4.02601,-19.67073 8.99233,-19.67073c4.96633,0 8.99233,8.80688 8.99233,19.67073c0,10.86385 -4.02601,19.67073 -8.99233,19.67073z" fill="#d9bb71" stroke-width="0"/><path d="M263.10049,216.74291c-4.34553,0 -7.86829,-5.72448 -7.86829,-12.78598c0,-7.0615 3.52276,-12.78598 7.86829,-12.78598c4.34553,0 7.86829,5.72448 7.86829,12.78598c0,7.0615 -3.52275,12.78598 -7.86829,12.78598z" fill="#d9bb71" stroke-width="0"/><path d="M263.89221,175.55362c-3.80235,0 -6.88476,-5.66157 -6.88476,-12.64547c0,-6.9839 3.0824,-12.64547 6.88476,-12.64547c3.80235,0 6.88476,5.66157 6.88476,12.64547c0,6.9839 -3.0824,12.64547 -6.88476,12.64547z" fill="#d9bb71" stroke-width="0"/><path d="M259.67706,191.29021c-5.19913,0 -9.41385,-8.86979 -9.41385,-19.81124c0,-10.94145 4.21472,-19.81124 9.41385,-19.81124c5.19913,0 9.41385,8.86979 9.41385,19.81124c0,10.94145 -4.21472,19.81124 -9.41385,19.81124z" fill="#d9bb71" stroke-width="0"/><path d="M258.06181,212.30397c-5.12153,0 -9.27334,-9.18433 -9.27334,-20.51376c0,-11.32944 4.15182,-20.51376 9.27334,-20.51376c5.12153,0 9.27334,9.18432 9.27334,20.51376c0,11.32944 -4.15182,20.51376 -9.27334,20.51376z" fill="#d9bb71" stroke-width="0"/><path d="M249.27967,203.09265c-4.73352,0 -8.57082,-8.55525 -8.57082,-19.10871c0,-10.55346 3.8373,-19.10871 8.57082,-19.10871c4.73352,0 8.57082,8.55526 8.57082,19.10871c0,10.55346 -3.8373,19.10871 -8.57082,19.10871z" fill="#d9bb71" stroke-width="0"/><path d="M252.68296,180.03846c-4.44935,0 -8.05627,-5.96344 -8.05627,-13.31971c0,-7.35627 3.60692,-13.31971 8.05627,-13.31971c4.44935,0 8.05628,5.96344 8.05628,13.31971c0,7.35627 -3.60692,13.31971 -8.05628,13.31971z" fill="#d9bb71" stroke-width="NaN"/><path d="M258.91314,199.15868c-5.7545,0 -10.41945,-7.06955 -10.41945,-15.7903c0,-8.72073 4.66495,-15.7903 10.41945,-15.7903c5.7545,0 10.41945,7.06955 10.41945,15.7903c0,8.72075 -4.66495,15.7903 -10.41945,15.7903z" fill="#d9bb71" stroke-width="0"/><path d="M261.49115,184.7648c-5.2799,0 -9.56011,-7.11764 -9.56011,-15.89772c0,-8.78006 4.28021,-15.89772 9.56011,-15.89772c5.2799,0 9.56011,7.11764 9.56011,15.89772c0,8.78006 -4.28021,15.89772 -9.56011,15.89772z" fill="#d9bb71" stroke-width="0"/><path d="M256.97963,172.94893c-5.16126,0 -9.34528,-7.74284 -9.34528,-17.29414c0,-9.55128 4.18402,-17.29413 9.34528,-17.29413c5.16126,0 9.34528,7.74285 9.34528,17.29413c0,9.55128 -4.18403,17.29414 -9.34528,17.29414z" fill="#d9bb71" stroke-width="0"/><path d="M255.26097,200.01801c-5.16126,0 -9.34528,-8.22377 -9.34528,-18.36831c0,-10.14453 4.18402,-18.3683 9.34528,-18.3683c5.16126,0 9.34527,8.22377 9.34527,18.3683c0,10.14453 -4.18403,18.36831 -9.34527,18.36831z" fill="#d9bb71" stroke-width="0"/><path d="M250.21237,186.26864c-3.79678,0 -6.87469,-6.73291 -6.87469,-15.03838c0,-8.30547 3.07791,-15.03838 6.87469,-15.03838c3.79678,0 6.87469,6.73291 6.87469,15.03838c0,8.30547 -3.07791,15.03838 -6.87469,15.03838z" fill="#d9bb71" stroke-width="0"/><path d="M254.93872,191.20982c-3.32218,0 -6.01535,-4.37639 -6.01535,-9.77495c0,-5.39855 2.69317,-9.77495 6.01535,-9.77495c3.32218,0 6.01535,4.37639 6.01535,9.77495c0,5.39855 -2.69316,9.77495 -6.01535,9.77495z" fill="#d9bb71" stroke-width="0"/><path d="M259.55764,164.78524c-2.90692,0 -5.26343,-4.3283 -5.26343,-9.66753c0,-5.33922 2.35651,-9.66753 5.26343,-9.66753c2.90692,0 5.26344,4.3283 5.26344,9.66753c0,5.33922 -2.35652,9.66753 -5.26344,9.66753z" fill="#d9bb71" stroke-width="0"/><path d="M256.33514,176.81594c-3.97476,0 -7.19694,-6.781 -7.19694,-15.14579c0,-8.3648 3.22218,-15.1458 7.19694,-15.1458c3.97476,0 7.19694,6.781 7.19694,15.1458c0,8.3648 -3.22218,15.14579 -7.19694,15.14579z" fill="#d9bb71" stroke-width="0"/><path d="M261.59858,192.49883c-3.91544,0 -7.08952,-7.02147 -7.08952,-15.68288c0,-8.66142 3.17408,-15.68288 7.08952,-15.68288c3.91544,0 7.08952,7.02146 7.08952,15.68288c0,8.66142 -3.17408,15.68288 -7.08952,15.68288z" fill="#d9bb71" stroke-width="0"/><path d="M248.38629,185.83897c-3.6188,0 -6.55244,-6.54053 -6.55244,-14.60871c0,-8.06818 2.93363,-14.60871 6.55244,-14.60871c3.6188,0 6.55243,6.54055 6.55243,14.60871c0,8.06818 -2.93363,14.60871 -6.55243,14.60871z" fill="#d9bb71" stroke-width="0"/><path d="M264.75506,152.6875c0.69036,0 1.25,0.55964 1.25,1.25c0,0.69036 -0.55964,1.25 -1.25,1.25c-0.69036,0 -1.25,-0.55964 -1.25,-1.25c0,-0.69036 0.55964,-1.25 1.25,-1.25z" fill="#e3ca8c" stroke-width="0.5"/><path d="M256.25505,167.3125c0.69036,0 1.25,0.55964 1.25,1.25c0,0.69036 -0.55964,1.25 -1.25,1.25c-0.69036,0 -1.25,-0.55964 -1.25,-1.25c0,-0.69036 0.55964,-1.25 1.25,-1.25z" fill="#e3ca8c" stroke-width="0.5"/><path d="M269.25505,193.0625c0.69036,0 1.25,0.55964 1.25,1.25c0,0.69036 -0.55964,1.25 -1.25,1.25c-0.69036,0 -1.25,-0.55964 -1.25,-1.25c0,-0.69036 0.55964,-1.25 1.25,-1.25z" fill="#e3ca8c" stroke-width="0.5"/><path d="M258.25505,203.8125c0.69036,0 1.25,0.55964 1.25,1.25c0,0.69036 -0.55964,1.25 -1.25,1.25c-0.69036,0 -1.25,-0.55964 -1.25,-1.25c0,-0.69036 0.55964,-1.25 1.25,-1.25z" fill="#e3ca8c" stroke-width="0.5"/><path d="M254.25506,196.4375c0.69036,0 1.25,0.55964 1.25,1.25c0,0.69036 -0.55964,1.25 -1.25,1.25c-0.69036,0 -1.25,-0.55964 -1.25,-1.25c0,-0.69036 0.55964,-1.25 1.25,-1.25z" fill="#e3ca8c" stroke-width="0.5"/><path d="M273.75505,185.3125c0.69036,0 1.25,0.55964 1.25,1.25c0,0.69036 -0.55964,1.25 -1.25,1.25c-0.69036,0 -1.25,-0.55964 -1.25,-1.25c0,-0.69036 0.55964,-1.25 1.25,-1.25z" fill="#e3ca8c" stroke-width="0.5"/><path d="M264.00505,176.1875c0.69036,0 1.25,0.55964 1.25,1.25c0,0.69036 -0.55964,1.25 -1.25,1.25c-0.69036,0 -1.25,-0.55964 -1.25,-1.25c0,-0.69036 0.55964,-1.25 1.25,-1.25z" fill="#e3ca8c" stroke-width="0.5"/><path d="M274.63005,197.3125c0.69036,0 1.25,0.55964 1.25,1.25c0,0.69036 -0.55964,1.25 -1.25,1.25c-0.69036,0 -1.25,-0.55964 -1.25,-1.25c0,-0.69036 0.55964,-1.25 1.25,-1.25z" fill="#e3ca8c" stroke-width="0.5"/><path d="M270.75505,173.9375c0.69036,0 1.25,0.55964 1.25,1.25c0,0.69036 -0.55964,1.25 -1.25,1.25c-0.69036,0 -1.25,-0.55964 -1.25,-1.25c0,-0.69036 0.55964,-1.25 1.25,-1.25z" fill="#d5bc7d" stroke-width="0.5"/><path d="M264.25505,164.0625c0.69036,0 1.25,0.55964 1.25,1.25c0,0.69036 -0.55964,1.25 -1.25,1.25c-0.69036,0 -1.25,-0.55964 -1.25,-1.25c0,-0.69036 0.55964,-1.25 1.25,-1.25z" fill="#d5bc7d" stroke-width="0.5"/><path d="M254.00506,178.9375c0.69036,0 1.25,0.55964 1.25,1.25c0,0.69036 -0.55964,1.25 -1.25,1.25c-0.69036,0 -1.25,-0.55964 -1.25,-1.25c0,-0.69036 0.55964,-1.25 1.25,-1.25z" fill="#d5bc7d" stroke-width="0.5"/><path d="M263.89587,183.59375c0,-7.35627 3.60692,-13.31971 8.05627,-13.31971c4.44935,0 8.05627,5.96344 8.05627,13.31971c0,7.35627 -3.60692,13.31971 -8.05627,13.31971c-4.44935,0 -8.05627,-5.96344 -8.05627,-13.31971z" data-paper-data="{&quot;index&quot;:null}" fill-opacity="0.01438" fill="#000000" stroke-width="NaN"/><path d="M255.30253,200.24338c0,-8.72074 4.66495,-15.7903 10.41945,-15.7903c5.7545,0 10.41944,7.06956 10.41944,15.7903c0,8.72075 -4.66494,15.7903 -10.41944,15.7903c-5.7545,0 -10.41945,-7.06955 -10.41945,-15.7903z" data-paper-data="{&quot;index&quot;:null}" fill-opacity="0.01438" fill="#000000" stroke-width="0"/><path d="M253.58385,185.74209c0,-8.78007 4.28021,-15.89772 9.56011,-15.89772c5.2799,0 9.56011,7.11766 9.56011,15.89772c0,8.78007 -4.28021,15.89772 -9.56011,15.89772c-5.2799,0 -9.56011,-7.11766 -9.56011,-15.89772z" data-paper-data="{&quot;index&quot;:null}" fill-opacity="0.01438" fill="#000000" stroke-width="0"/><path d="M258.3102,172.5298c0,-9.55128 4.18402,-17.29414 9.34528,-17.29414c5.16126,0 9.34528,7.74286 9.34528,17.29414c0,9.5513 -4.18402,17.29413 -9.34528,17.29413c-5.16125,0 -9.34528,-7.74285 -9.34528,-17.29413z" data-paper-data="{&quot;index&quot;:null}" fill-opacity="0.01438" fill="#000000" stroke-width="0"/><path d="M267.54806,188.10526c0,-8.30547 3.0779,-15.03838 6.87468,-15.03838c3.79678,0 6.87469,6.73291 6.87469,15.03838c0,8.30547 -3.07791,15.03838 -6.87469,15.03838c-3.79678,0 -6.87469,-6.73291 -6.87469,-15.03838z" data-paper-data="{&quot;index&quot;:null}" fill-opacity="0.01438" fill="#000000" stroke-width="0"/><path d="M263.68105,198.30987c0,-5.39855 2.69317,-9.77495 6.01535,-9.77495c3.32218,0 6.01535,4.37639 6.01535,9.77495c0,5.39855 -2.69317,9.77495 -6.01535,9.77495c-3.32219,0 -6.01536,-4.37639 -6.01536,-9.77495z" data-paper-data="{&quot;index&quot;:null}" fill-opacity="0.01438" fill="#000000" stroke-width="0"/><path d="M259.81403,171.99271c0,-5.33922 2.35652,-9.66753 5.26343,-9.66753c2.90691,0 5.26343,4.32831 5.26343,9.66753c0,5.33922 -2.35652,9.66753 -5.26343,9.66753c-2.90691,0 -5.26343,-4.3283 -5.26343,-9.66753z" data-paper-data="{&quot;index&quot;:null}" fill-opacity="0.01438" fill="#000000" stroke-width="0"/><path d="M269.69639,188.10526c0,-8.06816 2.93363,-14.60871 6.55244,-14.60871c3.61881,0 6.55244,6.54053 6.55244,14.60871c0,8.06818 -2.93363,14.60871 -6.55244,14.60871c-3.61881,0 -6.55244,-6.54053 -6.55244,-14.60871z" data-paper-data="{&quot;index&quot;:null}" fill-opacity="0.01438" fill="#000000" stroke-width="0"/><path d="M263.89221,175.55362c-3.80235,0 -6.88476,-5.66157 -6.88476,-12.64547c0,-6.9839 3.0824,-12.64547 6.88476,-12.64547c3.80235,0 6.88476,5.66157 6.88476,12.64547c0,6.9839 -3.0824,12.64547 -6.88476,12.64547z" fill-opacity="0.01438" fill="#000000" stroke-width="0"/><path d="M252.68296,180.03846c-4.44935,0 -8.05627,-5.96344 -8.05627,-13.31971c0,-7.35627 3.60692,-13.31971 8.05627,-13.31971c4.44935,0 8.05628,5.96344 8.05628,13.31971c0,7.35627 -3.60692,13.31971 -8.05628,13.31971z" fill-opacity="0.01438" fill="#000000" stroke-width="NaN"/><path d="M256.97963,172.94893c-5.16126,0 -9.34528,-7.74284 -9.34528,-17.29414c0,-9.55128 4.18402,-17.29413 9.34528,-17.29413c5.16126,0 9.34528,7.74285 9.34528,17.29413c0,9.55128 -4.18403,17.29414 -9.34528,17.29414z" fill-opacity="0.01438" fill="#000000" stroke-width="0"/><path d="M250.21237,186.26864c-3.79678,0 -6.87469,-6.73291 -6.87469,-15.03838c0,-8.30547 3.07791,-15.03838 6.87469,-15.03838c3.79678,0 6.87469,6.73291 6.87469,15.03838c0,8.30547 -3.07791,15.03838 -6.87469,15.03838z" fill-opacity="0.01438" fill="#000000" stroke-width="0"/><path d="M259.55764,164.78524c-2.90692,0 -5.26343,-4.3283 -5.26343,-9.66753c0,-5.33922 2.35651,-9.66753 5.26343,-9.66753c2.90692,0 5.26344,4.3283 5.26344,9.66753c0,5.33922 -2.35652,9.66753 -5.26344,9.66753z" fill-opacity="0.01438" fill="#000000" stroke-width="0"/><path d="M248.38629,185.83897c-3.6188,0 -6.55244,-6.54053 -6.55244,-14.60871c0,-8.06818 2.93363,-14.60871 6.55244,-14.60871c3.6188,0 6.55243,6.54055 6.55243,14.60871c0,8.06818 -2.93363,14.60871 -6.55243,14.60871z" fill-opacity="0.01438" fill="#000000" stroke-width="0"/><path d="M274.49221,165.15362c-3.80235,0 -6.88476,-5.66157 -6.88476,-12.64547c0,-6.9839 3.0824,-12.64547 6.88476,-12.64547c3.80235,0 6.88476,5.66157 6.88476,12.64547c0,6.9839 -3.0824,12.64547 -6.88476,12.64547z" fill-opacity="0.01438" fill="#000000" stroke-width="0"/><path d="M275.49221,172.55362c-3.80235,0 -6.88476,-5.66157 -6.88476,-12.64547c0,-6.9839 3.0824,-12.64547 6.88476,-12.64547c3.80235,0 6.88476,5.66157 6.88476,12.64547c0,6.9839 -3.0824,12.64547 -6.88476,12.64547z" fill-opacity="0.01438" fill="#000000" stroke-width="0"/><path d="M267.99221,167.75362c-3.80235,0 -6.88476,-5.66157 -6.88476,-12.64547c0,-6.9839 3.0824,-12.64547 6.88476,-12.64547c3.80235,0 6.88476,5.66157 6.88476,12.64547c0,6.9839 -3.0824,12.64547 -6.88476,12.64547z" fill-opacity="0.01438" fill="#000000" stroke-width="0"/><path d="M247.29221,218.05362c-3.80235,0 -6.88476,-5.66157 -6.88476,-12.64547c0,-6.9839 3.0824,-12.64547 6.88476,-12.64547c3.80235,0 6.88476,5.66157 6.88476,12.64547c0,6.9839 -3.0824,12.64547 -6.88476,12.64547z" fill-opacity="0.01438" fill="#000000" stroke-width="0"/><path d="M273.39221,219.95362c-3.80235,0 -6.88476,-5.66157 -6.88476,-12.64547c0,-6.9839 3.0824,-12.64547 6.88476,-12.64547c3.80235,0 6.88476,5.66157 6.88476,12.64547c0,6.9839 -3.0824,12.64547 -6.88476,12.64547z" fill-opacity="0.01438" fill="#000000" stroke-width="0"/><path d="M246.69221,163.55362c-3.80235,0 -6.88476,-5.66157 -6.88476,-12.64547c0,-6.9839 3.0824,-12.64547 6.88476,-12.64547c3.80235,0 6.88476,5.66157 6.88476,12.64547c0,6.9839 -3.0824,12.64547 -6.88476,12.64547z" fill-opacity="0.01438" fill="#000000" stroke-width="0"/><path d="M251.0922,166.85362c-3.80235,0 -6.88476,-5.66157 -6.88476,-12.64547c0,-6.9839 3.0824,-12.64547 6.88476,-12.64547c3.80235,0 6.88476,5.66157 6.88476,12.64547c0,6.9839 -3.0824,12.64547 -6.88476,12.64547z" fill-opacity="0.01438" fill="#000000" stroke-width="0"/><path d="M276.19221,220.05362c-3.80235,0 -6.88476,-4.40796 -6.88476,-9.84547c0,-5.4375 3.0824,-9.84547 6.88476,-9.84547c3.80235,0 6.88476,4.40796 6.88476,9.84547c0,5.43751 -3.0824,9.84547 -6.88476,9.84547z" fill-opacity="0.01438" fill="#000000" stroke-width="0"/><path d="M239.81755,137.5625h43.875v84.875h-43.875z" fill="url(#color-1)" stroke-width="0"/><path d="M196.31756,137.5625l43.875,0l0,84.875h-43.875z" fill="#d9bb71" stroke-width="0"/><path d="M220.39588,183.59375c0,-7.35627 3.60692,-13.31971 8.05627,-13.31971c4.44935,0 8.05627,5.96344 8.05627,13.31971c0,7.35627 -3.60692,13.31971 -8.05627,13.31971c-4.44935,0 -8.05627,-5.96344 -8.05627,-13.31971z" data-paper-data="{&quot;index&quot;:null}" fill="#d9bb71" stroke-width="NaN"/><path d="M211.80253,200.24338c0,-8.72074 4.66495,-15.7903 10.41945,-15.7903c5.7545,0 10.41944,7.06956 10.41944,15.7903c0,8.72075 -4.66494,15.7903 -10.41944,15.7903c-5.7545,0 -10.41945,-7.06955 -10.41945,-15.7903z" data-paper-data="{&quot;index&quot;:null}" fill="#d9bb71" stroke-width="0"/><path d="M210.08385,185.74209c0,-8.78007 4.28021,-15.89772 9.56011,-15.89772c5.2799,0 9.56011,7.11766 9.56011,15.89772c0,8.78007 -4.28021,15.89772 -9.56011,15.89772c-5.2799,0 -9.56011,-7.11766 -9.56011,-15.89772z" data-paper-data="{&quot;index&quot;:null}" fill="#d9bb71" stroke-width="0"/><path d="M214.8102,172.5298c0,-9.55128 4.18402,-17.29414 9.34528,-17.29414c5.16126,0 9.34528,7.74286 9.34528,17.29414c0,9.5513 -4.18402,17.29413 -9.34528,17.29413c-5.16125,0 -9.34528,-7.74285 -9.34528,-17.29413z" data-paper-data="{&quot;index&quot;:null}" fill="#d9bb71" stroke-width="0"/><path d="M216.52887,198.52471c0,-10.14453 4.18402,-18.3683 9.34528,-18.3683c5.16126,0 9.34528,8.22377 9.34528,18.3683c0,10.14454 -4.18402,18.3683 -9.34528,18.3683c-5.16125,0 -9.34528,-8.22377 -9.34528,-18.3683z" data-paper-data="{&quot;index&quot;:null}" fill="#d9bb71" stroke-width="0"/><path d="M224.04806,188.10526c0,-8.30547 3.0779,-15.03838 6.87468,-15.03838c3.79678,0 6.87469,6.73291 6.87469,15.03838c0,8.30547 -3.07791,15.03838 -6.87469,15.03838c-3.79678,0 -6.87469,-6.73291 -6.87469,-15.03838z" data-paper-data="{&quot;index&quot;:null}" fill="#d9bb71" stroke-width="0"/><path d="M220.18105,198.30987c0,-5.39855 2.69317,-9.77495 6.01535,-9.77495c3.32218,0 6.01535,4.37639 6.01535,9.77495c0,5.39855 -2.69317,9.77495 -6.01535,9.77495c-3.32219,0 -6.01536,-4.37639 -6.01536,-9.77495z" data-paper-data="{&quot;index&quot;:null}" fill="#d9bb71" stroke-width="0"/><path d="M216.31404,171.99271c0,-5.33922 2.35652,-9.66753 5.26343,-9.66753c2.90691,0 5.26343,4.32831 5.26343,9.66753c0,5.33922 -2.35652,9.66753 -5.26343,9.66753c-2.90691,0 -5.26343,-4.3283 -5.26343,-9.66753z" data-paper-data="{&quot;index&quot;:null}" fill="#d9bb71" stroke-width="0"/><path d="M217.60304,178.54515c0,-8.36479 3.22217,-15.14579 7.19693,-15.14579c3.97476,0 7.19694,6.781 7.19694,15.14579c0,8.36479 -3.22218,15.1458 -7.19694,15.1458c-3.97476,0 -7.19693,-6.781 -7.19693,-15.1458z" data-paper-data="{&quot;index&quot;:null}" fill="#d9bb71" stroke-width="0"/><path d="M212.44703,193.69094c0,-8.66142 3.17408,-15.68288 7.08952,-15.68288c3.91544,0 7.08952,7.02147 7.08952,15.68288c0,8.66141 -3.17408,15.68288 -7.08952,15.68288c-3.91544,0 -7.08952,-7.02146 -7.08952,-15.68288z" data-paper-data="{&quot;index&quot;:null}" fill="#d9bb71" stroke-width="0"/><path d="M226.1964,188.10526c0,-8.06816 2.93363,-14.60871 6.55244,-14.60871c3.61881,0 6.55244,6.54053 6.55244,14.60871c0,8.06818 -2.93363,14.60871 -6.55244,14.60871c-3.61881,0 -6.55244,-6.54053 -6.55244,-14.60871z" data-paper-data="{&quot;index&quot;:null}" fill="#d9bb71" stroke-width="0"/><path d="M211.39988,195.50537c-5.81991,0 -10.53789,-7.80039 -10.53789,-17.42265c0,-9.62226 4.71798,-17.42265 10.53789,-17.42265c5.81991,0 10.53789,7.80039 10.53789,17.42265c0,9.62226 -4.71798,17.42265 -10.53789,17.42265z" fill="#d9bb71" stroke-width="NaN"/><path d="M217.29918,214.1403c-7.52709,0 -13.62901,-9.24723 -13.62901,-20.65427c0,-11.40703 6.10192,-20.65427 13.62901,-20.65427c7.52709,0 13.62901,9.24723 13.62901,20.65427c0,11.40704 -6.10192,20.65427 -13.62901,20.65427z" fill="#d9bb71" stroke-width="0"/><path d="M222.92131,201.6876c-6.9063,0 -12.50497,-9.31013 -12.50497,-20.79477c0,-11.48463 5.59867,-20.79477 12.50497,-20.79477c6.9063,0 12.50497,9.31013 12.50497,20.79477c0,11.48463 -5.59867,20.79477 -12.50497,20.79477z" fill="#d9bb71" stroke-width="0"/><path d="M217.02009,186.23202c-6.75111,0 -12.22395,-10.12791 -12.22395,-22.62134c0,-12.49342 5.47285,-22.62134 12.22395,-22.62134c6.75111,0 12.22395,10.12793 12.22395,22.62134c0,12.49342 -5.47286,22.62134 -12.22395,22.62134z" fill="#d9bb71" stroke-width="0"/><path d="M214.772,221.63934c-6.75111,0 -12.22395,-10.75698 -12.22395,-24.02639c0,-13.26941 5.47285,-24.02639 12.22395,-24.02639c6.75111,0 12.22395,10.75698 12.22395,24.02639c0,13.26941 -5.47286,24.02639 -12.22395,24.02639z" fill="#d9bb71" stroke-width="0"/><path d="M208.16825,203.65467c-4.96633,0 -8.99233,-8.80688 -8.99233,-19.67073c0,-10.86385 4.02601,-19.67073 8.99233,-19.67073c4.96633,0 8.99233,8.80688 8.99233,19.67073c0,10.86385 -4.02601,19.67073 -8.99233,19.67073z" fill="#d9bb71" stroke-width="0"/><path d="M219.60049,216.74291c-4.34553,0 -7.86829,-5.72448 -7.86829,-12.78598c0,-7.0615 3.52276,-12.78598 7.86829,-12.78598c4.34553,0 7.86829,5.72448 7.86829,12.78598c0,7.0615 -3.52275,12.78598 -7.86829,12.78598z" fill="#d9bb71" stroke-width="0"/><path d="M220.39221,175.55362c-3.80235,0 -6.88476,-5.66157 -6.88476,-12.64547c0,-6.9839 3.0824,-12.64547 6.88476,-12.64547c3.80235,0 6.88476,5.66157 6.88476,12.64547c0,6.9839 -3.0824,12.64547 -6.88476,12.64547z" fill="#d9bb71" stroke-width="0"/><path d="M216.17706,191.29021c-5.19913,0 -9.41385,-8.86979 -9.41385,-19.81124c0,-10.94145 4.21472,-19.81124 9.41385,-19.81124c5.19913,0 9.41385,8.86979 9.41385,19.81124c0,10.94145 -4.21472,19.81124 -9.41385,19.81124z" fill="#d9bb71" stroke-width="0"/><path d="M214.56181,212.30397c-5.12153,0 -9.27334,-9.18433 -9.27334,-20.51376c0,-11.32944 4.15182,-20.51376 9.27334,-20.51376c5.12153,0 9.27334,9.18432 9.27334,20.51376c0,11.32944 -4.15182,20.51376 -9.27334,20.51376z" fill="#d9bb71" stroke-width="0"/><path d="M205.77967,203.09265c-4.73352,0 -8.57082,-8.55525 -8.57082,-19.10871c0,-10.55346 3.8373,-19.10871 8.57082,-19.10871c4.73352,0 8.57082,8.55526 8.57082,19.10871c0,10.55346 -3.8373,19.10871 -8.57082,19.10871z" fill="#d9bb71" stroke-width="0"/><path d="M209.18296,180.03846c-4.44935,0 -8.05627,-5.96344 -8.05627,-13.31971c0,-7.35627 3.60692,-13.31971 8.05627,-13.31971c4.44935,0 8.05628,5.96344 8.05628,13.31971c0,7.35627 -3.60692,13.31971 -8.05628,13.31971z" fill="#d9bb71" stroke-width="NaN"/><path d="M215.41315,199.15868c-5.7545,0 -10.41945,-7.06955 -10.41945,-15.7903c0,-8.72073 4.66495,-15.7903 10.41945,-15.7903c5.7545,0 10.41945,7.06955 10.41945,15.7903c0,8.72075 -4.66495,15.7903 -10.41945,15.7903z" fill="#d9bb71" stroke-width="0"/><path d="M217.99116,184.7648c-5.2799,0 -9.56011,-7.11764 -9.56011,-15.89772c0,-8.78006 4.28021,-15.89772 9.56011,-15.89772c5.2799,0 9.56011,7.11764 9.56011,15.89772c0,8.78006 -4.28021,15.89772 -9.56011,15.89772z" fill="#d9bb71" stroke-width="0"/><path d="M213.47964,172.94893c-5.16126,0 -9.34528,-7.74284 -9.34528,-17.29414c0,-9.55128 4.18402,-17.29413 9.34528,-17.29413c5.16126,0 9.34528,7.74285 9.34528,17.29413c0,9.55128 -4.18403,17.29414 -9.34528,17.29414z" fill="#d9bb71" stroke-width="0"/><path d="M211.76098,200.01801c-5.16126,0 -9.34528,-8.22377 -9.34528,-18.36831c0,-10.14453 4.18402,-18.3683 9.34528,-18.3683c5.16126,0 9.34527,8.22377 9.34527,18.3683c0,10.14453 -4.18403,18.36831 -9.34527,18.36831z" fill="#d9bb71" stroke-width="0"/><path d="M206.71237,186.26864c-3.79678,0 -6.87469,-6.73291 -6.87469,-15.03838c0,-8.30547 3.07791,-15.03838 6.87469,-15.03838c3.79678,0 6.87469,6.73291 6.87469,15.03838c0,8.30547 -3.07791,15.03838 -6.87469,15.03838z" fill="#d9bb71" stroke-width="0"/><path d="M211.43872,191.20982c-3.32218,0 -6.01535,-4.37639 -6.01535,-9.77495c0,-5.39855 2.69317,-9.77495 6.01535,-9.77495c3.32218,0 6.01535,4.37639 6.01535,9.77495c0,5.39855 -2.69316,9.77495 -6.01535,9.77495z" fill="#d9bb71" stroke-width="0"/><path d="M216.05765,164.78524c-2.90692,0 -5.26343,-4.3283 -5.26343,-9.66753c0,-5.33922 2.35651,-9.66753 5.26343,-9.66753c2.90692,0 5.26344,4.3283 5.26344,9.66753c0,5.33922 -2.35652,9.66753 -5.26344,9.66753z" fill="#d9bb71" stroke-width="0"/><path d="M212.83514,176.81594c-3.97476,0 -7.19694,-6.781 -7.19694,-15.14579c0,-8.3648 3.22218,-15.1458 7.19694,-15.1458c3.97476,0 7.19694,6.781 7.19694,15.1458c0,8.3648 -3.22218,15.14579 -7.19694,15.14579z" fill="#d9bb71" stroke-width="0"/><path d="M218.09858,192.49883c-3.91544,0 -7.08952,-7.02147 -7.08952,-15.68288c0,-8.66142 3.17408,-15.68288 7.08952,-15.68288c3.91544,0 7.08952,7.02146 7.08952,15.68288c0,8.66142 -3.17408,15.68288 -7.08952,15.68288z" fill="#d9bb71" stroke-width="0"/><path d="M204.88628,185.83897c-3.6188,0 -6.55244,-6.54053 -6.55244,-14.60871c0,-8.06818 2.93363,-14.60871 6.55244,-14.60871c3.6188,0 6.55243,6.54055 6.55243,14.60871c0,8.06818 -2.93363,14.60871 -6.55243,14.60871z" fill="#d9bb71" stroke-width="0"/><path d="M221.25506,152.6875c0.69036,0 1.25,0.55964 1.25,1.25c0,0.69036 -0.55964,1.25 -1.25,1.25c-0.69036,0 -1.25,-0.55964 -1.25,-1.25c0,-0.69036 0.55964,-1.25 1.25,-1.25z" fill="#e3ca8c" stroke-width="0.5"/><path d="M212.75506,167.3125c0.69036,0 1.25,0.55964 1.25,1.25c0,0.69036 -0.55964,1.25 -1.25,1.25c-0.69036,0 -1.25,-0.55964 -1.25,-1.25c0,-0.69036 0.55964,-1.25 1.25,-1.25z" fill="#e3ca8c" stroke-width="0.5"/><path d="M225.75506,193.0625c0.69036,0 1.25,0.55964 1.25,1.25c0,0.69036 -0.55964,1.25 -1.25,1.25c-0.69036,0 -1.25,-0.55964 -1.25,-1.25c0,-0.69036 0.55964,-1.25 1.25,-1.25z" fill="#e3ca8c" stroke-width="0.5"/><path d="M214.75506,203.8125c0.69036,0 1.25,0.55964 1.25,1.25c0,0.69036 -0.55964,1.25 -1.25,1.25c-0.69036,0 -1.25,-0.55964 -1.25,-1.25c0,-0.69036 0.55964,-1.25 1.25,-1.25z" fill="#e3ca8c" stroke-width="0.5"/><path d="M210.75506,196.4375c0.69036,0 1.25,0.55964 1.25,1.25c0,0.69036 -0.55964,1.25 -1.25,1.25c-0.69036,0 -1.25,-0.55964 -1.25,-1.25c0,-0.69036 0.55964,-1.25 1.25,-1.25z" fill="#e3ca8c" stroke-width="0.5"/><path d="M230.25506,185.3125c0.69036,0 1.25,0.55964 1.25,1.25c0,0.69036 -0.55964,1.25 -1.25,1.25c-0.69036,0 -1.25,-0.55964 -1.25,-1.25c0,-0.69036 0.55964,-1.25 1.25,-1.25z" fill="#e3ca8c" stroke-width="0.5"/><path d="M220.50506,176.1875c0.69036,0 1.25,0.55964 1.25,1.25c0,0.69036 -0.55964,1.25 -1.25,1.25c-0.69036,0 -1.25,-0.55964 -1.25,-1.25c0,-0.69036 0.55964,-1.25 1.25,-1.25z" fill="#e3ca8c" stroke-width="0.5"/><path d="M231.13006,197.3125c0.69036,0 1.25,0.55964 1.25,1.25c0,0.69036 -0.55964,1.25 -1.25,1.25c-0.69036,0 -1.25,-0.55964 -1.25,-1.25c0,-0.69036 0.55964,-1.25 1.25,-1.25z" fill="#e3ca8c" stroke-width="0.5"/><path d="M227.25506,173.9375c0.69036,0 1.25,0.55964 1.25,1.25c0,0.69036 -0.55964,1.25 -1.25,1.25c-0.69036,0 -1.25,-0.55964 -1.25,-1.25c0,-0.69036 0.55964,-1.25 1.25,-1.25z" fill="#d5bc7d" stroke-width="0.5"/><path d="M220.75506,164.0625c0.69036,0 1.25,0.55964 1.25,1.25c0,0.69036 -0.55964,1.25 -1.25,1.25c-0.69036,0 -1.25,-0.55964 -1.25,-1.25c0,-0.69036 0.55964,-1.25 1.25,-1.25z" fill="#d5bc7d" stroke-width="0.5"/><path d="M210.50506,178.9375c0.69036,0 1.25,0.55964 1.25,1.25c0,0.69036 -0.55964,1.25 -1.25,1.25c-0.69036,0 -1.25,-0.55964 -1.25,-1.25c0,-0.69036 0.55964,-1.25 1.25,-1.25z" fill="#d5bc7d" stroke-width="0.5"/><path d="M220.39588,183.59375c0,-7.35627 3.60692,-13.31971 8.05627,-13.31971c4.44935,0 8.05627,5.96344 8.05627,13.31971c0,7.35627 -3.60692,13.31971 -8.05627,13.31971c-4.44935,0 -8.05627,-5.96344 -8.05627,-13.31971z" data-paper-data="{&quot;index&quot;:null}" fill-opacity="0.01438" fill="#000000" stroke-width="NaN"/><path d="M211.80253,200.24338c0,-8.72074 4.66495,-15.7903 10.41945,-15.7903c5.7545,0 10.41944,7.06956 10.41944,15.7903c0,8.72075 -4.66494,15.7903 -10.41944,15.7903c-5.7545,0 -10.41945,-7.06955 -10.41945,-15.7903z" data-paper-data="{&quot;index&quot;:null}" fill-opacity="0.01438" fill="#000000" stroke-width="0"/><path d="M210.08385,185.74209c0,-8.78007 4.28021,-15.89772 9.56011,-15.89772c5.2799,0 9.56011,7.11766 9.56011,15.89772c0,8.78007 -4.28021,15.89772 -9.56011,15.89772c-5.2799,0 -9.56011,-7.11766 -9.56011,-15.89772z" data-paper-data="{&quot;index&quot;:null}" fill-opacity="0.01438" fill="#000000" stroke-width="0"/><path d="M214.8102,172.5298c0,-9.55128 4.18402,-17.29414 9.34528,-17.29414c5.16126,0 9.34528,7.74286 9.34528,17.29414c0,9.5513 -4.18402,17.29413 -9.34528,17.29413c-5.16125,0 -9.34528,-7.74285 -9.34528,-17.29413z" data-paper-data="{&quot;index&quot;:null}" fill-opacity="0.01438" fill="#000000" stroke-width="0"/><path d="M224.04806,188.10526c0,-8.30547 3.0779,-15.03838 6.87468,-15.03838c3.79678,0 6.87469,6.73291 6.87469,15.03838c0,8.30547 -3.07791,15.03838 -6.87469,15.03838c-3.79678,0 -6.87469,-6.73291 -6.87469,-15.03838z" data-paper-data="{&quot;index&quot;:null}" fill-opacity="0.01438" fill="#000000" stroke-width="0"/><path d="M220.18105,198.30987c0,-5.39855 2.69317,-9.77495 6.01535,-9.77495c3.32218,0 6.01535,4.37639 6.01535,9.77495c0,5.39855 -2.69317,9.77495 -6.01535,9.77495c-3.32219,0 -6.01536,-4.37639 -6.01536,-9.77495z" data-paper-data="{&quot;index&quot;:null}" fill-opacity="0.01438" fill="#000000" stroke-width="0"/><path d="M216.31404,171.99271c0,-5.33922 2.35652,-9.66753 5.26343,-9.66753c2.90691,0 5.26343,4.32831 5.26343,9.66753c0,5.33922 -2.35652,9.66753 -5.26343,9.66753c-2.90691,0 -5.26343,-4.3283 -5.26343,-9.66753z" data-paper-data="{&quot;index&quot;:null}" fill-opacity="0.01438" fill="#000000" stroke-width="0"/><path d="M226.1964,188.10526c0,-8.06816 2.93363,-14.60871 6.55244,-14.60871c3.61881,0 6.55244,6.54053 6.55244,14.60871c0,8.06818 -2.93363,14.60871 -6.55244,14.60871c-3.61881,0 -6.55244,-6.54053 -6.55244,-14.60871z" data-paper-data="{&quot;index&quot;:null}" fill-opacity="0.01438" fill="#000000" stroke-width="0"/><path d="M220.39221,175.55362c-3.80235,0 -6.88476,-5.66157 -6.88476,-12.64547c0,-6.9839 3.0824,-12.64547 6.88476,-12.64547c3.80235,0 6.88476,5.66157 6.88476,12.64547c0,6.9839 -3.0824,12.64547 -6.88476,12.64547z" fill-opacity="0.01438" fill="#000000" stroke-width="0"/><path d="M209.18296,180.03846c-4.44935,0 -8.05627,-5.96344 -8.05627,-13.31971c0,-7.35627 3.60692,-13.31971 8.05627,-13.31971c4.44935,0 8.05628,5.96344 8.05628,13.31971c0,7.35627 -3.60692,13.31971 -8.05628,13.31971z" fill-opacity="0.01438" fill="#000000" stroke-width="NaN"/><path d="M213.47964,172.94893c-5.16126,0 -9.34528,-7.74284 -9.34528,-17.29414c0,-9.55128 4.18402,-17.29413 9.34528,-17.29413c5.16126,0 9.34528,7.74285 9.34528,17.29413c0,9.55128 -4.18403,17.29414 -9.34528,17.29414z" fill-opacity="0.01438" fill="#000000" stroke-width="0"/><path d="M206.71237,186.26864c-3.79678,0 -6.87469,-6.73291 -6.87469,-15.03838c0,-8.30547 3.07791,-15.03838 6.87469,-15.03838c3.79678,0 6.87469,6.73291 6.87469,15.03838c0,8.30547 -3.07791,15.03838 -6.87469,15.03838z" fill-opacity="0.01438" fill="#000000" stroke-width="0"/><path d="M216.05765,164.78524c-2.90692,0 -5.26343,-4.3283 -5.26343,-9.66753c0,-5.33922 2.35651,-9.66753 5.26343,-9.66753c2.90692,0 5.26344,4.3283 5.26344,9.66753c0,5.33922 -2.35652,9.66753 -5.26344,9.66753z" fill-opacity="0.01438" fill="#000000" stroke-width="0"/><path d="M204.88628,185.83897c-3.6188,0 -6.55244,-6.54053 -6.55244,-14.60871c0,-8.06818 2.93363,-14.60871 6.55244,-14.60871c3.6188,0 6.55243,6.54055 6.55243,14.60871c0,8.06818 -2.93363,14.60871 -6.55243,14.60871z" fill-opacity="0.01438" fill="#000000" stroke-width="0"/><path d="M230.99221,165.15362c-3.80235,0 -6.88476,-5.66157 -6.88476,-12.64547c0,-6.9839 3.0824,-12.64547 6.88476,-12.64547c3.80235,0 6.88476,5.66157 6.88476,12.64547c0,6.9839 -3.0824,12.64547 -6.88476,12.64547z" fill-opacity="0.01438" fill="#000000" stroke-width="0"/><path d="M231.99221,172.55362c-3.80235,0 -6.88476,-5.66157 -6.88476,-12.64547c0,-6.9839 3.0824,-12.64547 6.88476,-12.64547c3.80235,0 6.88476,5.66157 6.88476,12.64547c0,6.9839 -3.0824,12.64547 -6.88476,12.64547z" fill-opacity="0.01438" fill="#000000" stroke-width="0"/><path d="M224.49221,167.75362c-3.80235,0 -6.88476,-5.66157 -6.88476,-12.64547c0,-6.9839 3.0824,-12.64547 6.88476,-12.64547c3.80235,0 6.88476,5.66157 6.88476,12.64547c0,6.9839 -3.0824,12.64547 -6.88476,12.64547z" fill-opacity="0.01438" fill="#000000" stroke-width="0"/><path d="M203.7922,218.05362c-3.80235,0 -6.88476,-5.66157 -6.88476,-12.64547c0,-6.9839 3.0824,-12.64547 6.88476,-12.64547c3.80235,0 6.88476,5.66157 6.88476,12.64547c0,6.9839 -3.0824,12.64547 -6.88476,12.64547z" fill-opacity="0.01438" fill="#000000" stroke-width="0"/><path d="M229.89221,219.95362c-3.80235,0 -6.88476,-5.66157 -6.88476,-12.64547c0,-6.9839 3.0824,-12.64547 6.88476,-12.64547c3.80235,0 6.88476,5.66157 6.88476,12.64547c0,6.9839 -3.0824,12.64547 -6.88476,12.64547z" fill-opacity="0.01438" fill="#000000" stroke-width="0"/><path d="M203.19221,163.55362c-3.80235,0 -6.88476,-5.66157 -6.88476,-12.64547c0,-6.9839 3.0824,-12.64547 6.88476,-12.64547c3.80235,0 6.88476,5.66157 6.88476,12.64547c0,6.9839 -3.0824,12.64547 -6.88476,12.64547z" fill-opacity="0.01438" fill="#000000" stroke-width="0"/><path d="M207.59221,166.85362c-3.80235,0 -6.88476,-5.66157 -6.88476,-12.64547c0,-6.9839 3.0824,-12.64547 6.88476,-12.64547c3.80235,0 6.88476,5.66157 6.88476,12.64547c0,6.9839 -3.0824,12.64547 -6.88476,12.64547z" fill-opacity="0.01438" fill="#000000" stroke-width="0"/><path d="M232.69221,220.05362c-3.80235,0 -6.88476,-4.40796 -6.88476,-9.84547c0,-5.4375 3.0824,-9.84547 6.88476,-9.84547c3.80235,0 6.88476,4.40796 6.88476,9.84547c0,5.4375 -3.0824,9.84547 -6.88476,9.84547z" fill-opacity="0.01438" fill="#000000" stroke-width="0"/><path d="M196.31756,137.5625l43.875,0l0,84.875h-43.875z" fill="url(#color-2)" stroke-width="0"/></g></g></svg>