<svg version="1.1" xmlns="http://www.w3.org/2000/svg" xmlns:xlink="http://www.w3.org/1999/xlink" width="334.13734" height="321.56843" viewBox="0,0,334.13734,321.56843"><g transform="translate(-53.75728,-15.69338)"><g data-paper-data="{&quot;isPaintingLayer&quot;:true}" fill-rule="nonzero" stroke-linejoin="miter" stroke-miterlimit="10" stroke-dasharray="" stroke-dashoffset="0" style="mix-blend-mode: normal"><path d="M120.51388,109.08917l0.5722,-0.45168l0.16407,-0.0739l0.12902,-0.12543l0.29208,-0.16971l0.14664,-0.11576l0.16407,-0.0739l0.12902,-0.12543l0.09491,-0.05515l0.27075,-0.30701l0.33097,-0.22794l0.28815,-0.28014l0.29208,-0.16971l0.35738,-0.28211l0.62812,-0.57931l0.08602,-0.04701l0.05991,-0.07758l0.15807,-0.12477l0.00869,-0.0267l0.06467,-0.0312l0.05468,-0.04316l0.52375,-0.23593l0.51735,-0.24963l0.06821,-0.01415l0.06547,-0.0295l0.02604,0.01051l0.17737,-0.0368l0.24166,-0.11661l0.27277,-0.15848l0.93264,-0.65111l0.28152,-0.10741l0.24616,-0.17377l0.57402,-0.22246l0.56323,-0.44461l0.25103,-0.11309l0.21154,-0.17621l0.60532,-0.29208l0.05969,-0.01238l0.04864,-0.03674l0.76492,-0.32518l0.24594,-0.03894l0.22426,-0.10821l0.43584,-0.09043l0.54871,-0.21265l1.16752,-0.67833l0.30212,-0.08732l0.27278,-0.1565l2.20139,-0.62323l0.09107,-0.00282l0.08205,-0.03959l12.2898,-2.54994l0.09795,0.00396l0.09129,-0.0357l2.10801,-0.27091l0.00814,0.00096l0.00765,-0.00295l1.94841,-0.23778l0.12227,0.01519l0.11877,-0.03283l1.82191,-0.04506l0.08125,0.01818l0.08152,-0.01691l3.35773,0.13572l0.09407,0.02759l0.09723,-0.01249l1.40774,0.1657l1.37375,0.01935l0.12687,0.03363l0.13017,-0.01672l3.07164,0.36155l0.11494,0.04355l0.12286,-0.00385l1.25812,0.27295l0.42024,-0.01658l0.01039,-0.0082l0.04357,0.00607l0.19877,-0.00785l0.51388,0.10715l0.51991,0.07244l0.18449,0.07442l0.04307,0.00898l0.00702,0.01123l0.71119,0.28689l0.90655,0.24026l0.23288,0.12846l0.25925,0.05938l0.9305,0.47285l0.10629,0.09231l0.13291,0.0464l1.34907,0.88544l0.16882,0.18304l0.21444,0.12658l0.83712,0.82518l0.04582,0.07513l0.07252,0.04984l0.72453,0.8199l0.82445,0.65516l0.239,0.31158l0.2898,0.26499l0.96959,1.46361l0.09048,0.25569l0.15643,0.22157l0.34374,0.88694l0.5448,1.28151l0.35803,0.54045l0.09048,0.25569l0.15642,0.22157l0.3583,0.92453l0.00372,0.02964l0.01665,0.02479l0.39141,1.08414l0.00407,0.03989l0.02131,0.03397l0.39253,1.20366l0.4535,0.865l0.08218,0.33888l0.15154,0.31405l0.32224,1.55309l0.25935,0.66921l0.53681,1.19164l0.45312,0.7799l0.03643,0.12608l0.08132,0.10302l0.61726,1.37024l0.01215,0.06743l0.03951,0.05597l0.26065,0.67255l0.33555,0.50651l0.05736,0.16213l0.11007,0.13213l0.29207,0.60532l0.01238,0.05969l0.03674,0.04864l0.10332,0.24306l0.18598,0.16401l0.22795,0.33097l0.28014,0.28814l0.16971,0.29208l0.04316,0.05468l0.20188,0.08143l0.20144,0.14637l0.23509,0.08207l0.48337,0.31725l0.96666,0.5158l0.53889,0.25299l1.10172,0.35846l0.02317,0.01451l0.02722,0.00248l0.89739,0.31324l0.09422,0.06184l0.11089,0.02009l4.04123,1.82517l0.04617,0.03651l0.05739,0.01315l1.76428,0.89656l2.62466,1.05875l0.11754,0.08541l0.14068,0.03633l2.43919,1.32518l0.12687,0.11646l0.15939,0.06522l1.76763,1.29803l0.82256,0.99174l-0.0713,0.62127l0.28368,0.55731l-0.42463,1.21649l-0.25298,0.38544l-0.29542,0.27246l-0.24563,0.31808l-0.78294,0.61804l-0.48604,0.44827l-0.67182,0.84541l-0.10778,0.08268l-0.06906,0.11698l-0.41259,0.41857l-0.05204,0.03173l-0.03345,0.05096l-0.69869,0.6444l-0.32445,0.17725l-0.28406,0.23662l-0.35815,0.17281l-0.35679,0.28164l-0.09671,0.04358l-0.07159,0.07829l-1.46361,0.96959l-0.28274,0.10006l-0.24897,0.16723l-1.08414,0.39141l-0.17902,0.01823l-0.16206,0.0782l-0.0074,0.00154l-0.33044,0.21891l-0.44635,0.15794l-0.13054,0.06299l-0.31279,0.18174l-0.38607,0.11158l-0.36195,0.17464l-0.99516,0.20648l-0.57189,0.17957l0.12749,0.17328l0.2105,0.16255l1.76372,2.23433l0.8243,0.93279l0.03272,0.06305l0.05622,0.04341l0.67752,0.8583l0.04358,0.09672l0.07829,0.07159l0.28019,0.42296l0.51864,0.42934l0.02377,0.0323l0.03561,0.01843l0.61129,0.53908l0.0403,0.0585l0.06117,0.03611l0.5789,0.57065l1.92657,1.02799l0.1699,0.15363l0.20855,0.09476l0.74501,0.59203l0.85917,0.37922l1.4669,0.45781l0.41304,0.25182l0.43633,0.20889l0.69735,0.57728l0.56797,0.37279l0.76629,0.24932l0.69338,0.12326l0.0286,0.0128l0.03129,-0.0014l1.2166,0.24701l0.15521,0.07407l0.17126,0.0156l1.53567,0.53604l0.75133,0.08845l0.11494,0.04355l0.12286,-0.00385l1.56893,0.34038l0.05219,0.02577l0.0582,0.00082l0.97376,0.25806l1.96242,0.37784l2.18371,0.35822l5.55447,0.8065l3.46257,0.25572l0.33348,0.11003l0.34907,0.03821l1.44245,0.53311l0.96375,0.65791l0.05751,0.01872l0.01478,0.03065l0.0281,0.01918l0.00994,0.05967l0.50709,1.05096l0.09933,0.47871l0.02,0.01971l-0.00102,0.07179l0.01415,0.06821l-0.0232,0.57396l-0.00154,0.10918l0.09694,0.46722l-0.00726,0.1798l0.05449,0.17149l0.06108,0.97305l0.12949,0.62408l-0.01243,0.30751l0.06252,0.30134l-0.04908,1.21423l0.06412,1.02166l-0.00542,0.02938l0.00839,0.02867l0.07818,1.98153l-0.04047,0.19413l0.02527,0.19668l-0.19362,1.64485l0.14939,0.72002l-0.01992,0.4928l0.08672,0.17037l-0.10586,0.30328l-0.01298,0.32096l-0.14325,0.12659l-0.10528,0.30158l0.01036,0.26268l-0.09533,0.45727l-0.04239,0.46518l-0.2816,0.80673l-0.16215,0.61186l-0.04735,0.08583l-0.00889,0.09762l-0.62649,1.79477l-0.11674,0.17788l-0.05451,0.20565l-0.72584,1.31595l-0.06675,0.07179l-0.0323,0.09255l-0.50597,0.7709l-0.18304,0.16882l-0.12657,0.21443l-0.82519,0.83713l-0.13487,0.08225l-0.09655,0.12502l-0.53986,0.42615l-0.40985,0.62446l-0.22624,0.20865l-0.16887,0.25729l-1.39738,1.2888l-0.08602,0.04701l-0.05992,0.07758l-0.49683,0.39219l-0.62812,0.57931l-0.08602,0.04701l-0.05992,0.07758l-0.10916,0.08616l-0.38998,0.44222l-0.18715,0.12889l-0.13889,0.17986l-0.33501,0.26445l0.3499,0.0622l1.34937,0.20972l0.05445,0.02297l0.05904,-0.00264l1.11469,0.22632l0.75861,0.08929l0.02502,-0.01274l0.0678,0.02367l0.06918,0.00814l0.53717,0.20351l0.54234,0.18932l0.05824,0.03823l0.06715,0.02544l0.01099,0.02585l0.63452,0.41647l0.87354,0.94713l-0.04234,0.68581l0.31169,0.61236l-0.42463,1.21648l-0.25298,0.38545l-0.29542,0.27246l-0.24563,0.31808l-0.25069,0.19789l0.0002,0.00296l-0.01284,0.01404l-0.1473,0.22442l-0.36983,0.34111l-0.33952,0.37129l-0.22381,0.14826l-0.01398,0.0129l-0.00502,-0.00031l-0.30293,0.20068l-0.94999,0.90868l-0.10511,0.05993l-0.07396,0.09576l-1.4305,1.1292l-0.16407,0.0739l-0.12901,0.12543l-0.89142,0.51791l-0.03736,0.01079l-0.02869,0.02626l-1.46343,0.79196l-1.2254,0.71195l-1.67429,1.1439l-0.25389,0.09394l-0.21884,0.15936l-1.57529,0.6373l-0.94195,0.49384l-0.20608,0.04998l-0.17963,0.11268l-1.40335,0.45765l-0.14042,0.00987l-0.12678,0.06118l-9.89568,2.0532l-0.14066,-0.00569l-0.13276,0.04681l-2.80132,0.26389l-1.62011,0.33615l-0.15785,-0.00638l-0.14969,0.05047l-1.30998,0.10532l-0.15121,-0.02514l-0.1501,0.03114l-1.3431,-0.05428l-0.09406,-0.0276l-0.09723,0.01249l-0.79999,-0.09417l-0.92539,0.05808l-0.26858,-0.04951l-0.27198,0.02476l-1.37621,-0.21389l-0.07008,-0.02956l-0.07603,0.00239l-1.27636,-0.27691l-1.52262,0.03766l-0.34686,-0.07765l-0.3554,-0.005l-1.72391,-0.45687l-2.12664,-0.49307l-2.28936,-0.31898l-0.10569,-0.04263l-0.11396,0.00195l-2.19414,-0.50871l-0.87104,-0.14289l-0.37348,0.42351l-0.27172,0.18713l-0.22263,0.24347l-0.56481,0.37417l-0.42784,0.39459l-0.55835,0.67449l-0.21421,0.15763l-0.16256,0.21049l-0.65042,0.51342l-1.82783,2.20802l-0.21422,0.15762l-0.16255,0.2105l-2.45273,1.93612l-1.12851,1.14485l-0.13487,0.08225l-0.09656,0.12503l-1.25355,0.98952l-0.76459,0.867l-0.00135,0.01402l-0.03623,0.02861l-0.1269,0.14388l-0.4343,0.29911l-0.41391,0.32673l-0.17492,0.0788l-0.03802,0.02619l-0.01378,-0.00284l-0.86291,0.38871l-0.4887,0.38577l-0.00869,0.0267l-0.06467,0.0312l-0.05468,0.04316l-0.52375,0.23593l-0.51735,0.24963l-0.06821,0.01415l-0.06547,0.0295l-0.02604,-0.01051l-12.13008,2.5168l-0.05565,-0.00225l-0.05116,0.022l-3.7041,0.60206l-0.07829,-0.00658l-0.07395,0.02656l-3.09879,0.30999l-0.12928,-0.01891l-0.12685,0.03132l-3.16502,-0.00923l-0.11247,-0.02846l-0.11468,0.01746l-2.20737,-0.20792l-0.11073,-0.03904l-0.11721,0.00693l-2.94514,-0.55428l-0.05358,-0.02463l-0.05895,0.00076l-2.58731,-0.61139l-2.39432,-0.48612l-0.03676,-0.01755l-0.04073,0.00054l-2.57504,-0.60849l-2.02951,-0.39076l-0.07979,-0.0371l-0.08798,-0.00123l-1.40933,-0.3735l-0.07214,-0.03978l-0.08212,-0.00646l-2.14711,-0.71986l-0.27217,-0.17386l-0.30491,-0.10643l-0.96361,-0.63246l-0.19347,-0.20976l-0.24137,-0.15221l-2.12594,-2.22256l-0.05993,-0.10512l-0.09576,-0.07396l-1.4011,-1.77494l-0.76957,-0.61155l-0.18473,-0.24081l-0.14786,-0.04811l-0.18814,-0.38992l-0.26349,-0.3435l0.02359,-0.15369l-0.13189,-0.27335l-0.1987,-0.95764l0.01992,-0.4928l-0.08672,-0.17037l0.10586,-0.30328l0.01298,-0.32096l0.14325,-0.12659l0.16254,-0.46565l0.25299,-0.38545l0.29542,-0.27246l0.24563,-0.31808l0.10916,-0.08617l0.38998,-0.44222l0.33097,-0.22794l0.28814,-0.28014l0.09491,-0.05515l0.27075,-0.30702l0.0585,-0.04028l0.03612,-0.06117l0.41259,-0.41857l0.05205,-0.03174l0.03344,-0.05097l0.65497,-0.60407l0.63053,-0.63966l-0.04052,-0.01414l-0.56394,-0.37013l-0.26031,-0.10501l-0.84123,-0.29363l-0.25729,-0.16887l-0.29056,-0.10142l-0.53463,-0.35089l-0.0723,-0.01285l-0.00448,0.00228l-0.01796,-0.00626l-0.26431,-0.04699l-0.45921,-0.20557l-0.47501,-0.16582l-0.10555,-0.06927l-0.93136,-0.30304l-0.283,-0.17724l-0.31526,-0.11005l-1.00781,-0.66146l-0.57695,-0.27086l-0.373,-0.30405l-0.40231,-0.26405l-0.53039,-0.57508l-0.67449,-0.55835l-0.11678,-0.15871l-0.1624,-0.1116l-0.87025,-0.98479l-0.08102,-0.1561l-0.12979,-0.11868l-0.39729,-0.59971l-0.9926,-1.1509l-0.19191,-0.38092l-0.24598,-0.34844l-0.34374,-0.88694l-0.20757,-0.48826l-0.56164,-0.80447l-0.09322,-0.24433l-0.15762,-0.20866l-0.65037,-1.52986l-0.03894,-0.24594l-0.10821,-0.22426l-1.22529,-5.90548l0.01244,-0.30751l-0.06252,-0.30134l0.04186,-1.03558l-0.33487,-1.61395l0.00638,-0.15785l-0.05047,-0.1497l-0.10533,-1.30997l0.03198,-0.19235l-0.03322,-0.19213l0.0863,-1.16847l0.11362,-1.84l0.00468,-0.01478l-0.00265,-0.01527l0.07995,-1.08258l-0.00525,-0.72997l0.11443,-0.47209l0.06704,-0.48111l0.42738,-1.05949l-0.00569,-0.03789l0.39528,-0.51187l0.38018,-0.52319l0.03798,-0.00519l0.26018,-0.20538l0.25102,-0.11308l0.21154,-0.17621l1.12417,-0.54242l0.36269,-0.21073l0.0535,-0.01546l0.04157,-0.03705l1.05102,-0.55103l0.10035,-0.02433l0.08238,-0.06223l0.45681,-0.1942l0.59552,-0.47009l0.40116,-0.18071l0.37273,-0.2338l1.15155,-0.37554l0.62239,-0.3616l1.13839,-0.71905l0.13744,-0.0453l0.11119,-0.09262l0.45251,-0.21834l1.32216,-0.87588l0.25569,-0.09048l0.22158,-0.15642l0.57402,-0.22246l2.24346,-1.77094l-0.77647,-0.64277l-0.02376,-0.0323l-0.03562,-0.01844l-0.47803,-0.42157l-1.7787,-1.16743l-0.16882,-0.18304l-0.21444,-0.12658l-2.09283,-2.06296l-0.03174,-0.05205l-0.05096,-0.03345l-0.6444,-0.69869l-0.0205,-0.03753l-0.03495,-0.02464l-1.09609,-1.27088l-0.02506,-0.04974l-0.04407,-0.03404l-0.67752,-0.85831l-0.04357,-0.09673l-0.0783,-0.07159l-0.48479,-0.73181l-0.02508,-0.07087l-0.0524,-0.0539l-0.51791,-0.89141l-0.06914,-0.23921l-0.13519,-0.20911l-0.42453,-1.24375l-0.01325,-0.15742l-0.06866,-0.14228l-1.35776,-6.54392l0.00568,-0.14066l-0.0468,-0.13277l-0.13844,-1.46958l0.16572,-1.08872l-0.01326,-0.08826l0.03325,-0.04304l0.00819,-0.05376l0.073,-0.05135l0.6731,-0.87162l0.28611,-0.22583l0.16406,-0.0739l0.12902,-0.12544l0.29209,-0.1697l0.43274,-0.3416l0.25103,-0.11308l0.21154,-0.17621l0.21531,-0.10389l0.52118,-0.52873l0.22327,-0.13615l0.17647,-0.193l0.38677,-0.25622l0.6656,-0.8619l0.28535,-0.22525l0.23503,-0.27733l1.07431,-0.77151l0.83726,-0.9494l0.86099,-1.11491l0.98716,-1.30562l1.41501,-2.15592l0.30304,-0.93136l0.1178,-0.1881l0.05387,-0.2153l0.49575,-0.92908l0.26194,-0.80506l0.15184,-1.28996l0.10548,-0.27844l0.0324,-0.29599l0.49193,-1.33103l0.10105,-0.38128l0.11873,-1.36325l-0.00513,-0.71349l0.07865,-0.32453l0.00471,-0.33389l0.3032,-1.14406l0.03711,-0.91804l-0.09323,-1.1595l0.02951,-0.17751l-0.0328,-0.17693l0.11121,-1.80084c0.01707,-0.43536 0.14817,-0.85093 0.36942,-1.21033l0.02287,-0.07223l0.03478,-0.01712c0.23446,-0.3471 0.55576,-0.63585 0.94055,-0.83068l-0.06711,-0.44678l0.78753,-1.01979l0.10915,-0.08616l0.38998,-0.44222l0.18716,-0.12889z" fill="#369a97" stroke="none" stroke-width="0.5" stroke-linecap="butt"/><path d="M156.78759,222.52266l-8.27866,-39.9002l33.29097,-6.90735l8.27866,39.9002z" fill="#dba38d" stroke="none" stroke-width="0" stroke-linecap="butt"/><path d="M212.83817,231.78499c3.73747,18.0133 0.46352,51.15965 -15.8367,65.97517c-8.97347,8.15611 -21.85308,22.24387 -33.39298,25.07223c-2.15201,0.52745 -9.84836,4.22822 -16.71502,3.19577c-6.67909,-1.00425 -17.5063,-1.02385 -24.68436,-3.87466c-12.52162,-4.97303 -34.27607,-25.65666 -34.27607,-25.65666c0,0 27.0584,0.56226 43.17758,-7.59401c1.99571,-1.00982 6.36066,-7.89272 8.78727,-14.42366c1.2825,-3.45171 1.48774,-7.61397 1.68635,-8.99165c1.0106,-7.0104 0.79607,-15.18757 0.02106,-18.92283c-8.75165,-42.17986 62.48123,-56.95955 71.23288,-14.77969z" fill="#4e87a8" stroke="none" stroke-width="0" stroke-linecap="butt"/><path d="M217.72378,229.07007l-4.09068,-13.49643l13.19939,-5.55084l6.06588,2.3628l-3.99816,3.35531l4.51912,4.66798z" data-paper-data="{&quot;index&quot;:null}" fill="#c7917c" stroke="none" stroke-width="0" stroke-linecap="butt"/><path d="M137.27077,243.64412l1.07699,-6.40723l-5.19573,-0.49787l3.6579,-5.38493l14.02046,-2.90902l4.28031,13.43749z" fill="#c7917c" stroke="none" stroke-width="0" stroke-linecap="butt"/><path d="M210.27475,221.50657l-40.09353,-61.89628l-2.71452,-6.10017l61.71586,55.7489z" data-paper-data="{&quot;index&quot;:null}" fill="#121833" stroke="none" stroke-width="0" stroke-linecap="butt"/><path d="M133.83203,232.18325l14.69847,-80.3359l5.76547,5.98953l2.05527,73.71851z" fill="#121833" stroke="none" stroke-width="0" stroke-linecap="butt"/><path d="M152.90459,150.99282c-0.46795,-2.25536 -2.27972,-10.98747 -2.27972,-10.98747l9.27066,-1.92352c0,0 1.69923,8.18971 2.18473,10.52964c0.24275,1.16995 -2.62133,3.88652 -4.25654,4.2258c-1.19123,0.24716 -4.71096,-0.84111 -4.91914,-1.84447z" fill="#c7917c" stroke="none" stroke-width="0" stroke-linecap="butt"/><path d="M173.9603,111.98292c6.07142,-2.7896 16.08696,3.94288 16.08696,3.94288c0,0 -1.37763,12.06764 -7.44904,14.85726c-6.07142,2.7896 -12.92698,0.84245 -15.31224,-4.34905c-2.3853,-5.19151 0.6029,-11.66146 6.67432,-14.45106z" data-paper-data="{&quot;index&quot;:null}" fill="#c7917c" stroke="none" stroke-width="0" stroke-linecap="butt"/><path d="M141.47473,131.50253c-0.123,5.71194 -5.63797,10.22577 -12.31804,10.08194c-6.68006,-0.14387 -11.87264,-10.60286 -11.87264,-10.60286c0,0 5.63798,-10.22576 12.31805,-10.0819c6.68006,0.14387 11.99562,4.89092 11.87264,10.60286z" fill="#c7917c" stroke="none" stroke-width="0" stroke-linecap="butt"/><path d="M119.86966,115.05497c-3.37716,-16.27671 7.07997,-32.20929 23.35668,-35.58644c16.27671,-3.37716 32.20929,7.07997 35.58644,23.35668c3.37716,16.27671 -6.22508,36.32958 -22.50179,39.70674c-16.27671,3.37716 -33.06418,-11.20028 -36.44134,-27.47698z" fill="#dba38d" stroke="none" stroke-width="0" stroke-linecap="butt"/><path d="M138.63806,126.87956c-0.27435,0.418 -0.69236,0.14365 -0.69236,0.14365l-0.25914,-0.21844c-0.47562,-0.72305 -1.05458,-1.37302 -1.67124,-1.97818c0,0 -0.35609,-0.35101 -0.00508,-0.70709c0.35101,-0.35609 0.70709,-0.00508 0.70709,-0.00508c0.66658,0.65974 1.28237,1.35709 1.80289,2.13808l-0.02582,-0.06531c0,0 0.418,0.27435 0.14365,0.69236z" fill="#000000" stroke="none" stroke-width="0.5" stroke-linecap="butt"/><path d="M133.23997,126.33755l0.0023,0.07019c0.16684,-0.92361 0.45438,-1.80838 0.80347,-2.67885c0,0 0.18705,-0.46369 0.65075,-0.27664c0.46369,0.18705 0.27664,0.65075 0.27664,0.65075c-0.32499,0.80054 -0.59758,1.62718 -0.74628,2.47977l-0.15085,0.3035c0,0 -0.27436,0.41802 -0.69236,0.14365c-0.41801,-0.27435 -0.14365,-0.69235 -0.14365,-0.69235z" data-paper-data="{&quot;index&quot;:null}" fill="#000000" stroke="none" stroke-width="0.5" stroke-linecap="butt"/><path d="M159.464,116.95726c0.59783,2.88133 -2.67372,5.99647 -7.30722,6.95784c-4.6335,0.96138 -8.87432,-0.59506 -9.47215,-3.47639c-0.59783,-2.88133 2.67372,-5.99647 7.30722,-6.95784c4.6335,-0.96138 8.87432,0.59506 9.47215,3.47639z" fill="#c1726a" stroke="none" stroke-width="0" stroke-linecap="butt"/><path d="M168.57249,119.51049l0.0023,0.07019c0.16684,-0.92361 0.45438,-1.80838 0.80347,-2.67885c0,0 0.18705,-0.46369 0.65075,-0.27664c0.46369,0.18705 0.27664,0.65075 0.27664,0.65075c-0.32499,0.80054 -0.59758,1.62718 -0.74628,2.47977l-0.15085,0.3035c0,0 -0.27435,0.418 -0.69236,0.14365c-0.41801,-0.27436 -0.14365,-0.69236 -0.14365,-0.69236z" data-paper-data="{&quot;index&quot;:null}" fill="#000000" stroke="none" stroke-width="0.5" stroke-linecap="butt"/><path d="M173.19378,118.73704c-0.27436,0.41801 -0.69236,0.14365 -0.69236,0.14365l-0.25914,-0.21844c-0.47562,-0.72306 -1.05458,-1.37302 -1.67124,-1.97818c0,0 -0.35608,-0.351 -0.00509,-0.70709c0.351,-0.35608 0.70709,-0.00508 0.70709,-0.00508c0.66657,0.65974 1.28237,1.35708 1.8029,2.13807l-0.02583,-0.06531c0,0 0.418,0.27435 0.14365,0.69236z" data-paper-data="{&quot;index&quot;:null}" fill="#000000" stroke="none" stroke-width="0.5" stroke-linecap="butt"/><path d="M126.22229,116.17858c-1.23283,-5.94179 2.58454,-11.75795 8.52632,-12.99077c5.94179,-1.23283 11.75795,2.58454 12.99077,8.52632c1.23283,5.94179 -2.58454,11.75795 -8.52632,12.99077c-5.94179,1.23283 -11.75795,-2.58454 -12.99077,-8.52632z" fill="#ffffff" stroke="none" stroke-width="0" stroke-linecap="butt"/><path d="M152.25054,111.01691c-1.23283,-5.94179 2.58454,-11.75795 8.52632,-12.99077c5.94179,-1.23283 11.75795,2.58454 12.99077,8.52632c1.23283,5.94179 -2.58454,11.75795 -8.52632,12.99077c-5.94179,1.23283 -11.75795,-2.58454 -12.99077,-8.52632z" fill="#ffffff" stroke="none" stroke-width="0" stroke-linecap="butt"/><path d="M130.95278,112.51104c-0.72789,-3.50819 1.52598,-6.94222 5.03417,-7.67011c3.50819,-0.72789 6.94222,1.52598 7.67011,5.03417c0.72789,3.50819 -1.52598,6.94222 -5.03417,7.67011c-3.50819,0.72789 -6.94222,-1.52598 -7.67011,-5.03417z" fill="#000000" stroke="none" stroke-width="0" stroke-linecap="butt"/><path d="M153.61871,108.4051c-0.72789,-3.50819 1.52598,-6.94222 5.03417,-7.67011c3.50819,-0.72789 6.94222,1.52598 7.67011,5.03417c0.72789,3.50819 -1.52598,6.94222 -5.03417,7.67011c-3.50819,0.72789 -6.94222,-1.52598 -7.67011,-5.03417z" fill="#000000" stroke="none" stroke-width="0" stroke-linecap="butt"/><path d="M146.78108,195.70076l1.60415,-43.6132l18.39374,-3.59503l24.31839,38.0133c0,0 -15.6646,-1.34569 -23.16419,0.21037c-7.26505,1.50738 -21.15208,8.98457 -21.15208,8.98457z" fill="#232841" stroke="none" stroke-width="0" stroke-linecap="butt"/><path d="M150.65063,119.4913l-2.89642,-1.81757l3.67491,-0.25863" fill="none" stroke="#000000" stroke-width="0.5" stroke-linecap="round"/><path d="M147.97258,113.77254c-1.49331,-1.05409 -3.00719,-2.38453 -3.73305,-4.12525c-1.3859,-3.32354 0.85799,-5.49978 0.23745,-8.60189c-0.42179,-2.10851 -2.48844,-3.51493 -3.87964,-4.96936c-0.01369,-0.01277 -0.5093,-0.4148 -0.99548,-0.90579c-0.34545,1.96065 -1.02506,3.31986 -2.42421,4.70413c-1.87148,1.85158 -4.37357,3.56278 -6.77114,4.6407c-1.12893,0.50755 -2.75153,0.49078 -3.59702,1.52696c-1.33736,1.63899 -1.30173,4.557 -1.06142,6.50006c0.31627,3.93377 0.98679,8.19468 2.59963,11.8163c0.97245,2.18362 2.40484,4.17716 3.68027,6.19732c0.53636,0.84954 1.48691,1.57057 1.57203,2.57164c0.38137,4.48517 -3.03454,2.54689 -4.7158,1.23993c-2.5845,-2.00912 -4.54073,-3.99053 -5.20667,-7.26531c-0.29237,-0.64326 -0.2693,-1.55986 -0.86908,-1.9334c-0.32363,-0.20156 -2.01713,0.26729 -2.1069,0.27429c-2.33274,0.18215 -7.21324,-0.45342 -7.9457,-3.39623c-0.91038,-3.65766 2.74666,-2.27556 3.53784,-4.48064c1.22232,-3.40668 -0.64754,-7.80569 -1.36361,-11.25693c-1.54243,-7.43397 -0.06414,-12.64288 4.26879,-18.33142c1.42878,-3.49463 3.64533,-6.47602 7.71138,-8.69576c2.49538,-1.36228 6.19865,-1.51111 8.95904,-2.08385c3.98438,-0.8267 8.10486,-2.04179 12.18867,-2.17059c7.70241,-0.24292 16.80085,2.63768 22.42702,7.86209c6.06543,7.65502 10.89626,13.91711 10.59915,24.11487c-0.05067,1.73926 0.33295,5.9146 -0.46003,7.39145c-0.04337,0.08078 -0.09047,0.1587 -0.14084,0.23411l0.0328,0.01852l-0.86798,1.53639c-0.17064,0.30576 -0.46809,0.53852 -0.83786,0.61524c-0.67596,0.14025 -1.33763,-0.29402 -1.47788,-0.96999c-0.03538,-0.1705 -0.03419,-0.34009 -0.00181,-0.50063l0.30921,-1.73944l0.00522,0.00093l-0.00245,-0.01591c0.67515,-3.24932 -0.04826,-6.96283 -0.51064,-10.20847c-0.17672,-1.2405 0.16581,-3.82583 -0.78265,-4.82716c-0.75565,-0.79776 -3.30401,0.22842 -4.13935,0.3957c-2.18522,0.4376 -3.18168,0.14837 -5.04045,-1.07161c-2.23785,-3.41405 -4.38347,-7.35425 -8.92854,-7.46617c-2.70948,-0.06672 -5.68185,0.49341 -8.38726,0.74255c-0.19873,0.0183 -0.51966,0.0728 -0.88388,0.11716c0.24992,0.39885 0.4335,0.87235 0.71555,1.41973c0.67474,1.51543 1.36045,3.33503 1.3916,5.02732c0.03998,2.17216 -1.23965,4.35271 -1.19546,6.51714c0.05566,2.7262 2.34183,2.15241 3.61457,4.44804c1.75165,3.15945 0.89792,6.3663 -1.13932,8.71709c-0.06261,0.17259 -0.13588,0.35115 -0.22043,0.5361l0.19367,0.14956l-0.93492,1.21064c-0.1761,0.23089 -0.43301,0.40182 -0.73965,0.46544c-0.67596,0.14025 -1.33763,-0.29402 -1.47788,-0.96999c-0.06245,-0.30097 -0.01099,-0.5991 0.12498,-0.84964l0.60893,-1.14121c1.05606,-1.5023 -0.81849,-2.22401 -1.93877,-3.01479z" fill="#369a97" stroke="none" stroke-width="0.5" stroke-linecap="butt"/><path d="M76.73957,281.46322c10.83787,6.21905 18.23102,13.68762 16.51304,16.6815c-1.71797,2.99388 -11.8965,0.37937 -22.73436,-5.83968c-10.83787,-6.21905 -18.23102,-13.68762 -16.51304,-16.6815c1.71797,-2.99388 11.8965,-0.37937 22.73436,5.83968z" fill="#2d6585" stroke="none" stroke-width="0" stroke-linecap="butt"/><path d="M65.5994,332.734c-2.76725,-2.06327 1.04432,-11.85664 8.51337,-21.87409c7.46905,-10.01745 15.76722,-16.46558 18.53447,-14.40231c2.76726,2.06327 -1.04432,11.85664 -8.51337,21.87408c-7.46905,10.01745 -15.76721,16.46559 -18.53447,14.40231z" data-paper-data="{&quot;index&quot;:null}" fill="#2d6585" stroke="none" stroke-width="0" stroke-linecap="butt"/><path d="M168.95863,203.65659l2.88665,-0.85426" fill="none" stroke="#000000" stroke-width="0.5" stroke-linecap="round"/><path d="M187.41787,126.80378l-3.29296,-1.10403" fill="none" stroke="#000000" stroke-width="0.5" stroke-linecap="round"/><path d="M188.18012,123.7094l-2.43163,-0.64444" fill="none" stroke="#000000" stroke-width="0.5" stroke-linecap="round"/><path d="M164.30371,128.74636c0.63313,3.05147 -2.25021,4.91682 -6.8081,5.86251c-4.5579,0.94569 -9.06437,0.61361 -9.6975,-2.43786c-0.63313,-3.05147 4.37455,-1.71009 8.93244,-2.65578c4.5579,-0.94569 6.94003,-3.82034 7.57316,-0.76887z" fill="#ffffff" stroke="#000000" stroke-width="0.5" stroke-linecap="butt"/><path d="M312.27372,142.59762l-0.05731,0.11407c0.13007,-0.20338 0.26277,-0.40206 0.39802,-0.5963c-1.21851,-17.18654 23.63956,-17.99454 32.93808,-8.71966c5.85033,9.17756 2.63249,22.69024 -1.68432,32.02121c-2.66713,5.76507 -7.28439,10.20084 -9.38759,16.40156c-0.32616,4.23869 -1.97017,11.80964 3.18615,14.02806c2.46682,1.06132 6.95264,1.14588 9.62443,0.73392c0.96335,-0.14852 4.66445,-1.6294 5.35036,-1.28069c5.32212,2.70574 1.32074,9.58552 -1.45029,12.03024c-0.56007,0.42348 -1.16181,0.79944 -1.791,1.12412c2.1412,1.28179 3.5484,5.11893 1.40176,7.40172c-8.19135,8.71094 -24.07498,1.60611 -28.80275,-6.97061c-6.77538,-13.65357 -0.34008,-31.58869 7.49833,-43.33972c3.43855,-5.884 5.64322,-14.42808 4.60304,-21.3383c-0.76545,-5.08517 -5.14954,-9.12236 -10.22731,-6.67629c-3.57523,1.78026 -6.66318,3.59402 -8.81262,6.99072l-0.40308,0.45986c0,0 -1.19195,1.19195 -2.38391,0c-1.19195,-1.19195 0,-2.38391 0,-2.38391z" data-paper-data="{&quot;index&quot;:null}" fill="#4b2567" stroke="none" stroke-width="0.5" stroke-linecap="butt"/><path d="M266.72623,149.64955c-1.19195,1.19195 -2.38391,0 -2.38391,0l-0.40308,-0.45986c-2.14944,-3.3967 -5.23738,-5.21049 -8.81262,-6.99074c-5.07779,-2.44607 -9.46188,1.59114 -10.22733,6.67631c-1.04018,6.91021 1.16449,15.45429 4.60307,21.3383c7.83839,11.75102 14.27372,29.68612 7.49833,43.3397c-4.72776,8.57671 -20.61139,15.68155 -28.80275,6.97063c-2.14663,-2.28279 -0.73942,-6.1199 1.40178,-7.40169c-0.62919,-0.32468 -1.23093,-0.70062 -1.791,-1.12412c-2.77103,-2.44475 -6.77242,-9.32451 -1.45029,-12.03026c0.68588,-0.34871 4.38702,1.13217 5.35036,1.28069c2.67177,0.41193 7.15763,0.32738 9.62443,-0.73392c5.15632,-2.21844 3.51232,-9.78939 3.18615,-14.02806c-2.10321,-6.20072 -6.72049,-10.63646 -9.38762,-16.40153c-4.31684,-9.33098 -7.53468,-22.84367 -1.68432,-32.02121c9.29853,-9.27486 34.15661,-8.46689 32.93808,8.71966c0.13526,0.19423 0.26794,0.39292 0.39802,0.5963l-0.0573,-0.11407c0,0 1.19195,1.19195 0,2.38391z" fill="#4b2567" stroke="none" stroke-width="0.5" stroke-linecap="butt"/><path d="M313.27349,273.20537l1.40473,-13.4854h13.76636l4.49514,4.35467l-4.79375,1.48348l2.26523,5.82111z" data-paper-data="{&quot;index&quot;:null}" fill="#e880e6" stroke="none" stroke-width="0" stroke-linecap="butt"/><path d="M233.77969,252.49592l4.0826,-4.72749l-4.02098,-3.00211l5.6932,-2.5994l12.97271,4.60667l-3.18891,13.17802z" fill="#e880e6" stroke="none" stroke-width="0" stroke-linecap="butt"/><path d="M309.49084,263.72621l-12.46366,-69.79644l7.60751,-1.56604l26.17727,67.55518z" data-paper-data="{&quot;index&quot;:null}" fill="#521060" stroke="none" stroke-width="0" stroke-linecap="butt"/><path d="M236.67369,241.36212l47.27427,-54.90077l6.64488,4.02148l-35.10126,61.60188z" fill="#521060" stroke="none" stroke-width="0" stroke-linecap="butt"/><path d="M301.66953,187.02609c0.14132,1.48896 -1.86562,2.89738 -4.48259,3.14576c-2.61697,0.24838 -4.85299,-0.75732 -4.99433,-2.24629c-0.14132,-1.48896 1.86559,-2.89737 4.48258,-3.14574c2.61697,-0.24838 4.85302,0.75732 4.99436,2.24629z" fill="#6348a2" stroke="none" stroke-width="0" stroke-linecap="butt"/><path d="M298.00798,178.79649c1.61496,1.25968 1.12938,4.58182 -1.08458,7.42026c-2.21397,2.83844 -5.31792,4.11824 -6.93289,2.85857c-1.61496,-1.25968 -1.12938,-4.58182 1.08458,-7.42026c2.21397,-2.83844 5.31792,-4.11824 6.93289,-2.85857z" fill="#6348a2" stroke="none" stroke-width="0" stroke-linecap="butt"/><path d="M283.43566,187.41964c0,-2.21448 0,-10.78833 0,-10.78833h9.10264c0,0 0,8.0413 0,10.33881c0,1.14875 -3.2267,3.14659 -4.83227,3.14659c-1.16963,0 -4.27038,-1.7119 -4.27038,-2.69708z" fill="#e880e6" stroke="none" stroke-width="0" stroke-linecap="butt"/><path d="M287.44973,115.95457l0.30947,-0.12607l0.28652,-0.17191l0.08113,0.02214l0.12747,-0.05192l0.63618,-0.0909l0.19295,-0.06431l0.0659,-0.00508l0.05833,-0.0311l0.38672,-0.09667l0.06156,-0.02052l0.1493,-0.09954l0.27169,-0.09703l0.25454,-0.13575l0.44952,-0.11238h0.20751l0.20131,-0.05032h0.21554l0.08295,-0.01845l0.37575,-0.09394h0.04697l0.04726,-0.01049l0.01575,0.01049h0.20003l0.53665,-0.08943l0.14045,0.01124l0.13668,-0.03419h8.99028l0.2629,0.06572l0.27016,0.02079l0.41477,0.13825h0.28834l0.16288,0.04073l0.16771,-0.00801l0.5015,0.1003l0.8379,0.10474l0.13292,0.05147l0.14236,0.00663l1.04779,0.31435l0.4841,0.0968l0.14092,0.06678l0.15452,0.02108l0.56189,0.22476l0.14294,0.10323l0.16605,0.05931l0.09419,0.06279l0.16625,0.04158l0.1638,0.08734l0.18122,0.04027l0.38681,0.1934l0.49681,0.19871l0.05799,0.04187l0.06983,0.0155l1.12378,0.56189l0.08087,0.06932l0.1003,0.03582l0.24982,0.16652l0.58041,0.29021l0.11633,0.0997l0.14122,0.05945l0.36555,0.27418l0.69553,0.39743l0.16257,0.15578l0.19307,0.11583l2.02281,2.02281l0.08637,0.14395l0.12422,0.11294l0.35694,0.53539l0.21912,0.21912l0.00495,0.0082l0.02962,0.00833l0.19702,0.3694l0.2154,0.359l-0.00809,0.02969l0.00451,0.00845l0.02924,0.11701l0.00391,0.00649l0.17635,0.20575l0.33714,0.67427l0.02633,0.11842l0.06513,0.10237l0.02587,0.07763l0.17301,0.23067l0.0534,0.12682l0.073,0.04171l0.08104,0.32417l0.12966,0.30796l-0.03338,0.07721l0.00298,0.01193l0.52669,1.05342l0.04027,0.18122l0.08736,0.1638l0.08464,0.33853l0.18228,0.45566l0.02108,0.15452l0.06676,0.14094l0.08204,0.41014l0.16728,0.41818l0.01184,0.08696l0.04384,0.07602l0.20106,0.70376l0.19276,0.48184l0.02928,0.2148l0.07826,0.20216l0.10811,0.86491l0.09566,0.57394l0.20844,0.83374v0.04108l0.01757,0.03715l0.2169,1.08445l0.10265,0.41058v0.20751l0.01994,0.07972l0.18956,0.37914l0.04027,0.18122l0.08736,0.1638l0.20147,0.80589l0.25586,0.6823l0.38231,0.66903l0.04208,0.1496l0.08539,0.12986l0.72102,2.06001l0.90397,1.40617l0.04935,0.14585l0.09138,0.12388l0.78665,1.91043l0.01149,0.07832l0.04093,0.06776l0.44952,1.46092l0.02672,0.49878l0.0569,0.11385l-0.04419,0.12372l0.00704,0.13119l-0.08705,0.09282l-0.168,0.47041l-0.22476,0.33714l-0.52279,0.47524l-0.03698,0.06466l-0.04716,0.0118l-0.03596,0.03268l-0.0743,-0.00513l-0.68541,0.17135h-1.23616v3.03421l-0.0407,0.16288l0.00798,0.16771l-0.10029,0.50148l-0.09172,0.73379v1.58074l-0.04073,0.16288l0.00798,0.16771l-0.07966,0.39823v0.17022l-0.07743,0.30971l-0.04313,0.31632l-0.16728,0.41818l-0.04929,0.24647v1.07164l0.01052,0.01575l-0.01052,0.04725v0.04697l-0.09393,0.37575l-0.01845,0.08298v0.32792l-0.05032,0.20131v0.20751l-0.11238,0.44952l-0.05457,0.1023l-0.01566,0.11489l-0.15709,0.39272l-0.08244,0.49453l-0.0274,0.06303v0.06869l-0.10265,0.41061l-0.10452,0.52255l-0.09638,0.20347l-0.04886,0.21979l-0.19338,0.38681l-0.18033,0.45079l-0.09672,0.29014l-0.06513,0.10237l-0.02633,0.11842l-0.142,0.284l-0.06749,0.27l-0.05457,0.1023l-0.01566,0.11489l-0.15183,0.37957l0.00088,0.00326l-0.00661,0.01102l-0.06723,0.16805l-0.18273,0.25301l-0.00796,0.1035l-0.11238,0.33714l-0.1209,0.18997l-0.07572,0.21204l-0.2025,0.30376l-0.22129,0.36883l-0.01908,0.05724l0.00497,0.01828l-0.0249,0.04152l-0.01485,0.04455l-0.20795,0.32678l-0.19927,0.33213l-0.03322,0.03322l-0.02599,0.04084l-0.01857,0.0037l-0.1157,0.1157l-0.11661,0.13605l-0.13941,0.23235l-0.19349,0.19349l-0.11661,0.13605l-0.13941,0.23235l-0.0811,0.08111l-0.03999,0.04663l-0.05945,0.14122l-0.33714,0.44952l-0.09415,0.0765l-0.06241,0.10405l-0.19427,0.19427l-0.0366,0.14639l-0.08736,0.1638l-0.04027,0.18122l-0.11238,0.22476l-0.06932,0.08087l-0.03582,0.1003l-0.16655,0.24982l-0.17783,0.35565l-0.04302,0.05019l-0.01926,0.06322l-0.17246,0.28745l-0.05977,0.35857l-0.0387,0.08899l-0.00322,0.09698l-0.15991,0.55965v0.10105l-0.07743,0.30974l-0.04313,0.31632l-0.16728,0.41818l-0.07284,0.36426l-0.08883,0.62172v5.6115l-0.03717,0.14865l0.00998,0.1529l-0.22476,1.23616l-0.03288,0.07267l0.00976,0.03461l-0.04812,0.05019l-0.28683,0.63406l-0.48478,0.17109l-0.35568,0.37115h-0.69592l-0.06558,0.02315l-0.02752,-0.02315h-0.07976l-0.44952,-0.11238l-0.05833,-0.0311l-0.0659,-0.00508l-0.33714,-0.11238l-0.04275,-0.02722l-0.05023,-0.00686l-0.56189,-0.22476l-0.01663,-0.01202l-0.295,-0.07374l-0.37811,-0.08404l-0.04201,-0.02099l-0.04697,-0.01174l-0.00939,-0.01645l-0.01923,-0.00962l-0.11914,-0.03971l-0.01828,0.00499l-0.04152,-0.02493l-0.04455,-0.01484l-0.32678,-0.20795l-0.19057,-0.11433l-0.04455,-0.01485l-0.32678,-0.20795l-0.33213,-0.19927l-0.03322,-0.03322l-0.04084,-0.02599l-0.0037,-0.01857l-0.37175,-0.37175l-0.13941,-0.23235l-0.17635,-0.20575l-0.33714,-0.67427l-0.01553,-0.06983l-0.04187,-0.05799l-0.15957,-0.39892l-0.35215,-0.52825l-0.09703,-0.27167l-0.13575,-0.25454l-0.16837,-0.67344l-0.33413,-0.58474l-0.03212,-0.11416l-0.06942,-0.09613l-0.22476,-0.56189l-0.04313,-0.31632l-0.07255,-0.29025l-0.03075,-0.04832l-0.18688,-0.56062l-0.0588,-0.11761l-0.04884,-0.21979l-0.0964,-0.20347l-0.11035,-0.55177l-0.46738,0.18695l-0.38681,0.1934l-0.11842,0.02633l-0.10236,0.06513l-0.49874,0.16625l-0.40321,0.24193l-0.13058,0.03974l-0.11065,0.07992l-0.54281,0.21712l-0.76776,0.32904l-0.17407,0.02808l-0.15935,0.07547l-0.52255,0.10452l-0.74912,0.18729l-0.45567,0.18228l-0.05023,0.00686l-0.04277,0.02722l-0.67427,0.22476l-0.1062,0.00816l-0.09626,0.0456l-0.45898,0.09181l-0.57472,0.19157l-0.1062,0.00818l-0.09626,0.0456l-0.41014,0.08204l-0.41821,0.16728l-0.07586,0.01034l-0.06581,0.03913l-1.12378,0.33714l-0.15384,0.00717l-0.14436,0.05363l-0.92085,0.1023l-0.92245,0.205l-0.18559,-0.00488l-0.1801,0.04502h-8.65314l-0.13668,-0.03416l-0.14045,0.01124l-1.21093,-0.20184h-0.8719l-0.06941,-0.01735l-0.0706,0.01153l-1.34854,-0.11238l-0.10978,-0.03738l-0.11591,0.00304l-1.0114,-0.22476l-0.05608,-0.02803l-0.06262,-0.0029l-0.97743,-0.29324l-0.85956,-0.0955l-0.16809,-0.06244l-0.17879,-0.01375l-1.0114,-0.33714l-0.12103,-0.07703l-0.13916,-0.03479l-1.52767,-0.81476l-0.52597,-0.15027l-0.0014,0.00031l-0.10237,0.06516l-0.41474,0.13825l-0.23069,0.17301l-0.14122,0.05945l-0.11633,0.0997l-0.44952,0.22476l-0.18122,0.04027l-0.1638,0.08736l-0.33853,0.08464l-0.45567,0.18228l-0.05023,0.00683l-0.04277,0.02722l-1.0114,0.33714l-0.27016,0.02076l-0.26287,0.06572h-0.04816l-0.00802,0.01405l-0.04695,0.01174l-0.04203,0.02099l-0.37811,0.08404l-0.37575,0.09394h-0.04695l-0.04726,0.01049l-0.01575,-0.01049h-4.83467l-0.32262,-0.08066l-0.12435,0.03391l-0.18574,-0.11144l-0.21013,-0.05252l-0.06394,-0.11193l-0.28517,-0.17109l-0.22476,-0.22476l-0.44697,-0.74497l0.01751,-0.06422l-0.04439,-0.04963l0.06664,-0.86621l0.02587,-0.07763v-1.58809l-0.13825,-0.41477l-0.02079,-0.27016l-0.06572,-0.26287v-0.05158l-0.27155,-0.5431l-0.02633,-0.11842l-0.06513,-0.10237l-0.07449,-0.22348l-0.17119,-0.34235l-0.04026,-0.18122l-0.08736,-0.1638l-0.08464,-0.3385l-0.05376,-0.13443l-0.09249,-0.09249l-0.13941,-0.23235l-0.17635,-0.20575l-0.06545,-0.13088l-0.52346,-0.78521l-0.30313,-0.30313l-1.20649,-1.09682l-0.13696,-0.20545l-0.17459,-0.17459l-0.23037,-0.38395l-0.30277,-0.30277l-0.07249,-0.12081l-0.10725,-0.09137l-0.5505,-0.77071l-0.15214,-0.20284l-0.09689,-0.06457l-0.11294,-0.12422l-0.14395,-0.08639l-0.70889,-0.70886l-0.01857,-0.0037l-0.026,-0.04084l-0.03322,-0.03322l-0.19927,-0.33213l-0.20795,-0.32678l-0.01485,-0.04455l-0.02493,-0.04152l0.00499,-0.01828l-0.0776,-0.23281l-0.00506,-0.0659l-0.0311,-0.05833l-0.06749,-0.27l-0.02962,-0.05925l-0.02633,-0.11842l-0.06513,-0.10237l-0.11238,-0.33714l-0.02079,-0.27016l-0.06572,-0.26287v-4.94464l0.04073,-0.16288l-0.00801,-0.16771l0.11238,-0.56189l0.02981,-0.06291l0.00234,-0.06958l0.15989,-0.55965v-1.44959l0.05032,-0.20131v-0.20751l0.11238,-0.44952l0.0311,-0.05833l0.00508,-0.0659l0.13825,-0.41477v-0.28834l0.01645,-0.06581l-0.02553,-0.05109l0.1277,-0.35756l0.0921,-0.36837l0.04958,-0.02834l0.02282,-0.06388l0.09954,-0.1493l0.04869,-0.14605l-0.16236,-0.16236l-0.06241,-0.10405l-0.09417,-0.0765l-0.26526,-0.35368l-0.14004,-0.14004l-0.13941,-0.23235l-0.17635,-0.20575l-0.06542,-0.13088l-0.03094,-0.04641l-0.34385,-0.28657l-0.00577,-0.00031l-0.01349,-0.01573l-0.12334,-0.10278l-0.20381,-0.27888l-0.22479,-0.26225l-0.07181,-0.14362l-0.01222,-0.01672l0.00101,-0.00569l-0.0826,-0.1652l-0.485,-0.67902l-0.03962,-0.10058l-0.06365,-0.03639l-0.08568,-0.34271l-0.12945,-0.32866l0.03066,-0.06661l-0.02621,-0.10484v-0.12961l-0.1136,-0.45437l-0.20808,-0.3468l-0.07258,-0.23847l-0.11733,-0.21997l-0.22476,-0.89903v-0.04108l-0.0176,-0.03715l-0.04697,-0.2349l-0.03978,-0.05968l-0.02282,-0.06385l-0.04958,-0.02834l-0.0921,-0.36836l-0.1277,-0.35759l0.02553,-0.05109l-0.01645,-0.06579v-0.31l-0.08943,-0.53665l0.01124,-0.14045l-0.03419,-0.13668v-0.21734l-0.20118,-1.40839l-0.10321,-0.516l0.00801,-0.16771l-0.04073,-0.16288v-3.82086l0.02943,-0.11771l-0.0125,-0.12069l0.11238,-0.78665l0.25026,-0.6143l0.00499,-0.08964l0.04846,-0.04153l0.02409,-0.05911l0.08345,-0.03306l0.50364,-0.43169l0.35114,-0.17556l0.00939,-0.01645l0.04697,-0.01174l0.04201,-0.02099l0.30194,-0.06711l0.07875,-0.05251l0.1003,-0.03582l0.08087,-0.06932l0.22476,-0.11238l0.11845,-0.02633l0.10236,-0.06513l0.56062,-0.18688l0.34237,-0.17119l0.06983,-0.0155l0.05799,-0.04187l0.49681,-0.19871l0.96719,-0.4836l0.24982,-0.16652l0.21204,-0.07572l0.18994,-0.12087l0.01819,-0.00607l0.06536,-0.08044l0.35368,-0.26526l0.17138,-0.17138l0.10242,-0.20485l0.17635,-0.20575l0.13941,-0.23235l0.3315,-0.3315l0.13218,-0.19826l0.08714,-0.07922l0.01722,-0.06885l0.13575,-0.25454l0.09703,-0.27167l0.32428,-0.48644l0.15337,-0.4601l0.14546,-0.22862l0.10514,-0.24975l0.15039,-0.20049l0.13924,-0.48736l0.11081,-0.19205l0.06457,-0.21212l0.20808,-0.3468l0.05154,-0.20617l0.06949,-0.13032l0.02545,-0.14548l0.41647,-0.93703l0.19902,-0.59707l0.09966,-0.15663l0.05405,-0.17758l0.33714,-0.56189l0.08127,-0.08127l0.0479,-0.10449l0.33795,-0.42243l0.25726,-0.51456l0.0997,-0.11633l0.05945,-0.14122l0.20338,-0.27114l0.14195,-0.35489l0.0799,-0.11065l0.03974,-0.13058l0.33714,-0.56189l0.06257,-0.06257l0.03435,-0.08157l0.32538,-0.43383l1.11239,-1.55734l0.10725,-0.09137l0.07249,-0.12081l0.67427,-0.67427l0.10405,-0.06241l0.0765,-0.09417l0.35368,-0.26526l0.3648,-0.3648l0.05668,-0.03401l0.03826,-0.05389l0.78665,-0.67427l0.14425,-0.07212l0.11645,-0.11157l0.77108,-0.44061l0.54653,-0.3279l0.13058,-0.03974l0.11067,-0.0799l0.56189,-0.22476l0.11488,-0.01569l0.10233,-0.05455l0.83621,-0.20907l0.61285,-0.20428l0.27017,-0.02079l0.26287,-0.06572h5.05702l0.10334,0.02583l0.10572,-0.01284l0.7949,0.09936h0.45695l0.26287,0.06572l0.27017,0.02079l0.61285,0.20428l0.38672,0.09667l0.01628,0.00867l0.01844,0.00038l1.23616,0.33714l0.06936,0.03889l0.079,0.00904l0.86981,0.32619l0.64467,0.21489l0.18994,0.12087l0.21204,0.07572l0.48644,0.32428l0.01863,0.00623l0.01828,-0.00499l0.04152,0.02493l0.04455,0.01485l0.32678,0.20795l0.33213,0.19927l0.03322,0.03322l0.04084,0.02599l0.0037,0.01857l0.20529,0.20529l0.61554,0.51294l0.14348,0.19635l0.17995,0.16358l0.39955,0.59933l0.44668,0.53601l0.0068,-0.02041l0.34316,-0.16257l0.3256,-0.19536l0.05511,0.01503l0.06129,-0.02903l0.25375,-0.05075l0.18145,-0.10887l0.06394,-0.11193l0.21013,-0.05252l0.18574,-0.11144l0.12435,0.03391l0.30315,-0.07578l0.04831,-0.03075l0.02389,-0.00798z" fill="#4b2567" stroke="none" stroke-width="0.5" stroke-linecap="butt"/><path d="M315.11357,169.19514c4.54891,2.88814 6.23455,8.38266 3.76496,12.27231c-2.46958,3.88964 -8.15921,4.70153 -12.70813,1.81336c-4.54891,-2.88814 -6.23453,-8.38269 -3.76495,-12.27233c2.46958,-3.88964 8.15919,-4.7015 12.70811,-1.81333z" data-paper-data="{&quot;index&quot;:null}" fill="#bd56bb" stroke="none" stroke-width="0" stroke-linecap="butt"/><path d="M315.71374,152.72312c6.26019,-1.44015 12.33337,1.73179 13.56477,7.08471c1.23141,5.35292 -2.8452,10.85979 -9.10539,12.29995c-6.26019,1.44015 -12.33337,-1.73179 -13.56477,-7.08471c-1.23141,-5.35292 2.8452,-10.85978 9.10539,-12.29993z" data-paper-data="{&quot;index&quot;:null}" fill="#bd56bb" stroke="none" stroke-width="0" stroke-linecap="butt"/><path d="M276.8913,169.88473c2.46958,3.88964 0.78398,9.38418 -3.76495,12.27233c-4.54891,2.88814 -10.23857,2.07628 -12.70815,-1.81336c-2.46958,-3.88964 -0.78395,-9.38416 3.76496,-12.27231c4.54891,-2.88814 10.23855,-2.0763 12.70813,1.81333z" fill="#bd56bb" stroke="none" stroke-width="0" stroke-linecap="butt"/><path d="M272.68842,163.89926c-1.23141,5.35292 -7.30457,8.52486 -13.56477,7.08474c-6.26019,-1.44015 -10.33683,-6.947 -9.10542,-12.29993c1.23141,-5.35292 7.30457,-8.52485 13.56477,-7.08471c6.26019,1.44015 10.33683,6.947 9.10542,12.29993z" fill="#bd56bb" stroke="none" stroke-width="0" stroke-linecap="butt"/><path d="M259.35741,147.13725c0,-15.98172 12.95572,-28.93743 28.93743,-28.93743c15.98172,0 28.93743,12.95572 28.93743,28.93743c0,15.98172 -12.95572,32.98305 -28.93743,32.98305c-15.98172,0 -28.93743,-17.00135 -28.93743,-32.98305z" fill="#f190ef" stroke="none" stroke-width="0" stroke-linecap="butt"/><path d="M265.11798,149.43572c0,-5.83411 4.72946,-10.56357 10.56357,-10.56357c5.83411,0 10.56357,4.72946 10.56357,10.56357c0,5.83411 -4.72946,10.56357 -10.56357,10.56357c-5.83411,0 -10.56357,-4.72946 -10.56357,-10.56357z" fill="#ffffff" stroke="none" stroke-width="0" stroke-linecap="butt"/><path d="M278.49102,162.47164c0,1.92401 -1.05658,3.48373 -2.35995,3.48373c-1.30336,0 -2.35995,-1.55972 -2.35995,-3.48373c0,-1.92401 2.35995,-3.48373 2.35995,-3.48373c0,0 2.35995,1.55972 2.35995,3.48373z" fill="#ffffff" stroke="none" stroke-width="0" stroke-linecap="butt"/><path d="M290.62789,149.6605c0,-5.83411 4.72946,-10.56357 10.56357,-10.56357c5.83411,0 10.56357,4.72946 10.56357,10.56357c0,5.83411 -4.72946,10.56357 -10.56357,10.56357c-5.83411,0 -10.56357,-4.72946 -10.56357,-10.56357z" fill="#ffffff" stroke="none" stroke-width="0" stroke-linecap="butt"/><path d="M304.00093,162.69639c0,1.92401 -1.05658,3.48373 -2.35995,3.48373c-1.30336,0 -2.35995,-1.55972 -2.35995,-3.48373c0,-1.92401 2.35995,-3.48373 2.35995,-3.48373c0,0 2.35995,1.55972 2.35995,3.48373z" fill="#ffffff" stroke="none" stroke-width="0" stroke-linecap="butt"/><path d="M270.2874,149.5072c0,-3.4446 2.79241,-6.23701 6.23701,-6.23701c3.4446,0 6.23701,2.79241 6.23701,6.23701c0,3.4446 -2.79241,6.23701 -6.23701,6.23701c-3.4446,0 -6.23701,-2.79241 -6.23701,-6.23701z" fill="#000000" stroke="none" stroke-width="0" stroke-linecap="butt"/><path d="M292.62595,148.2691c0,-3.4446 2.79241,-6.23701 6.23701,-6.23701c3.4446,0 6.23701,2.79241 6.23701,6.23701c0,3.4446 -2.79241,6.23701 -6.23701,6.23701c-3.4446,0 -6.23701,-2.79241 -6.23701,-6.23701z" fill="#000000" stroke="none" stroke-width="0" stroke-linecap="butt"/><path d="M290.74027,117.52028l0.30974,0.07743l0.31632,0.04313l0.26047,0.1042h0.12488l0.26287,0.06572l0.27016,0.02079l0.07763,0.02587h0.17596l0.16288,0.04073l0.16771,-0.00798l0.56189,0.11238l0.20347,0.0964l0.21979,0.04884l0.22476,0.11238l0.08089,0.06932l0.1003,0.03582l0.01643,0.01095l0.09855,0.02464l0.37811,0.08404l0.04203,0.02099l0.04695,0.01174l0.00288,0.00504l0.03607,0.00901h0.24199l0.26287,0.06572l0.27016,0.02079l0.33714,0.11238l0.04277,0.0272l0.05023,0.00686l0.45567,0.18228l0.33853,0.08464l0.11633,0.06203h0.14911l0.26287,0.06572l0.27016,0.02079l0.33714,0.11238l0.10237,0.06513l0.11842,0.02633l0.24759,0.1238l0.34053,0.0681l0.15382,0.07287l0.03053,0.00676h0.04695l0.37575,0.09394l0.37811,0.08404l0.04203,0.02099l0.04695,0.01174l0.00939,0.01645l0.06367,0.03185l0.39059,0.15622l0.33853,0.08464l0.05833,0.0311l0.0659,0.00506l0.23281,0.0776l0.01828,-0.00499l0.04152,0.0249l0.04456,0.01485l0.32678,0.20795l0.10627,0.06376l0.56652,0.14164l0.1638,0.08736l0.18122,0.04027l0.11761,0.0588l0.11914,0.03971l0.01828,-0.00499l0.04152,0.02493l0.04456,0.01485l0.32678,0.20795l0.10627,0.06376l0.11701,0.02924l0.05833,0.0311l0.0659,0.00506l0.33714,0.11238l0.10237,0.06513l0.11842,0.02633l0.61157,0.30578l0.45079,0.18033l0.29014,0.09672l0.18997,0.12087l0.21204,0.07572l0.24982,0.16652l0.13088,0.06545l0.08089,0.06932l0.1003,0.03582l0.24982,0.16652l0.24851,0.12425l0.11912,0.03971l0.01828,-0.00499l0.04152,0.02493l0.04455,0.01485l0.32678,0.20795l0.33213,0.19927l0.03322,0.03322l0.04084,0.02599l0.0037,0.01857l0.06594,0.06592l0.65435,0.32718l0.13615,0.1167l0.16302,0.07474l0.50479,0.4038l0.95054,0.6337l0.03223,0.03542l0.04415,0.01859l0.41209,0.30906l0.2982,0.19881l0.03221,0.03542l0.04415,0.01859l0.44952,0.33714l0.0765,0.09415l0.10405,0.06244l1.34854,1.34854l0.00495,0.0082l0.02962,0.00833l0.19702,0.3694l0.2154,0.359l-0.00811,0.02969l0.00156,0.0029l0.00908,0.00908l0.19927,0.33213l0.20795,0.32678l0.01484,0.04455l0.02493,0.04152l-0.00499,0.01828l0.03971,0.11914l0.44035,0.88067l0.24593,0.32792l0.05945,0.14122l0.0997,0.11633l0.38155,0.76307l0.24593,0.32792l0.05945,0.14122l0.0997,0.11633l0.17783,0.35565l0.35071,0.52609l0.40382,0.50476l0.05536,0.12077l0.09193,0.09592l0.43302,0.75777l0.54427,0.87082l0.09362,0.28861l0.12989,0.27423l0.11238,0.56189l-0.00132,0.02787l0.01112,0.02561l0.11238,0.67427l-0.00376,0.04688l0.01637,0.04409l0.11238,1.0114l-0.01272,0.09406l0.02302,0.09209v0.46675l0.17444,0.69771v0.0687l0.0274,0.063l0.11238,0.67427l-0.01121,0.14043l0.03416,0.1367v0.39498l0.19201,0.96012l-0.00798,0.16769l0.0407,0.16288v0.4645l0.06071,0.16994l0.14113,0.32459l0.02207,0.13232l0.00998,0.02793l-0.004,0.00798l0.08433,0.50604l-0.01121,0.14045l0.03416,0.13668v0.19762l0.08943,0.53665l-0.01124,0.14045l0.03416,0.13668v0.62547l0.02589,0.07763l0.02079,0.27016l0.06572,0.26287v0.17554l0.07966,0.16814l0.11238,0.56189l-0.00798,0.16769l0.0407,0.16288v0.21343l0.15991,0.55965l0.00232,0.06958l0.02981,0.06293l0.09901,0.49499l0.20601,0.72104l0.01236,0.37125l0.05248,0.09184l-0.04668,0.08172l0.01079,0.32347l-0.47181,0.48334l-0.33511,0.58643l-0.31398,0.0785l-0.06576,0.06736l-0.10271,-0.02524l-0.11449,0.02863l-0.01068,0.01112h-0.03387l-0.20131,0.05032h-0.22476l-0.20131,-0.05032h-0.20751l-0.44952,-0.11238l-0.1638,-0.08734l-0.18122,-0.04027l-0.0899,-0.04496l-0.0083,-0.00184h-0.04697l-0.37578,-0.09393l-0.37808,-0.08404l-0.04201,-0.02099l-0.04697,-0.01175l-0.00939,-0.01643l-0.06367,-0.03185l-0.49681,-0.19871l-0.05799,-0.0419l-0.06983,-0.0155l-0.89903,-0.44952l-0.20575,-0.17635l-0.23235,-0.13941l-0.07801,-0.07803l-0.26225,-0.15735l-0.01413,0.00097l-0.03062,-0.02783l-0.07693,-0.04616l-0.26158,-0.26158l-0.27373,-0.24883l-0.04976,-0.07466l-0.02924,-0.02924l0.00031,-0.01418l-0.14605,-0.21904l-0.03582,-0.1003l-0.06932,-0.08087l-0.11238,-0.22476l-0.00811,-0.03644l-0.06644,-0.01328l-0.17165,-0.26973l-0.21506,-0.23656l0.00632,-0.09146l-0.0389,-0.06116l-0.01164,-0.01164l-0.01857,-0.0037l-0.02599,-0.04084l-0.03322,-0.03322l-0.19927,-0.33213l-0.20795,-0.32678l-0.01485,-0.04455l-0.02493,-0.04152l0.00499,-0.01828l-0.06194,-0.18578l-0.07788,-0.19467l-0.09249,-0.09249l-0.00492,-0.0082l-0.02965,-0.00832l-0.19702,-0.36943l-0.2154,-0.359l0.00809,-0.02969l-0.0045,-0.00845l-0.09346,-0.37387l-0.11193,-0.18655l-0.20795,-0.32678l-0.01485,-0.04455l-0.02493,-0.04152l0.00499,-0.01828l-0.03971,-0.11914l-0.0588,-0.11759l-0.02633,-0.11842l-0.06513,-0.10237l-0.11238,-0.33714l-0.00506,-0.0659l-0.0311,-0.05833l-0.02982,-0.11926l-0.00964,-0.01286l-0.00122,-0.00034l-0.00238,-0.00447l-0.11965,-0.15954l-0.12961,-0.30784l-0.15719,-0.29472l-0.04837,-0.19348l-0.00198,-0.00466l0.00052,-0.00116l-0.01769,-0.07068l-0.25438,-0.50878l-0.04026,-0.18122l-0.08736,-0.1638l-0.09667,-0.38672l-0.1178,-0.35334l-0.04973,-0.06635l-0.00122,-0.00034l-0.00238,-0.00447l-0.11965,-0.15954l-0.12961,-0.30784l-0.15719,-0.29472l-0.04837,-0.19345l-0.00198,-0.00466l0.00052,-0.00116l-0.04365,-0.17457l-0.05207,-0.08677l-0.17635,-0.20575l-0.10242,-0.20485l-0.1437,-0.1437l-0.00492,-0.0082l-0.02965,-0.00832l-0.19702,-0.36943l-0.2154,-0.359l0.00809,-0.02969l-0.0045,-0.00845l-0.02982,-0.11928l-0.1329,-0.17717l-0.05945,-0.14122l-0.0997,-0.11633l-0.17783,-0.35563l-0.07394,-0.11091l-0.21912,-0.21912l-0.08637,-0.14398l-0.12422,-0.11294l-0.39958,-0.59936l-0.45529,-0.54635l-0.50781,-0.50781l-0.13941,-0.23235l-0.17635,-0.20575l-0.10242,-0.20485l-0.89599,-0.89599l-0.38395,-0.23037l-0.14673,-0.14674l-0.17796,-0.10675l-0.59322,-0.59322l-0.42961,-0.2148l-0.14879,-0.12754l-0.17648,-0.0852l-0.67427,-0.56189l-0.04599,-0.06293l-0.00713,-0.00427l-0.28043,-0.11217l-0.14294,-0.10325l-0.16605,-0.0593l-0.30376,-0.2025l-0.47197,-0.28319l-0.05972,-0.02984l-0.22348,-0.07449l-0.02884,-0.01834v0.44198l-0.05032,0.20134v0.2075l-0.11238,0.44952l-0.05457,0.1023l-0.01566,0.11489l-0.15709,0.39269l-0.08244,0.49453l-0.01112,0.02561l0.00132,0.0279l-0.11238,0.56189l-0.09638,0.20347l-0.04884,0.21979l-0.56189,1.12378l-0.17635,0.20575l-0.13941,0.23235l-0.21912,0.21912l-0.35694,0.53536l-0.12422,0.11294l-0.08639,0.14395l-0.17798,0.17798l-0.01803,0.05922l-0.33714,0.56189l-0.14673,0.14674l-0.10678,0.17794l-0.03134,0.03134l-0.10242,0.20485l-0.17635,0.20575l-0.13941,0.23235l-0.3648,0.3648l-0.26526,0.35368l-0.06957,0.05652l-0.01297,0.06482l-0.30821,0.19614l-0.28353,0.23036l-0.00877,-0.00107l-0.10361,0.12753l-0.03758,0.02818l-0.03151,0.03677l-0.01891,0.00103l-0.36152,0.27114l-0.04415,0.01859l-0.03221,0.03544l-0.19826,0.13216l-0.10674,0.10674l-0.14395,0.08637l-0.11294,0.12422l-1.5468,1.0312l-0.21912,0.21909l-0.23235,0.13941l-0.20575,0.17635l-0.13088,0.06545l-0.44805,0.2987l-0.21912,0.21912l-0.23235,0.13941l-0.20575,0.17635l-0.42961,0.2148l-0.03134,0.03134l-0.00823,0.00495l-0.00832,0.02962l-0.36943,0.19702l-0.359,0.2154l-0.02969,-0.00811l-0.00845,0.0045l-0.16625,0.04158l-0.43133,0.28755l-0.1003,0.03582l-0.08089,0.06932l-0.12638,0.0632l-0.00939,0.01643l-0.04695,0.01175l-0.04203,0.02099l-0.37811,0.08404l-0.37575,0.09393h-0.04695l-0.04726,0.01052l-0.01575,-0.01052h-0.05396l-0.5431,0.27155l-0.21979,0.04884l-0.20347,0.0964l-0.56189,0.11238l-0.16771,-0.00798l-0.16288,0.0407h-4.04562l-0.20131,-0.05032h-0.20751l-0.24819,-0.06203h-0.35437l-0.20131,-0.05035h-0.20751l-0.24819,-0.06203h-0.12961l-0.13668,-0.03416l-0.14045,0.01124l-0.53665,-0.08943h-0.53717l-0.01575,0.01049l-0.04726,-0.01049h-0.04697l-0.37575,-0.09394l-0.37811,-0.08404l-0.04201,-0.02099l-0.04697,-0.01174l-0.00939,-0.01645l-0.24397,-0.122l-0.22348,-0.07449l-0.18997,-0.1209l-0.21204,-0.07572l-0.24982,-0.16655l-0.56047,-0.28025l-0.02578,0.00178l-0.32266,-0.29333l-0.33109,-0.28378l-0.00144,-0.0258l-0.2124,-0.31861l-0.18289,-0.51206l-0.08035,-0.08981l0.00856,-0.11123l-0.03751,-0.10505l0.05389,-0.10779l0.03059,-0.39767l-0.82153,0.82153l-0.26526,0.35368l-0.16592,0.13483l-0.1296,0.17005l-0.56189,0.44952l-0.06782,0.03109l-0.05016,0.0552l-0.19824,0.13218l-1.11815,1.11812l-0.17794,0.10678l-0.14673,0.14674l-0.50417,0.30251l-0.73188,0.52276l-0.06392,0.02517l-0.04857,0.04857l-0.5275,0.31651l-0.64089,0.42726l-0.0387,0.01382l-0.02906,0.02906l-0.56189,0.33714l-0.21212,0.06457l-0.19205,0.11081l-0.48736,0.13924l-0.09138,0.06855l-0.00479,0.01431l-0.03883,0.01838l-0.0655,0.0491l-0.34375,0.14472l-0.33707,0.15967l-0.08026,0.01607l-0.03962,0.01668l-0.01384,-0.00601l-0.42817,0.08564l-0.16771,-0.00798l-0.16288,0.0407h-5.1694l-0.16288,-0.0407l-0.16769,0.00798l-0.39823,-0.07966h-0.06024l-0.01575,0.01049l-0.04726,-0.01049h-0.04697l-0.37578,-0.09394l-0.37808,-0.08404l-0.04201,-0.02099l-0.04697,-0.01174l-0.00939,-0.01645l-0.12638,-0.06318l-0.08087,-0.06932l-0.1003,-0.03582l-0.24982,-0.16655l-0.35563,-0.17783l-0.20572,-0.17635l-0.23237,-0.13941l-0.22476,-0.22476l-0.22759,-0.37932l-0.08817,-0.05877l0.00447,-0.08072l-0.13571,-0.22617l0.17898,-0.65618l-0.01005,-0.02007l0.02004,-0.05608l0.03648,-0.65697l0.20025,-0.17166l0.02126,-0.07797l0.10224,-0.0279l0.01331,-0.01142l-0.00065,-0.00238l0.02493,-0.04152l0.01485,-0.04455l0.20795,-0.32678l0.17075,-0.28461l0.01704,-0.08516l0.0964,-0.2035l0.04884,-0.21979l0.39593,-0.79187l0.18688,-0.56063l0.06513,-0.10237l0.02633,-0.11842l0.26707,-0.53413l0.18171,-0.63602l0.07887,-0.1367l0.03423,-0.15407l0.44952,-0.89903l0.0997,-0.11633l0.05945,-0.14122l0.10772,-0.14364l0.03739,-0.18695l0.09638,-0.20347l0.04884,-0.21979l0.0588,-0.11759l0.1664,-0.49921l0.09667,-0.38672l0.0311,-0.05833l0.00506,-0.0659l0.11238,-0.33714l0.03075,-0.04831l0.08908,-0.35628l0.08404,-0.37811l0.02099,-0.04201l0.01174,-0.04697l0.01645,-0.00939l0.0632,-0.12638l0.06932,-0.08089l0.03582,-0.1003l0.03978,-0.05968l0.01425,-0.07123v-0.28259l0.06572,-0.26287l0.02079,-0.27016l0.54142,-1.62427l0.07559,-0.30235l0.10008,-0.70056l0.03338,-0.08195v-0.08849l0.11238,-0.44952l0.08736,-0.1638l0.04026,-0.18122l0.17119,-0.34237l0.15209,-0.45628l-0.00499,-0.01828l0.02493,-0.04152l0.01485,-0.04455l0.20795,-0.32678l0.03589,-0.05985l0.03951,-0.19756l0.09638,-0.2035l0.04884,-0.21979l0.53054,-1.06106l0.12579,-0.31448l-0.0009,-0.00326l0.00661,-0.01099l0.06723,-0.16808l0.18273,-0.25301l0.00798,-0.1035l0.11238,-0.33714l0.06513,-0.10237l0.00782,-0.0351l-0.00034,-0.00119l0.00094,-0.00157l0.01791,-0.08056l0.11238,-0.22476l0.17635,-0.20575l0.13941,-0.23235l0.1437,-0.1437l0.10242,-0.20485l0.17635,-0.20575l0.13941,-0.23235l0.78665,-0.78665l0.23237,-0.13941l0.20575,-0.17635l0.20485,-0.10242l1.04274,-1.04274l0.14398,-0.08637l0.11294,-0.12422l0.53539,-0.35694l0.21912,-0.21909l0.23237,-0.13941l0.20572,-0.17635l0.31356,-0.15679l0.3279,-0.24593l0.14122,-0.05945l0.11633,-0.0997l0.31356,-0.15679l0.3279,-0.24593l0.14122,-0.05945l0.11633,-0.0997l0.39162,-0.1958l0.50638,-0.30383l0.06325,-0.01923l0.05016,-0.04302l1.12378,-0.56189l0.15407,-0.03425l0.1367,-0.07885l0.36667,-0.10476l0.02825,-0.02827l0.28514,-0.1711l0.06397,-0.11191l0.21013,-0.05252l0.18574,-0.11145l0.12435,0.03391l0.32262,-0.08066h0.0636l0.41474,-0.13825l0.15277,-0.01175l0.14188,-0.05781l0.44968,-0.06423l0.27,-0.16198l0.30131,-0.09171l0.28883,-0.12557l0.64746,-0.10791l0.46832,-0.09366l0.68582,-0.19596l0.30239,-0.1008l0.0659,-0.00506l0.05833,-0.0311l0.44952,-0.11238h0.04108l0.03715,-0.0176l0.2349,-0.04697l0.05968,-0.03978l0.06388,-0.02282l0.02831,-0.04958l0.36837,-0.0921l0.35759,-0.1277l0.05109,0.02553l0.06579,-0.01645h4.60752c0.28733,0 0.55784,0.07187 0.79459,0.19864l0.04825,0.01206l0.00805,0.01405z" fill="#4b2567" stroke="none" stroke-width="0.5" stroke-linecap="butt"/><path d="M288.22861,163.03352c0,0 -2.22612,-0.0655 -2.20812,-0.68616c0.01261,-0.43509 0.63872,0.58261 0.8719,-0.42629c0.48799,-2.11123 0.77433,-4.8436 0.77433,-4.8436" data-paper-data="{&quot;index&quot;:null}" fill="none" stroke="#000000" stroke-width="0.5" stroke-linecap="round"/><path d="M276.74915,135.62725c-3.50459,-3.50459 8.28665,-3.12866 11.3141,-4.84632c1.89571,-1.07556 5.15966,-8.67691 6.82409,-8.50806c0.20933,-0.09325 0.4412,-0.14508 0.68519,-0.14508c0.77759,0 1.43219,0.52649 1.62679,1.24246l0.24296,-0.06833l0.22094,0.21171l0.30527,0.02107l0.26065,0.52127l0.43964,0.42135v0.45798l0.05943,0.11886l-0.05943,0.16639v0.12557l-0.10265,0.41061l-0.23146,1.15723l0.45613,-0.12826l0.02313,0.02216l0.03113,-0.00764l0.56717,0.581l0.60509,0.57988v0.03999l0.01443,0.01477l-0.01416,0.42476l0.06413,0.03664l0.16672,0.66687l0.05451,0.08175l-0.01604,0.07212l0.00553,0.02211v1.0114l-0.05032,0.20134v0.2075l-0.06203,0.24819v0.35437l-0.05035,0.20131v0.2075l-0.11238,0.44952l-0.0311,0.05833l-0.00506,0.0659l-0.09193,0.27571l-0.09667,0.38672l-0.08736,0.1638l-0.04027,0.18122l-0.01142,0.02286l-0.04137,0.2068l0.00601,0.01384l-0.0167,0.03962l-0.01604,0.08026l-0.15967,0.33707l-0.14472,0.34375l-0.0491,0.06547l-0.01838,0.03886l-0.00339,0.00113l-0.0156,0.20284l-0.01556,0.04671l0.0002,0.00029l-0.01052,0.04726v0.04695l-0.09393,0.37578l-0.08404,0.37811l-0.02099,0.04201l-0.01175,0.04695l-0.01643,0.00939l-0.03185,0.06367l-0.1803,0.45079l-0.18862,0.56588l-0.09669,0.38672l-0.13575,0.25457l-0.09701,0.27167l-0.16655,0.24982l-0.29021,0.58039l-0.17635,0.20575l-0.13941,0.23235l-0.03134,0.03134l-0.10242,0.20485l-0.17635,0.20575l-0.13941,0.23235l-0.11195,0.11193l-0.00793,0.02385l0.00499,0.01828l-0.02493,0.04152l-0.01484,0.04455l-0.20795,0.32678l-0.19927,0.33213l-0.03322,0.03322l-0.02599,0.04084l-0.01857,0.0037l-2.1698,2.1698l-0.23235,0.13941l-0.20575,0.17635l-0.39162,0.1958l-0.32844,0.19705l-0.30277,0.30277l-0.00823,0.00495l-0.00832,0.02962l-0.36943,0.19702l-0.359,0.2154l-0.02969,-0.00811l-0.00848,0.00451l-0.16623,0.04156l-0.05527,0.03683l-0.41209,0.30906l-0.14122,0.05945l-0.11633,0.0997l-0.44952,0.22476l-0.11842,0.02633l-0.10237,0.06516l-0.12299,0.04099l-0.1493,0.09954l-0.16605,0.05931l-0.14294,0.10323l-0.49681,0.19871l-0.06819,0.0341l-0.24982,0.16655l-0.27167,0.09703l-0.25454,0.13575l-0.83623,0.20905l-0.22874,0.07624l-0.51588,0.20635l-0.31632,0.04313l-0.30974,0.07743h-0.12961l-0.24819,0.06206h-0.20751l-0.20131,0.05032h-5.50654l-0.26287,-0.06572l-0.27016,-0.02079l-0.07763,-0.02589h-0.4031l-0.01575,0.01052l-0.04726,-0.01052h-0.04697l-0.37578,-0.09393l-0.07785,-0.01731l-0.01405,0.00937l-0.04726,-0.01049h-0.04697l-0.37578,-0.09394l-0.37808,-0.08404l-0.04201,-0.02099l-0.04697,-0.01174l-0.00939,-0.01645l-0.24399,-0.12197l-0.56062,-0.18688l-0.18997,-0.1209l-0.21204,-0.07572l-0.33714,-0.22476l-0.03223,-0.03544l-0.04415,-0.01859l-0.44952,-0.33714l-0.0765,-0.09417l-0.10405,-0.06241l-0.67427,-0.67427l-0.13941,-0.23235l-0.13962,-0.16288l-0.16288,-0.13962l-0.23235,-0.13941l-0.0811,-0.08111l-0.13606,-0.11661l-0.23235,-0.13941l-0.14004,-0.14004l-0.35368,-0.26526l-0.0765,-0.09417l-0.10405,-0.06241l-0.12412,-0.12412l-0.02443,-0.01155l-0.00642,-0.01929l-0.06979,-0.06979l-0.44697,-0.74497l0.11034,-0.40456l-0.12434,-0.373l0.32913,-0.37788l0.13184,-0.48347l0.37935,-0.10346l0.2754,-0.3162l0.86778,-0.04131l0.09678,0.01935l0.01963,-0.00535l0.02317,0.01391l0.42229,0.08446l0.2035,0.09638l0.21979,0.04884l0.11607,0.05803c0.14317,0.01654 0.28088,0.05102 0.41082,0.10114h3.27801l0.75191,-0.25063l0.1333,-0.01027l0.1226,-0.05332l0.64746,-0.10791l0.20826,-0.04165l0.05968,-0.03978l0.1003,-0.03582l0.08089,-0.06932l0.22476,-0.11238l0.18122,-0.04027l0.1638,-0.08736l0.27,-0.06749l0.95827,-0.47914l0.11842,-0.02633l0.10237,-0.06513l0.22348,-0.07449l0.34237,-0.17119l0.11842,-0.02633l0.10236,-0.06513l0.22348,-0.0745l0.11761,-0.0588l0.11842,-0.02633l0.10236,-0.06513l0.07763,-0.02589l0.06635,-0.04973l0.00035,-0.00122l0.00445,-0.00238l0.15954,-0.11965l0.30784,-0.12961l0.29472,-0.15719l0.19348,-0.04837l0.00466,-0.00198l0.00116,0.00052l0.13924,-0.03482l0.33026,-0.13211l0.44608,-0.26764l0.23847,-0.07258l0.2144,-0.11436l0.00908,-0.00908l0.33213,-0.19927l0.32678,-0.20795l0.04455,-0.01485l0.04152,-0.02493l0.01828,0.00499l0.11914,-0.03971l0.09767,-0.04886l0.25608,-0.25608l0.14395,-0.08637l0.11294,-0.12422l0.19826,-0.13216l0.21909,-0.21912l0.23235,-0.13941l0.20575,-0.17635l0.20485,-0.10242l0.03134,-0.03134l0.10405,-0.06241l0.0765,-0.09417l0.35368,-0.26526l0.58956,-0.58956l0.23235,-0.13941l0.20575,-0.17635l0.08314,-0.04158l0.06664,-0.06059l0.08639,-0.14395l0.75536,-0.75539l0.06782,-0.07912l0.0852,-0.17651l0.53425,-0.6411l0.31122,-0.41496l0.09415,-0.0765l0.06244,-0.10405l0.03134,-0.03134l0.27362,-0.54719l0.07449,-0.22348l0.01994,-0.03134c-4.67883,4.76415 -13.24793,8.62026 -16.68225,5.18594zM289.45588,141.411l0.01221,-0.00814l0.1003,-0.03582l0.08089,-0.06932l0.06678,-0.0334l-0.00171,-0.00044l-0.10017,0.02504l-0.21017,0.12611z" fill="#8157a0" stroke="none" stroke-width="0.5" stroke-linecap="butt"/><path d="M295.51507,316.40767l-4.24931,-60.51046h20.56676l8.2045,53.65277l7.94297,9.57725z" fill="#e880e6" stroke="none" stroke-width="0" stroke-linecap="butt"/><path d="M251.60193,315.04736l9.15352,-8.09794l9.71352,-54.96211h20.56677l-4.92923,61.19035z" fill="#e880e6" stroke="none" stroke-width="0" stroke-linecap="butt"/><path d="M256.70113,282.92242l12.40805,-29.23537l21.75658,-0.33994l-1.52976,28.38552z" fill="#57399e" stroke="none" stroke-width="0" stroke-linecap="butt"/><path d="M291.94561,285.1326l-1.52973,-28.38552l21.75658,0.33994l12.40804,29.2354z" data-paper-data="{&quot;index&quot;:null}" fill="#57399e" stroke="none" stroke-width="0" stroke-linecap="butt"/><path d="M268.93919,254.02697l10.0284,-66.45951l18.01715,0.33994l17.66756,74.31956z" fill="#611772" stroke="none" stroke-width="0" stroke-linecap="butt"/><path d="M297.15473,188.16237c0,0.20485 5.81727,0.94218 5.58192,3.14161c-1.02237,9.55583 -9.94762,34.55654 -12.55619,38.35978c-4.07317,5.93863 -14.30993,-28.06309 -15.8209,-38.30952c-0.2077,-1.40857 3.41821,-2.8685 3.41821,-3.19184c0,-2.6754 4.33767,-6.37398 9.68847,-6.37398c5.3508,0 9.68846,3.6986 9.68846,6.37398z" fill="#795dbd" stroke="none" stroke-width="0" stroke-linecap="butt"/><path d="M268.88401,248.25827v-3.74593h42.51648v3.74593z" fill="#27062f" stroke="none" stroke-width="0" stroke-linecap="butt"/><path d="M310.31807,278.86271l-10.77832,-43.69789c0,0 1.47827,-1.10167 2.30825,-1.30406c0.89602,-0.21851 2.88491,0.0376 2.88491,0.0376l13.65728,42.53981z" fill="#4889c1" stroke="none" stroke-width="NaN" stroke-linecap="butt"/><path d="M304.98305,252.13555c-0.31009,-1.03239 0.27549,-2.12072 1.30788,-2.43079c1.03239,-0.31009 2.12072,0.27546 2.43079,1.30787c0.31009,1.03239 -0.27546,2.12072 -1.30787,2.43079c-1.03239,0.31009 -2.12072,-0.27546 -2.43081,-1.30787z" fill="#122e46" stroke="none" stroke-width="0" stroke-linecap="butt"/><path d="M303.54222,246.51613c-0.31009,-1.03239 0.27549,-2.12072 1.30788,-2.43081c1.03239,-0.31009 2.12072,0.27546 2.43081,1.30787c0.31009,1.03239 -0.27546,2.12072 -1.30787,2.43079c-1.03239,0.31009 -2.12073,-0.27543 -2.43084,-1.30784z" fill="#122e46" stroke="none" stroke-width="0" stroke-linecap="butt"/><path d="M302.15826,241.49722c-0.31009,-1.03239 0.27549,-2.12072 1.30788,-2.43081c1.03239,-0.31009 2.12072,0.27546 2.43079,1.30787c0.31009,1.03239 -0.27546,2.12072 -1.30787,2.43079c-1.03239,0.31009 -2.12072,-0.27546 -2.43081,-1.30787z" fill="#122e46" stroke="none" stroke-width="0" stroke-linecap="butt"/><path d="M309.3051,267.75878c-0.31009,-1.03239 0.27546,-2.12072 1.30787,-2.43079c1.03239,-0.31009 2.12072,0.27546 2.43079,1.30787c0.31009,1.03239 -0.27546,2.12072 -1.30787,2.43079c-1.03239,0.31009 -2.12072,-0.27546 -2.43081,-1.30787z" fill="#122e46" stroke="none" stroke-width="0" stroke-linecap="butt"/><path d="M307.86428,262.13935c-0.31009,-1.03239 0.27549,-2.12072 1.30788,-2.43081c1.03239,-0.31009 2.12072,0.27546 2.43079,1.30787c0.31009,1.03239 -0.27546,2.12072 -1.30787,2.43079c-1.03239,0.31009 -2.12072,-0.27546 -2.43081,-1.30787z" fill="#122e46" stroke="none" stroke-width="0" stroke-linecap="butt"/><path d="M306.48031,257.12043c-0.31009,-1.03239 0.27549,-2.12072 1.30788,-2.43081c1.03239,-0.31009 2.12072,0.27546 2.43079,1.30787c0.31009,1.03239 -0.27546,2.12072 -1.30787,2.43081c-1.03239,0.31009 -2.12072,-0.27546 -2.43081,-1.30787z" fill="#122e46" stroke="none" stroke-width="0" stroke-linecap="butt"/><path d="M299.89297,247.95111v-3.18407c0,0 0.86176,-1.21906 2.35457,-1.94098c1.08095,-0.52274 5.51036,-0.54537 6.36401,0.07729c0.89649,0.65393 1.39546,1.86368 1.39546,1.86368v3.18407c0,0 -1.26967,-1.76983 -2.93029,-2.47102c-0.50649,-0.21387 -3.39077,0.02086 -4.16514,0.39986c-1.5466,0.75696 -3.01862,2.07116 -3.01862,2.07116z" fill="#16011b" stroke="none" stroke-width="0" stroke-linecap="butt"/><path d="M318.66409,276.16405c0.2134,0.66155 -1.52895,1.81571 -3.89166,2.57787c-2.36271,0.76218 -4.45106,0.84372 -4.66447,0.18217c-0.2134,-0.66155 1.52895,-1.81571 3.89166,-2.57787c2.36271,-0.76218 4.45106,-0.84372 4.66447,-0.18217z" fill="#122e46" stroke="none" stroke-width="0" stroke-linecap="butt"/><path d="M249.58519,221.07136c0,1.68567 -1.68567,1.68567 -1.68567,1.68567l-0.47444,-0.0272c-9.34143,-1.84726 -13.38154,-15.98958 -8.34079,-23.37195c0,0 0.96668,-1.38095 2.34762,-0.4143c1.38095,0.96668 0.4143,2.34762 0.4143,2.34762c-3.71642,5.1369 -0.70206,17.02569 6.18196,18.12163l-0.12866,-0.0272c0,0 1.68567,0 1.68567,1.68567z" fill="#6f488b" stroke="none" stroke-width="0.5" stroke-linecap="butt"/><path d="M328.07723,215.72614c-0.53306,-1.59917 1.06611,-2.13222 1.06611,-2.13222l0.23309,-0.04726c6.47242,-3.54605 8.32272,-10.20529 6.61756,-16.96262c0,0 -0.40883,-1.63535 1.22652,-2.04419c1.63535,-0.40883 2.04419,1.22652 2.04419,1.22652c2.05371,8.28406 -0.49067,16.36702 -8.25098,20.72739l-0.80424,0.29853c0,0 -1.59917,0.53306 -2.13222,-1.06611z" fill="#6f488b" stroke="none" stroke-width="0.5" stroke-linecap="butt"/><path d="M301.30001,167.6c0,0 -0.79218,2.13654 -3.82616,2.56997c-1.43618,0.20517 -4.7518,1.08854 -7.64043,1.36152c-4.74337,0.44826 -9.53342,-0.93149 -9.53342,-0.93149" fill="none" stroke="#000000" stroke-width="0.5" stroke-linecap="round"/><path d="M376.82569,314.69604l11.06893,4.58245l-4.96698,3.31905l2.69218,7.72752l-8.22564,0.28335l-2.85604,6.6534l-8.63492,-8.53622c0,0 0.52571,-1.59848 1.48719,-3.28969c0.87914,-1.54638 2.1791,-3.16871 2.6149,-3.74971c1.86568,-2.48735 4.0579,-4.62204 4.79918,-5.57415c0.67977,-0.87313 2.0212,-1.416 2.0212,-1.416z" fill="#60706c" stroke="none" stroke-width="0" stroke-linecap="butt"/><path d="M366.35031,64.48584c0.86299,-0.7474 4.08709,3.37961 8.31103,8.2568c4.22394,4.87718 7.84819,8.65764 6.98521,9.40504c-0.86299,0.7474 -4.46591,-3.33862 -8.68985,-8.21579c-4.22394,-4.87718 -7.46937,-8.69865 -6.60638,-9.44604z" data-paper-data="{&quot;index&quot;:null}" fill="#bf6592" stroke="none" stroke-width="0" stroke-linecap="butt"/><path d="M351.55223,81.70109c0.34293,6.4429 0.584,11.88518 -0.55603,11.94586c-1.14003,0.06068 -1.15372,-5.17639 -1.49664,-11.61929c-0.34293,-6.4429 -0.88523,-11.65184 0.25481,-11.71251c1.14003,-0.06068 1.45494,4.94305 1.79786,11.38594z" fill="#bf6592" stroke="none" stroke-width="0" stroke-linecap="butt"/><path d="M370.67854,83.55945c2.29619,6.0296 4.1895,11.13763 3.1226,11.54393c-1.06689,0.4063 -2.68097,-4.57586 -4.97716,-10.60546c-2.29619,-6.0296 -4.40495,-10.82336 -3.33805,-11.22966c1.06689,-0.4063 2.89643,4.26159 5.19262,10.2912z" fill="#bf6592" stroke="none" stroke-width="0" stroke-linecap="butt"/><path d="M362.0488,86.91797c2.29619,6.0296 4.1895,11.13763 3.12259,11.54393c-1.06689,0.4063 -2.68097,-4.57586 -4.97716,-10.60546c-2.29619,-6.0296 -4.40495,-10.82336 -3.33806,-11.22965c1.06689,-0.4063 2.89643,4.26159 5.19262,10.2912z" fill="#bf6592" stroke="none" stroke-width="0" stroke-linecap="butt"/><path d="M365.99209,67.11355c0.968,-0.60524 3.5165,3.96993 6.93706,9.44062c3.42056,5.47069 6.4179,9.76522 5.44989,10.37047c-0.968,0.60524 -3.8971,-3.9879 -7.31767,-9.45857c-3.42056,-5.47069 -6.03729,-9.74726 -5.06928,-10.35251z" data-paper-data="{&quot;index&quot;:null}" fill="#bf6592" stroke="none" stroke-width="0" stroke-linecap="butt"/><path d="M355.00258,82.94357c1.33324,6.31277 2.41141,11.65263 1.2944,11.88854c-1.117,0.23591 -1.93884,-4.93629 -3.27208,-11.24906c-1.33324,-6.31277 -2.673,-11.37558 -1.556,-11.61149c1.117,-0.23591 2.20043,4.65924 3.53368,10.97202z" fill="#bf6592" stroke="none" stroke-width="0" stroke-linecap="butt"/><path d="M372.3996,64.63808c3.93054,9.74281 -22.52882,20.41731 -26.45937,10.6745c-3.93054,-9.7428 -1.19374,-20.03047 6.11281,-22.97816c7.30655,-2.94768 16.41602,2.56085 20.34655,12.30365z" fill="#ef88bc" stroke="none" stroke-width="0" stroke-linecap="butt"/><path d="M361.03231,67.88771c0.63133,1.56491 0.17747,3.22309 -1.01373,3.70365c-1.1912,0.48056 -2.66865,-0.39847 -3.29998,-1.96337c-0.63133,-1.5649 3.68238,-3.30519 4.31371,-1.74028z" fill="#ffffff" stroke="none" stroke-width="0" stroke-linecap="butt"/><path d="M352.02059,70.5014c-0.25829,-0.64022 0.05133,-1.3686 0.69156,-1.62688c0.64022,-0.25829 1.3686,0.05133 1.62688,0.69156c0.25829,0.64022 -0.05133,1.3686 -0.69156,1.62688c-0.64022,0.25829 -1.3686,-0.05133 -1.62688,-0.69156z" fill="#ffffff" stroke="none" stroke-width="0.5" stroke-linecap="butt"/><path d="M363.24799,65.64015c-0.25829,-0.64022 0.05133,-1.3686 0.69156,-1.62688c0.64022,-0.25829 1.3686,0.05133 1.62688,0.69156c0.25829,0.64022 -0.05133,1.3686 -0.69156,1.62688c-0.64022,0.25829 -1.3686,-0.05133 -1.62688,-0.69156z" fill="#ffffff" stroke="none" stroke-width="0.5" stroke-linecap="butt"/><path d="M80.56894,213.48586c0.86299,0.74739 -2.38244,4.56885 -6.60638,9.44603c-4.22393,4.87717 -7.82686,8.96319 -8.68985,8.21579c-0.86299,-0.7474 2.76126,-4.52785 6.98521,-9.40504c4.22394,-4.87718 7.44804,-9.00419 8.31103,-8.2568z" data-paper-data="{&quot;index&quot;:null}" fill="#bf6592" stroke="none" stroke-width="0" stroke-linecap="butt"/><path d="M95.36703,230.70109c0.34292,-6.44289 0.65783,-11.44662 1.79787,-11.38594c1.14003,0.06068 0.59773,5.26962 0.25481,11.71251c-0.34292,6.4429 -0.35661,11.67997 -1.49665,11.61929c-1.14003,-0.06068 -0.89896,-5.50296 -0.55603,-11.94586z" data-paper-data="{&quot;index&quot;:null}" fill="#bf6592" stroke="none" stroke-width="0" stroke-linecap="butt"/><path d="M76.24069,232.55946c2.2962,-6.02961 4.12572,-10.6975 5.19262,-10.2912c1.06691,0.4063 -1.04185,5.20006 -3.33804,11.22966c-2.29619,6.0296 -3.91027,11.01175 -4.97716,10.60546c-1.06689,-0.4063 0.82641,-5.51433 3.1226,-11.54393z" data-paper-data="{&quot;index&quot;:null}" fill="#bf6592" stroke="none" stroke-width="0" stroke-linecap="butt"/><path d="M84.87046,235.91798c2.29618,-6.02961 4.12572,-10.6975 5.19262,-10.2912c1.06689,0.4063 -1.04187,5.20005 -3.33806,11.22966c-2.29619,6.0296 -3.91027,11.01176 -4.97716,10.60546c-1.06691,-0.4063 0.8264,-5.51434 3.12259,-11.54393z" data-paper-data="{&quot;index&quot;:null}" fill="#bf6592" stroke="none" stroke-width="0" stroke-linecap="butt"/><path d="M80.92716,216.11356c0.96801,0.60525 -1.64872,4.88182 -5.06928,10.3525c-3.42057,5.47068 -6.34967,10.06382 -7.31767,9.45857c-0.96801,-0.60525 2.02933,-4.89979 5.44989,-10.37047c3.42056,-5.47069 5.96905,-10.04586 6.93705,-9.44062z" data-paper-data="{&quot;index&quot;:null}" fill="#bf6592" stroke="none" stroke-width="0" stroke-linecap="butt"/><path d="M91.91668,231.94359c1.33324,-6.31277 2.41667,-11.20792 3.53367,-10.97201c1.117,0.23591 -0.22276,5.29871 -1.556,11.61149c-1.33324,6.31277 -2.15508,11.48497 -3.27208,11.24906c-1.11701,-0.23591 -0.03884,-5.57577 1.2944,-11.88855z" data-paper-data="{&quot;index&quot;:null}" fill="#bf6592" stroke="none" stroke-width="0" stroke-linecap="butt"/><path d="M94.86621,201.33443c7.30655,2.94769 10.04335,13.23536 6.11281,22.97816c-3.93054,9.7428 -30.38991,-0.9317 -26.45937,-10.67451c3.93054,-9.7428 13.04001,-15.25134 20.34656,-12.30365z" data-paper-data="{&quot;index&quot;:null}" fill="#ef88bc" stroke="none" stroke-width="0" stroke-linecap="butt"/><path d="M90.20065,218.62799c-0.63133,1.5649 -2.10878,2.44394 -3.29998,1.96338c-1.19119,-0.48057 -1.64506,-2.13875 -1.01373,-3.70366c0.63133,-1.56491 4.94504,0.17538 4.31371,1.74028z" data-paper-data="{&quot;index&quot;:null}" fill="#ffffff" stroke="none" stroke-width="0" stroke-linecap="butt"/><path d="M93.27178,220.19296c-0.64022,-0.25829 -0.94984,-0.98666 -0.69155,-1.62688c0.25829,-0.64023 0.98666,-0.94984 1.62688,-0.69155c0.64022,0.25829 0.94984,0.98666 0.69155,1.62688c-0.25829,0.64023 -0.98666,0.94984 -1.62688,0.69155z" data-paper-data="{&quot;index&quot;:null}" fill="#ffffff" stroke="none" stroke-width="0.5" stroke-linecap="butt"/><path d="M82.04437,215.3317c-0.64022,-0.25829 -0.94984,-0.98666 -0.69155,-1.62688c0.25829,-0.64022 0.98666,-0.94984 1.62689,-0.69155c0.64022,0.25829 0.94984,0.98666 0.69155,1.62688c-0.25829,0.64022 -0.98666,0.94984 -1.62689,0.69155z" data-paper-data="{&quot;index&quot;:null}" fill="#ffffff" stroke="none" stroke-width="0.5" stroke-linecap="butt"/><g fill="#1c1512" stroke="none" stroke-width="0" stroke-linecap="butt"><g><g><path d="M255.99064,30.5553c0,0 1.95672,-2.43594 2.6754,-4.01595c0.94133,-2.06951 2.48708,-7.33377 2.48708,-7.33377c0,0 0.39898,5.4716 1.10189,7.71044c0.52363,1.6678 2.73841,4.52122 2.73841,4.52122z"/><path d="M259.9969,81.43224c0,0 -2.72643,2.36937 -3.56377,3.90384c-1.12403,2.05986 -2.57728,7.35001 -2.57728,7.35001c0,0 -0.49475,-5.46415 -1.01656,-7.677c-0.39839,-1.68944 -1.84517,-4.4588 -1.84517,-4.4588z" data-paper-data="{&quot;index&quot;:null}"/></g><g><path d="M232.55529,57.99691c0,0 -2.43594,-1.95672 -4.01595,-2.6754c-2.06951,-0.94133 -7.33376,-2.48708 -7.33376,-2.48708c0,0 5.4716,-0.39898 7.71044,-1.10189c1.6678,-0.52363 4.52123,-2.73841 4.52123,-2.73841z"/><path d="M283.43223,53.99065c0,0 2.36937,2.72643 3.90384,3.56376c2.05986,1.12403 7.35001,2.57728 7.35001,2.57728c0,0 -5.46415,0.49475 -7.677,1.01656c-1.68944,0.39839 -4.45881,1.84517 -4.45881,1.84517z" data-paper-data="{&quot;index&quot;:null}"/></g></g><g><g><path d="M238.58892,39.07312c0,0 -0.33885,-3.10608 -0.94791,-4.7315c-0.79775,-2.12898 -3.42712,-6.94439 -3.42712,-6.94439c0,0 4.15112,3.58689 6.23126,4.67295c1.54957,0.80905 5.13333,1.26064 5.13333,1.26064z"/><path d="M277.3972,72.2157c0,0 -0.25248,3.60327 0.24047,5.28039c0.66173,2.25136 3.37483,7.01965 3.37483,7.01965c0,0 -4.21359,-3.5139 -6.14728,-4.70964c-1.47632,-0.91292 -4.45758,-1.84811 -4.45758,-1.84811z" data-paper-data="{&quot;index&quot;:null}"/></g><g><path d="M241.42177,75.04854c0,0 -3.10608,0.33886 -4.7315,0.94792c-2.12898,0.79775 -6.94438,3.42712 -6.94438,3.42712c0,0 3.58689,-4.15112 4.67295,-6.23126c0.80905,-1.54957 1.26064,-5.13334 1.26064,-5.13334z"/><path d="M274.56434,36.24027c0,0 3.60328,0.25248 5.28039,-0.24047c2.25136,-0.66173 7.01966,-3.37483 7.01966,-3.37483c0,0 -3.5139,4.21358 -4.70964,6.14728c-0.91292,1.47632 -1.84812,4.45759 -1.84812,4.45759z" data-paper-data="{&quot;index&quot;:null}"/></g></g></g><g fill="#1c1512" stroke="none" stroke-width="0" stroke-linecap="butt"><g><g><path d="M266.06861,27.95458c0,0 3.18145,-1.83046 4.63596,-3.24162c1.90513,-1.84835 5.81228,-6.89521 5.81228,-6.89521c0,0 -1.84212,6.06131 -1.99881,8.76092c-0.11672,2.01104 1.14275,5.98811 1.14275,5.98811z"/><path d="M249.26787,84.43538c0,0 -4.00523,1.44565 -5.57202,2.75945c-2.10324,1.76364 -5.91886,6.87605 -5.91886,6.87605c0,0 1.73304,-6.09223 2.07925,-8.69016c0.26432,-1.98344 -0.18057,-5.55754 -0.18057,-5.55754z" data-paper-data="{&quot;index&quot;:null}"/></g><g><path d="M228.68827,48.00897c0,0 -1.87839,-3.10026 -3.3265,-4.51765c-1.89676,-1.85652 -7.07578,-5.66395 -7.07578,-5.66395c0,0 6.22004,1.79511 8.99035,1.9478c2.0637,0.11374 6.14494,-1.1136 6.14494,-1.1136z"/><path d="M286.64819,64.38097c0,0 1.48351,3.90303 2.83173,5.42983c1.80984,2.04958 7.05611,5.76781 7.05611,5.76781c0,0 -6.25177,-1.68882 -8.91774,-2.0262c-2.03539,-0.25758 -5.70309,0.17596 -5.70309,0.17596z" data-paper-data="{&quot;index&quot;:null}"/></g></g><g><g><path d="M243.26129,30.06069c0,0 0.9214,-3.48654 0.92592,-5.48664c0.00592,-2.61973 -0.89343,-8.88067 -0.89343,-8.88067c0,0 3.09566,5.55533 4.94377,7.5722c1.37672,1.50245 5.15317,3.44681 5.15317,3.44681z"/><path d="M272.36523,81.57539c0,0 -1.78313,3.78208 -1.93768,5.7907c-0.20747,2.69636 0.80417,8.94056 0.80417,8.94056c0,0 -3.19523,-5.50204 -4.83554,-7.57761c-1.25233,-1.58464 -4.16037,-3.80535 -4.16037,-3.80535z" data-paper-data="{&quot;index&quot;:null}"/></g><g><path d="M231.38137,69.99864c0,0 -3.57785,-0.89789 -5.63032,-0.90229c-2.68834,-0.00577 -9.11324,0.87063 -9.11324,0.87063c0,0 5.70081,-3.01665 7.77051,-4.8176c1.5418,-1.34159 3.53707,-5.02167 3.53707,-5.02167z"/><path d="M284.24514,41.63744c0,0 3.88113,1.73762 5.94235,1.88823c2.76697,0.20218 9.17469,-0.78364 9.17469,-0.78364c0,0 -5.64612,3.11368 -7.77605,4.71213c-1.62614,1.22037 -3.90502,4.0542 -3.90502,4.0542z" data-paper-data="{&quot;index&quot;:null}"/></g></g></g><path d="M227.25,56c0,-16.98275 13.76725,-30.75 30.75,-30.75c16.98275,0 30.75,13.76725 30.75,30.75c0,16.98275 -13.76725,30.75 -30.75,30.75c-16.98275,0 -30.75,-13.76725 -30.75,-30.75z" fill="#29201b" stroke="none" stroke-width="0" stroke-linecap="butt"/><path d="M263.16666,54.11112c0,-7.48653 6.06903,-13.55556 13.55556,-13.55556c7.48653,0 13.55556,6.06903 13.55556,13.55556c0,7.48653 -6.06903,13.55556 -13.55556,13.55556c-7.48653,0 -13.55556,-6.06903 -13.55556,-13.55556z" fill="#ffffff" stroke="none" stroke-width="0" stroke-linecap="butt"/><path d="M225.16666,53.33335c0,-7.48652 6.06903,-13.55556 13.55556,-13.55556c7.48652,0 13.55556,6.06904 13.55556,13.55556c0,7.48653 -6.06904,13.55555 -13.55556,13.55555c-7.48652,0 -13.55556,-6.06903 -13.55556,-13.55555z" fill="#ffffff" stroke="none" stroke-width="0" stroke-linecap="butt"/><path d="M261.05556,61.22223c0,4.35691 -2.23858,7.88889 -5,7.88889c-1.58203,0 -4.92463,-2.08292 -5.49816,-4.01702c-0.25479,-0.85924 -0.15052,-1.78863 0.42433,-2.61363c0.38978,-0.55941 1.29605,-0.95077 1.29605,-1.70268c0,-1.07674 -2.27126,-2.18706 -2.13611,-3.08131c0.14196,-0.93934 0.30865,-2.86076 0.98815,-3.51934c1.29113,-1.25137 3.56362,-0.8438 4.92574,-0.8438c2.76142,0 5,3.53198 5,7.88889z" fill="#29201b" stroke="none" stroke-width="0" stroke-linecap="butt"/><path d="M259.47895,66.26216c0.50783,0.67711 -0.16928,1.18495 -0.16928,1.18495l-0.28914,0.21669c-1.58165,1.22499 -3.09949,1.84073 -5.12949,1.60231c-3.00666,-0.35312 -5.46581,-3.78338 -4.30975,-6.776c0.17274,-0.44717 0.75471,-1.21423 1.38446,-1.70813c-0.59613,-0.31992 -1.09877,-0.74928 -1.43828,-1.49132c-1.29728,-2.83536 0.97673,-7.4619 4.39174,-7.20618c1.44985,0.10857 2.86715,1.30257 3.73206,2.33769c0,0 0.53597,0.65507 -0.1191,1.19103c-0.65507,0.53597 -1.19104,-0.1191 -1.19104,-0.1191c-0.57704,-0.72512 -1.58963,-1.62517 -2.58765,-1.72498c-2.1831,-0.21833 -3.33793,3.2199 -2.68031,4.83137c0.31277,0.76644 1.24877,0.94683 1.92917,1.20672l0.80378,0.29228c0.33469,0.1129 0.57569,0.4294 0.57569,0.80218c0,0.42483 -0.313,0.77656 -0.72097,0.83716l-0.88909,0.14818l-0.02258,-0.1355c-0.7093,0.35816 -1.39326,0.79743 -1.57934,1.32346c-1.0086,2.85126 2.06151,5.01232 4.61858,4.51799c0.81937,-0.1584 1.55805,-0.76927 2.19286,-1.26539l0.31274,-0.23472c0,0 0.67711,-0.50783 1.18495,0.16928z" fill="#160d09" stroke="none" stroke-width="0.5" stroke-linecap="butt"/><path d="M228.38889,51.50002c0,-1.19662 0.97005,-2.16667 2.16667,-2.16667c1.19662,0 2.16667,0.97005 2.16667,2.16667c0,1.19662 -0.97005,2.16667 -2.16667,2.16667c-1.19662,0 -2.16667,-0.97005 -2.16667,-2.16667z" fill="#000000" stroke="none" stroke-width="0" stroke-linecap="butt"/><path d="M283.94445,53.94446c0,-1.19662 0.97006,-2.16666 2.16667,-2.16666c1.19661,0 2.16666,0.97005 2.16666,2.16666c0,1.19662 -0.97005,2.16667 -2.16666,2.16667c-1.19662,0 -2.16667,-0.97006 -2.16667,-2.16667z" fill="#000000" stroke="none" stroke-width="0" stroke-linecap="butt"/></g></g></svg>