<svg version="1.1" xmlns="http://www.w3.org/2000/svg" xmlns:xlink="http://www.w3.org/1999/xlink" width="185.33332" height="128" viewBox="0,0,185.33332,128"><g transform="translate(-186.66667,-106.00001)"><g data-paper-data="{&quot;isPaintingLayer&quot;:true}" fill-rule="nonzero" stroke="none" stroke-linecap="butt" stroke-linejoin="miter" stroke-miterlimit="10" stroke-dasharray="" stroke-dashoffset="0" style="mix-blend-mode: normal"><path d="M249.30098,159.3974c0.10801,1.13799 -1.42586,2.21442 -3.42597,2.40425c-2.00011,0.18983 -3.70906,-0.57881 -3.81708,-1.7168c-0.10801,-1.13799 1.42584,-2.21441 3.42596,-2.40424c2.00011,-0.18983 3.70908,0.57881 3.81711,1.7168z" fill="#6348a2" stroke-width="0"/><path d="M246.50252,153.10765c1.23429,0.96275 0.86317,3.50181 -0.82893,5.67118c-1.6921,2.16937 -4.0644,3.1475 -5.29869,2.18476c-1.23429,-0.96275 -0.86317,-3.50181 0.82893,-5.67118c1.6921,-2.16937 4.0644,-3.1475 5.29869,-2.18476z" fill="#6348a2" stroke-width="0"/><path d="M235.36515,159.69818c0,-1.69249 0,-8.24534 0,-8.24534h6.957c0,0 0,6.14583 0,7.90178c0,0.87797 -2.46611,2.40489 -3.69322,2.40489c-0.89393,0 -3.26378,-1.30838 -3.26378,-2.06133z" fill="#e880e6" stroke-width="0"/><path d="M258.1697,225.26279l1.07361,-10.30667h10.5214l3.43556,3.3282l-3.66378,1.1338l1.73128,4.44898z" data-paper-data="{&quot;index&quot;:null}" fill="#e880e6" stroke-width="0"/><path d="M210.28661,224.02326l1.7313,-4.44898l-3.6638,-1.1338l3.43556,-3.3282h10.5214l1.07361,10.30667z" fill="#e880e6" stroke-width="0"/><path d="M255.27869,218.01803l-9.52577,-53.34426l5.81429,-1.1969l20.00685,51.6313z" data-paper-data="{&quot;index&quot;:null}" fill="#521060" stroke-width="0"/><path d="M209.52342,215.26431l20.00685,-51.6313l5.81429,1.1969l-9.52575,53.34428z" fill="#521060" stroke-width="0"/><path d="M224.28573,210.60506l7.66454,-50.7939l13.77021,0.25981l11.8216,50.53408z" fill="#611772" stroke-width="0"/><path d="M245.8504,160.26584c0,0.15656 4.44604,0.72009 4.26617,2.40108c-0.78138,7.30336 -7.6028,26.41099 -9.59649,29.31774c-3.11306,4.5388 -10.93684,-21.44815 -12.09165,-29.27933c-0.15874,-1.07655 2.61248,-2.19235 2.61248,-2.43947c0,-2.04476 3.31521,-4.87153 7.40474,-4.87153c4.08953,0 7.40473,2.82678 7.40473,4.87153z" fill="#795dbd" stroke-width="0"/><path d="M224.24356,206.19614v-2.86295h32.49464v2.86295z" fill="#27062f" stroke-width="0"/><path d="M255.91092,229.5866l-8.23769,-33.39757c0,0 1.12982,-0.84199 1.76416,-0.99667c0.68481,-0.167 2.20489,0.02874 2.20489,0.02874l10.43803,32.51247z" fill="#4889c1" stroke-width="NaN"/><path d="M251.83346,209.15948c-0.237,-0.78904 0.21055,-1.62083 0.99959,-1.85781c0.78904,-0.237 1.62083,0.21053 1.85781,0.99958c0.237,0.78904 -0.21053,1.62083 -0.99958,1.85781c-0.78904,0.237 -1.62083,-0.21053 -1.85783,-0.99958z" fill="#122e46" stroke-width="0"/><path d="M250.73226,204.86465c-0.237,-0.78904 0.21055,-1.62083 0.99959,-1.85783c0.78904,-0.237 1.62083,0.21053 1.85783,0.99958c0.237,0.78904 -0.21053,1.62083 -0.99958,1.85781c-0.78904,0.237 -1.62084,-0.21051 -1.85785,-0.99956z" fill="#122e46" stroke-width="0"/><path d="M249.67452,201.02878c-0.237,-0.78904 0.21055,-1.62083 0.99959,-1.85783c0.78904,-0.237 1.62083,0.21053 1.85781,0.99958c0.237,0.78904 -0.21053,1.62083 -0.99958,1.85781c-0.78904,0.237 -1.62083,-0.21053 -1.85783,-0.99958z" fill="#122e46" stroke-width="0"/><path d="M255.13672,221.10005c-0.237,-0.78904 0.21053,-1.62083 0.99958,-1.85781c0.78904,-0.237 1.62083,0.21053 1.85781,0.99958c0.237,0.78904 -0.21053,1.62083 -0.99958,1.85781c-0.78904,0.237 -1.62083,-0.21053 -1.85783,-0.99958z" fill="#122e46" stroke-width="0"/><path d="M254.03553,216.80522c-0.237,-0.78904 0.21055,-1.62083 0.99959,-1.85783c0.78904,-0.237 1.62083,0.21053 1.85781,0.99958c0.237,0.78904 -0.21053,1.62083 -0.99958,1.85781c-0.78904,0.237 -1.62083,-0.21053 -1.85783,-0.99958z" fill="#122e46" stroke-width="0"/><path d="M252.97778,212.96934c-0.237,-0.78904 0.21055,-1.62083 0.99959,-1.85783c0.78904,-0.237 1.62083,0.21053 1.85781,0.99958c0.237,0.78904 -0.21053,1.62083 -0.99958,1.85783c-0.78904,0.237 -1.62083,-0.21053 -1.85783,-0.99958z" fill="#122e46" stroke-width="0"/><path d="M247.94319,205.96138v-2.43353c0,0 0.65863,-0.93171 1.79956,-1.48346c0.82615,-0.39952 4.21148,-0.41682 4.86391,0.05907c0.68517,0.49979 1.06653,1.42438 1.06653,1.42438v2.43353c0,0 -0.97039,-1.35265 -2.23957,-1.88856c-0.3871,-0.16346 -2.59151,0.01594 -3.18335,0.30561c-1.18204,0.57853 -2.30708,1.58295 -2.30708,1.58295z" fill="#16011b" stroke-width="0"/><path d="M262.28965,227.52406c0.1631,0.50561 -1.16855,1.38772 -2.97433,1.97022c-1.80578,0.58252 -3.40187,0.64484 -3.56498,0.13923c-0.1631,-0.50561 1.16855,-1.38772 2.97433,-1.97022c1.80578,-0.58252 3.40187,-0.64484 3.56498,-0.13923z" fill="#122e46" stroke-width="0"/><path d="M186.66668,233.66667v-127.66666h92.33334v127.66667z" fill="none" stroke-width="0"/><path d="M342.30097,159.73074c0.10801,1.13799 -1.42586,2.21442 -3.42597,2.40425c-2.00011,0.18983 -3.70906,-0.57881 -3.81708,-1.7168c-0.10801,-1.13799 1.42584,-2.21441 3.42596,-2.40424c2.00011,-0.18983 3.70908,0.57881 3.81711,1.7168z" fill="#6348a2" stroke-width="0"/><path d="M339.50251,153.44099c1.23429,0.96275 0.86317,3.50181 -0.82893,5.67118c-1.6921,2.16937 -4.0644,3.1475 -5.29869,2.18476c-1.23429,-0.96275 -0.86317,-3.50181 0.82893,-5.67118c1.6921,-2.16937 4.0644,-3.1475 5.29869,-2.18476z" fill="#6348a2" stroke-width="0"/><path d="M328.36514,160.03152c0,-1.69249 0,-8.24534 0,-8.24534h6.957c0,0 0,6.14583 0,7.90178c0,0.87797 -2.46611,2.40489 -3.69322,2.40489c-0.89393,0 -3.26378,-1.30838 -3.26378,-2.06133z" fill="#e880e6" stroke-width="0"/><path d="M369.90497,120.14922l-7.23229,7.42119l-8.25529,-6.52304l-0.63219,-4.74134l3.5776,1.38186l1.39988,-4.56411z" data-paper-data="{&quot;index&quot;:null}" fill="#e880e6" stroke-width="0"/><path d="M288.87155,121.5671l2.80197,3.8652l2.93764,-2.4656l0.9367,4.69069l-5.69915,8.84418l-9.24523,-4.68037z" fill="#e880e6" stroke-width="0"/><path d="M367.68171,127.62596l-25.5982,47.76068l-5.30405,-2.66562l16.31255,-52.91471z" data-paper-data="{&quot;index&quot;:null}" fill="#521060" stroke-width="0"/><path d="M296.64763,125.67005l32.56359,44.7848l-4.15554,4.23911l-39.68082,-36.90236z" fill="#521060" stroke-width="0"/><path d="M317.28572,210.9384l7.66454,-50.7939l13.77021,0.25981l11.8216,50.53408z" fill="#611772" stroke-width="0"/><path d="M338.85039,160.59918c0,0.15656 4.44604,0.72009 4.26617,2.40108c-0.78138,7.30336 -7.6028,26.41099 -9.59649,29.31774c-3.11306,4.5388 -10.93684,-21.44815 -12.09165,-29.27933c-0.15874,-1.07655 2.61248,-2.19235 2.61248,-2.43947c0,-2.04476 3.31521,-4.87153 7.40474,-4.87153c4.08953,0 7.40473,2.82678 7.40473,4.87153z" fill="#795dbd" stroke-width="0"/><path d="M317.24355,206.52948v-2.86295h32.49464v2.86295z" fill="#27062f" stroke-width="0"/><path d="M348.91091,229.91994l-8.23769,-33.39757c0,0 1.12982,-0.84199 1.76416,-0.99667c0.68481,-0.167 2.20489,0.02874 2.20489,0.02874l10.43803,32.51247z" fill="#4889c1" stroke-width="NaN"/><path d="M344.83345,209.49282c-0.237,-0.78904 0.21055,-1.62083 0.99959,-1.85781c0.78904,-0.237 1.62083,0.21053 1.85781,0.99958c0.237,0.78904 -0.21053,1.62083 -0.99958,1.85781c-0.78904,0.237 -1.62083,-0.21053 -1.85783,-0.99958z" fill="#122e46" stroke-width="0"/><path d="M343.73225,205.19799c-0.237,-0.78904 0.21055,-1.62083 0.99959,-1.85783c0.78904,-0.237 1.62083,0.21053 1.85783,0.99958c0.237,0.78904 -0.21053,1.62083 -0.99958,1.85781c-0.78904,0.237 -1.62084,-0.21051 -1.85785,-0.99956z" fill="#122e46" stroke-width="0"/><path d="M342.67451,201.36212c-0.237,-0.78904 0.21055,-1.62083 0.99959,-1.85783c0.78904,-0.237 1.62083,0.21053 1.85781,0.99958c0.237,0.78904 -0.21053,1.62083 -0.99958,1.85781c-0.78904,0.237 -1.62083,-0.21053 -1.85783,-0.99958z" fill="#122e46" stroke-width="0"/><path d="M348.13671,221.43339c-0.237,-0.78904 0.21053,-1.62083 0.99958,-1.85781c0.78904,-0.237 1.62083,0.21053 1.85781,0.99958c0.237,0.78904 -0.21053,1.62083 -0.99958,1.85781c-0.78904,0.237 -1.62083,-0.21053 -1.85783,-0.99958z" fill="#122e46" stroke-width="0"/><path d="M347.03552,217.13856c-0.237,-0.78904 0.21055,-1.62083 0.99959,-1.85783c0.78904,-0.237 1.62083,0.21053 1.85781,0.99958c0.237,0.78904 -0.21053,1.62083 -0.99958,1.85781c-0.78904,0.237 -1.62083,-0.21053 -1.85783,-0.99958z" fill="#122e46" stroke-width="0"/><path d="M345.97777,213.30268c-0.237,-0.78904 0.21055,-1.62083 0.99959,-1.85783c0.78904,-0.237 1.62083,0.21053 1.85781,0.99958c0.237,0.78904 -0.21053,1.62083 -0.99958,1.85783c-0.78904,0.237 -1.62083,-0.21053 -1.85783,-0.99958z" fill="#122e46" stroke-width="0"/><path d="M340.94318,206.29472v-2.43353c0,0 0.65863,-0.93171 1.79956,-1.48346c0.82615,-0.39952 4.21148,-0.41682 4.86391,0.05907c0.68517,0.49979 1.06653,1.42438 1.06653,1.42438v2.43353c0,0 -0.97039,-1.35265 -2.23957,-1.88856c-0.3871,-0.16346 -2.59151,0.01594 -3.18335,0.30561c-1.18204,0.57853 -2.30708,1.58295 -2.30708,1.58295z" fill="#16011b" stroke-width="0"/><path d="M355.28964,227.8574c0.1631,0.50561 -1.16855,1.38772 -2.97433,1.97022c-1.80578,0.58252 -3.40187,0.64484 -3.56498,0.13923c-0.1631,-0.50561 1.16855,-1.38772 2.97433,-1.97022c1.80578,-0.58252 3.40187,-0.64484 3.56498,-0.13923z" fill="#122e46" stroke-width="0"/><path d="M279.66667,234.00001v-127.66667h92.33333v127.66667z" fill="none" stroke-width="0"/></g></g></svg>