<svg version="1.1" xmlns="http://www.w3.org/2000/svg" xmlns:xlink="http://www.w3.org/1999/xlink" width="92.33334" height="127.66667" viewBox="0,0,92.33334,127.66667"><g transform="translate(-186.66666,-106)"><g data-paper-data="{&quot;isPaintingLayer&quot;:true}" fill-rule="nonzero" stroke="none" stroke-linecap="butt" stroke-linejoin="miter" stroke-miterlimit="10" stroke-dasharray="" stroke-dashoffset="0" style="mix-blend-mode: normal"><path d="M249.30097,159.3974c0.10801,1.13799 -1.42586,2.21442 -3.42597,2.40425c-2.00011,0.18983 -3.70906,-0.57881 -3.81708,-1.7168c-0.10801,-1.13799 1.42584,-2.21441 3.42596,-2.40424c2.00011,-0.18983 3.70908,0.57881 3.81711,1.7168z" fill="#6348a2" stroke-width="0"/><path d="M246.50251,153.10765c1.23429,0.96275 0.86317,3.50181 -0.82893,5.67118c-1.6921,2.16937 -4.0644,3.1475 -5.29869,2.18476c-1.23429,-0.96275 -0.86317,-3.50181 0.82893,-5.67118c1.6921,-2.16937 4.0644,-3.1475 5.29869,-2.18476z" fill="#6348a2" stroke-width="0"/><path d="M235.36514,159.69818c0,-1.69249 0,-8.24534 0,-8.24534h6.957c0,0 0,6.14583 0,7.90178c0,0.87797 -2.46611,2.40489 -3.69322,2.40489c-0.89393,0 -3.26378,-1.30838 -3.26378,-2.06133z" fill="#e880e6" stroke-width="0"/><path d="M258.16969,225.26279l1.07361,-10.30667h10.5214l3.43556,3.3282l-3.66378,1.1338l1.73128,4.44898z" data-paper-data="{&quot;index&quot;:null}" fill="#e880e6" stroke-width="0"/><path d="M210.2866,224.02326l1.7313,-4.44898l-3.6638,-1.1338l3.43556,-3.3282h10.5214l1.07361,10.30667z" fill="#e880e6" stroke-width="0"/><path d="M255.27868,218.01803l-9.52577,-53.34426l5.81429,-1.1969l20.00685,51.6313z" data-paper-data="{&quot;index&quot;:null}" fill="#521060" stroke-width="0"/><path d="M209.52341,215.26431l20.00685,-51.6313l5.81429,1.1969l-9.52575,53.34428z" fill="#521060" stroke-width="0"/><path d="M224.28572,210.60506l7.66454,-50.7939l13.77021,0.25981l11.8216,50.53408z" fill="#611772" stroke-width="0"/><path d="M245.85039,160.26584c0,0.15656 4.44604,0.72009 4.26617,2.40108c-0.78138,7.30336 -7.6028,26.41099 -9.59649,29.31774c-3.11306,4.5388 -10.93684,-21.44815 -12.09165,-29.27933c-0.15874,-1.07655 2.61248,-2.19235 2.61248,-2.43947c0,-2.04476 3.31521,-4.87153 7.40474,-4.87153c4.08953,0 7.40473,2.82678 7.40473,4.87153z" fill="#795dbd" stroke-width="0"/><path d="M224.24355,206.19614v-2.86295h32.49464v2.86295z" fill="#27062f" stroke-width="0"/><path d="M255.91091,229.5866l-8.23769,-33.39757c0,0 1.12982,-0.84199 1.76416,-0.99667c0.68481,-0.167 2.20489,0.02874 2.20489,0.02874l10.43803,32.51247z" fill="#4889c1" stroke-width="NaN"/><path d="M251.83345,209.15948c-0.237,-0.78904 0.21055,-1.62083 0.99959,-1.85781c0.78904,-0.237 1.62083,0.21053 1.85781,0.99958c0.237,0.78904 -0.21053,1.62083 -0.99958,1.85781c-0.78904,0.237 -1.62083,-0.21053 -1.85783,-0.99958z" fill="#122e46" stroke-width="0"/><path d="M250.73225,204.86465c-0.237,-0.78904 0.21055,-1.62083 0.99959,-1.85783c0.78904,-0.237 1.62083,0.21053 1.85783,0.99958c0.237,0.78904 -0.21053,1.62083 -0.99958,1.85781c-0.78904,0.237 -1.62084,-0.21051 -1.85785,-0.99956z" fill="#122e46" stroke-width="0"/><path d="M249.67451,201.02878c-0.237,-0.78904 0.21055,-1.62083 0.99959,-1.85783c0.78904,-0.237 1.62083,0.21053 1.85781,0.99958c0.237,0.78904 -0.21053,1.62083 -0.99958,1.85781c-0.78904,0.237 -1.62083,-0.21053 -1.85783,-0.99958z" fill="#122e46" stroke-width="0"/><path d="M255.13671,221.10005c-0.237,-0.78904 0.21053,-1.62083 0.99958,-1.85781c0.78904,-0.237 1.62083,0.21053 1.85781,0.99958c0.237,0.78904 -0.21053,1.62083 -0.99958,1.85781c-0.78904,0.237 -1.62083,-0.21053 -1.85783,-0.99958z" fill="#122e46" stroke-width="0"/><path d="M254.03552,216.80522c-0.237,-0.78904 0.21055,-1.62083 0.99959,-1.85783c0.78904,-0.237 1.62083,0.21053 1.85781,0.99958c0.237,0.78904 -0.21053,1.62083 -0.99958,1.85781c-0.78904,0.237 -1.62083,-0.21053 -1.85783,-0.99958z" fill="#122e46" stroke-width="0"/><path d="M252.97777,212.96934c-0.237,-0.78904 0.21055,-1.62083 0.99959,-1.85783c0.78904,-0.237 1.62083,0.21053 1.85781,0.99958c0.237,0.78904 -0.21053,1.62083 -0.99958,1.85783c-0.78904,0.237 -1.62083,-0.21053 -1.85783,-0.99958z" fill="#122e46" stroke-width="0"/><path d="M247.94318,205.96138v-2.43353c0,0 0.65863,-0.93171 1.79956,-1.48346c0.82615,-0.39952 4.21148,-0.41682 4.86391,0.05907c0.68517,0.49979 1.06653,1.42438 1.06653,1.42438v2.43353c0,0 -0.97039,-1.35265 -2.23957,-1.88856c-0.3871,-0.16346 -2.59151,0.01594 -3.18335,0.30561c-1.18204,0.57853 -2.30708,1.58295 -2.30708,1.58295z" fill="#16011b" stroke-width="0"/><path d="M262.28964,227.52406c0.1631,0.50561 -1.16855,1.38772 -2.97433,1.97022c-1.80578,0.58252 -3.40187,0.64484 -3.56498,0.13923c-0.1631,-0.50561 1.16855,-1.38772 2.97433,-1.97022c1.80578,-0.58252 3.40187,-0.64484 3.56498,-0.13923z" fill="#122e46" stroke-width="0"/><path d="M186.66667,233.66667v-127.66666h92.33334v127.66667z" fill="none" stroke-width="0"/></g></g></svg>