<svg version="1.1" xmlns="http://www.w3.org/2000/svg" xmlns:xlink="http://www.w3.org/1999/xlink" width="264.49731" height="463.27883" viewBox="0,0,264.49731,463.27883"><g transform="translate(-107.75134,51.63941)"><g data-paper-data="{&quot;isPaintingLayer&quot;:true}" fill-rule="nonzero" stroke-linejoin="miter" stroke-miterlimit="10" stroke-dasharray="" stroke-dashoffset="0" style="mix-blend-mode: normal"><path d="M263.71557,22.43624c-2.63677,-2.63677 0,-5.27355 0,-5.27355l-0.12675,0.25233c0.28776,-0.44991 0.58125,-0.88942 0.88048,-1.3191c-2.69556,-38.01913 52.29413,-39.80648 72.86382,-19.28915c12.94184,20.30205 5.82351,50.19409 -3.72597,70.83557c-5.90007,12.75318 -16.11416,22.56567 -20.76677,36.28257c-0.72155,9.37654 -4.35831,26.12457 7.04822,31.0321c5.45691,2.34774 15.38029,2.53477 21.29063,1.62353c2.13103,-0.32854 10.31849,-3.60446 11.83577,-2.83307c11.77334,5.98551 2.92167,21.20455 -3.20824,26.61269c-1.23895,0.93686 -2.57009,1.76848 -3.96195,2.48673c4.73666,2.8355 7.8496,11.32375 3.10095,16.37362c-18.12048,19.26982 -53.25736,3.55288 -63.71585,-15.42005c-14.98815,-30.20369 -0.75226,-69.87874 16.5874,-95.8737c7.60664,-13.01628 12.48368,-31.91703 10.18266,-47.20342c-1.69328,-11.24913 -11.39154,-20.18002 -22.62434,-14.76896c-7.90896,3.93818 -14.73993,7.95055 -19.4948,15.46454l-0.89168,1.01727c0,0 -2.63677,2.63677 -5.27355,0z" data-paper-data="{&quot;index&quot;:null}" fill="#4b2567" stroke="none" stroke-width="0.5" stroke-linecap="butt"/><path d="M269.78986,307.146l3.10746,-29.83167h30.45319l9.9439,9.63316l-10.60452,3.28168l5.01108,12.87715z" data-paper-data="{&quot;index&quot;:null}" fill="#e880e6" stroke="none" stroke-width="0" stroke-linecap="butt"/><path d="M262.7445,286.17673l-27.57137,-154.39991l16.82891,-3.46431l57.90791,149.44186z" data-paper-data="{&quot;index&quot;:null}" fill="#521060" stroke="none" stroke-width="0" stroke-linecap="butt"/><path d="M207.96317,113.80176c0.31268,-3.2938 5.25913,-5.51856 11.04826,-4.96911c5.78916,0.54944 10.22874,3.66504 9.91611,6.95884c-0.31265,3.2938 -5.25905,5.51856 -11.04817,4.96911c-5.78913,-0.54944 -10.22877,-3.66507 -9.91614,-6.95887z" data-paper-data="{&quot;index&quot;:null}" fill="#6348a2" stroke="none" stroke-width="0" stroke-linecap="butt"/><path d="M231.39965,101.92023c4.89762,6.27903 5.97179,13.6281 2.39926,16.41469c-3.57253,2.78656 -10.43893,-0.04454 -15.33655,-6.32358c-4.89762,-6.27903 -5.97179,-13.6281 -2.39926,-16.41469c3.57253,-2.78656 10.43893,0.04454 15.33655,6.32358z" data-paper-data="{&quot;index&quot;:null}" fill="#6348a2" stroke="none" stroke-width="0" stroke-linecap="butt"/><path d="M238.85245,120.63863c-3.55175,0 -10.68967,-4.41952 -10.68967,-6.96072c0,-5.08243 0,-22.87095 0,-22.87095h20.13637c0,0 0,18.9666 0,23.86535c0,2.17934 -6.8593,5.96632 -9.4467,5.96632z" data-paper-data="{&quot;index&quot;:null}" fill="#e880e6" stroke="none" stroke-width="0" stroke-linecap="butt"/><path d="M239.48184,-43.26217l0.05285,0.01766l0.10686,0.06802l0.6706,0.16764l0.27508,-0.07502l0.41089,0.24652l0.46484,0.11618l0.14145,0.24762l0.4014,0.24084l0.56134,0.11227l0.13557,0.06423l0.12191,-0.03326l0.72027,0.43216l0.75912,0.35963l0.01505,0.04515l0.98812,-1.18572l0.88386,-1.32581l0.39807,-0.36186l0.3174,-0.43436l1.36167,-1.13469l0.45413,-0.45413l0.00819,-0.04107l0.09033,-0.05748l0.07349,-0.07349l0.73472,-0.44082l0.72288,-0.46001l0.09855,-0.03285l0.09184,-0.05514l0.04043,0.01103l0.04122,-0.01378l1.07608,-0.71735l0.46907,-0.1675l0.42018,-0.26739l1.4261,-0.47538l1.92414,-0.72157l0.17476,-0.02l0.15343,-0.08602l2.73458,-0.7458l0.04078,-0.00084l0.03601,-0.01919l0.85547,-0.21384l1.35571,-0.4519l0.59767,-0.04599l0.58151,-0.14539h1.01084l1.75844,-0.2198l0.23387,0.02839l0.2286,-0.05714h11.18687l0.58151,0.14539l0.59767,0.04599l1.35571,0.4519l1.84981,0.4625l0.22637,0.12067l0.25413,0.0347l1.24297,0.4972l0.24481,0.17676l0.28886,0.0879l1.20899,0.72537l1.70573,0.97469l0.2576,0.24681l0.31911,0.15954l1.74017,1.49157l0.08463,0.11922l0.12539,0.07523l0.80699,0.80699l0.78239,0.58678l0.16924,0.20831l0.23016,0.13806l1.49157,1.49157l0.16035,0.26724l0.23725,0.20212l2.46076,3.44506l0.71978,0.9597l0.07598,0.18044l0.13841,0.13841l0.7458,1.24297l0.0879,0.28886l0.17676,0.24478l0.31401,0.78508l0.44991,0.59981l0.13152,0.31239l0.22055,0.25734l0.5691,1.13828l0.7476,0.93449l0.10596,0.23115l0.17977,0.17977l0.7458,1.24297l0.11957,0.39283l0.22047,0.34649l0.44027,1.3208l0.92129,2.07286l0.0563,0.32183l0.15372,0.28828l0.11401,0.45607l0.4603,0.76716l0.14284,0.46924l0.24513,0.42484l0.30802,1.07811l0.33268,0.44351l0.23259,0.55248l0.32177,0.50574l0.33928,1.01782l0.71735,1.07608l0.21465,0.60097l0.30029,0.56308l0.03809,0.1523l0.19277,0.17526l0.29239,0.43859l0.73333,0.73333l0.3084,0.51399l0.39011,0.45515l0.22657,0.45315l0.37911,0.37911l0.78239,0.58678l0.14458,0.17795l0.04023,0.01343l0.42018,0.26739l0.46907,0.1675l0.55263,0.36837l2.13957,1.0698l1.09901,0.43957l0.12828,0.09262l0.15447,0.0343l0.75738,0.3787l1.24017,0.41341l0.22643,0.14408l0.26203,0.05824l0.4972,0.2486l0.1789,0.15335l0.22189,0.07925l0.17421,0.11615l0.66794,0.14845l0.09294,0.04643l0.10391,0.02596l0.02078,0.03638l0.77677,0.38837l1.11411,0.95495l0.18461,0.07314l0.05329,0.13077l0.10721,0.09187l0.01103,0.1983l0.55361,1.35892l0.2486,1.74017l-0.02764,0.26698l0.0651,0.26038v8.4523l-0.0901,0.36032l0.01771,0.371l-0.22831,1.14147l-0.44504,3.11557v0.48079l-0.07563,0.30235l0.02486,0.31069l-0.19783,1.18714v0.68577l-0.03638,0.14553l0.05647,0.11303l-0.28249,0.79104l-0.20374,0.81486l-0.10967,0.06269l-0.05048,0.14125l-0.08799,0.13201l-0.10391,0.51963l-0.03893,0.08217v0.09088l-0.4972,1.98877l-0.25954,0.48661l-0.16055,0.52753l-0.4603,0.76716l-0.25129,1.00514v0.28672l-0.05797,0.23193l0.06782,0.14735l-0.28637,0.72705l-0.18953,0.75813l-0.14081,0.08049l-0.08764,0.22249l-1.0729,1.50208l-0.18272,0.36545l0.00223,0.01259l-0.02703,0.03699l-0.15884,0.31772l-0.49726,0.58013l-0.45086,0.61691l-0.27286,0.22736l-0.02984,0.03479l-0.01276,0.00069l-0.76065,0.63393l-0.06845,0.10266l-0.14472,0.28953l-0.39011,0.45515l-0.3084,0.51399l-0.30979,0.30979l-0.58678,0.78239l-0.20831,0.16924l-0.13806,0.23016l-0.35917,0.35917l0.1077,0.32307l0.22021,0.33028l0.05048,0.1413l0.10967,0.06269l0.20374,0.81489l0.28249,0.79098l-0.05647,0.11303l0.03638,0.14559v0.63784l0.30582,0.91753l0.01123,0.14579l0.0688,0.12903l0.2486,0.9944v0.45905l0.11132,0.44533v3.20671l0.3537,1.23802l0.00518,0.15392l0.06593,0.13916l0.2486,1.24297l-0.01771,0.371l0.0901,0.36032v10.93827l-0.14539,0.58151l-0.04599,0.59764l-0.2486,0.7458l-0.14408,0.22646l-0.05824,0.26197l-0.06553,0.13106l-0.14929,0.59729l-0.0688,0.12903l-0.0112,0.14579l-0.17167,0.515l0.01103,0.04043l-0.05514,0.09184l-0.03285,0.09855l-0.46001,0.72288l-0.44082,0.73472l-0.07349,0.07349l-0.05751,0.09033l-0.04107,0.00819l-1.56816,1.5681l-0.31844,0.19112l-0.24984,0.27479l-0.21433,0.14284l-0.33656,0.44872l-1.21779,1.70492l-0.23725,0.20212l-0.16035,0.26724l-0.66977,0.66977l-0.50962,0.84936l-0.38623,0.38623l-0.30299,0.45448l-2.66893,2.42632l-0.67058,0.67058l-1.15796,1.73699l-0.14478,0.28953l-0.39011,0.45515l-0.3084,0.51399l-0.20461,0.20461l-0.11893,0.29737l-0.18724,0.74881l-0.19326,0.36235l-0.08906,0.40087l-0.3787,0.75732l-0.16478,0.49436l-0.14408,0.22646l-0.05824,0.26197l-0.6007,1.20141v0.1141l-0.14539,0.58151l-0.04599,0.59764l-0.30582,0.91753v3.51308l0.05722,0.17173l0.14741,1.91618l-0.09821,0.10978l0.03873,0.14206l-0.98876,1.64799l-0.4972,0.4972l-0.63084,0.37847l-0.14145,0.24762l-0.46484,0.11618l-0.41089,0.24652l-0.27508,-0.07502l-0.71367,0.17844h-10.695l-0.03485,0.02321l-0.10455,-0.02321h-0.10385l-0.83122,-0.20782l-0.83642,-0.18591l-0.09297,-0.04643l-0.10385,-0.02596l-0.01774,-0.03109h-0.10654l-0.58151,-0.14539l-0.59764,-0.04593l-2.23737,-0.7458l-0.09462,-0.0602l-0.11112,-0.01511l-1.00801,-0.40322l-0.74887,-0.18724l-0.36235,-0.19326l-0.40087,-0.08909l-0.9944,-0.4972l-0.25734,-0.22055l-0.31239,-0.13152l-0.51031,-0.38273l-0.91747,-0.30582l-0.22646,-0.14414l-0.0031,-0.00069l-1.16352,0.33242l-3.37942,1.80237l-0.30785,0.07696l-0.26773,0.17039l-2.23737,0.7458l-0.39552,0.03042l-0.37184,0.13812l-1.90148,0.21126l-2.16221,0.64869l-0.13853,0.00643l-0.12405,0.062l-2.23737,0.4972l-0.25642,-0.00672l-0.24284,0.08269l-2.98318,0.2486l-0.15618,-0.0255l-0.15355,0.03838h-1.92877l-2.67874,0.44649l-0.31069,-0.02486l-0.30235,0.07557h-19.142l-0.39841,-0.0996l-0.41054,0.0108l-2.04058,-0.4535l-2.03705,-0.22631l-0.31934,-0.11864l-0.34032,-0.01586l-2.48597,-0.7458l-0.14559,-0.08657l-0.16782,-0.02287l-0.92514,-0.37005l-0.90728,-0.18148l-0.21294,-0.10087l-0.23494,-0.01809l-1.27137,-0.42377l-1.01533,-0.2031l-0.21294,-0.10087l-0.23494,-0.01806l-1.49157,-0.4972l-0.09462,-0.0602l-0.11112,-0.01517l-1.00801,-0.40322l-1.65716,-0.41431l-1.15597,-0.23121l-0.35251,-0.16695l-0.38507,-0.06211l-1.69841,-0.72788l-1.20077,-0.4803l-0.24478,-0.17679l-0.28886,-0.0879l-0.89197,-0.53518l-1.10329,-0.36776l-0.22643,-0.14408l-0.26197,-0.05824l-0.85567,-0.42782l-1.03391,-0.41355l-0.24411,1.2206l-0.21326,0.45011l-0.10805,0.4862l-0.13007,0.26018l-0.41341,1.24017l-0.06802,0.10689l-0.16049,0.64207l-0.0954,0.69975l-0.4972,1.24297l-0.15358,0.21265l-0.07106,0.25254l-0.73914,1.29354l-0.37245,1.48975l-0.30029,0.56308l-0.21465,0.60097l-0.779,1.16856l-0.353,0.88247l-0.09262,0.12828l-0.03436,0.15447l-0.7458,1.49157l-0.39011,0.45515l-0.3084,0.51399l-0.82236,0.82236l-0.00819,0.04107l-0.09033,0.05748l-0.07349,0.07349l-0.73472,0.44082l-0.72288,0.46001l-0.09855,0.03285l-0.42157,0.25291l-0.72288,0.46001l-0.09855,0.03282l-0.09184,0.05514l-0.04043,-0.01103l-0.26356,0.08785l-0.04255,0.02127l-0.02078,0.03638l-0.10391,0.02596l-0.09294,0.04643l-0.83642,0.18591l-0.65257,0.16313l-0.03679,0.0266l-1.24297,0.4972l-0.11112,0.01517l-0.09456,0.0602l-0.7458,0.2486l-0.14579,0.01123l-0.12903,0.0688l-0.9944,0.2486h-0.17644l-0.06087,0.0512l-0.14507,-0.0512h-1.53948l-0.78681,-0.82103l-1.07241,-0.37847l-0.63451,-1.40263l-0.10646,-0.11103l0.02159,-0.07656l-0.07274,-0.16076l-0.4972,-2.73458l0.02208,-0.33824l-0.08223,-0.32883v-12.41346l-0.1965,-1.37533l-0.16113,-0.8058l-0.37005,-0.92508l-0.0954,-0.69975l-0.17129,-0.68519v-0.22353l-0.35375,-1.23802l-0.00712,-0.21453l-0.08562,-0.19685l-0.13222,-0.79321l-0.38151,-0.63587l-0.04261,-0.13986l-0.09517,-0.11103l-0.39338,-0.78676l-0.36843,-0.55263l-0.07925,-0.22189l-0.15335,-0.1789l-0.2486,-0.4972l-0.08909,-0.40087l-0.19326,-0.36235l-0.08096,-0.32383l-0.42976,-0.42976l-0.13806,-0.23016l-0.20828,-0.16924l-0.7458,-0.9944l-0.13152,-0.31239l-0.08845,-0.10316l-0.1794,-0.17942l-0.3084,-0.51399l-0.25795,-0.30096l-0.42802,-0.42802l-0.3084,-0.51399l-0.25795,-0.30096l-0.25595,-0.25595l-0.04107,-0.00819l-0.05748,-0.09033l-0.07349,-0.07349l-0.44082,-0.73472l-0.46001,-0.72288l-0.03285,-0.09855l-0.05508,-0.09184l0.011,-0.04043l-0.0422,-0.12663l-0.48953,-0.8159l-0.44797,-0.67196l-0.1675,-0.46907l-0.26744,-0.42024l-0.2486,-0.7458l-0.0176,-0.22895l-0.40423,-0.55969l-0.14871,-0.37176l-0.01462,-0.02437l0.00194,-0.00721l-0.33587,-0.83967l-0.03465,-0.25416l-0.12073,-0.22631l-0.14929,-0.59729l-0.31413,-0.62826l-0.05824,-0.26197l-0.14408,-0.22646l-0.21395,-0.64183l-0.39891,-0.99721l-0.42779,-0.85567l-0.10808,-0.4862l-0.2132,-0.45011l-0.23121,-1.15597l-0.22707,-0.90832v-0.15196l-0.06061,-0.13942l-0.18238,-1.09397l-0.3475,-0.86876l-0.03465,-0.25416l-0.12073,-0.22631l-0.2486,-0.9944v-0.45905l-0.11132,-0.44533v-0.7254l-0.04081,-0.18356l-0.20779,-0.83122v-0.10391l-0.02327,-0.10452l0.02327,-0.03485v-2.37063l-0.10903,-0.54522l-0.37005,-0.92508l-0.0954,-0.69975l-0.17129,-0.68513v-0.37656l-0.17621,-0.88094l0.01766,-0.371l-0.0901,-0.36032v-3.49682l-0.2029,-1.62324l-0.22186,-1.10934l0.01766,-0.371l-0.09004,-0.36032v-6.71212h-2.73458l-1.51623,-0.37905l-0.16437,0.01135l-0.07954,-0.0723l-0.10431,-0.02611l-0.0818,-0.14304l-1.15649,-1.05131l-0.4972,-0.7458l-0.37164,-1.04063l-0.19256,-0.20533l0.01557,-0.29022l-0.09774,-0.27369l0.12588,-0.25184l0.0591,-1.10338l0.9944,-3.23178l0.09054,-0.1499l0.02541,-0.17326l1.74017,-4.22615l0.20215,-0.27404l0.10918,-0.32264l1.99971,-3.11065l1.59499,-4.55704l0.18889,-0.28727l0.09308,-0.33095l0.84572,-1.48l0.566,-1.50935l0.44568,-1.78275l0.19326,-0.36235l0.08909,-0.40087l0.41934,-0.83871l0.04411,-0.17636v-0.45905l0.22707,-0.90826l0.47981,-2.39897l0.03887,-0.08217v-0.09088l0.46111,-1.84434l0.21161,-1.26963l0.23916,-1.91332l0.17311,-0.44721l0.06478,-0.47517l0.4264,-1.06589l0.44478,-1.55681l0.09699,-0.16816l0.02619,-0.19236l0.37005,-0.92508l0.18148,-0.90728l0.14767,-0.31179l0.04663,-0.34183l0.40322,-1.00798l0.18724,-0.74887l0.19326,-0.36235l0.08909,-0.40087l1.16511,-2.33031l0.0066,-0.0264l-0.07384,-0.1708l0.28684,-0.68126l0.17928,-0.71712l0.16148,-0.09227l0.11812,-0.28055l0.38273,-0.51028l0.05722,-0.17173l0.14408,-0.22646l0.05824,-0.26197l0.7458,-1.49157l0.39011,-0.45515l0.00865,-0.01436l0.06469,-0.25885l0.00999,-0.0187l-0.01789,-0.06567l0.47651,-0.79417l0.43584,-0.81718l0.06553,-0.01844l0.01094,-0.01815l0.48473,-0.48473l0.78959,-1.18436l0.27479,-0.24984l0.19106,-0.31844l4.47475,-4.47475l0.4271,-0.25624l0.35963,-0.34461l1.53861,-0.87918l0.80864,-0.60652l0.31239,-0.13152l0.25734,-0.22055l1.28396,-0.64198l0.55263,-0.36837l0.22189,-0.07925l0.1789,-0.15335l2.48597,-1.24297l0.15447,-0.0343l0.12828,-0.09262l1.09901,-0.43957l0.85567,-0.42782l0.40087,-0.08909l0.36235,-0.1932l0.36776,-0.09198l0.20837,-0.1389l0.36733,-0.1312l0.31621,-0.22837l1.24297,-0.4972l0.34183,-0.04663l0.31173,-0.14773l1.0709,-0.21413l2.31787,-0.69538l0.31491,-0.01467l0.29404,-0.11387l1.85355,-0.2317l1.1094,-0.22189l0.371,0.01771l0.36032,-0.0901h0.63784l0.91753,-0.30582l0.59764,-0.04599l0.58157,-0.14539h19.8878l0.30235,0.07563l0.31069,-0.02486l1.18714,0.19783h0.4425l0.03485,-0.02321l0.10455,0.02321h0.10391l0.83122,0.20782l0.18351,0.04081h0.4768l0.44533,0.11132h0.45905l0.9944,0.2486l0.56308,0.30029l0.60102,0.21465l0.33028,0.22021l0.13618,0.04538l0.85547,0.21384l0.12903,0.0688l0.14579,0.01123l0.42684,0.14226l1.40732,0.20107l0.28197,0.11485l0.17948,-0.04897l0.63382,0.3803l0.68458,0.27888z" data-paper-data="{&quot;index&quot;:null}" fill="#4b2567" stroke="none" stroke-width="0.5" stroke-linecap="butt"/><path d="M253.12828,71.70173c5.46307,-8.60443 18.04936,-10.40035 28.11222,-4.01135c10.06286,6.38899 13.79172,18.54367 8.32865,27.14812c-5.46307,8.60446 -18.04942,10.40041 -28.11228,4.01141c-10.06289,-6.38902 -13.79169,-18.54372 -8.32862,-27.14818z" data-paper-data="{&quot;index&quot;:null}" fill="#bd56bb" stroke="none" stroke-width="0" stroke-linecap="butt"/><path d="M262.42562,58.46108c-2.72407,-11.84144 6.29406,-24.02341 20.14251,-27.20922c13.84848,-3.18578 27.28318,3.83098 30.00724,15.67242c2.72407,11.84144 -6.29406,24.02341 -20.14251,27.20922c-13.84848,3.18576 -27.28318,-3.83103 -30.00724,-15.67248z" data-paper-data="{&quot;index&quot;:null}" fill="#bd56bb" stroke="none" stroke-width="0" stroke-linecap="butt"/><path d="M237.54997,98.52512c-35.35388,0 -64.0138,-37.60943 -64.0138,-72.9633c0,-35.35388 28.65993,-64.0138 64.0138,-64.0138c35.35388,0 64.0138,28.65993 64.0138,64.0138c0,35.35385 -28.65993,72.9633 -64.0138,72.9633z" data-paper-data="{&quot;index&quot;:null}" fill="#f190ef" stroke="none" stroke-width="0" stroke-linecap="butt"/><path d="M275.10038,52.08491c-12.90589,0 -23.36815,-10.46226 -23.36815,-23.36815c0,-12.90589 10.46226,-23.36815 23.36815,-23.36815c12.90589,0 23.36815,10.46226 23.36815,23.36815c0,12.90589 -10.46226,23.36815 -23.36815,23.36815z" data-paper-data="{&quot;index&quot;:null}" fill="#ffffff" stroke="none" stroke-width="0" stroke-linecap="butt"/><path d="M274.10598,49.84759c0,0 5.22055,3.45033 5.22055,7.70653c0,4.25619 -2.33732,7.70653 -5.22055,7.70653c-2.88323,0 -5.22055,-3.45033 -5.22055,-7.70653c0,-4.25619 5.22055,-7.70653 5.22055,-7.70653z" data-paper-data="{&quot;index&quot;:null}" fill="#ffffff" stroke="none" stroke-width="0" stroke-linecap="butt"/><path d="M212.12405,70.97162c5.46307,8.60446 1.73424,20.75919 -8.32862,27.14818c-10.06286,6.38905 -22.64915,4.59304 -28.11222,-4.01141c-5.46307,-8.60446 -1.73421,-20.75913 8.32865,-27.14812c10.06289,-6.38905 22.64912,-4.5931 28.11219,4.01135z" data-paper-data="{&quot;index&quot;:null}" fill="#bd56bb" stroke="none" stroke-width="0" stroke-linecap="butt"/><path d="M182.68419,30.52183c13.84845,3.18581 34.44413,40.13102 31.72007,51.97246c-2.72404,11.84144 -27.73641,-5.90501 -41.58486,-9.09082c-13.84845,-3.18584 -22.86652,-15.36784 -20.14245,-27.20928c2.72404,-11.84144 16.15879,-18.85823 30.00724,-15.67242z" data-paper-data="{&quot;index&quot;:null}" fill="#bd56bb" stroke="none" stroke-width="0" stroke-linecap="butt"/><path d="M223.17121,51.61736c-12.90589,0 -23.36815,-10.46226 -23.36815,-23.36815c0,-12.90589 10.46226,-23.36815 23.36815,-23.36815c12.90589,0 23.36815,10.46226 23.36815,23.36815c0,12.90589 -10.46226,23.36815 -23.36815,23.36815z" data-paper-data="{&quot;index&quot;:null}" fill="#ffffff" stroke="none" stroke-width="0" stroke-linecap="butt"/><path d="M222.1768,49.37996c0,0 5.22055,3.45033 5.22055,7.70653c0,4.25619 -2.33732,7.70653 -5.22055,7.70653c-2.88323,0 -5.22055,-3.45033 -5.22055,-7.70653c0,-4.25619 5.22055,-7.70653 5.22055,-7.70653z" data-paper-data="{&quot;index&quot;:null}" fill="#ffffff" stroke="none" stroke-width="0" stroke-linecap="butt"/><path d="M273.23589,36.92049c-7.61995,0 -13.79716,-6.17721 -13.79716,-13.79716c0,-7.61995 6.17721,-13.79716 13.79716,-13.79716c7.61995,0 13.79716,6.17721 13.79716,13.79716c0,7.61995 -6.17721,13.79716 -13.79716,13.79716z" data-paper-data="{&quot;index&quot;:null}" fill="#000000" stroke="none" stroke-width="0" stroke-linecap="butt"/><path d="M228.76461,37.19868c-7.61995,0 -13.79716,-6.17721 -13.79716,-13.79716c0,-7.61995 6.17721,-13.79716 13.79716,-13.79716c7.61995,0 13.79716,6.17721 13.79716,13.79716c0,7.61995 -6.17721,13.79716 -13.79716,13.79716z" data-paper-data="{&quot;index&quot;:null}" fill="#000000" stroke="none" stroke-width="0" stroke-linecap="butt"/><path d="M224.01547,-45.20224l0.00948,-0.03454l0.09673,-0.05246c0.43727,-0.40213 0.97717,-0.70528 1.5927,-0.86373l9.87073,-2.54085l0.15,-0.00104l0.09539,-0.08287l0.83648,0.07638l0.83996,-0.00583l0.08799,0.09059l0.14942,0.01366l0.14979,0.0523l0.52913,-0.02892l0.08929,0.01722l0.08802,-0.02266l1.02498,-0.00713l0.1421,0.03446l0.14398,-0.0255l0.7034,0.04919l1.57729,0.04162l1.05494,-0.05763l1.44655,-0.12588l0.68801,0.10973l0.69609,0.0303l0.66775,0.19812l0.99877,-0.11038l0.33584,0.04559l0.33375,-0.05907l0.96475,0.06745l0.13625,-0.03507l0.73563,-0.00511l0.24769,-0.14123l0.45939,0.13634l0.47913,-0.00337l0.19876,0.20448l0.70521,0.20931l0.07612,0.04499l0.84328,0.02223l0.33634,0.09353l0.34895,-0.01158l2.71734,0.584l0.1312,0.0645l0.1461,0.00632l1.25238,0.37164l0.94695,0.20352l0.3042,0.14944l0.33532,0.04949l0.83809,0.34603l0.7582,0.16297l0.3042,0.14944l0.33532,0.04949l0.83809,0.34604l0.7582,0.16297l0.53797,0.26435l0.5747,0.17051l0.59024,0.34853l1.3438,0.46943l0.31047,0.20384l0.35607,0.10563l2.8089,1.65884l0.49532,0.10646l0.53803,0.26433l0.5747,0.17052l2.11904,1.25142l0.42679,0.42089l0.49125,0.34352l0.33238,0.38237l0.38711,0.2286l0.42679,0.42089l0.49125,0.34352l0.36469,0.41953l0.08279,0.16271l0.00288,0.00285l-0.00007,0.00274l0.03612,0.07088l0.19599,0.18339l0.42666,0.66029l0.07418,0.21733l0.53099,0.44124l0.2367,0.32302l0.02022,0.0199l-0.00014,0.00748l0.4429,0.60434l1.72171,1.98054l0.22584,0.44391l0.3187,0.38281l0.19359,0.40144l0.10989,0.10841l0.62568,0.58539l0.05638,0.08725l0.0763,0.0752l-0.00059,0.0419l0.57743,0.89363l0.55557,0.63907l0.18617,0.36601l0.2775,0.30274l0.48863,0.90103l0.0488,0.18957l0.1167,0.15715l0.60073,1.44562l0.32866,0.60604l2.05561,3.18111l0.19352,0.5673l0.28576,0.52691l0.15583,0.60539l0.06981,0.14475l0.11812,0.10591l0.13206,0.19513l0.1931,0.13505l0.20508,0.23589l0.04042,0.01106l0.05104,0.09415l0.06813,0.07844l0.38854,0.76367l0.3873,0.71414l0.09251,0.08654l0.42668,0.66027l0.04719,0.1384l0.09879,0.10782l0.42035,0.77515l0.63178,0.9777l0.19081,0.21948l0.22584,0.44391l0.31869,0.38276l0.1832,0.37988l0.30998,0.24831l0.20524,0.26974l0.27775,0.19424l1.45878,1.67809l0.15829,0.31118l0.24435,0.24937l0.74003,1.26235l0.86671,0.99699l0.1217,0.23919l0.19599,0.18339l0.70952,1.09798l1.28487,1.47809l0.22584,0.44391l0.31876,0.3828l0.08346,0.17306l0.52274,0.51555l0.62568,0.58538l0.05638,0.08725l0.0763,0.0752l-0.0001,0.00547l0.03481,0.01712l0.23442,0.00339l0.08854,0.15531l0.52367,0.25731l0.44044,1.38732l0.07387,0.10909l-0.01045,0.04854l0.74528,1.30704l-0.16601,0.55937l0.0541,0.17045l-0.15649,0.17453l-0.27837,0.93813l-0.35756,0.60545l-0.42095,0.42681l-0.34346,0.49124l-0.6638,0.57707l-0.44334,0.49455l-0.19513,0.13206l-0.13502,0.19311l-0.23591,0.20504l-0.01106,0.04042l-0.09415,0.05104l-0.07842,0.06813l-0.76362,0.38853l-0.75323,0.40849l-0.10064,0.0259l-0.09546,0.04854l-0.03952,-0.01379l-0.12906,0.03321l-0.8092,0.39025l-0.36364,0.07538l-0.3265,0.17702l-11.07444,2.85071l-0.3714,0.00262l-0.3549,0.10958l-0.96449,0.05265l-0.02634,0.02051l-0.09408,-0.01389l-0.1808,0.00984l-0.81016,-0.15617l-0.81622,-0.12048l-0.1674,-0.06909l-0.09333,-0.01796l-0.01816,-0.02803l-0.23356,-0.09646l-1.12086,-0.02954l-0.47253,-0.13148l-0.49004,-0.02136l-1.38965,-0.41239l-0.07828,-0.04622l-0.09054,-0.00826l-1.60859,-0.56191l-1.30461,-0.38716l-0.13083,-0.07727l-0.15081,-0.01868l-1.85618,-0.71632l-1.24691,-0.37004l-0.39526,-0.23345l-0.44009,-0.13062l-3.012,-1.77874l-0.49758,-0.17384l-0.13792,-0.09061l-0.16242,-0.02919l-1.45162,-0.65315l-0.37142,-0.29284l-0.4298,-0.19735l-0.7633,-0.61141l-2.213,-1.30692l0.28484,0.83505l0.17489,0.20119l-0.02243,0.24575l0.07967,0.23356l-0.12261,0.2367l-0.10942,1.19785l-0.27932,0.79969l0.01114,0.05606l-0.5528,0.79053l-0.52947,0.80635l-0.05619,0.01039l-1.04615,0.90947l-0.44335,0.49455l-0.4125,0.27915l-0.34031,0.36375l-0.43768,0.28281l-0.45538,0.3959l-0.01106,0.04042l-0.09415,0.05104l-0.07842,0.06813l-0.76367,0.38854l-0.75317,0.40846l-0.10064,0.0259l-0.09546,0.04855l-0.03954,-0.01381l-1.15077,0.29623l-1.10035,0.48753l-0.30707,0.05337l-0.27397,0.14856l-0.27767,0.07148l-0.49749,0.26976l-0.44457,0.11443l-0.40351,0.21887l-0.75917,0.19543l-0.49749,0.26976l-0.44457,0.11443l-0.40352,0.21882l-8.66696,2.23099l-0.3714,0.00262l-0.35488,0.10958l-1.26571,0.0691l-0.48907,-0.09431l-0.49778,0.01657l-1.31323,-0.28225l-0.11559,0.02975l-0.02796,0.03123l-0.10704,0.00352l-0.10058,0.02589l-0.85677,0.00598l-0.85637,0.02848l-0.10159,-0.02179l-0.10706,0.00072l-0.02918,-0.03003l-0.30561,-0.06569l-0.21151,-0.10389l-0.23463,-0.02143l-1.08262,-0.37817l-0.37908,0.0026l-0.02058,-0.00499l-0.05913,0.03376l-0.88789,-0.26349l-0.90007,-0.21835l-0.03417,-0.05887l-0.02036,-0.00606l-0.08442,-0.04984l-1.03879,-0.22327l-0.53803,-0.26433l-0.57464,-0.17052l-0.59027,-0.34859l-1.12458,-0.39283l-0.31649,-0.06803l-0.53801,-0.26432l-0.57466,-0.17054l-0.59024,-0.34853l-3.88237,-1.35616l-0.31047,-0.20384l-0.35601,-0.10565l-0.28753,-0.1698l-0.49763,-0.17381l-0.08855,-0.05816l-0.10482,-0.01549l-0.92401,-0.38151l-0.04107,0.00821l-0.08777,-0.06139l-0.09604,-0.03965l-0.29231,-0.21607l-0.01819,0.00713l-0.73444,-0.33715l-0.76845,-0.25024l-0.06353,-0.13171l-0.18021,-0.08272l-0.7633,-0.61141l-0.98268,-0.58034l-0.42679,-0.42088l-0.49125,-0.34354l-0.33238,-0.38235l-0.08442,-0.04986l-0.32688,-0.32232l-0.39526,-0.23345l-1.03212,-1.01782l-0.07127,-0.11692l-0.47944,-0.28315l-0.26448,-0.26074l-0.3284,-0.17346l-1.0599,-0.95007l-0.59026,-0.34859l-0.42679,-0.42089l-0.49125,-0.34352l-1.82345,-2.09763l-0.22584,-0.44393l-0.31869,-0.38274l-0.5506,-1.14176l-0.01255,-0.06049l-0.03795,-0.04873l-0.44934,-1.01397l-0.55308,-0.75464l-0.09692,-0.2375l-0.17333,-0.18908l-0.48863,-0.90103l-0.11443,-0.44454l-0.21883,-0.40358l-0.24374,-0.94686l-0.05167,0.05521l-0.43768,0.28281l-0.11148,0.09686l-0.85493,0.86696l-0.53908,0.60134l-0.32303,0.2186l-0.2493,0.30002l-0.53891,0.39494l-0.01292,0.01307l-0.06382,0.16019l-1.13464,1.57557l-0.33108,0.27985l-0.24843,0.3553l-0.80189,0.69707l-0.94373,1.598l-0.32236,0.32684l-0.2334,0.39527l-0.69551,0.70527l-1.42539,2.41359l-0.10646,0.49532l-0.26433,0.53803l-0.17052,0.57464l-0.80786,1.36792l-0.67408,1.42153l-0.52549,1.50437l-0.20382,0.31045l-0.10563,0.35607l-0.34859,0.59026l-0.09724,0.2784l-0.18485,0.85993l-0.14944,0.30419l-0.04949,0.33532l-0.18699,0.45284l0.00188,0.27197l-0.00498,0.02059l0.03371,0.05913l-0.26349,0.88789l-0.21835,0.90009l-0.05893,0.03417l-0.00602,0.02029l-0.2286,0.38711l-0.10646,0.49532l-0.26433,0.53803l-0.06372,0.21461l0.00276,0.39805l0.00177,0.00221l-0.00166,0.01106l0.00305,0.44111l-0.17423,0.71807l-0.1079,0.73097l-0.16837,0.40776l-0.00263,0.0109l-0.00242,0.00139l-0.06996,0.16957l-0.0575,0.82192l0.00617,0.88177l-0.09683,0.39909l0.01369,0.41041l-0.2644,1.23024l0.00109,0.16117l0.00177,0.00221l-0.00166,0.01107l0.00307,0.44115l-0.17423,0.71807l-0.10792,0.73097l-0.16835,0.40776l-0.00263,0.0109l-0.00242,0.00139l-0.01357,0.03288l0.0019,0.27194l-0.03446,0.1421l0.02549,0.14398l-0.05483,0.78422l-0.08308,0.25523l0.00891,0.26822l-0.06112,0.28433l-0.01938,0.27714l0.02077,0.03641l-0.03051,0.10269l-0.00725,0.10362l-0.26527,0.81473l-0.13693,0.46138l0.00596,0.85249l-0.00499,0.02058l0.03371,0.05915l-0.26349,0.88787l-0.21835,0.90009l-0.05893,0.03418l-0.00602,0.02029l-0.14714,0.24915l-0.05948,0.45998l-0.03025,0.43216l0.02075,0.0364l-0.03049,0.10269l-0.00725,0.10363l-0.26529,0.81473l-0.24374,0.8214l-0.05285,0.08949l-0.03316,0.10181l-0.03773,0.01816l-0.01852,0.03138l-0.04961,0.15246l0.06397,0.19245l-0.33027,0.62538l-0.21899,0.6725l-0.13501,0.0651l0.00271,0.08253l-0.1168,0.54348l-0.10391,0.21148l-0.02143,0.23463l-0.19207,0.54979l0.0085,0.03022l-0.04653,0.07877l-0.06543,0.18738l-0.4492,0.68403l-0.41613,0.70463l-0.13937,0.14132l-0.05025,0.0765l-0.03081,0.00572l-0.47503,0.48172l-0.12408,0.21019l-0.42089,0.42679l-0.34352,0.49125l-1.6781,1.45878l-0.14104,0.07172l-0.10113,0.12172l-0.95473,0.69966l-0.11883,0.10334l-0.01106,0.04038l-0.09415,0.05109l-0.07842,0.06812l-0.76363,0.38853l-0.75323,0.40846l-0.10062,0.0259l-0.01676,0.00852l-0.1678,0.14589l-0.36601,0.18621l-0.30274,0.27743l-0.90104,0.48865l-0.44455,0.11443l-0.40352,0.21882l-0.48151,0.12395l-0.45902,0.00321l-0.07256,0.01867l-0.02902,-0.01793l-0.26105,0.00181l-0.20613,0.11071l-0.17802,-0.10805l-0.71593,0.00498l-1.04131,-1.07152l-1.27732,-0.77528l-0.15526,-0.69891l-0.14508,-0.14934l0.0618,-0.22569l-0.17825,-0.80214l0.04372,-1.65831l-0.06085,-1.11501l0.02915,-0.15126l-0.03342,-0.15034l0.03397,-1.28713l-0.1177,-0.45723l-0.00262,-0.3714l-0.10957,-0.35484l-0.0691,-1.26571l0.07792,-0.40415l-0.0968,-0.37606l-0.00417,-0.59939l-0.10443,-0.59024l0.01266,-0.18058l-0.34493,-1.33996l-0.00219,-0.31164l-0.10154,-0.29468l-0.10434,-1.19898l-0.10899,-0.42336l-0.00219,-0.31164l-0.10146,-0.29469l-0.09841,-1.13061l-0.01298,-0.01488l0.00599,-0.06536l-0.02569,-0.29565l0.12333,-0.7732l0.03635,-0.39753l-0.25615,-0.99511l-0.00262,-0.3714l-0.10957,-0.35483l-0.11812,-2.16276l-0.21782,-0.84618l-0.0022,-0.3117l-0.10146,-0.29466l-0.13107,-1.50645l0.02395,-0.15007l-0.03789,-0.14719l-0.01106,-1.59091l-0.2574,-0.99992l-0.00148,-0.20997l-0.07912,-0.19449l-0.317,-2.22872l0.01075,-0.10349l-0.03389,-0.09835l-0.13109,-1.50647l0.00971,-0.06099l-0.01819,-0.05897l-0.0691,-1.26571l0.12702,-0.65911l0.0414,-0.66991l0.68579,-2.16571l0.50978,-1.86216l0.14405,-0.25618l0.052,-0.28925l0.58674,-1.30404l0.46121,-1.32044l0.18484,-0.85997l0.14944,-0.3042l0.04949,-0.33532l0.34603,-0.83812l0.39659,-1.84512l0.14944,-0.3042l0.04949,-0.33532l0.34603,-0.83812l0.45771,-2.1295l0.01936,-0.27714l-0.02075,-0.03641l0.03049,-0.10268l0.00722,-0.10362l0.26529,-0.81473l0.24374,-0.82142l0.01446,-0.02446l0.00172,-0.00708l-0.03375,-0.05913l0.26349,-0.88789l0.21837,-0.90002l0.05886,-0.0342l0.00608,-0.0203l2.14533,-3.63267l0.18847,-0.19113l0.11197,-0.2439l0.77709,-0.97015l0.08431,-0.06417l0.04948,-0.09365l0.5292,-0.59036l0.71239,-0.88935l0.08431,-0.06418l0.04951,-0.09365l1.68689,-1.88177l0.85873,-1.14345l0.30801,-0.25l0.22734,-0.32509l1.22138,-1.06177l0.10492,-0.17759l-0.0023,-0.04181l0.07316,-0.07819l0.05285,-0.08948l0.60163,-0.61005l0.58538,-0.6257l0.08725,-0.05638l0.0752,-0.07628l0.04191,0.00059l0.23329,-0.15076l0.46386,-0.40322l0.44335,-0.49451l0.19513,-0.13206l0.13505,-0.19311l0.2443,-0.21238l0.44335,-0.49451l0.4125,-0.27914l0.34032,-0.36371l0.56823,-0.3672l0.8663,-0.6349l1.14154,-0.99232l0.23918,-0.12171l0.18339,-0.19598l0.66029,-0.42668l0.1384,-0.04719l0.1078,-0.09879l0.23455,-0.12718l0.19251,-0.19518l0.58538,-0.6257l0.08728,-0.05638l0.0752,-0.0763l0.04191,0.00059l0.23335,-0.15077l0.21954,-0.19083l0.36601,-0.18621l0.30273,-0.27749l1.13555,-0.61583l0.19251,-0.1952l0.58538,-0.6257l0.08728,-0.05638l0.07521,-0.07624l0.04191,0.00061l0.45594,-0.29464l0.1384,-0.04719l0.10782,-0.09879l0.67855,-0.36802l0.75061,-0.55007l0.11883,-0.10333l0.01106,-0.04042l0.0941,-0.05103l0.07847,-0.06813l0.76367,-0.38856l0.75317,-0.40846l0.10057,-0.02589l0.06167,-0.03133l0.28934,-0.24092l0.69197,-0.3337l0.46215,-0.40176l0.23918,-0.1217l0.18339,-0.19599l0.66029,-0.42666l0.5673,-0.19352l0.52691,-0.28576l0.31944,-0.08223l0.21501,-0.19704l0.67855,-0.36801l0.87566,-0.64178l0.10384,-0.04239l0.07663,-0.08185l0.66027,-0.42668l0.5673,-0.19352l0.52693,-0.28576l0.51842,-0.13345l0.0723,-0.0392l0.00339,-0.01237l0.09411,-0.05104l0.07845,-0.06813l0.76367,-0.38854l0.19754,-0.10712l0.02916,-0.03253l0.19513,-0.13206l0.13505,-0.1931l0.41953,-0.36471l0.44393,-0.22584l0.38273,-0.31873l1.14176,-0.5506l0.3637,-0.0754l0.32649,-0.17708l0.37695,-0.09703l0.15204,-0.09822l0.5673,-0.19352l0.52691,-0.28576l0.26752,-0.06886l0.50054,-0.36687l0.65387,-0.26684l0.62086,-0.33669z" data-paper-data="{&quot;index&quot;:null}" fill="#4b2567" stroke="none" stroke-width="0.5" stroke-linecap="butt"/><path d="M218.96465,77.503c0,0 12.80204,-1.98877 19.3906,-1.98877c5.31876,0 17.15322,1.98877 17.15322,1.98877" data-paper-data="{&quot;index&quot;:null}" fill="none" stroke="#000000" stroke-width="2.5" stroke-linecap="round"/><path d="M250.83867,45.62144c0,0 0.63344,6.04438 1.71294,10.71474c0.51584,2.23185 1.90087,-0.01945 1.92877,0.94303c0.03983,1.37299 -4.88468,1.51788 -4.88468,1.51788" data-paper-data="{&quot;index&quot;:null}" fill="none" stroke="#000000" stroke-width="2.5" stroke-linecap="round"/><path d="M251.59321,-10.94005c-5.46351,9.25124 -25.94763,5.71577 -38.59834,-1.91032l0.06,0.05614l0.28281,0.43768l0.88792,1.02136l0.08442,0.04986l0.19113,0.18845l0.2439,0.11198l0.89557,0.71735l1.49807,1.0788l0.27986,0.33115l0.18892,0.1321l2.03478,1.20173l0.26446,0.26074l0.17617,0.09306l0.20105,0.04324l0.53803,0.26433l0.57464,0.17052l1.58813,0.9379l0.90397,0.37322l0.21582,0.15954l0.25731,0.07634l0.08442,0.04984l0.49532,0.10646l0.53803,0.26433l0.57464,0.17054l0.5902,0.3486l0.49762,0.17379l0.31047,0.20384l0.35601,0.10565l0.68984,0.40739l0.23618,0.05081l0.27714,0.01936l0.03641,-0.02077l0.10268,0.03051l0.10363,0.00725l0.81473,0.26529l0.82142,0.24374l0.02446,0.01444l0.52237,0.12676l0.55091,0.02398l1.10322,0.32736l0.78037,0.1009l0.31749,-0.0022l0.00221,-0.00175l0.01107,0.00166l0.44115,-0.00307l0.71807,0.17423l0.73097,0.1079l0.40776,0.16835l0.01084,0.00265l0.00143,0.00242l0.16955,0.06996l0.1806,0.01266l0.2552,0.08308l0.26821,-0.0089l0.28439,0.0611l0.51985,0.03637l0.2552,0.08308l0.26821,-0.0089l0.82787,0.17793l0.51984,0.03634l0.25523,0.08308l0.26822,-0.0089l2.31713,0.49801l0.61565,-0.00431l0.39908,0.09683l0.41044,-0.01366l0.54347,0.11682l0.21151,0.10389l0.23463,0.02143l0.14979,0.0523l0.46913,-0.02563l1.44655,-0.12588l0.29205,0.04661l0.29123,-0.05151l1.74903,0.12227l7.02251,-1.80769c0.25073,-0.17903 0.52674,-0.32883 0.82433,-0.44322l0.21666,-0.18832l0.44391,-0.22584l0.3828,-0.31869l0.8581,-0.41381l0.04197,-0.04258l0.04499,0.00064l0.19667,-0.09482l1.88183,-0.39005l0.76435,0.52554l0.86974,0.01243l0.54905,0.96306l0.91349,0.62803l-0.06068,0.86766l0.45947,0.80586l-0.54672,1.84243l-0.11101,0.18801l-0.00313,0.04486l-0.04596,0.03822l-0.19746,0.33433l-0.18848,0.19109l-0.11196,0.24391l-0.61141,0.7633l-0.22278,0.37724l-0.42088,0.42679l-0.22718,0.32484l-0.129,0.21847l-0.42089,0.42679l-0.27196,0.38894l-0.20928,0.42594l-0.17054,0.57466l-1.07265,1.81631l-0.18848,0.19107l-0.11196,0.24393l-0.77709,0.97015l-0.08433,0.06417l-0.04949,0.09371l-0.5983,0.66742l-0.41251,0.27915l-0.3403,0.36375l-1.09796,0.70952l-0.45543,0.39585l-0.01106,0.04041l-0.09417,0.05104l-0.07842,0.06813l-0.76362,0.38853l-0.75323,0.40849l-0.10062,0.0259l-0.09547,0.04854l-0.03527,-0.01232l-0.15722,0.08002l-0.75324,0.40844l-0.10062,0.0259l-0.09544,0.0486l-0.03955,-0.01385l-0.86356,0.22229l-0.15201,0.09829l-0.5673,0.19352l-0.52693,0.28575l-11.79671,3.03664l-0.45902,0.00321l-0.44455,0.11443l-0.56593,0.00392l-0.27767,0.07148l-0.70626,0.00492l-0.70143,0.08206l-1.21898,-0.15759l-0.53206,-0.03719l-1.90676,0.01331l-0.62016,-0.15045l-0.6355,-0.05806l-0.62703,-0.21903l-0.16489,-0.03544l-1.1739,-0.15172l-0.36316,-0.14233l-0.38843,-0.03549l-0.37475,-0.13093l-0.28608,-0.01999l-0.25524,-0.08314l-0.26822,0.00891l-1.08695,-0.23362l-0.3042,-0.14944l-0.33532,-0.04949l-1.05324,-0.43486l-0.13871,-0.04842l-0.37904,0.00265l-0.02065,-0.00499l-0.05913,0.03375l-0.88789,-0.26349l-0.90007,-0.21835l-0.03417,-0.05887l-0.02036,-0.00605l-0.81559,-0.48166l-0.81227,-0.24102l-0.94695,-0.20352l-0.53803,-0.26433l-0.57464,-0.17052l-5.84493,-3.45182l-0.04181,0.0023l-0.07819,-0.07314l-0.08949,-0.05285l-0.61005,-0.60163l-0.62568,-0.58538l-0.05635,-0.08727l-0.0763,-0.0752l0.00061,-0.04191l-0.03015,-0.04672l-0.30155,-0.17806l-0.42679,-0.42089l-0.49125,-0.34352l-0.33238,-0.38237l-0.08442,-0.04986l-0.42679,-0.42088l-0.49125,-0.34352l-0.94177,-1.08333l-0.49457,-0.44334l-0.35763,-0.5285l-0.43119,-0.4705l-0.4204,-0.77514l-0.71615,-1.10827l-0.63484,-0.8663l-0.10333,-0.11884l-0.04039,-0.01106l-0.05106,-0.0941l-0.06813,-0.07842l-0.38854,-0.76367l-0.40846,-0.75324l-0.02589,-0.10057l-0.0486,-0.09544l0.00026,-0.00072l-0.05907,-0.09149l-0.14528,-0.42596l-0.00787,-0.00054l-0.06081,-0.07311l-0.1413,-0.11319l-0.4996,-0.65661l-0.52794,-0.63406l-0.07863,-0.16309l-0.05761,-0.07567l0.00524,-0.03297l-0.20268,-0.42021l-0.03706,-0.04266l-0.18621,-0.36601l-0.27749,-0.30274l-0.42035,-0.77515l-0.34898,-0.53995l-0.04719,-0.1384l-0.09879,-0.10782l-0.48865,-0.90103l-0.11443,-0.44454l-0.21887,-0.40351l-0.19542,-0.75917l-0.26976,-0.4975l-0.11443,-0.44452l-0.21885,-0.40358l-0.55774,-2.16674l-0.00035,-0.05043l-0.07413,-0.14565l0.07169,-0.2052l-0.01059,-1.52058l0.11717,-0.11385l-0.26456,-0.90217l0.02276,-0.03961l-0.02204,-0.08566l0.97651,-1.57595l0.89465,-1.55746l0.0709,-0.0008l0.03734,-0.06023l1.0479,0.02324l-1.13403,-2.3515l-0.44633,-0.82304l-0.06923,-0.26901l-0.21908,-0.32368l0.06177,-0.2874l-0.25255,-0.98115l0.70948,-1.14511l0.27095,-1.26046l0.64236,-0.21348l0.35656,-0.57539l0.55817,0.01239c0.02207,-1.64113 1.13409,-3.13002 2.79993,-3.55883c0.52271,-0.13455 1.04801,-0.15138 1.54788,-0.06705c3.47262,-1.2796 14.65683,13.20492 19.31115,14.46369c7.43295,2.01025 32.4861,-5.2975 26.91083,4.14305zM227.67425,8.43759l-0.51979,-0.15426l-0.2284,0.00159l-0.00343,0.0019l0.16148,0.03475l0.21151,0.10389l0.23465,0.02143l0.03064,0.01069z" data-paper-data="{&quot;index&quot;:null}" fill="#8157a0" stroke="none" stroke-width="0.5" stroke-linecap="butt"/><path d="M153.71125,378.1133l35.75129,-129.33735l42.8953,15.16373l-22.446,117.95065l9.50512,25.83118z" data-paper-data="{&quot;index&quot;:null}" fill="#e880e6" stroke="none" stroke-width="0" stroke-linecap="butt"/><path d="M300.10802,411.63941l-61.68906,-120.98023l42.06016,-17.34621l66.22023,104.20803l25.54931,8.84056z" data-paper-data="{&quot;index&quot;:null}" fill="#e880e6" stroke="none" stroke-width="0" stroke-linecap="butt"/><path d="M250.6981,317.15253l-26.30751,-57.11666l45.0122,-17.05402l49.3684,49.98759z" data-paper-data="{&quot;index&quot;:null}" fill="#57399e" stroke="none" stroke-width="0" stroke-linecap="butt"/><path d="M158.16566,325.93832l27.44839,-64.67295l48.1287,-0.752l-3.38399,62.79289z" data-paper-data="{&quot;index&quot;:null}" fill="#57399e" stroke="none" stroke-width="0" stroke-linecap="butt"/><path d="M184.11015,262.01737l34.21649,-146.26606l39.85656,-0.752l22.18428,147.01808z" data-paper-data="{&quot;index&quot;:null}" fill="#611772" stroke="none" stroke-width="0" stroke-linecap="butt"/><path d="M217.95066,116.3154c0,-5.91833 9.59553,-14.10018 21.43228,-14.10018c11.83675,0 21.43231,8.18182 21.43231,14.10018c0,0.71527 8.02103,3.94484 7.56157,7.06081c-3.34249,22.6666 -25.98767,97.88334 -34.99812,84.74622c-5.77054,-8.41331 -25.51449,-63.71852 -27.77612,-84.85739c-0.52062,-4.86546 12.34802,-6.49655 12.34802,-6.9497z" data-paper-data="{&quot;index&quot;:null}" fill="#795dbd" stroke="none" stroke-width="0" stroke-linecap="butt"/><path d="M185.44486,248.9346v-8.28653h94.05263v8.28653z" data-paper-data="{&quot;index&quot;:null}" fill="#27062f" stroke="none" stroke-width="0" stroke-linecap="butt"/><path d="M277.103,316.63605l-23.84321,-96.66607c0,0 3.27016,-2.43706 5.10619,-2.88477c1.98212,-0.48337 6.38184,0.08319 6.38184,0.08319l30.21188,94.10423z" data-paper-data="{&quot;index&quot;:null}" fill="#4889c1" stroke="none" stroke-width="NaN" stroke-linecap="butt"/><path d="M265.30118,257.51171c-0.68597,-2.2838 0.60942,-4.69134 2.89322,-5.37725c2.2838,-0.68597 4.69134,0.60936 5.37725,2.89319c0.68597,2.2838 -0.60936,4.69134 -2.89319,5.37725c-2.2838,0.68597 -4.69134,-0.60936 -5.37731,-2.89319z" data-paper-data="{&quot;index&quot;:null}" fill="#122e46" stroke="none" stroke-width="0" stroke-linecap="butt"/><path d="M262.11387,245.08073c-0.68597,-2.2838 0.60942,-4.69134 2.89322,-5.37731c2.2838,-0.68597 4.69134,0.60936 5.37731,2.89319c0.68597,2.2838 -0.60936,4.69134 -2.89319,5.37725c-2.2838,0.68597 -4.69137,-0.6093 -5.37737,-2.89313z" data-paper-data="{&quot;index&quot;:null}" fill="#122e46" stroke="none" stroke-width="0" stroke-linecap="butt"/><path d="M259.05234,233.97817c-0.68597,-2.2838 0.60942,-4.69134 2.89322,-5.37731c2.2838,-0.68597 4.69134,0.60936 5.37725,2.89319c0.68597,2.2838 -0.60936,4.69134 -2.89319,5.37725c-2.2838,0.68597 -4.69134,-0.60936 -5.37731,-2.89319z" data-paper-data="{&quot;index&quot;:null}" fill="#122e46" stroke="none" stroke-width="0" stroke-linecap="butt"/><path d="M274.86215,292.07255c-0.68597,-2.2838 0.60936,-4.69134 2.89319,-5.37725c2.2838,-0.68597 4.69134,0.60936 5.37725,2.89319c0.68597,2.2838 -0.60936,4.69134 -2.89319,5.37725c-2.2838,0.68597 -4.69134,-0.60936 -5.37731,-2.89319z" data-paper-data="{&quot;index&quot;:null}" fill="#122e46" stroke="none" stroke-width="0" stroke-linecap="butt"/><path d="M271.67487,279.64157c-0.68597,-2.2838 0.60942,-4.69134 2.89322,-5.37731c2.2838,-0.68597 4.69134,0.60936 5.37725,2.89319c0.68597,2.2838 -0.60936,4.69134 -2.89319,5.37725c-2.2838,0.68597 -4.69134,-0.60936 -5.37731,-2.89319z" data-paper-data="{&quot;index&quot;:null}" fill="#122e46" stroke="none" stroke-width="0" stroke-linecap="butt"/><path d="M268.61331,268.53898c-0.68597,-2.2838 0.60942,-4.69134 2.89322,-5.37731c2.2838,-0.68597 4.69134,0.60936 5.37725,2.89319c0.68597,2.2838 -0.60936,4.69134 -2.89319,5.37731c-2.2838,0.68597 -4.69134,-0.60936 -5.37731,-2.89319z" data-paper-data="{&quot;index&quot;:null}" fill="#122e46" stroke="none" stroke-width="0" stroke-linecap="butt"/><path d="M254.04117,248.25511v-7.04362c0,0 1.90634,-2.69675 5.20865,-4.29373c2.39121,-1.15637 12.18973,-1.20645 14.07812,0.17097c1.98316,1.44659 3.08697,4.12273 3.08697,4.12273v7.04362c0,0 -2.8087,-3.91512 -6.48222,-5.46626c-1.12042,-0.47312 -7.50088,0.04614 -9.2139,0.88456c-3.4213,1.6745 -6.67762,4.5817 -6.67762,4.5817z" data-paper-data="{&quot;index&quot;:null}" fill="#16011b" stroke="none" stroke-width="0" stroke-linecap="butt"/><path d="M295.56563,310.66623c0.47208,1.46344 -3.38226,4.01662 -8.60891,5.70261c-5.22666,1.68605 -9.84639,1.86643 -10.31849,0.40299c-0.47208,-1.46344 3.38226,-4.01662 8.60891,-5.70261c5.22666,-1.68605 9.84639,-1.86643 10.31849,-0.40299z" data-paper-data="{&quot;index&quot;:null}" fill="#122e46" stroke="none" stroke-width="0" stroke-linecap="butt"/><path d="M301.63412,180.43146c0,-3.72895 3.72895,-3.72895 3.72895,-3.72895l-0.28461,0.06017c15.22845,-2.42438 21.89666,-28.7241 13.67539,-40.08767c0,0 -2.13839,-3.05484 0.91648,-5.19328c3.05484,-2.13839 5.19328,0.91648 5.19328,0.91648c11.15087,16.33087 2.21355,47.61573 -18.45105,51.70214l-1.04954,0.06017c0,0 -3.72895,0 -3.72895,-3.72895z" data-paper-data="{&quot;index&quot;:null}" fill="#6f488b" stroke="none" stroke-width="0.5" stroke-linecap="butt"/><path d="M150.49286,286.25268l5.01102,-12.87715l-10.60446,-3.28168l9.9439,-9.63316h30.45319l3.10746,29.83167z" data-paper-data="{&quot;index&quot;:null}" fill="#e880e6" stroke="none" stroke-width="0" stroke-linecap="butt"/><path d="M149.60633,260.90079l57.90791,-149.44186l16.82891,3.46431l-27.57143,154.39986z" data-paper-data="{&quot;index&quot;:null}" fill="#521060" stroke="none" stroke-width="0" stroke-linecap="butt"/><path d="M202.83642,-1.84695c0,0 2.63677,2.63677 0,5.27355c-2.63677,2.63677 -5.27355,0 -5.27355,0l-0.89168,-1.01727c-4.75487,-7.51399 -11.58587,-11.5263 -19.4948,-15.46448c-11.23275,-5.41106 -20.931,3.5198 -22.62429,14.76893c-2.30102,15.28642 2.57602,34.18717 10.1826,47.20342c17.33971,25.99499 31.57552,65.67007 16.5874,95.87376c-10.4585,18.97294 -45.59541,34.68987 -63.71585,15.42c-4.74868,-5.04987 -1.63574,-13.53817 3.10089,-16.37367c-1.39186,-0.71825 -2.723,-1.54992 -3.96195,-2.48673c-6.12991,-5.40808 -14.98155,-20.62715 -3.20824,-26.61263c1.51733,-0.77139 9.70471,2.50453 11.83577,2.83307c5.91037,0.91133 15.83367,0.72427 21.29063,-1.62353c11.40653,-4.90746 7.76974,-21.6555 7.04822,-31.0321c-4.65258,-13.7169 -14.86664,-23.52945 -20.76671,-36.28263c-9.54942,-20.64147 -16.66775,-50.53346 -3.72597,-70.83557c20.56969,-20.51739 75.55935,-18.72998 72.86382,19.28915c0.29919,0.42967 0.59275,0.86919 0.88048,1.3191l-0.12677,-0.25233z" data-paper-data="{&quot;index&quot;:null}" fill="#4b2567" stroke="none" stroke-width="0.5" stroke-linecap="butt"/><path d="M167.87671,159.92406c-1.17918,3.5376 -4.71678,2.35839 -4.71678,2.35839l-1.7791,-0.66039c-17.16694,-9.64578 -22.79549,-27.52645 -18.25237,-45.852c0,0 0.90441,-3.61763 4.52204,-2.71324c3.61763,0.90441 2.71324,4.52204 2.71324,4.52204c-3.77207,14.94821 0.32108,29.6794 14.639,37.52378l0.51564,0.10455c0,0 3.5376,1.17918 2.35839,4.71678z" data-paper-data="{&quot;index&quot;:null}" fill="#6f488b" stroke="none" stroke-width="0.5" stroke-linecap="butt"/><path d="M205.85875,8.45725l18.33123,3.85921" fill="none" stroke="#000000" stroke-width="2.5" stroke-linecap="round"/></g></g></svg>