<svg version="1.1" xmlns="http://www.w3.org/2000/svg" xmlns:xlink="http://www.w3.org/1999/xlink" width="100.51385" height="155.52308" viewBox="0,0,100.51385,155.52308"><g transform="translate(-189.74308,-102.23846)"><g data-paper-data="{&quot;isPaintingLayer&quot;:true}" fill-rule="nonzero" stroke-linejoin="miter" stroke-miterlimit="10" stroke-dasharray="" stroke-dashoffset="0" style="mix-blend-mode: normal"><path d="M257.40558,125.44146l-0.0438,0.08718c0.09941,-0.15544 0.20083,-0.30729 0.3042,-0.45574c-0.93129,-13.13539 18.06732,-13.75293 25.17403,-6.66429c4.47131,7.01426 2.01197,17.34177 -1.2873,24.47328c-2.03844,4.40615 -5.56734,7.79633 -7.17478,12.53544c-0.24928,3.23956 -1.50577,9.02591 2.43512,10.72141c1.88535,0.81115 5.31379,0.87578 7.35579,0.56092c0.73627,-0.11351 3.56496,-1.24532 4.08919,-0.97881c4.06761,2.06795 1.00942,7.32605 -1.10843,9.19451c-0.42805,0.32366 -0.88795,0.611 -1.36883,0.85915c1.63648,0.97965 2.71198,3.91231 1.07134,5.65701c-6.26051,6.65763 -18.40011,1.22752 -22.01346,-5.32752c-5.17831,-10.4352 -0.25992,-24.14271 5.73085,-33.12383c2.62803,-4.49704 4.31302,-11.02714 3.51803,-16.30851c-0.58502,-3.88651 -3.93571,-6.97207 -7.81656,-5.10258c-2.73249,1.36062 -5.09256,2.74685 -6.73534,5.34289l-0.30807,0.35146c0,0 -0.91099,0.91099 -1.82198,0c-0.91099,-0.91099 0,-1.82198 0,-1.82198z" data-paper-data="{&quot;index&quot;:null}" fill="#4b2567" stroke="none" stroke-width="0.5" stroke-linecap="butt"/><path d="M222.5944,130.83113c-0.91099,0.91099 -1.82198,0 -1.82198,0l-0.30807,-0.35146c-1.64278,-2.59604 -4.00284,-3.98229 -6.73534,-5.34291c-3.88087,-1.86949 -7.23156,1.21608 -7.81658,5.10259c-0.79499,5.28136 0.89,11.81146 3.51805,16.30851c5.99075,8.98111 10.90917,22.68861 5.73085,33.12381c-3.61335,6.55504 -15.75294,11.98515 -22.01346,5.32754c-1.64063,-1.7447 -0.56513,-4.67734 1.07136,-5.65699c-0.48088,-0.24815 -0.94078,-0.53547 -1.36883,-0.85915c-2.11785,-1.86848 -5.17605,-7.12657 -1.10843,-9.19453c0.52421,-0.26651 3.35293,0.8653 4.08919,0.97881c2.04199,0.31483 5.47046,0.25021 7.35579,-0.56092c3.94089,-1.69552 2.68441,-7.48187 2.43512,-10.72141c-1.60745,-4.73911 -5.13636,-8.12927 -7.1748,-12.53542c-3.29929,-7.13151 -5.75863,-17.45904 -1.2873,-24.47328c7.10671,-7.08862 26.10533,-6.4711 25.17403,6.66429c0.10338,0.14845 0.20478,0.3003 0.3042,0.45574l-0.04379,-0.08718c0,0 0.91099,0.91099 0,1.82198z" fill="#4b2567" stroke="none" stroke-width="0.5" stroke-linecap="butt"/><path d="M258.16969,225.26279l1.07361,-10.30667h10.5214l3.43556,3.3282l-3.66378,1.1338l1.73128,4.44898z" data-paper-data="{&quot;index&quot;:null}" fill="#e880e6" stroke="none" stroke-width="0" stroke-linecap="butt"/><path d="M210.2866,224.02326l1.7313,-4.44898l-3.6638,-1.1338l3.43556,-3.3282h10.5214l1.07361,10.30667z" fill="#e880e6" stroke="none" stroke-width="0" stroke-linecap="butt"/><path d="M255.27868,218.01803l-9.52577,-53.34426l5.81429,-1.1969l20.00685,51.6313z" data-paper-data="{&quot;index&quot;:null}" fill="#521060" stroke="none" stroke-width="0" stroke-linecap="butt"/><path d="M209.52341,215.26431l20.00685,-51.6313l5.81429,1.1969l-9.52575,53.34428z" fill="#521060" stroke="none" stroke-width="0" stroke-linecap="butt"/><path d="M249.30097,159.3974c0.10801,1.13799 -1.42586,2.21442 -3.42597,2.40425c-2.00011,0.18983 -3.70906,-0.57881 -3.81708,-1.7168c-0.10801,-1.13799 1.42584,-2.21441 3.42596,-2.40424c2.00011,-0.18983 3.70908,0.57881 3.81711,1.7168z" fill="#6348a2" stroke="none" stroke-width="0" stroke-linecap="butt"/><path d="M246.50251,153.10765c1.23429,0.96275 0.86317,3.50181 -0.82893,5.67118c-1.6921,2.16937 -4.0644,3.1475 -5.29869,2.18476c-1.23429,-0.96275 -0.86317,-3.50181 0.82893,-5.67118c1.6921,-2.16937 4.0644,-3.1475 5.29869,-2.18476z" fill="#6348a2" stroke="none" stroke-width="0" stroke-linecap="butt"/><path d="M235.36514,159.69818c0,-1.69249 0,-8.24534 0,-8.24534h6.957c0,0 0,6.14583 0,7.90178c0,0.87797 -2.46611,2.40489 -3.69322,2.40489c-0.89393,0 -3.26378,-1.30838 -3.26378,-2.06133z" fill="#e880e6" stroke="none" stroke-width="0" stroke-linecap="butt"/><path d="M238.43302,105.07862l0.23652,-0.09635l0.21898,-0.13139l0.06201,0.01692l0.09742,-0.03968l0.48622,-0.06947l0.14747,-0.04915l0.05037,-0.00388l0.04458,-0.02377l0.29556,-0.07388l0.04705,-0.01568l0.11411,-0.07608l0.20765,-0.07416l0.19454,-0.10375l0.34356,-0.08589h0.1586l0.15386,-0.03846h0.16473l0.0634,-0.0141l0.28718,-0.0718h0.0359l0.03612,-0.00802l0.01204,0.00802h0.15288l0.41015,-0.06835l0.10734,0.00859l0.10446,-0.02613h6.87112l0.20093,0.05023l0.20648,0.01589l0.317,0.10566h0.22037l0.12449,0.03113l0.12818,-0.00612l0.38329,0.07666l0.64039,0.08005l0.10159,0.03934l0.1088,0.00507l0.80081,0.24025l0.36999,0.07398l0.1077,0.05104l0.1181,0.01611l0.42944,0.17178l0.10925,0.0789l0.12691,0.04533l0.07199,0.04799l0.12706,0.03178l0.12519,0.06675l0.1385,0.03078l0.29563,0.14781l0.3797,0.15187l0.04432,0.032l0.05337,0.01185l0.85889,0.42944l0.06181,0.05298l0.07666,0.02738l0.19093,0.12727l0.4436,0.2218l0.08891,0.0762l0.10793,0.04544l0.27938,0.20955l0.53158,0.30375l0.12425,0.11906l0.14756,0.08853l1.546,1.546l0.06601,0.11002l0.09494,0.08632l0.2728,0.40919l0.16747,0.16747l0.00378,0.00627l0.02264,0.00637l0.15058,0.28233l0.16463,0.27438l-0.00618,0.02269l0.00345,0.00646l0.02235,0.08943l0.00299,0.00496l0.13478,0.15725l0.25767,0.51533l0.02012,0.09051l0.04978,0.07824l0.01977,0.05933l0.13223,0.1763l0.04081,0.09693l0.05579,0.03188l0.06194,0.24776l0.0991,0.23537l-0.02551,0.05901l0.00228,0.00912l0.40254,0.80511l0.03078,0.1385l0.06677,0.12519l0.06469,0.25873l0.13931,0.34825l0.01611,0.1181l0.05102,0.10772l0.0627,0.31346l0.12785,0.31961l0.00905,0.06646l0.03351,0.0581l0.15367,0.53787l0.14732,0.36826l0.02238,0.16417l0.05981,0.15451l0.08263,0.66104l0.07311,0.43865l0.15931,0.63721v0.0314l0.01343,0.02839l0.16577,0.82883l0.07845,0.3138v0.1586l0.01524,0.06093l0.14488,0.28977l0.03078,0.1385l0.06677,0.12519l0.15398,0.61593l0.19555,0.52147l0.29219,0.51133l0.03216,0.11434l0.06526,0.09925l0.55106,1.57443l0.69089,1.07471l0.03772,0.11147l0.06984,0.09468l0.60122,1.46011l0.00878,0.05986l0.03128,0.05179l0.34356,1.11656l0.02042,0.38121l0.04349,0.08701l-0.03377,0.09456l0.00538,0.10027l-0.06653,0.07094l-0.1284,0.35953l-0.17178,0.25767l-0.39956,0.36322l-0.02826,0.04942l-0.03604,0.00902l-0.02748,0.02498l-0.05679,-0.00392l-0.52385,0.13096h-0.94478v2.319l-0.03111,0.12449l0.0061,0.12818l-0.07665,0.38327l-0.0701,0.56082v1.20813l-0.03113,0.12449l0.0061,0.12818l-0.06088,0.30436v0.1301l-0.05918,0.23671l-0.03296,0.24176l-0.12785,0.31961l-0.03767,0.18837v0.81904l0.00804,0.01204l-0.00804,0.03611v0.0359l-0.07179,0.28718l-0.0141,0.06342v0.25062l-0.03846,0.15386v0.1586l-0.08589,0.34356l-0.04171,0.07819l-0.01197,0.08781l-0.12006,0.30015l-0.06301,0.37796l-0.02094,0.04817v0.0525l-0.07845,0.31382l-0.07988,0.39938l-0.07366,0.15551l-0.03734,0.16798l-0.1478,0.29563l-0.13782,0.34453l-0.07392,0.22175l-0.04978,0.07824l-0.02012,0.09051l-0.10853,0.21706l-0.05158,0.20636l-0.04171,0.07819l-0.01197,0.08781l-0.11604,0.2901l0.00067,0.00249l-0.00505,0.00842l-0.05138,0.12844l-0.13966,0.19337l-0.00608,0.0791l-0.08589,0.25767l-0.0924,0.14519l-0.05787,0.16206l-0.15477,0.23216l-0.16913,0.28189l-0.01458,0.04375l0.0038,0.01397l-0.01903,0.03173l-0.01135,0.03405l-0.15893,0.24975l-0.1523,0.25384l-0.02539,0.02539l-0.01986,0.03121l-0.01419,0.00283l-0.08843,0.08843l-0.08912,0.10398l-0.10655,0.17758l-0.14788,0.14788l-0.08912,0.10398l-0.10655,0.17758l-0.06198,0.06199l-0.03056,0.03564l-0.04544,0.10793l-0.25767,0.34356l-0.07196,0.05847l-0.0477,0.07952l-0.14848,0.14848l-0.02797,0.11188l-0.06677,0.12519l-0.03078,0.1385l-0.08589,0.17178l-0.05298,0.06181l-0.02738,0.07666l-0.12729,0.19093l-0.13591,0.27182l-0.03288,0.03836l-0.01472,0.04832l-0.13181,0.21969l-0.04568,0.27405l-0.02958,0.06801l-0.00246,0.07412l-0.12222,0.42773v0.07723l-0.05918,0.23673l-0.03296,0.24176l-0.12785,0.31961l-0.05567,0.2784l-0.06789,0.47517v4.28878l-0.02841,0.11361l0.00763,0.11686l-0.17178,0.94478l-0.02513,0.05554l0.00746,0.02645l-0.03678,0.03836l-0.21922,0.4846l-0.37051,0.13076l-0.27184,0.28366h-0.53188l-0.05012,0.01769l-0.02103,-0.01769h-0.06096l-0.34356,-0.08589l-0.04458,-0.02377l-0.05037,-0.00388l-0.25767,-0.08589l-0.03267,-0.0208l-0.03839,-0.00524l-0.42944,-0.17178l-0.01271,-0.00919l-0.22546,-0.05636l-0.28898,-0.06423l-0.03211,-0.01604l-0.0359,-0.00897l-0.00718,-0.01257l-0.0147,-0.00735l-0.09106,-0.03035l-0.01397,0.00381l-0.03173,-0.01905l-0.03405,-0.01134l-0.24975,-0.15893l-0.14565,-0.08738l-0.03405,-0.01135l-0.24975,-0.15893l-0.25384,-0.1523l-0.02539,-0.02539l-0.03121,-0.01986l-0.00283,-0.01419l-0.28412,-0.28412l-0.10655,-0.17758l-0.13478,-0.15725l-0.25767,-0.51533l-0.01187,-0.05337l-0.032,-0.04432l-0.12196,-0.30489l-0.26914,-0.40373l-0.07416,-0.20763l-0.10375,-0.19454l-0.12868,-0.5147l-0.25537,-0.44691l-0.02455,-0.08725l-0.05306,-0.07347l-0.17178,-0.42944l-0.03296,-0.24176l-0.05545,-0.22183l-0.0235,-0.03693l-0.14283,-0.42847l-0.04494,-0.08989l-0.03733,-0.16798l-0.07368,-0.15551l-0.08434,-0.42171l-0.35721,0.14288l-0.29563,0.14781l-0.09051,0.02012l-0.07823,0.04978l-0.38118,0.12706l-0.30817,0.1849l-0.0998,0.03037l-0.08457,0.06108l-0.41486,0.16594l-0.58679,0.25148l-0.13304,0.02146l-0.12179,0.05768l-0.39938,0.07988l-0.57254,0.14314l-0.34826,0.13931l-0.03839,0.00524l-0.03269,0.0208l-0.51533,0.17178l-0.08117,0.00624l-0.07357,0.03485l-0.35079,0.07017l-0.43925,0.14641l-0.08117,0.00625l-0.07357,0.03485l-0.31346,0.0627l-0.31963,0.12785l-0.05798,0.0079l-0.0503,0.02991l-0.85889,0.25767l-0.11758,0.00548l-0.11033,0.04099l-0.70379,0.07819l-0.70501,0.15668l-0.14184,-0.00373l-0.13765,0.03441h-6.61345l-0.10446,-0.02611l-0.10734,0.00859l-0.92549,-0.15426h-0.66638l-0.05305,-0.01326l-0.05396,0.00881l-1.03067,-0.08589l-0.0839,-0.02857l-0.08859,0.00232l-0.773,-0.17178l-0.04286,-0.02142l-0.04786,-0.00222l-0.74703,-0.22412l-0.65695,-0.07299l-0.12847,-0.04772l-0.13665,-0.01051l-0.773,-0.25767l-0.0925,-0.05887l-0.10636,-0.02659l-1.16757,-0.62271l-0.40199,-0.11485l-0.00107,0.00024l-0.07824,0.0498l-0.31698,0.10566l-0.17631,0.13223l-0.10793,0.04544l-0.08891,0.0762l-0.34356,0.17178l-0.1385,0.03078l-0.12519,0.06677l-0.25873,0.06469l-0.34826,0.13931l-0.03839,0.00522l-0.03269,0.0208l-0.773,0.25767l-0.20648,0.01587l-0.20091,0.05023h-0.03681l-0.00613,0.01074l-0.03588,0.00897l-0.03212,0.01604l-0.28898,0.06423l-0.28718,0.0718h-0.03588l-0.03612,0.00802l-0.01204,-0.00802h-3.69506l-0.24657,-0.06165l-0.09504,0.02592l-0.14196,-0.08517l-0.1606,-0.04014l-0.04887,-0.08555l-0.21795,-0.13076l-0.17178,-0.17178l-0.34161,-0.56937l0.01338,-0.04908l-0.03393,-0.03793l0.05093,-0.66203l0.01977,-0.05933v-1.21375l-0.10566,-0.317l-0.01589,-0.20648l-0.05023,-0.20091v-0.03942l-0.20754,-0.41508l-0.02012,-0.09051l-0.04978,-0.07824l-0.05693,-0.1708l-0.13084,-0.26165l-0.03077,-0.1385l-0.06677,-0.12519l-0.06469,-0.25871l-0.04109,-0.10274l-0.07069,-0.07069l-0.10655,-0.17758l-0.13478,-0.15725l-0.05002,-0.10003l-0.40007,-0.60012l-0.23168,-0.23168l-0.9221,-0.83828l-0.10468,-0.15702l-0.13344,-0.13344l-0.17607,-0.29345l-0.2314,-0.2314l-0.0554,-0.09233l-0.08197,-0.06983l-0.42074,-0.58904l-0.11628,-0.15503l-0.07405,-0.04935l-0.08632,-0.09494l-0.11002,-0.06603l-0.54179,-0.54177l-0.01419,-0.00283l-0.01987,-0.03121l-0.02539,-0.02539l-0.1523,-0.25384l-0.15893,-0.24975l-0.01135,-0.03405l-0.01905,-0.03173l0.00381,-0.01397l-0.05931,-0.17793l-0.00387,-0.05037l-0.02377,-0.04458l-0.05158,-0.20636l-0.02264,-0.04528l-0.02012,-0.09051l-0.04978,-0.07824l-0.08589,-0.25767l-0.01589,-0.20648l-0.05023,-0.20091v-3.77911l0.03113,-0.12449l-0.00612,-0.12818l0.08589,-0.42944l0.02278,-0.04808l0.00179,-0.05318l0.1222,-0.42773v-1.1079l0.03846,-0.15386v-0.1586l0.08589,-0.34356l0.02377,-0.04458l0.00388,-0.05037l0.10566,-0.317v-0.22037l0.01257,-0.0503l-0.01951,-0.03905l0.0976,-0.27328l0.07039,-0.28154l0.03789,-0.02166l0.01744,-0.04882l0.07608,-0.11411l0.03721,-0.11162l-0.12409,-0.12409l-0.0477,-0.07952l-0.07197,-0.05847l-0.20273,-0.27031l-0.10703,-0.10703l-0.10655,-0.17758l-0.13478,-0.15725l-0.05,-0.10003l-0.02365,-0.03547l-0.2628,-0.21902l-0.00441,-0.00024l-0.01031,-0.01202l-0.09427,-0.07855l-0.15577,-0.21314l-0.1718,-0.20043l-0.05488,-0.10977l-0.00934,-0.01278l0.00077,-0.00435l-0.06313,-0.12626l-0.37068,-0.51896l-0.03028,-0.07687l-0.04865,-0.02781l-0.06548,-0.26193l-0.09894,-0.25119l0.02343,-0.05091l-0.02003,-0.08013v-0.09906l-0.08682,-0.34727l-0.15903,-0.26505l-0.05547,-0.18226l-0.08967,-0.16812l-0.17178,-0.68711v-0.0314l-0.01345,-0.02839l-0.0359,-0.17953l-0.0304,-0.04561l-0.01744,-0.0488l-0.03789,-0.02166l-0.07039,-0.28153l-0.0976,-0.2733l0.01951,-0.03905l-0.01257,-0.05028v-0.23693l-0.06835,-0.41015l0.00859,-0.10734l-0.02613,-0.10446v-0.16611l-0.15376,-1.07641l-0.07888,-0.39437l0.00612,-0.12818l-0.03113,-0.12449v-2.92022l0.02249,-0.08996l-0.00955,-0.09224l0.08589,-0.60122l0.19127,-0.4695l0.00381,-0.06851l0.03704,-0.03174l0.01841,-0.04518l0.06378,-0.02527l0.38492,-0.32993l0.26837,-0.13418l0.00718,-0.01257l0.0359,-0.00897l0.03211,-0.01604l0.23077,-0.05129l0.06019,-0.04013l0.07666,-0.02738l0.06181,-0.05298l0.17178,-0.08589l0.09053,-0.02012l0.07823,-0.04978l0.42847,-0.14283l0.26167,-0.13084l0.05337,-0.01185l0.04432,-0.032l0.3797,-0.15187l0.73921,-0.36961l0.19093,-0.12727l0.16206,-0.05787l0.14517,-0.09238l0.0139,-0.00464l0.04995,-0.06148l0.27031,-0.20273l0.13098,-0.13098l0.07828,-0.15656l0.13478,-0.15725l0.10655,-0.17758l0.25336,-0.25336l0.10102,-0.15153l0.0666,-0.06055l0.01316,-0.05262l0.10375,-0.19454l0.07416,-0.20763l0.24784,-0.37178l0.11722,-0.35165l0.11117,-0.17473l0.08036,-0.19088l0.11494,-0.15323l0.10642,-0.37248l0.08469,-0.14678l0.04935,-0.16212l0.15903,-0.26505l0.03939,-0.15757l0.05311,-0.0996l0.01945,-0.11119l0.3183,-0.71616l0.15211,-0.45633l0.07617,-0.11971l0.04131,-0.13572l0.25767,-0.42944l0.06211,-0.06211l0.03661,-0.07986l0.25829,-0.32286l0.19662,-0.39327l0.0762,-0.08891l0.04544,-0.10793l0.15544,-0.20723l0.10849,-0.27124l0.06107,-0.08457l0.03037,-0.0998l0.25767,-0.42944l0.04782,-0.04782l0.02625,-0.06234l0.24868,-0.33157l0.85018,-1.19025l0.08197,-0.06983l0.0554,-0.09233l0.51533,-0.51533l0.07952,-0.0477l0.05847,-0.07197l0.27031,-0.20273l0.27881,-0.27881l0.04332,-0.02599l0.02924,-0.04119l0.60122,-0.51533l0.11025,-0.05512l0.089,-0.08527l0.58932,-0.33675l0.4177,-0.25061l0.0998,-0.03037l0.08458,-0.06107l0.42944,-0.17178l0.0878,-0.01199l0.07821,-0.04169l0.6391,-0.15979l0.46839,-0.15613l0.20649,-0.01589l0.20091,-0.05023h3.865l0.07898,0.01974l0.0808,-0.00981l0.60753,0.07594h0.34924l0.20091,0.05023l0.20649,0.01589l0.46839,0.15613l0.29556,0.07388l0.01244,0.00663l0.01409,0.00029l0.94478,0.25767l0.05301,0.02972l0.06038,0.00691l0.66478,0.2493l0.49271,0.16424l0.14517,0.09238l0.16206,0.05787l0.37178,0.24784l0.01424,0.00476l0.01397,-0.00381l0.03173,0.01905l0.03405,0.01135l0.24975,0.15893l0.25384,0.1523l0.02539,0.02539l0.03121,0.01986l0.00283,0.01419l0.1569,0.1569l0.47045,0.39203l0.10966,0.15007l0.13753,0.12502l0.30537,0.45806l0.34139,0.40966l0.0052,-0.0156l0.26227,-0.12425l0.24885,-0.14931l0.04212,0.01149l0.04684,-0.02219l0.19394,-0.03879l0.13868,-0.08321l0.04887,-0.08555l0.1606,-0.04014l0.14196,-0.08517l0.09504,0.02592l0.23169,-0.05792l0.03692,-0.0235l0.01826,-0.0061z" fill="#4b2567" stroke="none" stroke-width="0.5" stroke-linecap="butt"/><path d="M259.57603,145.7695c3.47666,2.20736 4.76496,6.40673 2.8775,9.37952c-1.88746,2.97279 -6.23595,3.5933 -9.71261,1.38592c-3.47666,-2.20736 -4.76495,-6.40675 -2.87749,-9.37954c1.88746,-2.97279 6.23593,-3.59328 9.7126,-1.3859z" data-paper-data="{&quot;index&quot;:null}" fill="#bd56bb" stroke="none" stroke-width="0" stroke-linecap="butt"/><path d="M260.03473,133.18021c4.78456,-1.10068 9.42619,1.32358 10.36733,5.41473c0.94115,4.09115 -2.17454,8.29996 -6.9591,9.40065c-4.78456,1.10068 -9.42619,-1.32358 -10.36733,-5.41473c-0.94115,-4.09115 2.17454,-8.29995 6.9591,-9.40063z" data-paper-data="{&quot;index&quot;:null}" fill="#bd56bb" stroke="none" stroke-width="0" stroke-linecap="butt"/><path d="M230.36338,146.29654c1.88746,2.97279 0.59918,7.17217 -2.87749,9.37954c-3.47666,2.20736 -7.82517,1.58687 -9.71263,-1.38592c-1.88746,-2.97279 -0.59916,-7.17216 2.8775,-9.37952c3.47666,-2.20736 7.82515,-1.58688 9.71261,1.3859z" fill="#bd56bb" stroke="none" stroke-width="0" stroke-linecap="butt"/><path d="M227.15119,141.72195c-0.94115,4.09115 -5.58276,6.51541 -10.36733,5.41475c-4.78456,-1.10068 -7.90027,-5.30948 -6.95912,-9.40063c0.94115,-4.09115 5.58276,-6.5154 10.36733,-5.41473c4.78456,1.10068 7.90027,5.30948 6.95912,9.40063z" fill="#bd56bb" stroke="none" stroke-width="0" stroke-linecap="butt"/><path d="M216.96252,128.91102c0,-12.21456 9.90184,-22.1164 22.1164,-22.1164c12.21456,0 22.1164,9.90184 22.1164,22.1164c0,12.21456 -9.90184,25.2084 -22.1164,25.2084c-12.21456,0 -22.1164,-12.99385 -22.1164,-25.2084z" fill="#f190ef" stroke="none" stroke-width="0" stroke-linecap="butt"/><path d="M221.36524,130.6677c0,-4.45891 3.61465,-8.07356 8.07356,-8.07356c4.45891,0 8.07356,3.61465 8.07356,8.07356c0,4.45891 -3.61465,8.07356 -8.07356,8.07356c-4.45891,0 -8.07356,-3.61465 -8.07356,-8.07356z" fill="#ffffff" stroke="none" stroke-width="0" stroke-linecap="butt"/><path d="M231.58603,140.63084c0,1.47049 -0.80753,2.66256 -1.80367,2.66256c-0.99614,0 -1.80367,-1.19207 -1.80367,-2.66256c0,-1.47049 1.80367,-2.66256 1.80367,-2.66256c0,0 1.80367,1.19207 1.80367,2.66256z" fill="#ffffff" stroke="none" stroke-width="0" stroke-linecap="butt"/><path d="M240.86203,130.8395c0,-4.45891 3.61465,-8.07356 8.07356,-8.07356c4.45891,0 8.07356,3.61465 8.07356,8.07356c0,4.45891 -3.61465,8.07356 -8.07356,8.07356c-4.45891,0 -8.07356,-3.61465 -8.07356,-8.07356z" fill="#ffffff" stroke="none" stroke-width="0" stroke-linecap="butt"/><path d="M251.08282,140.80261c0,1.47049 -0.80753,2.66256 -1.80367,2.66256c-0.99614,0 -1.80367,-1.19207 -1.80367,-2.66256c0,-1.47049 1.80367,-2.66256 1.80367,-2.66256c0,0 1.80367,1.19207 1.80367,2.66256z" fill="#ffffff" stroke="none" stroke-width="0" stroke-linecap="butt"/><path d="M225.31613,128.7352c0,-2.63265 2.13419,-4.76684 4.76684,-4.76684c2.63265,0 4.76684,2.13419 4.76684,4.76684c0,2.63265 -2.13419,4.76684 -4.76684,4.76684c-2.63265,0 -4.76684,-2.13419 -4.76684,-4.76684z" fill="#000000" stroke="none" stroke-width="0" stroke-linecap="butt"/><path d="M242.23626,129.16465c0,-2.63265 2.13419,-4.76684 4.76684,-4.76684c2.63265,0 4.76684,2.13419 4.76684,4.76684c0,2.63265 -2.13419,4.76684 -4.76684,4.76684c-2.63265,0 -4.76684,-2.13419 -4.76684,-4.76684z" fill="#000000" stroke="none" stroke-width="0" stroke-linecap="butt"/><path d="M240.94792,106.27526l0.23673,0.05918l0.24176,0.03296l0.19907,0.07964h0.09544l0.20091,0.05023l0.20648,0.01589l0.05933,0.01977h0.13448l0.12449,0.03113l0.12818,-0.0061l0.42944,0.08589l0.15551,0.07368l0.16798,0.03733l0.17178,0.08589l0.06182,0.05298l0.07666,0.02738l0.01256,0.00837l0.07532,0.01883l0.28898,0.06423l0.03212,0.01604l0.03588,0.00897l0.0022,0.00385l0.02757,0.00689h0.18495l0.20091,0.05023l0.20648,0.01589l0.25767,0.08589l0.03269,0.02079l0.03839,0.00524l0.34826,0.13931l0.25873,0.06469l0.08891,0.04741h0.11396l0.20091,0.05023l0.20648,0.01589l0.25767,0.08589l0.07824,0.04978l0.09051,0.02012l0.18923,0.09462l0.26026,0.05205l0.11756,0.05569l0.02333,0.00517h0.03588l0.28718,0.0718l0.28898,0.06423l0.03212,0.01604l0.03588,0.00897l0.00718,0.01257l0.04866,0.02434l0.29852,0.1194l0.25873,0.06469l0.04458,0.02377l0.05037,0.00387l0.17793,0.05931l0.01397,-0.00381l0.03173,0.01903l0.03406,0.01135l0.24975,0.15893l0.08122,0.04873l0.43298,0.10825l0.12519,0.06677l0.1385,0.03078l0.08989,0.04494l0.09106,0.03035l0.01397,-0.00381l0.03173,0.01905l0.03406,0.01135l0.24975,0.15893l0.08122,0.04873l0.08943,0.02235l0.04458,0.02377l0.05037,0.00387l0.25767,0.08589l0.07824,0.04978l0.09051,0.02012l0.46741,0.2337l0.34453,0.13782l0.22175,0.07392l0.14519,0.09238l0.16206,0.05787l0.19093,0.12727l0.10003,0.05002l0.06182,0.05298l0.07666,0.02738l0.19093,0.12727l0.18993,0.09496l0.09104,0.03035l0.01397,-0.00381l0.03173,0.01905l0.03405,0.01135l0.24975,0.15893l0.25384,0.1523l0.02539,0.02539l0.03121,0.01986l0.00283,0.01419l0.0504,0.05038l0.50011,0.25006l0.10406,0.08919l0.12459,0.05712l0.3858,0.30862l0.72648,0.48433l0.02463,0.02707l0.03374,0.01421l0.31495,0.23621l0.22791,0.15195l0.02462,0.02707l0.03374,0.01421l0.34356,0.25767l0.05847,0.07196l0.07952,0.04772l1.03067,1.03067l0.00378,0.00627l0.02264,0.00637l0.15058,0.28233l0.16463,0.27438l-0.0062,0.02269l0.00119,0.00222l0.00694,0.00694l0.1523,0.25384l0.15893,0.24975l0.01134,0.03405l0.01905,0.03173l-0.00381,0.01397l0.03035,0.09106l0.33655,0.67308l0.18796,0.25062l0.04544,0.10793l0.0762,0.08891l0.29161,0.5832l0.18796,0.25062l0.04544,0.10793l0.0762,0.08891l0.13591,0.27182l0.26804,0.40208l0.30863,0.38578l0.04231,0.0923l0.07026,0.07331l0.33095,0.57915l0.41598,0.66555l0.07155,0.22058l0.09927,0.20959l0.08589,0.42944l-0.00101,0.0213l0.0085,0.01957l0.08589,0.51533l-0.00287,0.03583l0.01251,0.0337l0.08589,0.773l-0.00972,0.07189l0.01759,0.07038v0.35673l0.13332,0.53325v0.05251l0.02094,0.04815l0.08589,0.51533l-0.00857,0.10733l0.02611,0.10448v0.30188l0.14675,0.7338l-0.0061,0.12816l0.03111,0.12449v0.35501l0.0464,0.12988l0.10786,0.24808l0.01687,0.10113l0.00763,0.02135l-0.00306,0.0061l0.06445,0.38676l-0.00857,0.10734l0.02611,0.10446v0.15104l0.06835,0.41015l-0.00859,0.10734l0.02611,0.10446v0.47804l0.01979,0.05933l0.01589,0.20648l0.05023,0.20091v0.13416l0.06088,0.12851l0.08589,0.42944l-0.0061,0.12816l0.03111,0.12449v0.16312l0.12222,0.42773l0.00177,0.05318l0.02278,0.0481l0.07567,0.37831l0.15745,0.55108l0.00945,0.28374l0.04011,0.07019l-0.03568,0.06246l0.00825,0.24722l-0.3606,0.36941l-0.25612,0.4482l-0.23997,0.06l-0.05026,0.05148l-0.0785,-0.01929l-0.0875,0.02188l-0.00816,0.0085h-0.02589l-0.15386,0.03846h-0.17178l-0.15386,-0.03846h-0.1586l-0.34356,-0.08589l-0.12519,-0.06675l-0.1385,-0.03078l-0.06871,-0.03436l-0.00634,-0.00141h-0.0359l-0.2872,-0.07179l-0.28896,-0.06423l-0.03211,-0.01604l-0.0359,-0.00898l-0.00718,-0.01256l-0.04866,-0.02434l-0.3797,-0.15187l-0.04432,-0.03202l-0.05337,-0.01185l-0.68711,-0.34356l-0.15725,-0.13478l-0.17758,-0.10655l-0.05962,-0.05964l-0.20043,-0.12026l-0.0108,0.00074l-0.0234,-0.02127l-0.0588,-0.03528l-0.19992,-0.19992l-0.20921,-0.19018l-0.03803,-0.05706l-0.02235,-0.02235l0.00024,-0.01084l-0.11162,-0.16741l-0.02738,-0.07666l-0.05298,-0.06181l-0.08589,-0.17178l-0.0062,-0.02785l-0.05078,-0.01015l-0.13119,-0.20615l-0.16437,-0.1808l0.00483,-0.0699l-0.02973,-0.04674l-0.0089,-0.0089l-0.01419,-0.00283l-0.01986,-0.03121l-0.02539,-0.02539l-0.1523,-0.25384l-0.15893,-0.24975l-0.01135,-0.03405l-0.01905,-0.03173l0.00381,-0.01397l-0.04734,-0.14199l-0.05952,-0.14878l-0.07069,-0.07069l-0.00376,-0.00627l-0.02266,-0.00636l-0.15058,-0.28235l-0.16463,-0.27438l0.00618,-0.02269l-0.00344,-0.00646l-0.07143,-0.28574l-0.08555,-0.14258l-0.15893,-0.24975l-0.01135,-0.03405l-0.01905,-0.03173l0.00381,-0.01397l-0.03035,-0.09106l-0.04494,-0.08987l-0.02012,-0.09051l-0.04978,-0.07824l-0.08589,-0.25767l-0.00387,-0.05037l-0.02377,-0.04458l-0.02279,-0.09115l-0.00737,-0.00983l-0.00093,-0.00026l-0.00182,-0.00342l-0.09145,-0.12193l-0.09906,-0.23528l-0.12014,-0.22525l-0.03697,-0.14787l-0.00151,-0.00356l0.0004,-0.00089l-0.01352,-0.05402l-0.19442,-0.38885l-0.03077,-0.1385l-0.06677,-0.12519l-0.07388,-0.29556l-0.09003,-0.27005l-0.03801,-0.05071l-0.00093,-0.00026l-0.00182,-0.00342l-0.09145,-0.12193l-0.09906,-0.23528l-0.12014,-0.22525l-0.03697,-0.14785l-0.00151,-0.00356l0.0004,-0.00089l-0.03336,-0.13342l-0.0398,-0.06632l-0.13478,-0.15725l-0.07828,-0.15656l-0.10983,-0.10983l-0.00376,-0.00627l-0.02266,-0.00636l-0.15058,-0.28235l-0.16463,-0.27438l0.00618,-0.02269l-0.00344,-0.00646l-0.02279,-0.09116l-0.10157,-0.13541l-0.04544,-0.10793l-0.0762,-0.08891l-0.13591,-0.2718l-0.05651,-0.08477l-0.16747,-0.16747l-0.06601,-0.11004l-0.09494,-0.08632l-0.30539,-0.45808l-0.34797,-0.41757l-0.38811,-0.38811l-0.10655,-0.17758l-0.13478,-0.15725l-0.07828,-0.15656l-0.68479,-0.68479l-0.29345,-0.17607l-0.11214,-0.11215l-0.13601,-0.08159l-0.45339,-0.45339l-0.32834,-0.16417l-0.11372,-0.09748l-0.13488,-0.06512l-0.51533,-0.42944l-0.03515,-0.0481l-0.00545,-0.00326l-0.21433,-0.08573l-0.10925,-0.07891l-0.12691,-0.04532l-0.23216,-0.15477l-0.36072,-0.21644l-0.04564,-0.02281l-0.1708,-0.05693l-0.02204,-0.01402v0.3378l-0.03846,0.15388v0.15859l-0.08589,0.34356l-0.04171,0.07819l-0.01197,0.08781l-0.12006,0.30013l-0.06301,0.37796l-0.0085,0.01957l0.00101,0.02132l-0.08589,0.42944l-0.07366,0.15551l-0.03733,0.16798l-0.42944,0.85889l-0.13478,0.15725l-0.10655,0.17758l-0.16747,0.16747l-0.2728,0.40917l-0.09494,0.08632l-0.06603,0.11002l-0.13603,0.13603l-0.01378,0.04526l-0.25767,0.42944l-0.11214,0.11215l-0.08161,0.136l-0.02395,0.02395l-0.07828,0.15656l-0.13478,0.15725l-0.10655,0.17758l-0.27881,0.27881l-0.20273,0.27031l-0.05317,0.0432l-0.00991,0.04954l-0.23556,0.14991l-0.2167,0.17606l-0.0067,-0.00082l-0.07919,0.09747l-0.02872,0.02154l-0.02408,0.0281l-0.01445,0.00079l-0.2763,0.20723l-0.03374,0.01421l-0.02462,0.02709l-0.15153,0.10101l-0.08158,0.08158l-0.11002,0.06601l-0.08632,0.09494l-1.18219,0.78813l-0.16747,0.16745l-0.17758,0.10655l-0.15725,0.13478l-0.10003,0.05002l-0.34244,0.22829l-0.16747,0.16747l-0.17758,0.10655l-0.15725,0.13478l-0.32834,0.16417l-0.02395,0.02395l-0.00629,0.00378l-0.00636,0.02264l-0.28235,0.15058l-0.27438,0.16463l-0.02269,-0.0062l-0.00646,0.00344l-0.12706,0.03178l-0.32966,0.21977l-0.07666,0.02738l-0.06182,0.05298l-0.09659,0.0483l-0.00718,0.01256l-0.03588,0.00898l-0.03212,0.01604l-0.28898,0.06423l-0.28718,0.07179h-0.03588l-0.03612,0.00804l-0.01204,-0.00804h-0.04124l-0.41508,0.20754l-0.16798,0.03733l-0.15551,0.07368l-0.42944,0.08589l-0.12818,-0.0061l-0.12449,0.03111h-3.092l-0.15386,-0.03846h-0.1586l-0.18969,-0.04741h-0.27084l-0.15386,-0.03848h-0.1586l-0.18969,-0.04741h-0.09906l-0.10446,-0.02611l-0.10734,0.00859l-0.41015,-0.06835h-0.41055l-0.01204,0.00802l-0.03612,-0.00802h-0.0359l-0.28718,-0.0718l-0.28898,-0.06423l-0.03211,-0.01604l-0.0359,-0.00897l-0.00718,-0.01257l-0.18646,-0.09324l-0.1708,-0.05693l-0.14519,-0.0924l-0.16206,-0.05787l-0.19093,-0.12729l-0.42836,-0.21419l-0.0197,0.00136l-0.2466,-0.22419l-0.25305,-0.21689l-0.0011,-0.01972l-0.16233,-0.24351l-0.13978,-0.39136l-0.06141,-0.06864l0.00654,-0.08501l-0.02867,-0.08029l0.04119,-0.08238l0.02338,-0.30393l-0.62788,0.62788l-0.20273,0.27031l-0.12681,0.10305l-0.09905,0.12997l-0.42944,0.34356l-0.05183,0.02376l-0.03834,0.04219l-0.15151,0.10102l-0.85458,0.85456l-0.136,0.08161l-0.11214,0.11215l-0.38533,0.2312l-0.55936,0.39954l-0.04885,0.01924l-0.03712,0.03712l-0.40316,0.2419l-0.48982,0.32655l-0.02958,0.01056l-0.02221,0.02221l-0.42944,0.25767l-0.16212,0.04935l-0.14678,0.08469l-0.37248,0.10642l-0.06984,0.05239l-0.00366,0.01094l-0.02968,0.01405l-0.05006,0.03753l-0.26272,0.11061l-0.25762,0.12203l-0.06134,0.01228l-0.03028,0.01275l-0.01058,-0.00459l-0.32724,0.06545l-0.12818,-0.0061l-0.12449,0.03111h-3.95089l-0.12449,-0.03111l-0.12816,0.0061l-0.30436,-0.06088h-0.04604l-0.01204,0.00802l-0.03612,-0.00802h-0.0359l-0.2872,-0.0718l-0.28896,-0.06423l-0.03211,-0.01604l-0.0359,-0.00897l-0.00718,-0.01257l-0.09659,-0.04829l-0.06181,-0.05298l-0.07666,-0.02738l-0.19093,-0.12729l-0.2718,-0.13591l-0.15723,-0.13478l-0.1776,-0.10655l-0.17178,-0.17178l-0.17394,-0.28991l-0.06739,-0.04492l0.00342,-0.06169l-0.10372,-0.17286l0.13679,-0.50151l-0.00768,-0.01534l0.01532,-0.04286l0.02788,-0.50211l0.15305,-0.1312l0.01625,-0.05959l0.07814,-0.02132l0.01017,-0.00873l-0.0005,-0.00182l0.01905,-0.03173l0.01135,-0.03405l0.15893,-0.24975l0.1305,-0.21752l0.01302,-0.06509l0.07368,-0.15553l0.03733,-0.16798l0.3026,-0.60521l0.14283,-0.42848l0.04978,-0.07824l0.02012,-0.09051l0.20412,-0.40823l0.13888,-0.4861l0.06028,-0.10448l0.02616,-0.11775l0.34356,-0.68711l0.0762,-0.08891l0.04544,-0.10793l0.08233,-0.10978l0.02858,-0.14288l0.07366,-0.15551l0.03733,-0.16798l0.04494,-0.08987l0.12718,-0.38154l0.07388,-0.29556l0.02377,-0.04458l0.00387,-0.05037l0.08589,-0.25767l0.0235,-0.03692l0.06808,-0.2723l0.06423,-0.28898l0.01604,-0.03211l0.00897,-0.0359l0.01257,-0.00718l0.0483,-0.09659l0.05298,-0.06182l0.02738,-0.07666l0.0304,-0.04561l0.01089,-0.05444v-0.21598l0.05023,-0.20091l0.01589,-0.20648l0.4138,-1.2414l0.05777,-0.23108l0.07649,-0.53543l0.02551,-0.06263v-0.06763l0.08589,-0.34356l0.06677,-0.12519l0.03077,-0.1385l0.13084,-0.26167l0.11624,-0.34873l-0.00381,-0.01397l0.01905,-0.03173l0.01135,-0.03405l0.15893,-0.24975l0.02743,-0.04574l0.0302,-0.15099l0.07366,-0.15553l0.03733,-0.16798l0.40548,-0.81095l0.09614,-0.24035l-0.00069,-0.00249l0.00505,-0.0084l0.05138,-0.12846l0.13966,-0.19337l0.0061,-0.0791l0.08589,-0.25767l0.04978,-0.07824l0.00598,-0.02683l-0.00026,-0.00091l0.00072,-0.0012l0.01369,-0.06157l0.08589,-0.17178l0.13478,-0.15725l0.10655,-0.17758l0.10983,-0.10983l0.07828,-0.15656l0.13478,-0.15725l0.10655,-0.17758l0.60122,-0.60122l0.1776,-0.10655l0.15725,-0.13478l0.15656,-0.07828l0.79695,-0.79695l0.11004,-0.06601l0.08632,-0.09494l0.40919,-0.2728l0.16747,-0.16745l0.1776,-0.10655l0.15723,-0.13478l0.23965,-0.11983l0.25061,-0.18796l0.10793,-0.04544l0.08891,-0.0762l0.23965,-0.11983l0.25061,-0.18796l0.10793,-0.04544l0.08891,-0.0762l0.29931,-0.14965l0.38702,-0.23221l0.04834,-0.0147l0.03834,-0.03288l0.85889,-0.42944l0.11775,-0.02618l0.10448,-0.06026l0.28024,-0.08007l0.02159,-0.02161l0.21793,-0.13077l0.04889,-0.08553l0.1606,-0.04014l0.14196,-0.08518l0.09504,0.02592l0.24657,-0.06165h0.04861l0.31698,-0.10566l0.11676,-0.00898l0.10844,-0.04418l0.34368,-0.04909l0.20636,-0.1238l0.23029,-0.07009l0.22075,-0.09597l0.49484,-0.08247l0.35793,-0.07158l0.52416,-0.14977l0.23111,-0.07704l0.05037,-0.00387l0.04458,-0.02377l0.34356,-0.08589h0.0314l0.02839,-0.01345l0.17953,-0.0359l0.04561,-0.0304l0.04882,-0.01744l0.02164,-0.03789l0.28154,-0.07039l0.2733,-0.0976l0.03905,0.01951l0.05028,-0.01257h3.52145c0.2196,0 0.42635,0.05493 0.60729,0.15182l0.03688,0.00922l0.00615,0.01074z" fill="#4b2567" stroke="none" stroke-width="0.5" stroke-linecap="butt"/><path d="M232.87436,150.07862c0,0 4.08874,-0.68711 5.92634,-0.68711c2.27631,0 6.69934,0.68711 6.69934,0.68711" fill="none" stroke="#000000" stroke-width="0.5" stroke-linecap="round"/><path d="M239.0283,141.06028c0,0 -1.70139,-0.05006 -1.68763,-0.52442c0.00964,-0.33253 0.48816,0.44528 0.66638,-0.32581c0.37296,-1.61358 0.59181,-3.70188 0.59181,-3.70188" data-paper-data="{&quot;index&quot;:null}" fill="none" stroke="#000000" stroke-width="0.5" stroke-linecap="round"/><path d="M230.25475,120.11412c-2.6785,-2.6785 6.33335,-2.39118 8.64718,-3.70396c1.44886,-0.82203 3.94344,-6.63162 5.21554,-6.50257c0.15999,-0.07127 0.3372,-0.11088 0.52368,-0.11088c0.5943,0 1.0946,0.40239 1.24333,0.94959l0.18569,-0.05222l0.16886,0.16181l0.23331,0.0161l0.19921,0.3984l0.33601,0.32203v0.35003l0.04542,0.09084l-0.04542,0.12717v0.09597l-0.07845,0.31382l-0.1769,0.88445l0.34861,-0.09803l0.01768,0.01694l0.02379,-0.00584l0.43348,0.44405l0.46246,0.44319v0.03056l0.01103,0.01129l-0.01082,0.32464l0.04901,0.028l0.12742,0.50968l0.04166,0.06248l-0.01226,0.05512l0.00423,0.0169v0.773l-0.03846,0.15388v0.15859l-0.04741,0.18969v0.27084l-0.03848,0.15386v0.15859l-0.08589,0.34356l-0.02377,0.04458l-0.00387,0.05037l-0.07026,0.21072l-0.07388,0.29556l-0.06677,0.12519l-0.03078,0.1385l-0.00873,0.01747l-0.03162,0.15805l0.00459,0.01058l-0.01276,0.03028l-0.01226,0.06134l-0.12203,0.25762l-0.11061,0.26272l-0.03753,0.05004l-0.01405,0.0297l-0.00259,0.00086l-0.01192,0.15503l-0.01189,0.0357l0.00015,0.00022l-0.00804,0.03612v0.03588l-0.07179,0.2872l-0.06423,0.28898l-0.01604,0.03211l-0.00898,0.03588l-0.01256,0.00718l-0.02434,0.04866l-0.1378,0.34453l-0.14416,0.43249l-0.0739,0.29556l-0.10375,0.19456l-0.07414,0.20763l-0.12729,0.19093l-0.2218,0.44358l-0.13478,0.15725l-0.10655,0.17758l-0.02395,0.02395l-0.07828,0.15656l-0.13478,0.15725l-0.10655,0.17758l-0.08556,0.08555l-0.00606,0.01823l0.00381,0.01397l-0.01905,0.03173l-0.01134,0.03405l-0.15893,0.24975l-0.1523,0.25384l-0.02539,0.02539l-0.01986,0.03121l-0.01419,0.00283l-1.65834,1.65834l-0.17758,0.10655l-0.15725,0.13478l-0.29931,0.14965l-0.25102,0.1506l-0.2314,0.2314l-0.00629,0.00378l-0.00636,0.02264l-0.28235,0.15058l-0.27438,0.16463l-0.02269,-0.0062l-0.00648,0.00345l-0.12705,0.03176l-0.04224,0.02815l-0.31495,0.23621l-0.10793,0.04544l-0.08891,0.0762l-0.34356,0.17178l-0.09051,0.02012l-0.07824,0.0498l-0.094,0.03133l-0.11411,0.07608l-0.12691,0.04533l-0.10925,0.0789l-0.3797,0.15187l-0.05212,0.02606l-0.19093,0.12729l-0.20763,0.07416l-0.19454,0.10375l-0.63912,0.15977l-0.17482,0.05827l-0.39428,0.15771l-0.24176,0.03296l-0.23673,0.05918h-0.09906l-0.18969,0.04743h-0.1586l-0.15386,0.03846h-4.20856l-0.20091,-0.05023l-0.20648,-0.01589l-0.05933,-0.01979h-0.30808l-0.01204,0.00804l-0.03612,-0.00804h-0.0359l-0.2872,-0.07179l-0.0595,-0.01323l-0.01074,0.00716l-0.03612,-0.00802h-0.0359l-0.2872,-0.0718l-0.28896,-0.06423l-0.03211,-0.01604l-0.0359,-0.00897l-0.00718,-0.01257l-0.18648,-0.09322l-0.42847,-0.14283l-0.14519,-0.0924l-0.16206,-0.05787l-0.25767,-0.17178l-0.02463,-0.02709l-0.03374,-0.01421l-0.34356,-0.25767l-0.05847,-0.07197l-0.07952,-0.0477l-0.51533,-0.51533l-0.10655,-0.17758l-0.10671,-0.12449l-0.12449,-0.10671l-0.17758,-0.10655l-0.06198,-0.06199l-0.10399,-0.08912l-0.17758,-0.10655l-0.10703,-0.10703l-0.27031,-0.20273l-0.05847,-0.07197l-0.07952,-0.0477l-0.09486,-0.09486l-0.01867,-0.00883l-0.00491,-0.01474l-0.05334,-0.05334l-0.34161,-0.56937l0.08433,-0.3092l-0.09503,-0.28508l0.25155,-0.28881l0.10076,-0.36951l0.28993,-0.07907l0.21048,-0.24167l0.66323,-0.03157l0.07397,0.01479l0.015,-0.00409l0.01771,0.01063l0.32275,0.06455l0.15553,0.07366l0.16798,0.03733l0.08871,0.04435c0.10942,0.01264 0.21467,0.03899 0.31398,0.0773h2.50533l0.57467,-0.19155l0.10188,-0.00785l0.0937,-0.04075l0.49484,-0.08247l0.15917,-0.03183l0.04561,-0.0304l0.07666,-0.02738l0.06182,-0.05298l0.17178,-0.08589l0.1385,-0.03078l0.12519,-0.06677l0.20636,-0.05158l0.73239,-0.3662l0.09051,-0.02012l0.07824,-0.04978l0.1708,-0.05693l0.26167,-0.13084l0.09051,-0.02012l0.07823,-0.04978l0.1708,-0.05694l0.08989,-0.04494l0.09051,-0.02012l0.07823,-0.04978l0.05933,-0.01979l0.05071,-0.03801l0.00027,-0.00093l0.0034,-0.00182l0.12193,-0.09145l0.23528,-0.09906l0.22525,-0.12014l0.14787,-0.03697l0.00356,-0.00151l0.00089,0.0004l0.10642,-0.02661l0.25241,-0.10097l0.34093,-0.20455l0.18226,-0.05547l0.16386,-0.0874l0.00694,-0.00694l0.25384,-0.1523l0.24975,-0.15893l0.03405,-0.01135l0.03173,-0.01905l0.01397,0.00381l0.09106,-0.03035l0.07465,-0.03734l0.19572,-0.19572l0.11002,-0.06601l0.08632,-0.09494l0.15153,-0.10101l0.16745,-0.16747l0.17758,-0.10655l0.15725,-0.13478l0.15656,-0.07828l0.02395,-0.02395l0.07952,-0.0477l0.05847,-0.07197l0.27031,-0.20273l0.45059,-0.45059l0.17758,-0.10655l0.15725,-0.13478l0.06354,-0.03178l0.05093,-0.04631l0.06603,-0.11002l0.57731,-0.57733l0.05183,-0.06047l0.06512,-0.1349l0.40832,-0.48998l0.23786,-0.31715l0.07196,-0.05847l0.04772,-0.07952l0.02395,-0.02395l0.20912,-0.41821l0.05693,-0.1708l0.01524,-0.02395c-3.57595,3.64116 -10.12517,6.58832 -12.74997,3.96353zM239.96628,124.53454l0.00933,-0.00622l0.07666,-0.02738l0.06182,-0.05298l0.05104,-0.02553l-0.00131,-0.00034l-0.07656,0.01914l-0.16063,0.09638z" fill="#8157a0" stroke="none" stroke-width="0.5" stroke-linecap="butt"/><path d="M244.29151,255.68303l-3.24768,-46.24714h15.71883l6.27056,41.00592l6.07068,7.31973z" fill="#e880e6" stroke="none" stroke-width="0" stroke-linecap="butt"/><path d="M211.03514,257.24193l6.99588,-6.18912l7.42388,-42.00663h15.71884l-3.76733,46.76677z" fill="#e880e6" stroke="none" stroke-width="0" stroke-linecap="butt"/><path d="M214.93237,232.68937l9.48327,-22.34411l16.62819,-0.25981l-1.16917,21.69458z" fill="#57399e" stroke="none" stroke-width="0" stroke-linecap="butt"/><path d="M241.56344,231.78001l-1.16915,-21.69458l16.62819,0.25981l9.48326,22.34413z" data-paper-data="{&quot;index&quot;:null}" fill="#57399e" stroke="none" stroke-width="0" stroke-linecap="butt"/><path d="M224.28572,210.60506l7.66454,-50.7939l13.77021,0.25981l11.8216,50.53408z" fill="#611772" stroke="none" stroke-width="0" stroke-linecap="butt"/><path d="M245.85039,160.26584c0,0.15656 4.44604,0.72009 4.26617,2.40108c-0.78138,7.30336 -7.6028,26.41099 -9.59649,29.31774c-3.11306,4.5388 -10.93684,-21.44815 -12.09165,-29.27933c-0.15874,-1.07655 2.61248,-2.19235 2.61248,-2.43947c0,-2.04476 3.31521,-4.87153 7.40474,-4.87153c4.08953,0 7.40473,2.82678 7.40473,4.87153z" fill="#795dbd" stroke="none" stroke-width="0" stroke-linecap="butt"/><path d="M224.24355,206.19614v-2.86295h32.49464v2.86295z" fill="#27062f" stroke="none" stroke-width="0" stroke-linecap="butt"/><path d="M255.91091,229.5866l-8.23769,-33.39757c0,0 1.12982,-0.84199 1.76416,-0.99667c0.68481,-0.167 2.20489,0.02874 2.20489,0.02874l10.43803,32.51247z" fill="#4889c1" stroke="none" stroke-width="NaN" stroke-linecap="butt"/><path d="M251.83345,209.15948c-0.237,-0.78904 0.21055,-1.62083 0.99959,-1.85781c0.78904,-0.237 1.62083,0.21053 1.85781,0.99958c0.237,0.78904 -0.21053,1.62083 -0.99958,1.85781c-0.78904,0.237 -1.62083,-0.21053 -1.85783,-0.99958z" fill="#122e46" stroke="none" stroke-width="0" stroke-linecap="butt"/><path d="M250.73225,204.86465c-0.237,-0.78904 0.21055,-1.62083 0.99959,-1.85783c0.78904,-0.237 1.62083,0.21053 1.85783,0.99958c0.237,0.78904 -0.21053,1.62083 -0.99958,1.85781c-0.78904,0.237 -1.62084,-0.21051 -1.85785,-0.99956z" fill="#122e46" stroke="none" stroke-width="0" stroke-linecap="butt"/><path d="M249.67451,201.02878c-0.237,-0.78904 0.21055,-1.62083 0.99959,-1.85783c0.78904,-0.237 1.62083,0.21053 1.85781,0.99958c0.237,0.78904 -0.21053,1.62083 -0.99958,1.85781c-0.78904,0.237 -1.62083,-0.21053 -1.85783,-0.99958z" fill="#122e46" stroke="none" stroke-width="0" stroke-linecap="butt"/><path d="M255.13671,221.10005c-0.237,-0.78904 0.21053,-1.62083 0.99958,-1.85781c0.78904,-0.237 1.62083,0.21053 1.85781,0.99958c0.237,0.78904 -0.21053,1.62083 -0.99958,1.85781c-0.78904,0.237 -1.62083,-0.21053 -1.85783,-0.99958z" fill="#122e46" stroke="none" stroke-width="0" stroke-linecap="butt"/><path d="M254.03552,216.80522c-0.237,-0.78904 0.21055,-1.62083 0.99959,-1.85783c0.78904,-0.237 1.62083,0.21053 1.85781,0.99958c0.237,0.78904 -0.21053,1.62083 -0.99958,1.85781c-0.78904,0.237 -1.62083,-0.21053 -1.85783,-0.99958z" fill="#122e46" stroke="none" stroke-width="0" stroke-linecap="butt"/><path d="M252.97777,212.96934c-0.237,-0.78904 0.21055,-1.62083 0.99959,-1.85783c0.78904,-0.237 1.62083,0.21053 1.85781,0.99958c0.237,0.78904 -0.21053,1.62083 -0.99958,1.85783c-0.78904,0.237 -1.62083,-0.21053 -1.85783,-0.99958z" fill="#122e46" stroke="none" stroke-width="0" stroke-linecap="butt"/><path d="M247.94318,205.96138v-2.43353c0,0 0.65863,-0.93171 1.79956,-1.48346c0.82615,-0.39952 4.21148,-0.41682 4.86391,0.05907c0.68517,0.49979 1.06653,1.42438 1.06653,1.42438v2.43353c0,0 -0.97039,-1.35265 -2.23957,-1.88856c-0.3871,-0.16346 -2.59151,0.01594 -3.18335,0.30561c-1.18204,0.57853 -2.30708,1.58295 -2.30708,1.58295z" fill="#16011b" stroke="none" stroke-width="0" stroke-linecap="butt"/><path d="M262.28964,227.52406c0.1631,0.50561 -1.16855,1.38772 -2.97433,1.97022c-1.80578,0.58252 -3.40187,0.64484 -3.56498,0.13923c-0.1631,-0.50561 1.16855,-1.38772 2.97433,-1.97022c1.80578,-0.58252 3.40187,-0.64484 3.56498,-0.13923z" fill="#122e46" stroke="none" stroke-width="0" stroke-linecap="butt"/><path d="M209.49378,185.41763c0,1.28833 -1.28833,1.28833 -1.28833,1.28833l-0.36261,-0.02079c-7.1395,-1.41183 -10.22729,-12.22057 -6.37473,-17.86279c0,0 0.73882,-1.05544 1.79425,-0.31664c1.05544,0.73882 0.31664,1.79425 0.31664,1.79425c-2.8404,3.92605 -0.53657,13.01245 4.72477,13.85006l-0.09833,-0.02079c0,0 1.28833,0 1.28833,1.28833z" fill="#6f488b" stroke="none" stroke-width="0.5" stroke-linecap="butt"/><path d="M269.48394,181.33237c-0.40741,-1.22222 0.81481,-1.62962 0.81481,-1.62962l0.17815,-0.03612c4.94676,-2.71019 6.36092,-7.79973 5.05769,-12.96425c0,0 -0.31246,-1.24987 0.93741,-1.56234c1.24987,-0.31246 1.56234,0.93741 1.56234,0.93741c1.56962,6.33137 -0.37501,12.50904 -6.30609,15.8416l-0.61467,0.22816c0,0 -1.22222,0.40741 -1.62962,-0.81481z" fill="#6f488b" stroke="none" stroke-width="0.5" stroke-linecap="butt"/></g></g></svg>