<svg version="1.1" xmlns="http://www.w3.org/2000/svg" xmlns:xlink="http://www.w3.org/1999/xlink" width="196.9383" height="103.27965" viewBox="0,0,196.9383,103.27965"><g transform="translate(-141.53085,-128.36017)"><g data-paper-data="{&quot;isPaintingLayer&quot;:true}" fill-rule="nonzero" stroke="none" stroke-width="0" stroke-linecap="butt" stroke-linejoin="miter" stroke-miterlimit="10" stroke-dasharray="" stroke-dashoffset="0" style="mix-blend-mode: normal"><path d="M239.96784,145.40846c50.42462,0 92.07627,37.56166 98.50131,86.23137c-9.60036,-0.48328 -19.62074,-0.34142 -30.13995,-0.231c-5.02511,-33.24144 -33.71776,-58.72047 -68.36137,-58.72047c-33.46112,0 -61.37061,26.12113 -67.76479,57.6962c-3.86988,0.13307 -30.31963,0.10278 -30.67219,0.18907c6.6339,-48.4373 48.17766,-85.16516 98.43699,-85.16516z" fill="#cc7392"/><path d="M231.0375,183.67392v-6.375h20.5v6.375z" fill="#ffa9a9"/><path d="M266.8097,165.87798c-8.41664,10.77598 -20.92159,16.48411 -27.93059,12.74946c-7.009,-3.73465 -5.86787,-15.49784 2.54877,-26.27382c8.41664,-10.77598 20.92159,-16.48411 27.93059,-12.74946c7.009,3.73465 5.86787,15.49784 -2.54877,26.27382z" fill="#ffa9a9"/><path d="M211.84153,139.04353c7.009,-3.73465 19.51395,1.97348 27.93059,12.74946c8.41664,10.77598 9.55776,22.53917 2.54877,26.27382c-7.009,3.73465 -19.51395,-1.97348 -27.93059,-12.74946c-8.41664,-10.77598 -9.55776,-22.53917 -2.54877,-26.27382z" data-paper-data="{&quot;index&quot;:null}" fill="#ffa9a9"/><path d="M249.63381,150.99772c1.90986,13.47765 -3.60009,25.22547 -12.30682,26.23947c-8.70673,1.01401 -17.31317,-9.08978 -19.22303,-22.56743c-1.90986,-13.47765 3.60009,-25.22547 12.30682,-26.23947c8.70673,-1.01401 17.31317,9.08978 19.22303,22.56743z" fill="#ffa9a9"/><path d="M251.35486,129.1482c8.70673,1.01401 14.21668,12.76182 12.30682,26.23947c-1.90986,13.47765 -10.5163,23.58144 -19.22303,22.56743c-8.70673,-1.01401 -14.21668,-12.76182 -12.30682,-26.23947c1.90986,-13.47765 10.5163,-23.58144 19.22303,-22.56743z" data-paper-data="{&quot;index&quot;:null}" fill="#ffa9a9"/></g></g></svg>