<svg version="1.1" xmlns="http://www.w3.org/2000/svg" xmlns:xlink="http://www.w3.org/1999/xlink" width="154.83885" height="58.95599" viewBox="0,0,154.83885,58.95599"><g transform="translate(-163.14965,-141.15988)"><g data-paper-data="{&quot;isPaintingLayer&quot;:true}" fill-rule="nonzero" stroke="none" stroke-width="0" stroke-linecap="butt" stroke-linejoin="miter" stroke-miterlimit="10" stroke-dasharray="" stroke-dashoffset="0" style="mix-blend-mode: normal"><path d="M239.96784,145.40846c29.75514,0 56.45546,13.07927 74.66541,33.80226c12.64959,14.39528 -13.95257,27.17801 -22.21439,17.56799c-12.68011,-14.74931 -31.47471,-24.09035 -52.45103,-24.09035c-18.83484,0 -35.9107,8.27628 -48.38049,21.14291c-9.68347,9.99164 -38.24647,-2.04148 -24.98883,-16.42922c18.16883,-19.71755 44.31252,-31.99359 73.36933,-31.99359z" fill="#7eb8d4"/><path d="M233.05644,175.15825v-3.91836h12.60024v3.91836z" fill="#28627f"/><path d="M255.04367,164.22004c-5.17325,6.6234 -12.85936,10.13189 -17.16742,7.8364c-4.30806,-2.29549 -3.60666,-9.52569 1.56659,-16.14909c5.17325,-6.6234 12.85936,-10.13189 17.16742,-7.8364c4.30806,2.29549 3.60666,9.52569 -1.56659,16.14909z" fill="#28627f"/><path d="M221.25773,147.72636c4.30806,-2.29549 11.99417,1.21299 17.16742,7.8364c5.17325,6.6234 5.87464,13.85361 1.56659,16.14909c-4.30806,2.29549 -11.99417,-1.21299 -17.16742,-7.8364c-5.17325,-6.6234 -5.87464,-13.85361 -1.56659,-16.14909z" data-paper-data="{&quot;index&quot;:null}" fill="#28627f"/><path d="M244.48659,155.07395c1.17389,8.28397 -2.21279,15.50473 -7.56434,16.12798c-5.35156,0.62326 -10.64146,-5.587 -11.81535,-13.87097c-1.17389,-8.28397 2.21279,-15.50473 7.56434,-16.12798c5.35156,-0.62326 10.64146,5.587 11.81535,13.87097z" fill="#28627f"/><path d="M245.54443,141.64424c5.35156,0.62326 8.73823,7.844 7.56434,16.12798c-1.17389,8.28397 -6.46379,14.49423 -11.81535,13.87097c-5.35156,-0.62326 -8.73823,-7.844 -7.56434,-16.12798c1.17389,-8.28397 6.46379,-14.49423 11.81535,-13.87097z" data-paper-data="{&quot;index&quot;:null}" fill="#28627f"/><path d="M186.53453,192.51189l-1.62828,-2.19816l7.06859,-5.23603l1.62828,2.19816z" fill="#28627f"/><path d="M194.32375,177.23888c-0.14978,5.8654 -3.00365,11.02759 -6.37431,11.53006c-3.37066,0.50247 -5.9817,-3.84505 -5.83192,-9.71045c0.14978,-5.8654 3.00365,-11.02759 6.37431,-11.53006c3.37066,-0.50247 5.9817,3.84505 5.83192,9.71045z" fill="#28627f"/><path d="M168.51625,182.02588c1.46288,-3.07795 7.23265,-4.30371 12.88715,-2.73779c5.6545,1.56591 9.05248,5.33051 7.5896,8.40846c-1.46288,3.07795 -7.23265,4.30371 -12.88715,2.73779c-5.6545,-1.56591 -9.05248,-5.33051 -7.5896,-8.40846z" data-paper-data="{&quot;index&quot;:null}" fill="#28627f"/><path d="M184.60068,176.49503c4.10095,4.15941 5.20165,9.6175 2.45848,12.19098c-2.74317,2.57348 -8.29142,1.28782 -12.39237,-2.87159c-4.10095,-4.15941 -5.20165,-9.6175 -2.45848,-12.19097c2.74317,-2.57348 8.29142,-1.28783 12.39237,2.87158z" fill="#28627f"/><path d="M179.61339,168.52153c3.26116,-1.8742 8.16162,0.76923 10.94549,5.90425c2.78387,5.13503 2.39697,10.81713 -0.86419,12.69133c-3.26116,1.8742 -8.16162,-0.76922 -10.9455,-5.90425c-2.78387,-5.13503 -2.39696,-10.81714 0.86419,-12.69134z" data-paper-data="{&quot;index&quot;:null}" fill="#28627f"/><path d="M287.19181,186.80184l1.62828,-2.19816l7.0686,5.23603l-1.62828,2.19816z" data-paper-data="{&quot;index&quot;:null}" fill="#28627f"/><path d="M292.30311,167.05441c3.37066,0.50247 6.22454,5.66466 6.37431,11.53006c0.14978,5.86541 -2.46127,10.21292 -5.83193,9.71045c-3.37066,-0.50247 -6.22453,-5.66465 -6.37431,-11.53006c-0.14978,-5.86541 2.46126,-10.21292 5.83192,-9.71045z" data-paper-data="{&quot;index&quot;:null}" fill="#28627f"/><path d="M304.68908,189.96032c-5.65449,1.56591 -11.42427,0.34016 -12.88715,-2.7378c-1.46287,-3.07795 1.93511,-6.84256 7.58961,-8.40847c5.65449,-1.56591 11.42426,-0.34016 12.88715,2.7378c1.46287,3.07795 -1.93511,6.84256 -7.5896,8.40847z" data-paper-data="{&quot;index&quot;:null}" fill="#28627f"/><path d="M308.58662,173.14943c2.74317,2.57348 1.64247,8.03157 -2.45848,12.19098c-4.10095,4.15941 -9.6492,5.44507 -12.39237,2.87159c-2.74317,-2.57348 -1.64247,-8.03156 2.45848,-12.19098c4.10095,-4.15941 9.6492,-5.44506 12.39237,-2.87159z" data-paper-data="{&quot;index&quot;:null}" fill="#28627f"/><path d="M302.04573,180.73884c-2.78388,5.13503 -7.68434,7.77845 -10.94549,5.90425c-3.26116,-1.8742 -3.64806,-7.5563 -0.86419,-12.69133c2.78387,-5.13503 7.68434,-7.77845 10.94549,-5.90425c3.26115,1.8742 3.64807,7.5563 0.86419,12.69133z" data-paper-data="{&quot;index&quot;:null}" fill="#28627f"/></g></g></svg>