<svg version="1.1" xmlns="http://www.w3.org/2000/svg" xmlns:xlink="http://www.w3.org/1999/xlink" width="66.70252" height="55.31374" viewBox="0,0,66.70252,55.31374"><g transform="translate(-206.64874,-152.34313)"><g data-paper-data="{&quot;isPaintingLayer&quot;:true}" fill="#ffffff" fill-rule="nonzero" stroke="none" stroke-width="0" stroke-linecap="butt" stroke-linejoin="miter" stroke-miterlimit="10" stroke-dasharray="" stroke-dashoffset="0" style="mix-blend-mode: normal"><path d="M230.4375,207.65687v-6.375h20.5v6.375z"/><path d="M266.2097,189.86093c-8.41664,10.77598 -20.92159,16.48411 -27.93059,12.74946c-7.009,-3.73465 -5.86787,-15.49784 2.54877,-26.27382c8.41664,-10.77598 20.92159,-16.48411 27.93059,-12.74946c7.009,3.73465 5.86787,15.49784 -2.54877,26.27382z"/><path d="M211.24153,163.02648c7.009,-3.73465 19.51395,1.97348 27.93059,12.74946c8.41664,10.77598 9.55776,22.53917 2.54877,26.27382c-7.009,3.73465 -19.51395,-1.97348 -27.93059,-12.74946c-8.41664,-10.77598 -9.55776,-22.53917 -2.54877,-26.27382z" data-paper-data="{&quot;index&quot;:null}"/><path d="M249.03381,174.98067c1.90986,13.47765 -3.60009,25.22547 -12.30682,26.23947c-8.70673,1.01401 -17.31317,-9.08978 -19.22303,-22.56743c-1.90986,-13.47765 3.60009,-25.22547 12.30682,-26.23947c8.70673,-1.01401 17.31317,9.08978 19.22303,22.56743z"/><path d="M250.75486,153.13115c8.70673,1.01401 14.21668,12.76182 12.30682,26.23947c-1.90986,13.47765 -10.5163,23.58144 -19.22303,22.56743c-8.70673,-1.01401 -14.21668,-12.76182 -12.30682,-26.23947c1.90986,-13.47765 10.5163,-23.58144 19.22303,-22.56743z" data-paper-data="{&quot;index&quot;:null}"/></g></g></svg>